solid ascii
  facet normal 1.449819e-016 -1.756568e-016 -1.000000e+000
    outer loop
      vertex   -4.723014e+001 4.107060e+000 1.700000e-001
      vertex   -3.785537e+001 6.259871e-001 1.700000e-001
      vertex   -5.216255e+001 -9.444621e+000 1.700000e-001
    endloop
  endfacet
  facet normal 1.448796e-016 -1.755115e-016 -1.000000e+000
    outer loop
      vertex   -5.216255e+001 -9.444621e+000 1.700000e-001
      vertex   -3.785537e+001 6.259871e-001 1.700000e-001
      vertex   -4.287440e+001 -1.316368e+001 1.700000e-001
    endloop
  endfacet
  facet normal 9.396926e-001 -3.420201e-001 0.000000e+000
    outer loop
      vertex   -3.785537e+001 6.259871e-001 2.170000e+000
      vertex   -4.287440e+001 -1.316368e+001 2.170000e+000
      vertex   -3.785537e+001 6.259871e-001 1.700000e-001
    endloop
  endfacet
  facet normal 9.396926e-001 -3.420201e-001 0.000000e+000
    outer loop
      vertex   -3.785537e+001 6.259871e-001 1.700000e-001
      vertex   -4.287440e+001 -1.316368e+001 2.170000e+000
      vertex   -4.287440e+001 -1.316368e+001 1.700000e-001
    endloop
  endfacet
  facet normal -9.396926e-001 3.420201e-001 -4.927003e-016
    outer loop
      vertex   -4.723014e+001 4.107060e+000 1.700000e-001
      vertex   -5.216255e+001 -9.444621e+000 1.700000e-001
      vertex   -4.723014e+001 4.107060e+000 2.170000e+000
    endloop
  endfacet
  facet normal -9.396926e-001 3.420201e-001 0.000000e+000
    outer loop
      vertex   -4.723014e+001 4.107060e+000 2.170000e+000
      vertex   -5.216255e+001 -9.444621e+000 1.700000e-001
      vertex   -5.216255e+001 -9.444621e+000 2.170000e+000
    endloop
  endfacet
  facet normal -1.240448e-016 1.762288e-016 1.000000e+000
    outer loop
      vertex   -4.723014e+001 4.107060e+000 2.170000e+000
      vertex   -5.216255e+001 -9.444621e+000 2.170000e+000
      vertex   -3.785537e+001 6.259871e-001 2.170000e+000
    endloop
  endfacet
  facet normal -1.219040e-016 1.731874e-016 1.000000e+000
    outer loop
      vertex   -3.785537e+001 6.259871e-001 2.170000e+000
      vertex   -5.216255e+001 -9.444621e+000 2.170000e+000
      vertex   -4.287440e+001 -1.316368e+001 2.170000e+000
    endloop
  endfacet
  facet normal -1.908405e-018 1.350862e-016 1.000000e+000
    outer loop
      vertex   -4.731521e+001 1.172816e+001 2.170000e+000
      vertex   -3.791829e+001 1.514837e+001 2.170000e+000
      vertex   -5.207687e+001 2.481070e+001 2.170000e+000
    endloop
  endfacet
  facet normal -3.856744e-018 1.322312e-016 1.000000e+000
    outer loop
      vertex   -5.207687e+001 2.481070e+001 2.170000e+000
      vertex   -3.791829e+001 1.514837e+001 2.170000e+000
      vertex   -4.275640e+001 2.844098e+001 2.170000e+000
    endloop
  endfacet
  facet normal 9.396926e-001 3.420201e-001 0.000000e+000
    outer loop
      vertex   -3.791829e+001 1.514837e+001 1.700000e-001
      vertex   -4.275640e+001 2.844098e+001 1.700000e-001
      vertex   -3.791829e+001 1.514837e+001 2.170000e+000
    endloop
  endfacet
  facet normal 9.396926e-001 3.420201e-001 -0.000000e+000
    outer loop
      vertex   -3.791829e+001 1.514837e+001 2.170000e+000
      vertex   -4.275640e+001 2.844098e+001 1.700000e-001
      vertex   -4.275640e+001 2.844098e+001 2.170000e+000
    endloop
  endfacet
  facet normal -9.396926e-001 -3.420201e-001 0.000000e+000
    outer loop
      vertex   -4.731521e+001 1.172816e+001 2.170000e+000
      vertex   -5.207687e+001 2.481070e+001 2.170000e+000
      vertex   -4.731521e+001 1.172816e+001 1.700000e-001
    endloop
  endfacet
  facet normal -9.396926e-001 -3.420201e-001 6.075498e-016
    outer loop
      vertex   -4.731521e+001 1.172816e+001 1.700000e-001
      vertex   -5.207687e+001 2.481070e+001 2.170000e+000
      vertex   -5.207687e+001 2.481070e+001 1.700000e-001
    endloop
  endfacet
  facet normal 1.539257e-017 -1.153273e-016 -1.000000e+000
    outer loop
      vertex   -4.731521e+001 1.172816e+001 1.700000e-001
      vertex   -5.207687e+001 2.481070e+001 1.700000e-001
      vertex   -3.791829e+001 1.514837e+001 1.700000e-001
    endloop
  endfacet
  facet normal 1.333608e-017 -1.183408e-016 -1.000000e+000
    outer loop
      vertex   -3.791829e+001 1.514837e+001 1.700000e-001
      vertex   -5.207687e+001 2.481070e+001 1.700000e-001
      vertex   -4.275640e+001 2.844098e+001 1.700000e-001
    endloop
  endfacet
  facet normal 0.000000e+000 2.220446e-016 1.000000e+000
    outer loop
      vertex   -1.708275e+001 1.273366e+001 2.170000e+000
      vertex   -2.974633e+001 1.273366e+001 2.170000e+000
      vertex   -1.708275e+001 2.733663e+000 2.170000e+000
    endloop
  endfacet
  facet normal 0.000000e+000 2.220446e-016 1.000000e+000
    outer loop
      vertex   -1.708275e+001 2.733663e+000 2.170000e+000
      vertex   -2.974633e+001 1.273366e+001 2.170000e+000
      vertex   -2.974633e+001 2.733663e+000 2.170000e+000
    endloop
  endfacet
  facet normal 0.000000e+000 1.000000e+000 -0.000000e+000
    outer loop
      vertex   -1.708275e+001 1.273366e+001 1.700000e-001
      vertex   -2.974633e+001 1.273366e+001 1.700000e-001
      vertex   -1.708275e+001 1.273366e+001 2.170000e+000
    endloop
  endfacet
  facet normal 0.000000e+000 1.000000e+000 -0.000000e+000
    outer loop
      vertex   -1.708275e+001 1.273366e+001 2.170000e+000
      vertex   -2.974633e+001 1.273366e+001 1.700000e-001
      vertex   -2.974633e+001 1.273366e+001 2.170000e+000
    endloop
  endfacet
  facet normal -0.000000e+000 -1.000000e+000 -0.000000e+000
    outer loop
      vertex   -1.708275e+001 2.733663e+000 2.170000e+000
      vertex   -2.974633e+001 2.733663e+000 2.170000e+000
      vertex   -1.708275e+001 2.733663e+000 1.700000e-001
    endloop
  endfacet
  facet normal -0.000000e+000 -1.000000e+000 -0.000000e+000
    outer loop
      vertex   -1.708275e+001 2.733663e+000 1.700000e-001
      vertex   -2.974633e+001 2.733663e+000 2.170000e+000
      vertex   -2.974633e+001 2.733663e+000 1.700000e-001
    endloop
  endfacet
  facet normal -0.000000e+000 -2.220446e-016 -1.000000e+000
    outer loop
      vertex   -1.708275e+001 2.733663e+000 1.700000e-001
      vertex   -2.974633e+001 2.733663e+000 1.700000e-001
      vertex   -1.708275e+001 1.273366e+001 1.700000e-001
    endloop
  endfacet
  facet normal 0.000000e+000 -2.220446e-016 -1.000000e+000
    outer loop
      vertex   -1.708275e+001 1.273366e+001 1.700000e-001
      vertex   -2.974633e+001 2.733663e+000 1.700000e-001
      vertex   -2.974633e+001 1.273366e+001 1.700000e-001
    endloop
  endfacet
  facet normal 2.461439e-001 6.628825e-001 7.071068e-001
    outer loop
      vertex   -5.184092e+001 7.952583e+000 1.439317e+001
      vertex   -5.470996e+001 7.961875e+000 1.538317e+001
      vertex   -3.174633e+001 4.909865e-001 1.439317e+001
    endloop
  endfacet
  facet normal 2.461439e-001 6.628825e-001 7.071068e-001
    outer loop
      vertex   -3.174633e+001 4.909865e-001 1.439317e+001
      vertex   -5.470996e+001 7.961875e+000 1.538317e+001
      vertex   -3.075633e+001 -9.326718e-001 1.538317e+001
    endloop
  endfacet
  facet normal 2.418450e-001 -6.644629e-001 7.071068e-001
    outer loop
      vertex   -3.075633e+001 1.668029e+001 1.538317e+001
      vertex   -5.470996e+001 7.961875e+000 1.538317e+001
      vertex   -3.174633e+001 1.526642e+001 1.439317e+001
    endloop
  endfacet
  facet normal 2.418450e-001 -6.644629e-001 7.071068e-001
    outer loop
      vertex   -3.174633e+001 1.526642e+001 1.439317e+001
      vertex   -5.470996e+001 7.961875e+000 1.538317e+001
      vertex   -5.184092e+001 7.952583e+000 1.439317e+001
    endloop
  endfacet
  facet normal -7.071068e-001 -8.501095e-017 7.071068e-001
    outer loop
      vertex   -3.174633e+001 1.526642e+001 1.439317e+001
      vertex   -3.174633e+001 4.909865e-001 1.439317e+001
      vertex   -3.075633e+001 1.668029e+001 1.538317e+001
    endloop
  endfacet
  facet normal -7.071068e-001 2.161070e-016 7.071068e-001
    outer loop
      vertex   -3.075633e+001 1.668029e+001 1.538317e+001
      vertex   -3.174633e+001 4.909865e-001 1.439317e+001
      vertex   -3.075633e+001 -9.326718e-001 1.538317e+001
    endloop
  endfacet
  facet normal 3.420204e-001 -9.396925e-001 1.024077e-015
    outer loop
      vertex   -3.174633e+001 1.526642e+001 1.439317e+001
      vertex   -5.184092e+001 7.952583e+000 1.439317e+001
      vertex   -3.174633e+001 1.526642e+001 1.168317e-001
    endloop
  endfacet
  facet normal 3.420204e-001 -9.396925e-001 5.846140e-016
    outer loop
      vertex   -3.174633e+001 1.526642e+001 1.168317e-001
      vertex   -5.184092e+001 7.952583e+000 1.439317e+001
      vertex   -5.184092e+001 7.952583e+000 1.168317e-001
    endloop
  endfacet
  facet normal 3.481000e-001 9.374574e-001 -6.501353e-016
    outer loop
      vertex   -5.184092e+001 7.952583e+000 1.439317e+001
      vertex   -3.174633e+001 4.909865e-001 1.439317e+001
      vertex   -5.184092e+001 7.952583e+000 1.168317e-001
    endloop
  endfacet
  facet normal 3.481000e-001 9.374574e-001 -2.223539e-016
    outer loop
      vertex   -5.184092e+001 7.952583e+000 1.168317e-001
      vertex   -3.174633e+001 4.909865e-001 1.439317e+001
      vertex   -3.174633e+001 4.909865e-001 1.168317e-001
    endloop
  endfacet
  facet normal 1.303878e-018 4.025910e-016 1.000000e+000
    outer loop
      vertex   -5.476792e+001 7.962062e+000 1.538317e+001
      vertex   -5.470996e+001 7.961875e+000 1.538317e+001
      vertex   -3.073633e+001 1.670885e+001 1.538317e+001
    endloop
  endfacet
  facet normal 1.300777e-018 4.016334e-016 1.000000e+000
    outer loop
      vertex   -5.476792e+001 7.962062e+000 1.538317e+001
      vertex   -3.073633e+001 -9.614326e-001 1.538317e+001
      vertex   -5.470996e+001 7.961875e+000 1.538317e+001
    endloop
  endfacet
  facet normal -1.999452e-016 -1.390402e-016 1.000000e+000
    outer loop
      vertex   -5.470996e+001 7.961875e+000 1.538317e+001
      vertex   -3.073633e+001 -9.614326e-001 1.538317e+001
      vertex   -3.075633e+001 -9.326718e-001 1.538317e+001
    endloop
  endfacet
  facet normal 5.782520e-016 4.021116e-016 1.000000e+000
    outer loop
      vertex   -3.075633e+001 -9.326718e-001 1.538317e+001
      vertex   -3.073633e+001 -9.614326e-001 1.538317e+001
      vertex   -3.073633e+001 1.670885e+001 1.538317e+001
    endloop
  endfacet
  facet normal -3.027800e-014 8.339178e-014 1.000000e+000
    outer loop
      vertex   -3.075633e+001 1.668029e+001 1.538317e+001
      vertex   -3.073633e+001 1.670885e+001 1.538317e+001
      vertex   -5.470996e+001 7.961875e+000 1.538317e+001
    endloop
  endfacet
  facet normal 8.838573e-014 3.025652e-016 1.000000e+000
    outer loop
      vertex   -3.075633e+001 1.668029e+001 1.538317e+001
      vertex   -3.075633e+001 -9.326718e-001 1.538317e+001
      vertex   -3.073633e+001 1.670885e+001 1.538317e+001
    endloop
  endfacet
  facet normal -2.418450e-001 6.644629e-001 7.071068e-001
    outer loop
      vertex   -5.476792e+001 7.962062e+000 1.538317e+001
      vertex   -3.073633e+001 1.670885e+001 1.538317e+001
      vertex   -5.763695e+001 7.971354e+000 1.439317e+001
    endloop
  endfacet
  facet normal -2.418450e-001 6.644629e-001 7.071068e-001
    outer loop
      vertex   -5.763695e+001 7.971354e+000 1.439317e+001
      vertex   -3.073633e+001 1.670885e+001 1.538317e+001
      vertex   -2.974633e+001 1.812272e+001 1.439317e+001
    endloop
  endfacet
  facet normal 7.071068e-001 4.899885e-016 7.071068e-001
    outer loop
      vertex   -2.974633e+001 -2.385091e+000 1.439317e+001
      vertex   -2.974633e+001 1.812272e+001 1.439317e+001
      vertex   -3.073633e+001 -9.614326e-001 1.538317e+001
    endloop
  endfacet
  facet normal 7.071068e-001 1.436040e-016 7.071068e-001
    outer loop
      vertex   -3.073633e+001 -9.614326e-001 1.538317e+001
      vertex   -2.974633e+001 1.812272e+001 1.439317e+001
      vertex   -3.073633e+001 1.670885e+001 1.538317e+001
    endloop
  endfacet
  facet normal -2.461439e-001 -6.628825e-001 7.071068e-001
    outer loop
      vertex   -2.974633e+001 -2.385091e+000 1.439317e+001
      vertex   -3.073633e+001 -9.614326e-001 1.538317e+001
      vertex   -5.763695e+001 7.971354e+000 1.439317e+001
    endloop
  endfacet
  facet normal -2.461439e-001 -6.628825e-001 7.071068e-001
    outer loop
      vertex   -5.763695e+001 7.971354e+000 1.439317e+001
      vertex   -3.073633e+001 -9.614326e-001 1.538317e+001
      vertex   -5.476792e+001 7.962062e+000 1.538317e+001
    endloop
  endfacet
  facet normal -3.481000e-001 -9.374574e-001 6.160749e-016
    outer loop
      vertex   -3.785537e+001 6.259871e-001 1.700000e-001
      vertex   -2.974633e+001 -2.385091e+000 1.168317e-001
      vertex   -3.785537e+001 6.259871e-001 2.170000e+000
    endloop
  endfacet
  facet normal -3.481000e-001 -9.374574e-001 1.069100e-013
    outer loop
      vertex   -3.785537e+001 6.259871e-001 1.700000e-001
      vertex   -4.723014e+001 4.107060e+000 1.700000e-001
      vertex   -2.974633e+001 -2.385091e+000 1.168317e-001
    endloop
  endfacet
  facet normal -3.481000e-001 -9.374574e-001 0.000000e+000
    outer loop
      vertex   -2.974633e+001 -2.385091e+000 1.168317e-001
      vertex   -4.723014e+001 4.107060e+000 1.700000e-001
      vertex   -5.763695e+001 7.971354e+000 1.168317e-001
    endloop
  endfacet
  facet normal -3.481000e-001 -9.374574e-001 8.326294e-016
    outer loop
      vertex   -5.763695e+001 7.971354e+000 1.168317e-001
      vertex   -4.723014e+001 4.107060e+000 1.700000e-001
      vertex   -4.723014e+001 4.107060e+000 2.170000e+000
    endloop
  endfacet
  facet normal -3.481000e-001 -9.374574e-001 5.861665e-016
    outer loop
      vertex   -5.763695e+001 7.971354e+000 1.439317e+001
      vertex   -4.723014e+001 4.107060e+000 2.170000e+000
      vertex   -2.974633e+001 -2.385091e+000 1.439317e+001
    endloop
  endfacet
  facet normal -3.481000e-001 -9.374574e-001 5.832235e-016
    outer loop
      vertex   -5.763695e+001 7.971354e+000 1.439317e+001
      vertex   -5.763695e+001 7.971354e+000 1.168317e-001
      vertex   -4.723014e+001 4.107060e+000 2.170000e+000
    endloop
  endfacet
  facet normal -3.481000e-001 -9.374574e-001 4.359720e-016
    outer loop
      vertex   -4.723014e+001 4.107060e+000 2.170000e+000
      vertex   -3.785537e+001 6.259871e-001 2.170000e+000
      vertex   -2.974633e+001 -2.385091e+000 1.439317e+001
    endloop
  endfacet
  facet normal -3.481000e-001 -9.374574e-001 8.055333e-016
    outer loop
      vertex   -2.974633e+001 -2.385091e+000 1.439317e+001
      vertex   -3.785537e+001 6.259871e-001 2.170000e+000
      vertex   -2.974633e+001 -2.385091e+000 1.168317e-001
    endloop
  endfacet
  facet normal -3.420204e-001 9.396925e-001 -1.804144e-013
    outer loop
      vertex   -4.731521e+001 1.172816e+001 1.700000e-001
      vertex   -3.791829e+001 1.514837e+001 1.700000e-001
      vertex   -2.974633e+001 1.812272e+001 1.168317e-001
    endloop
  endfacet
  facet normal -3.420204e-001 9.396925e-001 -5.403140e-014
    outer loop
      vertex   -5.763695e+001 7.971354e+000 1.168317e-001
      vertex   -4.731521e+001 1.172816e+001 1.700000e-001
      vertex   -2.974633e+001 1.812272e+001 1.168317e-001
    endloop
  endfacet
  facet normal -3.420204e-001 9.396925e-001 0.000000e+000
    outer loop
      vertex   -5.763695e+001 7.971354e+000 1.168317e-001
      vertex   -4.731521e+001 1.172816e+001 2.170000e+000
      vertex   -4.731521e+001 1.172816e+001 1.700000e-001
    endloop
  endfacet
  facet normal -3.420204e-001 9.396925e-001 -5.846140e-016
    outer loop
      vertex   -5.763695e+001 7.971354e+000 1.168317e-001
      vertex   -5.763695e+001 7.971354e+000 1.439317e+001
      vertex   -4.731521e+001 1.172816e+001 2.170000e+000
    endloop
  endfacet
  facet normal -3.420204e-001 9.396925e-001 -4.700512e-016
    outer loop
      vertex   -4.731521e+001 1.172816e+001 2.170000e+000
      vertex   -5.763695e+001 7.971354e+000 1.439317e+001
      vertex   -2.974633e+001 1.812272e+001 1.439317e+001
    endloop
  endfacet
  facet normal -3.420204e-001 9.396925e-001 -7.015368e-016
    outer loop
      vertex   -3.791829e+001 1.514837e+001 2.170000e+000
      vertex   -2.974633e+001 1.812272e+001 1.439317e+001
      vertex   -2.974633e+001 1.812272e+001 1.168317e-001
    endloop
  endfacet
  facet normal -3.420204e-001 9.396925e-001 -8.346146e-016
    outer loop
      vertex   -3.791829e+001 1.514837e+001 1.700000e-001
      vertex   -3.791829e+001 1.514837e+001 2.170000e+000
      vertex   -2.974633e+001 1.812272e+001 1.168317e-001
    endloop
  endfacet
  facet normal -3.420204e-001 9.396925e-001 2.325233e-016
    outer loop
      vertex   -3.791829e+001 1.514837e+001 2.170000e+000
      vertex   -4.731521e+001 1.172816e+001 2.170000e+000
      vertex   -2.974633e+001 1.812272e+001 1.439317e+001
    endloop
  endfacet
  facet normal 1.000000e+000 -0.000000e+000 -0.000000e+000
    outer loop
      vertex   -2.974633e+001 1.273366e+001 1.700000e-001
      vertex   -2.974633e+001 1.812272e+001 1.168317e-001
      vertex   -2.974633e+001 1.273366e+001 2.170000e+000
    endloop
  endfacet
  facet normal 1.000000e+000 0.000000e+000 0.000000e+000
    outer loop
      vertex   -2.974633e+001 1.273366e+001 1.700000e-001
      vertex   -2.974633e+001 -2.385091e+000 1.168317e-001
      vertex   -2.974633e+001 1.812272e+001 1.168317e-001
    endloop
  endfacet
  facet normal 1.000000e+000 0.000000e+000 0.000000e+000
    outer loop
      vertex   -2.974633e+001 1.273366e+001 1.700000e-001
      vertex   -2.974633e+001 2.733663e+000 1.700000e-001
      vertex   -2.974633e+001 -2.385091e+000 1.168317e-001
    endloop
  endfacet
  facet normal 1.000000e+000 0.000000e+000 0.000000e+000
    outer loop
      vertex   -2.974633e+001 -2.385091e+000 1.168317e-001
      vertex   -2.974633e+001 2.733663e+000 1.700000e-001
      vertex   -2.974633e+001 2.733663e+000 2.170000e+000
    endloop
  endfacet
  facet normal 1.000000e+000 0.000000e+000 0.000000e+000
    outer loop
      vertex   -2.974633e+001 -2.385091e+000 1.439317e+001
      vertex   -2.974633e+001 2.733663e+000 2.170000e+000
      vertex   -2.974633e+001 1.273366e+001 2.170000e+000
    endloop
  endfacet
  facet normal 1.000000e+000 0.000000e+000 0.000000e+000
    outer loop
      vertex   -2.974633e+001 1.812272e+001 1.439317e+001
      vertex   -2.974633e+001 1.273366e+001 2.170000e+000
      vertex   -2.974633e+001 1.812272e+001 1.168317e-001
    endloop
  endfacet
  facet normal 1.000000e+000 0.000000e+000 0.000000e+000
    outer loop
      vertex   -2.974633e+001 1.812272e+001 1.439317e+001
      vertex   -2.974633e+001 -2.385091e+000 1.439317e+001
      vertex   -2.974633e+001 1.273366e+001 2.170000e+000
    endloop
  endfacet
  facet normal 1.000000e+000 0.000000e+000 -0.000000e+000
    outer loop
      vertex   -2.974633e+001 -2.385091e+000 1.168317e-001
      vertex   -2.974633e+001 2.733663e+000 2.170000e+000
      vertex   -2.974633e+001 -2.385091e+000 1.439317e+001
    endloop
  endfacet
  facet normal -1.000000e+000 -4.808945e-016 1.196722e-031
    outer loop
      vertex   -3.174633e+001 4.909865e-001 1.439317e+001
      vertex   -3.174633e+001 1.526642e+001 1.439317e+001
      vertex   -3.174633e+001 4.909865e-001 1.168317e-001
    endloop
  endfacet
  facet normal -1.000000e+000 -2.393444e-031 -4.977066e-016
    outer loop
      vertex   -3.174633e+001 4.909865e-001 1.168317e-001
      vertex   -3.174633e+001 1.526642e+001 1.439317e+001
      vertex   -3.174633e+001 1.526642e+001 1.168317e-001
    endloop
  endfacet
  facet normal -4.671030e-016 -3.248195e-016 -1.000000e+000
    outer loop
      vertex   -2.974633e+001 -2.385091e+000 1.168317e-001
      vertex   -3.174633e+001 4.909865e-001 1.168317e-001
      vertex   -2.974633e+001 1.812272e+001 1.168317e-001
    endloop
  endfacet
  facet normal 2.979292e-016 2.071775e-016 -1.000000e+000
    outer loop
      vertex   -2.974633e+001 -2.385091e+000 1.168317e-001
      vertex   -5.184092e+001 7.952583e+000 1.168317e-001
      vertex   -3.174633e+001 4.909865e-001 1.168317e-001
    endloop
  endfacet
  facet normal -1.400996e-018 -4.325776e-016 -1.000000e+000
    outer loop
      vertex   -2.974633e+001 -2.385091e+000 1.168317e-001
      vertex   -5.763695e+001 7.971354e+000 1.168317e-001
      vertex   -5.184092e+001 7.952583e+000 1.168317e-001
    endloop
  endfacet
  facet normal -7.021684e-019 -2.168045e-016 -1.000000e+000
    outer loop
      vertex   -5.184092e+001 7.952583e+000 1.168317e-001
      vertex   -5.763695e+001 7.971354e+000 1.168317e-001
      vertex   -2.974633e+001 1.812272e+001 1.168317e-001
    endloop
  endfacet
  facet normal 6.438645e-016 -4.508386e-016 -1.000000e+000
    outer loop
      vertex   -3.174633e+001 1.526642e+001 1.168317e-001
      vertex   -2.974633e+001 1.812272e+001 1.168317e-001
      vertex   -3.174633e+001 4.909865e-001 1.168317e-001
    endloop
  endfacet
  facet normal -1.482928e-016 1.038357e-016 -1.000000e+000
    outer loop
      vertex   -3.174633e+001 1.526642e+001 1.168317e-001
      vertex   -5.184092e+001 7.952583e+000 1.168317e-001
      vertex   -2.974633e+001 1.812272e+001 1.168317e-001
    endloop
  endfacet
  facet normal -7.071068e-001 5.261229e-016 7.071068e-001
    outer loop
      vertex   9.800000e-001 -3.178980e+001 1.538317e+001
      vertex   9.800000e-001 -1.313812e+001 1.538317e+001
      vertex   -1.000000e-002 -3.032699e+001 1.439317e+001
    endloop
  endfacet
  facet normal -7.071068e-001 3.362350e-017 7.071068e-001
    outer loop
      vertex   -1.000000e-002 -3.032699e+001 1.439317e+001
      vertex   9.800000e-001 -1.313812e+001 1.538317e+001
      vertex   -1.000000e-002 -1.381820e+001 1.439317e+001
    endloop
  endfacet
  facet normal -2.537037e-001 -6.600261e-001 7.071068e-001
    outer loop
      vertex   -1.609275e+001 -6.575619e+000 1.538317e+001
      vertex   -1.708275e+001 -7.255696e+000 1.439317e+001
      vertex   9.800000e-001 -1.313812e+001 1.538317e+001
    endloop
  endfacet
  facet normal -2.537037e-001 -6.600261e-001 7.071068e-001
    outer loop
      vertex   9.800000e-001 -1.313812e+001 1.538317e+001
      vertex   -1.708275e+001 -7.255696e+000 1.439317e+001
      vertex   -1.000000e-002 -1.381820e+001 1.439317e+001
    endloop
  endfacet
  facet normal -2.414886e-001 6.645926e-001 7.071068e-001
    outer loop
      vertex   -1.000000e-002 2.899186e+001 1.439317e+001
      vertex   -1.708275e+001 2.278825e+001 1.439317e+001
      vertex   9.800000e-001 2.829826e+001 1.538317e+001
    endloop
  endfacet
  facet normal -2.414886e-001 6.645926e-001 7.071068e-001
    outer loop
      vertex   9.800000e-001 2.829826e+001 1.538317e+001
      vertex   -1.708275e+001 2.278825e+001 1.439317e+001
      vertex   -1.609275e+001 2.209465e+001 1.538317e+001
    endloop
  endfacet
  facet normal -7.071068e-001 1.314331e-016 7.071068e-001
    outer loop
      vertex   -1.609275e+001 -6.575619e+000 1.538317e+001
      vertex   -1.609275e+001 2.209465e+001 1.538317e+001
      vertex   -1.708275e+001 -7.255696e+000 1.439317e+001
    endloop
  endfacet
  facet normal -7.071068e-001 1.662814e-016 7.071068e-001
    outer loop
      vertex   -1.708275e+001 -7.255696e+000 1.439317e+001
      vertex   -1.609275e+001 2.209465e+001 1.538317e+001
      vertex   -1.708275e+001 2.278825e+001 1.439317e+001
    endloop
  endfacet
  facet normal -7.071068e-001 3.448014e-017 7.071068e-001
    outer loop
      vertex   -1.000000e-002 2.899186e+001 1.439317e+001
      vertex   9.800000e-001 2.829826e+001 1.538317e+001
      vertex   -1.000000e-002 4.509050e+001 1.439317e+001
    endloop
  endfacet
  facet normal -7.071068e-001 9.597732e-016 7.071068e-001
    outer loop
      vertex   -1.000000e-002 4.509050e+001 1.439317e+001
      vertex   9.800000e-001 2.829826e+001 1.538317e+001
      vertex   9.800000e-001 4.653854e+001 1.538317e+001
    endloop
  endfacet
  facet normal 2.566352e-001 -6.588918e-001 7.071068e-001
    outer loop
      vertex   -7.616113e+001 1.649244e+001 1.538317e+001
      vertex   -7.517113e+001 1.581559e+001 1.439317e+001
      vertex   -3.759057e+001 3.151549e+001 1.538317e+001
    endloop
  endfacet
  facet normal 2.566352e-001 -6.588918e-001 7.071068e-001
    outer loop
      vertex   -3.759057e+001 3.151549e+001 1.538317e+001
      vertex   -7.517113e+001 1.581559e+001 1.439317e+001
      vertex   -3.759057e+001 3.045304e+001 1.439317e+001
    endloop
  endfacet
  facet normal 2.566352e-001 -6.588918e-001 7.071068e-001
    outer loop
      vertex   -1.000000e-002 4.509050e+001 1.439317e+001
      vertex   -3.759057e+001 3.151549e+001 1.538317e+001
      vertex   -3.759057e+001 3.045304e+001 1.439317e+001
    endloop
  endfacet
  facet normal 2.566352e-001 -6.588918e-001 7.071068e-001
    outer loop
      vertex   -1.000000e-002 4.509050e+001 1.439317e+001
      vertex   9.800000e-001 4.653854e+001 1.538317e+001
      vertex   -3.759057e+001 3.151549e+001 1.538317e+001
    endloop
  endfacet
  facet normal 7.071068e-001 3.913646e-016 7.071068e-001
    outer loop
      vertex   -7.517113e+001 -2.317705e-001 1.439317e+001
      vertex   -7.517113e+001 1.581559e+001 1.439317e+001
      vertex   -7.616113e+001 -9.017785e-001 1.538317e+001
    endloop
  endfacet
  facet normal 7.071068e-001 2.872075e-016 7.071068e-001
    outer loop
      vertex   -7.616113e+001 -9.017785e-001 1.538317e+001
      vertex   -7.517113e+001 1.581559e+001 1.439317e+001
      vertex   -7.616113e+001 1.649244e+001 1.538317e+001
    endloop
  endfacet
  facet normal 2.628445e-001 6.564395e-001 7.071068e-001
    outer loop
      vertex   9.800000e-001 -3.178980e+001 1.538317e+001
      vertex   -1.000000e-002 -3.032699e+001 1.439317e+001
      vertex   -3.759057e+001 -1.634579e+001 1.538317e+001
    endloop
  endfacet
  facet normal 2.628445e-001 6.564395e-001 7.071068e-001
    outer loop
      vertex   -3.759057e+001 -1.634579e+001 1.538317e+001
      vertex   -1.000000e-002 -3.032699e+001 1.439317e+001
      vertex   -3.759057e+001 -1.527938e+001 1.439317e+001
    endloop
  endfacet
  facet normal 2.628445e-001 6.564395e-001 7.071068e-001
    outer loop
      vertex   -7.517113e+001 -2.317705e-001 1.439317e+001
      vertex   -3.759057e+001 -1.634579e+001 1.538317e+001
      vertex   -3.759057e+001 -1.527938e+001 1.439317e+001
    endloop
  endfacet
  facet normal 2.628445e-001 6.564395e-001 7.071068e-001
    outer loop
      vertex   -7.517113e+001 -2.317705e-001 1.439317e+001
      vertex   -7.616113e+001 -9.017785e-001 1.538317e+001
      vertex   -3.759057e+001 -1.634579e+001 1.538317e+001
    endloop
  endfacet
  facet normal -1.000000e+000 -6.115585e-017 -1.338839e-032
    outer loop
      vertex   -1.000000e-002 -3.032699e+001 1.439317e+001
      vertex   -1.000000e-002 -1.381820e+001 1.439317e+001
      vertex   -1.000000e-002 -3.032699e+001 1.168317e-001
    endloop
  endfacet
  facet normal -1.000000e+000 -4.016518e-032 -7.071906e-017
    outer loop
      vertex   -1.000000e-002 -3.032699e+001 1.168317e-001
      vertex   -1.000000e-002 -1.381820e+001 1.439317e+001
      vertex   -1.000000e-002 -1.381820e+001 1.168317e-001
    endloop
  endfacet
  facet normal -3.587912e-001 -9.334178e-001 1.088444e-016
    outer loop
      vertex   -1.000000e-002 -1.381820e+001 1.439317e+001
      vertex   -1.708275e+001 -7.255696e+000 1.439317e+001
      vertex   -1.000000e-002 -1.381820e+001 1.168317e-001
    endloop
  endfacet
  facet normal -3.587912e-001 -9.334178e-001 5.807103e-017
    outer loop
      vertex   -1.000000e-002 -1.381820e+001 1.168317e-001
      vertex   -1.708275e+001 -7.255696e+000 1.439317e+001
      vertex   -1.708275e+001 -7.255696e+000 1.168317e-001
    endloop
  endfacet
  facet normal -1.000000e+000 3.533426e-016 0.000000e+000
    outer loop
      vertex   -1.708275e+001 1.273366e+001 2.170000e+000
      vertex   -1.708275e+001 2.278825e+001 1.168317e-001
      vertex   -1.708275e+001 1.273366e+001 1.700000e-001
    endloop
  endfacet
  facet normal -1.000000e+000 3.025262e-016 -2.488533e-016
    outer loop
      vertex   -1.708275e+001 1.273366e+001 2.170000e+000
      vertex   -1.708275e+001 2.278825e+001 1.439317e+001
      vertex   -1.708275e+001 2.278825e+001 1.168317e-001
    endloop
  endfacet
  facet normal -1.000000e+000 -1.182506e-016 9.727106e-017
    outer loop
      vertex   -1.708275e+001 1.273366e+001 2.170000e+000
      vertex   -1.708275e+001 -7.255696e+000 1.439317e+001
      vertex   -1.708275e+001 2.278825e+001 1.439317e+001
    endloop
  endfacet
  facet normal -1.000000e+000 6.453817e-032 2.906541e-016
    outer loop
      vertex   -1.708275e+001 1.273366e+001 2.170000e+000
      vertex   -1.708275e+001 2.733663e+000 2.170000e+000
      vertex   -1.708275e+001 -7.255696e+000 1.439317e+001
    endloop
  endfacet
  facet normal -1.000000e+000 -3.556498e-016 0.000000e+000
    outer loop
      vertex   -1.708275e+001 -7.255696e+000 1.439317e+001
      vertex   -1.708275e+001 2.733663e+000 2.170000e+000
      vertex   -1.708275e+001 -7.255696e+000 1.168317e-001
    endloop
  endfacet
  facet normal -1.000000e+000 -3.556498e-016 -0.000000e+000
    outer loop
      vertex   -1.708275e+001 -7.255696e+000 1.168317e-001
      vertex   -1.708275e+001 2.733663e+000 2.170000e+000
      vertex   -1.708275e+001 2.733663e+000 1.700000e-001
    endloop
  endfacet
  facet normal -1.000000e+000 -1.483705e-029 -6.682015e-014
    outer loop
      vertex   -1.708275e+001 1.273366e+001 1.700000e-001
      vertex   -1.708275e+001 -7.255696e+000 1.168317e-001
      vertex   -1.708275e+001 2.733663e+000 1.700000e-001
    endloop
  endfacet
  facet normal -1.000000e+000 -2.963070e-029 -6.682015e-014
    outer loop
      vertex   -1.708275e+001 1.273366e+001 1.700000e-001
      vertex   -1.708275e+001 2.278825e+001 1.168317e-001
      vertex   -1.708275e+001 -7.255696e+000 1.168317e-001
    endloop
  endfacet
  facet normal -3.415164e-001 9.398758e-001 -8.219806e-016
    outer loop
      vertex   -1.708275e+001 2.278825e+001 1.439317e+001
      vertex   -1.000000e-002 2.899186e+001 1.439317e+001
      vertex   -1.708275e+001 2.278825e+001 1.168317e-001
    endloop
  endfacet
  facet normal -3.415164e-001 9.398758e-001 -7.016736e-016
    outer loop
      vertex   -1.708275e+001 2.278825e+001 1.168317e-001
      vertex   -1.000000e-002 2.899186e+001 1.439317e+001
      vertex   -1.000000e-002 2.899186e+001 1.168317e-001
    endloop
  endfacet
  facet normal 6.851278e-017 9.779060e-017 1.000000e+000
    outer loop
      vertex   1.000000e+000 2.828425e+001 1.538317e+001
      vertex   9.800000e-001 2.829826e+001 1.538317e+001
      vertex   -1.607275e+001 2.208064e+001 1.538317e+001
    endloop
  endfacet
  facet normal 2.729187e-016 3.895460e-016 1.000000e+000
    outer loop
      vertex   1.000000e+000 2.828425e+001 1.538317e+001
      vertex   9.800000e-001 4.653854e+001 1.538317e+001
      vertex   9.800000e-001 2.829826e+001 1.538317e+001
    endloop
  endfacet
  facet normal -8.924416e-014 2.914681e-016 1.000000e+000
    outer loop
      vertex   1.000000e+000 2.828425e+001 1.538317e+001
      vertex   1.000000e+000 4.656779e+001 1.538317e+001
      vertex   9.800000e-001 4.653854e+001 1.538317e+001
    endloop
  endfacet
  facet normal 3.236075e-014 -8.284747e-014 1.000000e+000
    outer loop
      vertex   9.800000e-001 4.653854e+001 1.538317e+001
      vertex   1.000000e+000 4.656779e+001 1.538317e+001
      vertex   -3.759057e+001 3.153695e+001 1.538317e+001
    endloop
  endfacet
  facet normal 1.381642e-016 1.829552e-028 1.000000e+000
    outer loop
      vertex   -3.759057e+001 3.151549e+001 1.538317e+001
      vertex   -3.759057e+001 3.153695e+001 1.538317e+001
      vertex   -7.616113e+001 1.649244e+001 1.538317e+001
    endloop
  endfacet
  facet normal 1.381642e-016 1.829552e-028 1.000000e+000
    outer loop
      vertex   -3.759057e+001 3.151549e+001 1.538317e+001
      vertex   9.800000e-001 4.653854e+001 1.538317e+001
      vertex   -3.759057e+001 3.153695e+001 1.538317e+001
    endloop
  endfacet
  facet normal 8.797367e-017 1.286765e-016 1.000000e+000
    outer loop
      vertex   -3.759057e+001 3.153695e+001 1.538317e+001
      vertex   -7.618113e+001 1.650611e+001 1.538317e+001
      vertex   -7.616113e+001 1.649244e+001 1.538317e+001
    endloop
  endfacet
  facet normal 2.091323e-016 3.058918e-016 1.000000e+000
    outer loop
      vertex   -7.616113e+001 1.649244e+001 1.538317e+001
      vertex   -7.618113e+001 1.650611e+001 1.538317e+001
      vertex   -7.618113e+001 -9.153140e-001 1.538317e+001
    endloop
  endfacet
  facet normal -3.315981e-014 -8.223999e-014 1.000000e+000
    outer loop
      vertex   -7.616113e+001 -9.017785e-001 1.538317e+001
      vertex   -7.618113e+001 -9.153140e-001 1.538317e+001
      vertex   -3.759057e+001 -1.636733e+001 1.538317e+001
    endloop
  endfacet
  facet normal -4.605473e-017 0.000000e+000 1.000000e+000
    outer loop
      vertex   -3.759057e+001 -1.634579e+001 1.538317e+001
      vertex   -3.759057e+001 -1.636733e+001 1.538317e+001
      vertex   9.800000e-001 -3.178980e+001 1.538317e+001
    endloop
  endfacet
  facet normal -1.842189e-016 0.000000e+000 1.000000e+000
    outer loop
      vertex   -3.759057e+001 -1.634579e+001 1.538317e+001
      vertex   -7.616113e+001 -9.017785e-001 1.538317e+001
      vertex   -3.759057e+001 -1.636733e+001 1.538317e+001
    endloop
  endfacet
  facet normal -8.909430e-014 4.084937e-016 1.000000e+000
    outer loop
      vertex   -7.616113e+001 1.649244e+001 1.538317e+001
      vertex   -7.618113e+001 -9.153140e-001 1.538317e+001
      vertex   -7.616113e+001 -9.017785e-001 1.538317e+001
    endloop
  endfacet
  facet normal 3.288893e-014 8.236819e-014 1.000000e+000
    outer loop
      vertex   -3.759057e+001 -1.636733e+001 1.538317e+001
      vertex   1.000000e+000 -3.181936e+001 1.538317e+001
      vertex   9.800000e-001 -3.178980e+001 1.538317e+001
    endloop
  endfacet
  facet normal -8.811585e-014 4.750894e-016 1.000000e+000
    outer loop
      vertex   9.800000e-001 -3.178980e+001 1.538317e+001
      vertex   1.000000e+000 -3.181936e+001 1.538317e+001
      vertex   1.000000e+000 -1.312438e+001 1.538317e+001
    endloop
  endfacet
  facet normal -6.671540e-017 9.711867e-017 1.000000e+000
    outer loop
      vertex   9.800000e-001 -1.313812e+001 1.538317e+001
      vertex   1.000000e+000 -1.312438e+001 1.538317e+001
      vertex   -1.607275e+001 -6.561880e+000 1.538317e+001
    endloop
  endfacet
  facet normal -2.130161e-016 3.100909e-016 1.000000e+000
    outer loop
      vertex   -1.609275e+001 -6.575619e+000 1.538317e+001
      vertex   -1.607275e+001 -6.561880e+000 1.538317e+001
      vertex   -1.607275e+001 2.208064e+001 1.538317e+001
    endloop
  endfacet
  facet normal 6.851278e-017 9.779060e-017 1.000000e+000
    outer loop
      vertex   -1.609275e+001 2.209465e+001 1.538317e+001
      vertex   -1.607275e+001 2.208064e+001 1.538317e+001
      vertex   9.800000e-001 2.829826e+001 1.538317e+001
    endloop
  endfacet
  facet normal 2.170416e-016 3.097908e-016 1.000000e+000
    outer loop
      vertex   -1.609275e+001 2.209465e+001 1.538317e+001
      vertex   -1.609275e+001 -6.575619e+000 1.538317e+001
      vertex   -1.607275e+001 2.208064e+001 1.538317e+001
    endloop
  endfacet
  facet normal -2.616950e-016 3.809536e-016 1.000000e+000
    outer loop
      vertex   9.800000e-001 -3.178980e+001 1.538317e+001
      vertex   1.000000e+000 -1.312438e+001 1.538317e+001
      vertex   9.800000e-001 -1.313812e+001 1.538317e+001
    endloop
  endfacet
  facet normal -6.671540e-017 9.711867e-017 1.000000e+000
    outer loop
      vertex   9.800000e-001 -1.313812e+001 1.538317e+001
      vertex   -1.607275e+001 -6.561880e+000 1.538317e+001
      vertex   -1.609275e+001 -6.575619e+000 1.538317e+001
    endloop
  endfacet
  facet normal 2.414886e-001 -6.645926e-001 7.071068e-001
    outer loop
      vertex   1.000000e+000 2.828425e+001 1.538317e+001
      vertex   -1.607275e+001 2.208064e+001 1.538317e+001
      vertex   1.990000e+000 2.759065e+001 1.439317e+001
    endloop
  endfacet
  facet normal 2.414886e-001 -6.645926e-001 7.071068e-001
    outer loop
      vertex   1.990000e+000 2.759065e+001 1.439317e+001
      vertex   -1.607275e+001 2.208064e+001 1.538317e+001
      vertex   -1.508275e+001 2.138704e+001 1.439317e+001
    endloop
  endfacet
  facet normal 7.071068e-001 4.606262e-016 7.071068e-001
    outer loop
      vertex   -1.508275e+001 -5.881802e+000 1.439317e+001
      vertex   -1.508275e+001 2.138704e+001 1.439317e+001
      vertex   -1.607275e+001 -6.561880e+000 1.538317e+001
    endloop
  endfacet
  facet normal 7.071068e-001 3.073066e-016 7.071068e-001
    outer loop
      vertex   -1.607275e+001 -6.561880e+000 1.538317e+001
      vertex   -1.508275e+001 2.138704e+001 1.439317e+001
      vertex   -1.607275e+001 2.208064e+001 1.538317e+001
    endloop
  endfacet
  facet normal 2.537037e-001 6.600261e-001 7.071068e-001
    outer loop
      vertex   -1.508275e+001 -5.881802e+000 1.439317e+001
      vertex   -1.607275e+001 -6.561880e+000 1.538317e+001
      vertex   1.990000e+000 -1.244430e+001 1.439317e+001
    endloop
  endfacet
  facet normal 2.537037e-001 6.600261e-001 7.071068e-001
    outer loop
      vertex   1.990000e+000 -1.244430e+001 1.439317e+001
      vertex   -1.607275e+001 -6.561880e+000 1.538317e+001
      vertex   1.000000e+000 -1.312438e+001 1.538317e+001
    endloop
  endfacet
  facet normal 7.071068e-001 4.120247e-016 7.071068e-001
    outer loop
      vertex   1.000000e+000 2.828425e+001 1.538317e+001
      vertex   1.990000e+000 2.759065e+001 1.439317e+001
      vertex   1.000000e+000 4.656779e+001 1.538317e+001
    endloop
  endfacet
  facet normal 7.071068e-001 2.844205e-016 7.071068e-001
    outer loop
      vertex   1.000000e+000 4.656779e+001 1.538317e+001
      vertex   1.990000e+000 2.759065e+001 1.439317e+001
      vertex   1.990000e+000 4.801584e+001 1.439317e+001
    endloop
  endfacet
  facet normal 7.071068e-001 1.883701e-016 7.071068e-001
    outer loop
      vertex   1.990000e+000 -3.328217e+001 1.439317e+001
      vertex   1.990000e+000 -1.244430e+001 1.439317e+001
      vertex   1.000000e+000 -3.181936e+001 1.538317e+001
    endloop
  endfacet
  facet normal 7.071068e-001 3.011574e-016 7.071068e-001
    outer loop
      vertex   1.000000e+000 -3.181936e+001 1.538317e+001
      vertex   1.990000e+000 -1.244430e+001 1.439317e+001
      vertex   1.000000e+000 -1.312438e+001 1.538317e+001
    endloop
  endfacet
  facet normal -2.566352e-001 6.588918e-001 7.071068e-001
    outer loop
      vertex   -7.717113e+001 1.718295e+001 1.439317e+001
      vertex   -7.618113e+001 1.650611e+001 1.538317e+001
      vertex   -3.759057e+001 3.259940e+001 1.439317e+001
    endloop
  endfacet
  facet normal -2.566352e-001 6.588918e-001 7.071068e-001
    outer loop
      vertex   -3.759057e+001 3.259940e+001 1.439317e+001
      vertex   -7.618113e+001 1.650611e+001 1.538317e+001
      vertex   -3.759057e+001 3.153695e+001 1.538317e+001
    endloop
  endfacet
  facet normal -2.566352e-001 6.588918e-001 7.071068e-001
    outer loop
      vertex   1.000000e+000 4.656779e+001 1.538317e+001
      vertex   -3.759057e+001 3.259940e+001 1.439317e+001
      vertex   -3.759057e+001 3.153695e+001 1.538317e+001
    endloop
  endfacet
  facet normal -2.566352e-001 6.588918e-001 7.071068e-001
    outer loop
      vertex   1.000000e+000 4.656779e+001 1.538317e+001
      vertex   1.990000e+000 4.801584e+001 1.439317e+001
      vertex   -3.759057e+001 3.259940e+001 1.439317e+001
    endloop
  endfacet
  facet normal -2.628445e-001 -6.564395e-001 7.071068e-001
    outer loop
      vertex   -7.717113e+001 -1.585322e+000 1.439317e+001
      vertex   -3.759057e+001 -1.743375e+001 1.439317e+001
      vertex   -7.618113e+001 -9.153140e-001 1.538317e+001
    endloop
  endfacet
  facet normal -2.628445e-001 -6.564395e-001 7.071068e-001
    outer loop
      vertex   -7.618113e+001 -9.153140e-001 1.538317e+001
      vertex   -3.759057e+001 -1.743375e+001 1.439317e+001
      vertex   -3.759057e+001 -1.636733e+001 1.538317e+001
    endloop
  endfacet
  facet normal -2.628445e-001 -6.564395e-001 7.071068e-001
    outer loop
      vertex   -3.759057e+001 -1.636733e+001 1.538317e+001
      vertex   -3.759057e+001 -1.743375e+001 1.439317e+001
      vertex   1.000000e+000 -3.181936e+001 1.538317e+001
    endloop
  endfacet
  facet normal -2.628445e-001 -6.564395e-001 7.071068e-001
    outer loop
      vertex   1.000000e+000 -3.181936e+001 1.538317e+001
      vertex   -3.759057e+001 -1.743375e+001 1.439317e+001
      vertex   1.990000e+000 -3.328217e+001 1.439317e+001
    endloop
  endfacet
  facet normal -7.071068e-001 2.007761e-016 7.071068e-001
    outer loop
      vertex   -7.717113e+001 1.718295e+001 1.439317e+001
      vertex   -7.717113e+001 -1.585322e+000 1.439317e+001
      vertex   -7.618113e+001 1.650611e+001 1.538317e+001
    endloop
  endfacet
  facet normal -7.071068e-001 2.184830e-016 7.071068e-001
    outer loop
      vertex   -7.618113e+001 1.650611e+001 1.538317e+001
      vertex   -7.717113e+001 -1.585322e+000 1.439317e+001
      vertex   -7.618113e+001 -9.153140e-001 1.538317e+001
    endloop
  endfacet
  facet normal -1.000000e+000 2.826380e-031 9.954133e-016
    outer loop
      vertex   -7.717113e+001 -1.585322e+000 1.439317e+001
      vertex   -7.717113e+001 1.718295e+001 1.439317e+001
      vertex   -7.717113e+001 -1.585322e+000 1.168317e-001
    endloop
  endfacet
  facet normal -1.000000e+000 7.571742e-016 -3.768506e-031
    outer loop
      vertex   -7.717113e+001 -1.585322e+000 1.168317e-001
      vertex   -7.717113e+001 1.718295e+001 1.439317e+001
      vertex   -7.717113e+001 1.718295e+001 1.168317e-001
    endloop
  endfacet
  facet normal -3.629370e-001 9.318137e-001 -3.749475e-016
    outer loop
      vertex   -7.717113e+001 1.718295e+001 1.439317e+001
      vertex   -3.759057e+001 3.259940e+001 1.439317e+001
      vertex   -7.717113e+001 1.718295e+001 1.168317e-001
    endloop
  endfacet
  facet normal -3.629370e-001 9.318137e-001 -2.831337e-016
    outer loop
      vertex   -7.717113e+001 1.718295e+001 1.168317e-001
      vertex   -3.759057e+001 3.259940e+001 1.439317e+001
      vertex   -3.759057e+001 3.259940e+001 1.168317e-001
    endloop
  endfacet
  facet normal -3.629370e-001 9.318137e-001 -2.831337e-016
    outer loop
      vertex   -3.759057e+001 3.259940e+001 1.168317e-001
      vertex   -3.759057e+001 3.259940e+001 1.439317e+001
      vertex   1.990000e+000 4.801584e+001 1.439317e+001
    endloop
  endfacet
  facet normal -3.629370e-001 9.318137e-001 0.000000e+000
    outer loop
      vertex   1.990000e+000 4.801584e+001 1.168317e-001
      vertex   -3.759057e+001 3.259940e+001 1.168317e-001
      vertex   1.990000e+000 4.801584e+001 1.439317e+001
    endloop
  endfacet
  facet normal 1.000000e+000 -3.261335e-017 9.331999e-017
    outer loop
      vertex   1.990000e+000 4.801584e+001 1.439317e+001
      vertex   1.990000e+000 2.759065e+001 1.439317e+001
      vertex   1.990000e+000 4.801584e+001 1.168317e-001
    endloop
  endfacet
  facet normal 1.000000e+000 -6.522670e-017 4.666000e-017
    outer loop
      vertex   1.990000e+000 4.801584e+001 1.168317e-001
      vertex   1.990000e+000 2.759065e+001 1.439317e+001
      vertex   1.990000e+000 2.759065e+001 1.168317e-001
    endloop
  endfacet
  facet normal 3.415164e-001 -9.398758e-001 7.123832e-016
    outer loop
      vertex   1.990000e+000 2.759065e+001 1.439317e+001
      vertex   -1.508275e+001 2.138704e+001 1.439317e+001
      vertex   1.990000e+000 2.759065e+001 1.168317e-001
    endloop
  endfacet
  facet normal 3.415164e-001 -9.398758e-001 7.866611e-016
    outer loop
      vertex   1.990000e+000 2.759065e+001 1.168317e-001
      vertex   -1.508275e+001 2.138704e+001 1.439317e+001
      vertex   -1.508275e+001 2.138704e+001 1.168317e-001
    endloop
  endfacet
  facet normal -1.000000e+000 -6.131314e-017 5.491799e-032
    outer loop
      vertex   -1.000000e-002 2.899186e+001 1.439317e+001
      vertex   -1.000000e-002 4.509050e+001 1.439317e+001
      vertex   -1.000000e-002 2.899186e+001 1.168317e-001
    endloop
  endfacet
  facet normal -1.000000e+000 -4.805324e-032 -6.913942e-017
    outer loop
      vertex   -1.000000e-002 2.899186e+001 1.168317e-001
      vertex   -1.000000e-002 4.509050e+001 1.439317e+001
      vertex   -1.000000e-002 4.509050e+001 1.168317e-001
    endloop
  endfacet
  facet normal 3.629370e-001 -9.318137e-001 0.000000e+000
    outer loop
      vertex   -4.275640e+001 2.844098e+001 1.700000e-001
      vertex   -3.759057e+001 3.045304e+001 1.168317e-001
      vertex   -4.275640e+001 2.844098e+001 2.170000e+000
    endloop
  endfacet
  facet normal 3.629370e-001 -9.318137e-001 -2.004104e-013
    outer loop
      vertex   -4.275640e+001 2.844098e+001 1.700000e-001
      vertex   -5.207687e+001 2.481070e+001 1.700000e-001
      vertex   -3.759057e+001 3.045304e+001 1.168317e-001
    endloop
  endfacet
  facet normal 3.629370e-001 -9.318137e-001 -1.590540e-013
    outer loop
      vertex   -3.759057e+001 3.045304e+001 1.168317e-001
      vertex   -5.207687e+001 2.481070e+001 1.700000e-001
      vertex   -7.517113e+001 1.581559e+001 1.168317e-001
    endloop
  endfacet
  facet normal 3.629370e-001 -9.318137e-001 1.655234e-015
    outer loop
      vertex   -7.517113e+001 1.581559e+001 1.168317e-001
      vertex   -5.207687e+001 2.481070e+001 1.700000e-001
      vertex   -5.207687e+001 2.481070e+001 2.170000e+000
    endloop
  endfacet
  facet normal 3.629370e-001 -9.318137e-001 6.341980e-016
    outer loop
      vertex   -7.517113e+001 1.581559e+001 1.439317e+001
      vertex   -5.207687e+001 2.481070e+001 2.170000e+000
      vertex   -3.759057e+001 3.045304e+001 1.439317e+001
    endloop
  endfacet
  facet normal 3.629370e-001 -9.318137e-001 5.797123e-016
    outer loop
      vertex   -7.517113e+001 1.581559e+001 1.439317e+001
      vertex   -7.517113e+001 1.581559e+001 1.168317e-001
      vertex   -5.207687e+001 2.481070e+001 2.170000e+000
    endloop
  endfacet
  facet normal 3.629370e-001 -9.318137e-001 9.879770e-016
    outer loop
      vertex   -5.207687e+001 2.481070e+001 2.170000e+000
      vertex   -4.275640e+001 2.844098e+001 2.170000e+000
      vertex   -3.759057e+001 3.045304e+001 1.439317e+001
    endloop
  endfacet
  facet normal 3.629370e-001 -9.318137e-001 -6.733225e-017
    outer loop
      vertex   -3.759057e+001 3.045304e+001 1.439317e+001
      vertex   -4.275640e+001 2.844098e+001 2.170000e+000
      vertex   -3.759057e+001 3.045304e+001 1.168317e-001
    endloop
  endfacet
  facet normal 3.629370e-001 -9.318137e-001 -5.124878e-017
    outer loop
      vertex   -1.000000e-002 4.509050e+001 1.168317e-001
      vertex   -3.759057e+001 3.045304e+001 1.439317e+001
      vertex   -3.759057e+001 3.045304e+001 1.168317e-001
    endloop
  endfacet
  facet normal 3.629370e-001 -9.318137e-001 4.888631e-016
    outer loop
      vertex   -1.000000e-002 4.509050e+001 1.168317e-001
      vertex   -1.000000e-002 4.509050e+001 1.439317e+001
      vertex   -3.759057e+001 3.045304e+001 1.439317e+001
    endloop
  endfacet
  facet normal 1.000000e+000 0.000000e+000 0.000000e+000
    outer loop
      vertex   -7.517113e+001 1.581559e+001 1.439317e+001
      vertex   -7.517113e+001 -2.317705e-001 1.439317e+001
      vertex   -7.517113e+001 1.581559e+001 1.168317e-001
    endloop
  endfacet
  facet normal 1.000000e+000 0.000000e+000 0.000000e+000
    outer loop
      vertex   -7.517113e+001 1.581559e+001 1.168317e-001
      vertex   -7.517113e+001 -2.317705e-001 1.439317e+001
      vertex   -7.517113e+001 -2.317705e-001 1.168317e-001
    endloop
  endfacet
  facet normal 1.000000e+000 1.302848e-016 2.488533e-016
    outer loop
      vertex   -1.508275e+001 2.138704e+001 1.439317e+001
      vertex   -1.508275e+001 -5.881802e+000 1.439317e+001
      vertex   -1.508275e+001 2.138704e+001 1.168317e-001
    endloop
  endfacet
  facet normal 1.000000e+000 6.514238e-017 1.244267e-016
    outer loop
      vertex   -1.508275e+001 2.138704e+001 1.168317e-001
      vertex   -1.508275e+001 -5.881802e+000 1.439317e+001
      vertex   -1.508275e+001 -5.881802e+000 1.168317e-001
    endloop
  endfacet
  facet normal 3.587912e-001 9.334178e-001 -5.442218e-016
    outer loop
      vertex   -1.508275e+001 -5.881802e+000 1.439317e+001
      vertex   1.990000e+000 -1.244430e+001 1.439317e+001
      vertex   -1.508275e+001 -5.881802e+000 1.168317e-001
    endloop
  endfacet
  facet normal 3.587912e-001 9.334178e-001 -7.247544e-016
    outer loop
      vertex   -1.508275e+001 -5.881802e+000 1.168317e-001
      vertex   1.990000e+000 -1.244430e+001 1.439317e+001
      vertex   1.990000e+000 -1.244430e+001 1.168317e-001
    endloop
  endfacet
  facet normal 1.000000e+000 1.065582e-017 -7.776666e-017
    outer loop
      vertex   1.990000e+000 -1.244430e+001 1.439317e+001
      vertex   1.990000e+000 -3.328217e+001 1.439317e+001
      vertex   1.990000e+000 -1.244430e+001 1.168317e-001
    endloop
  endfacet
  facet normal 1.000000e+000 1.065582e-016 6.221333e-017
    outer loop
      vertex   1.990000e+000 -1.244430e+001 1.168317e-001
      vertex   1.990000e+000 -3.328217e+001 1.439317e+001
      vertex   1.990000e+000 -3.328217e+001 1.168317e-001
    endloop
  endfacet
  facet normal 3.717182e-001 9.283456e-001 1.335728e-013
    outer loop
      vertex   -5.216255e+001 -9.444621e+000 1.700000e-001
      vertex   -4.287440e+001 -1.316368e+001 1.700000e-001
      vertex   -3.759057e+001 -1.527938e+001 1.168317e-001
    endloop
  endfacet
  facet normal 3.717182e-001 9.283456e-001 1.716671e-013
    outer loop
      vertex   -7.517113e+001 -2.317705e-001 1.168317e-001
      vertex   -5.216255e+001 -9.444621e+000 1.700000e-001
      vertex   -3.759057e+001 -1.527938e+001 1.168317e-001
    endloop
  endfacet
  facet normal 3.717182e-001 9.283456e-001 0.000000e+000
    outer loop
      vertex   -7.517113e+001 -2.317705e-001 1.168317e-001
      vertex   -5.216255e+001 -9.444621e+000 2.170000e+000
      vertex   -5.216255e+001 -9.444621e+000 1.700000e-001
    endloop
  endfacet
  facet normal 3.717182e-001 9.283456e-001 -2.238024e-016
    outer loop
      vertex   -7.517113e+001 -2.317705e-001 1.168317e-001
      vertex   -7.517113e+001 -2.317705e-001 1.439317e+001
      vertex   -5.216255e+001 -9.444621e+000 2.170000e+000
    endloop
  endfacet
  facet normal 3.717182e-001 9.283456e-001 -1.148796e-015
    outer loop
      vertex   -5.216255e+001 -9.444621e+000 2.170000e+000
      vertex   -7.517113e+001 -2.317705e-001 1.439317e+001
      vertex   -3.759057e+001 -1.527938e+001 1.439317e+001
    endloop
  endfacet
  facet normal 3.717182e-001 9.283456e-001 -4.620438e-016
    outer loop
      vertex   -4.287440e+001 -1.316368e+001 2.170000e+000
      vertex   -3.759057e+001 -1.527938e+001 1.439317e+001
      vertex   -3.759057e+001 -1.527938e+001 1.168317e-001
    endloop
  endfacet
  facet normal 3.717182e-001 9.283456e-001 -0.000000e+000
    outer loop
      vertex   -4.287440e+001 -1.316368e+001 1.700000e-001
      vertex   -4.287440e+001 -1.316368e+001 2.170000e+000
      vertex   -3.759057e+001 -1.527938e+001 1.168317e-001
    endloop
  endfacet
  facet normal 3.717182e-001 9.283456e-001 -1.103927e-015
    outer loop
      vertex   -4.287440e+001 -1.316368e+001 2.170000e+000
      vertex   -5.216255e+001 -9.444621e+000 2.170000e+000
      vertex   -3.759057e+001 -1.527938e+001 1.439317e+001
    endloop
  endfacet
  facet normal 3.717182e-001 9.283456e-001 -3.934321e-016
    outer loop
      vertex   -3.759057e+001 -1.527938e+001 1.439317e+001
      vertex   -1.000000e-002 -3.032699e+001 1.439317e+001
      vertex   -3.759057e+001 -1.527938e+001 1.168317e-001
    endloop
  endfacet
  facet normal 3.717182e-001 9.283456e-001 2.310219e-016
    outer loop
      vertex   -3.759057e+001 -1.527938e+001 1.168317e-001
      vertex   -1.000000e-002 -3.032699e+001 1.439317e+001
      vertex   -1.000000e-002 -3.032699e+001 1.168317e-001
    endloop
  endfacet
  facet normal -2.426556e-016 -3.549254e-016 -1.000000e+000
    outer loop
      vertex   -7.717113e+001 1.718295e+001 1.168317e-001
      vertex   -7.517113e+001 1.581559e+001 1.168317e-001
      vertex   -7.717113e+001 -1.585322e+000 1.168317e-001
    endloop
  endfacet
  facet normal -1.903094e-016 -2.783601e-016 -1.000000e+000
    outer loop
      vertex   -7.717113e+001 1.718295e+001 1.168317e-001
      vertex   -3.759057e+001 3.259940e+001 1.168317e-001
      vertex   -7.517113e+001 1.581559e+001 1.168317e-001
    endloop
  endfacet
  facet normal -2.857508e-016 -6.465756e-017 -1.000000e+000
    outer loop
      vertex   -7.517113e+001 1.581559e+001 1.168317e-001
      vertex   -3.759057e+001 3.259940e+001 1.168317e-001
      vertex   -3.759057e+001 3.045304e+001 1.168317e-001
    endloop
  endfacet
  facet normal -1.956462e-016 -6.465756e-017 -1.000000e+000
    outer loop
      vertex   -3.759057e+001 3.045304e+001 1.168317e-001
      vertex   -3.759057e+001 3.259940e+001 1.168317e-001
      vertex   -1.000000e-002 4.509050e+001 1.168317e-001
    endloop
  endfacet
  facet normal -2.809903e-016 1.921076e-016 -1.000000e+000
    outer loop
      vertex   -1.000000e-002 4.509050e+001 1.168317e-001
      vertex   -3.759057e+001 3.259940e+001 1.168317e-001
      vertex   1.990000e+000 4.801584e+001 1.168317e-001
    endloop
  endfacet
  facet normal 7.950434e-016 -5.435558e-016 -1.000000e+000
    outer loop
      vertex   1.990000e+000 2.759065e+001 1.168317e-001
      vertex   -1.000000e-002 4.509050e+001 1.168317e-001
      vertex   1.990000e+000 4.801584e+001 1.168317e-001
    endloop
  endfacet
  facet normal -4.831653e-016 -6.896381e-016 -1.000000e+000
    outer loop
      vertex   1.990000e+000 2.759065e+001 1.168317e-001
      vertex   -1.000000e-002 2.899186e+001 1.168317e-001
      vertex   -1.000000e-002 4.509050e+001 1.168317e-001
    endloop
  endfacet
  facet normal -8.564097e-017 -1.222382e-016 -1.000000e+000
    outer loop
      vertex   1.990000e+000 2.759065e+001 1.168317e-001
      vertex   -1.508275e+001 2.138704e+001 1.168317e-001
      vertex   -1.000000e-002 2.899186e+001 1.168317e-001
    endloop
  endfacet
  facet normal -8.564097e-017 -1.222382e-016 -1.000000e+000
    outer loop
      vertex   -1.000000e-002 2.899186e+001 1.168317e-001
      vertex   -1.508275e+001 2.138704e+001 1.168317e-001
      vertex   -1.708275e+001 2.278825e+001 1.168317e-001
    endloop
  endfacet
  facet normal -3.106769e-016 -4.434396e-016 -1.000000e+000
    outer loop
      vertex   -1.708275e+001 2.278825e+001 1.168317e-001
      vertex   -1.508275e+001 2.138704e+001 1.168317e-001
      vertex   -1.708275e+001 -7.255696e+000 1.168317e-001
    endloop
  endfacet
  facet normal 3.356203e-016 -4.885678e-016 -1.000000e+000
    outer loop
      vertex   -1.708275e+001 -7.255696e+000 1.168317e-001
      vertex   -1.508275e+001 2.138704e+001 1.168317e-001
      vertex   -1.508275e+001 -5.881802e+000 1.168317e-001
    endloop
  endfacet
  facet normal -1.481556e-016 -1.400497e-015 -1.000000e+000
    outer loop
      vertex   -1.000000e-002 -1.381820e+001 1.168317e-001
      vertex   -1.508275e+001 -5.881802e+000 1.168317e-001
      vertex   1.990000e+000 -1.244430e+001 1.168317e-001
    endloop
  endfacet
  facet normal 1.655243e-016 -6.393492e-016 -1.000000e+000
    outer loop
      vertex   -1.000000e-002 -3.032699e+001 1.168317e-001
      vertex   1.990000e+000 -1.244430e+001 1.168317e-001
      vertex   1.990000e+000 -3.328217e+001 1.168317e-001
    endloop
  endfacet
  facet normal -1.476847e-016 -8.513214e-016 -1.000000e+000
    outer loop
      vertex   -3.759057e+001 -1.743375e+001 1.168317e-001
      vertex   -1.000000e-002 -3.032699e+001 1.168317e-001
      vertex   1.990000e+000 -3.328217e+001 1.168317e-001
    endloop
  endfacet
  facet normal -4.633700e-016 -1.771465e-015 -1.000000e+000
    outer loop
      vertex   -3.759057e+001 -1.743375e+001 1.168317e-001
      vertex   -3.759057e+001 -1.527938e+001 1.168317e-001
      vertex   -1.000000e-002 -3.032699e+001 1.168317e-001
    endloop
  endfacet
  facet normal -4.825726e-016 -1.771465e-015 -1.000000e+000
    outer loop
      vertex   -3.759057e+001 -1.743375e+001 1.168317e-001
      vertex   -7.517113e+001 -2.317705e-001 1.168317e-001
      vertex   -3.759057e+001 -1.527938e+001 1.168317e-001
    endloop
  endfacet
  facet normal 1.958369e-016 -2.893675e-016 -1.000000e+000
    outer loop
      vertex   -3.759057e+001 -1.743375e+001 1.168317e-001
      vertex   -7.717113e+001 -1.585322e+000 1.168317e-001
      vertex   -7.517113e+001 -2.317705e-001 1.168317e-001
    endloop
  endfacet
  facet normal 2.809329e-016 -4.151048e-016 -1.000000e+000
    outer loop
      vertex   -7.517113e+001 -2.317705e-001 1.168317e-001
      vertex   -7.717113e+001 -1.585322e+000 1.168317e-001
      vertex   -7.517113e+001 1.581559e+001 1.168317e-001
    endloop
  endfacet
  facet normal 3.335770e-016 -4.855933e-016 -1.000000e+000
    outer loop
      vertex   -1.708275e+001 -7.255696e+000 1.168317e-001
      vertex   -1.508275e+001 -5.881802e+000 1.168317e-001
      vertex   -1.000000e-002 -1.381820e+001 1.168317e-001
    endloop
  endfacet
  facet normal -7.406431e-016 -5.380034e-016 -1.000000e+000
    outer loop
      vertex   -1.000000e-002 -1.381820e+001 1.168317e-001
      vertex   1.990000e+000 -1.244430e+001 1.168317e-001
      vertex   -1.000000e-002 -3.032699e+001 1.168317e-001
    endloop
  endfacet
  facet normal -3.717182e-001 -9.283456e-001 -2.054536e-015
    outer loop
      vertex   1.990000e+000 -3.328217e+001 1.439317e+001
      vertex   -3.759057e+001 -1.743375e+001 1.439317e+001
      vertex   1.990000e+000 -3.328217e+001 1.168317e-001
    endloop
  endfacet
  facet normal -3.717182e-001 -9.283456e-001 -6.000896e-016
    outer loop
      vertex   1.990000e+000 -3.328217e+001 1.168317e-001
      vertex   -3.759057e+001 -1.743375e+001 1.439317e+001
      vertex   -3.759057e+001 -1.743375e+001 1.168317e-001
    endloop
  endfacet
  facet normal -3.717182e-001 -9.283456e-001 -6.000896e-016
    outer loop
      vertex   -3.759057e+001 -1.743375e+001 1.168317e-001
      vertex   -3.759057e+001 -1.743375e+001 1.439317e+001
      vertex   -7.717113e+001 -1.585322e+000 1.439317e+001
    endloop
  endfacet
  facet normal -3.717182e-001 -9.283456e-001 0.000000e+000
    outer loop
      vertex   -7.717113e+001 -1.585322e+000 1.168317e-001
      vertex   -3.759057e+001 -1.743375e+001 1.168317e-001
      vertex   -7.717113e+001 -1.585322e+000 1.439317e+001
    endloop
  endfacet
endsolid
