solid ascii
  facet normal 7.071068e-001 1.660160e-016 7.071068e-001
    outer loop
      vertex   -4.579369e+001 2.097543e+001 1.298569e+001
      vertex   -4.678369e+001 1.998543e+001 1.397569e+001
      vertex   -4.579369e+001 -1.675894e+001 1.298569e+001
    endloop
  endfacet
  facet normal 7.071068e-001 1.664363e-016 7.071068e-001
    outer loop
      vertex   -4.579369e+001 -1.675894e+001 1.298569e+001
      vertex   -4.678369e+001 1.998543e+001 1.397569e+001
      vertex   -4.678369e+001 -1.774894e+001 1.397569e+001
    endloop
  endfacet
  facet normal -7.071068e-001 1.664363e-016 7.071068e-001
    outer loop
      vertex   -3.214012e+001 -1.774894e+001 1.397569e+001
      vertex   -3.214012e+001 1.998543e+001 1.397569e+001
      vertex   -3.313012e+001 -1.675894e+001 1.298569e+001
    endloop
  endfacet
  facet normal -7.071068e-001 3.362350e-017 7.071068e-001
    outer loop
      vertex   -3.313012e+001 -1.675894e+001 1.298569e+001
      vertex   -3.214012e+001 1.998543e+001 1.397569e+001
      vertex   -3.313012e+001 2.097543e+001 1.298569e+001
    endloop
  endfacet
  facet normal -0.000000e+000 7.071068e-001 7.071068e-001
    outer loop
      vertex   -3.214012e+001 1.998543e+001 1.397569e+001
      vertex   -1.366357e+001 1.998543e+001 1.397569e+001
      vertex   -3.313012e+001 2.097543e+001 1.298569e+001
    endloop
  endfacet
  facet normal -1.201682e-016 7.071068e-001 7.071068e-001
    outer loop
      vertex   -3.313012e+001 2.097543e+001 1.298569e+001
      vertex   -1.366357e+001 1.998543e+001 1.397569e+001
      vertex   -1.267357e+001 2.097543e+001 1.298569e+001
    endloop
  endfacet
  facet normal 7.071068e-001 1.794074e-016 7.071068e-001
    outer loop
      vertex   -1.366357e+001 -2.200431e+001 1.397569e+001
      vertex   -1.267357e+001 -2.101431e+001 1.298569e+001
      vertex   -1.366357e+001 1.998543e+001 1.397569e+001
    endloop
  endfacet
  facet normal 7.071068e-001 1.794830e-016 7.071068e-001
    outer loop
      vertex   -1.366357e+001 1.998543e+001 1.397569e+001
      vertex   -1.267357e+001 -2.101431e+001 1.298569e+001
      vertex   -1.267357e+001 2.097543e+001 1.298569e+001
    endloop
  endfacet
  facet normal -1.715529e-016 7.071068e-001 7.071068e-001
    outer loop
      vertex   -1.366357e+001 -2.200431e+001 1.397569e+001
      vertex   9.800000e-001 -2.200431e+001 1.397569e+001
      vertex   -1.267357e+001 -2.101431e+001 1.298569e+001
    endloop
  endfacet
  facet normal -3.944975e-016 7.071068e-001 7.071068e-001
    outer loop
      vertex   -1.267357e+001 -2.101431e+001 1.298569e+001
      vertex   9.800000e-001 -2.200431e+001 1.397569e+001
      vertex   -1.000000e-002 -2.101431e+001 1.298569e+001
    endloop
  endfacet
  facet normal -7.071068e-001 1.247674e-016 7.071068e-001
    outer loop
      vertex   9.800000e-001 -2.200431e+001 1.397569e+001
      vertex   9.800000e-001 7.568451e+000 1.397569e+001
      vertex   -1.000000e-002 -2.101431e+001 1.298569e+001
    endloop
  endfacet
  facet normal -7.071068e-001 1.803305e-016 7.071068e-001
    outer loop
      vertex   -1.000000e-002 -2.101431e+001 1.298569e+001
      vertex   9.800000e-001 7.568451e+000 1.397569e+001
      vertex   -1.000000e-002 7.568451e+000 1.298569e+001
    endloop
  endfacet
  facet normal -7.071068e-001 2.163966e-016 7.071068e-001
    outer loop
      vertex   -1.000000e-002 7.568451e+000 1.298569e+001
      vertex   9.800000e-001 7.568451e+000 1.397569e+001
      vertex   -1.000000e-002 3.615121e+001 1.298569e+001
    endloop
  endfacet
  facet normal -7.071068e-001 1.406952e-016 7.071068e-001
    outer loop
      vertex   -1.000000e-002 3.615121e+001 1.298569e+001
      vertex   9.800000e-001 7.568451e+000 1.397569e+001
      vertex   9.800000e-001 3.714121e+001 1.397569e+001
    endloop
  endfacet
  facet normal 0.000000e+000 -7.071068e-001 7.071068e-001
    outer loop
      vertex   -7.616113e+001 3.714121e+001 1.397569e+001
      vertex   -7.517113e+001 3.615121e+001 1.298569e+001
      vertex   -3.759057e+001 3.714121e+001 1.397569e+001
    endloop
  endfacet
  facet normal 0.000000e+000 -7.071068e-001 7.071068e-001
    outer loop
      vertex   -3.759057e+001 3.714121e+001 1.397569e+001
      vertex   -7.517113e+001 3.615121e+001 1.298569e+001
      vertex   -3.759057e+001 3.615121e+001 1.298569e+001
    endloop
  endfacet
  facet normal 3.333909e-016 -7.071068e-001 7.071068e-001
    outer loop
      vertex   -1.000000e-002 3.615121e+001 1.298569e+001
      vertex   -3.759057e+001 3.714121e+001 1.397569e+001
      vertex   -3.759057e+001 3.615121e+001 1.298569e+001
    endloop
  endfacet
  facet normal 0.000000e+000 -7.071068e-001 7.071068e-001
    outer loop
      vertex   -1.000000e-002 3.615121e+001 1.298569e+001
      vertex   9.800000e-001 3.714121e+001 1.397569e+001
      vertex   -3.759057e+001 3.714121e+001 1.397569e+001
    endloop
  endfacet
  facet normal 7.071068e-001 1.319108e-016 7.071068e-001
    outer loop
      vertex   -7.616113e+001 -2.056877e+001 1.397569e+001
      vertex   -7.517113e+001 -1.957877e+001 1.298569e+001
      vertex   -7.616113e+001 8.286225e+000 1.397569e+001
    endloop
  endfacet
  facet normal 7.071068e-001 1.577700e-016 7.071068e-001
    outer loop
      vertex   -7.616113e+001 8.286225e+000 1.397569e+001
      vertex   -7.517113e+001 -1.957877e+001 1.298569e+001
      vertex   -7.517113e+001 3.615121e+001 1.298569e+001
    endloop
  endfacet
  facet normal 7.071068e-001 2.176528e-016 7.071068e-001
    outer loop
      vertex   -7.616113e+001 3.714121e+001 1.397569e+001
      vertex   -7.616113e+001 8.286225e+000 1.397569e+001
      vertex   -7.517113e+001 3.615121e+001 1.298569e+001
    endloop
  endfacet
  facet normal 0.000000e+000 7.071068e-001 7.071068e-001
    outer loop
      vertex   -6.245629e+001 -1.957877e+001 1.298569e+001
      vertex   -7.517113e+001 -1.957877e+001 1.298569e+001
      vertex   -6.146629e+001 -2.056877e+001 1.397569e+001
    endloop
  endfacet
  facet normal 1.672849e-016 7.071068e-001 7.071068e-001
    outer loop
      vertex   -6.146629e+001 -2.056877e+001 1.397569e+001
      vertex   -7.517113e+001 -1.957877e+001 1.298569e+001
      vertex   -7.616113e+001 -2.056877e+001 1.397569e+001
    endloop
  endfacet
  facet normal -7.071068e-001 1.548636e-016 7.071068e-001
    outer loop
      vertex   -6.245629e+001 2.097543e+001 1.298569e+001
      vertex   -6.245629e+001 -1.957877e+001 1.298569e+001
      vertex   -6.146629e+001 1.998543e+001 1.397569e+001
    endloop
  endfacet
  facet normal -7.071068e-001 1.564279e-016 7.071068e-001
    outer loop
      vertex   -6.146629e+001 1.998543e+001 1.397569e+001
      vertex   -6.245629e+001 -1.957877e+001 1.298569e+001
      vertex   -6.146629e+001 -2.056877e+001 1.397569e+001
    endloop
  endfacet
  facet normal 1.507657e-016 7.071068e-001 7.071068e-001
    outer loop
      vertex   -4.579369e+001 2.097543e+001 1.298569e+001
      vertex   -6.245629e+001 2.097543e+001 1.298569e+001
      vertex   -4.678369e+001 1.998543e+001 1.397569e+001
    endloop
  endfacet
  facet normal 0.000000e+000 7.071068e-001 7.071068e-001
    outer loop
      vertex   -4.678369e+001 1.998543e+001 1.397569e+001
      vertex   -6.245629e+001 2.097543e+001 1.298569e+001
      vertex   -6.146629e+001 1.998543e+001 1.397569e+001
    endloop
  endfacet
  facet normal 0.000000e+000 7.071068e-001 7.071068e-001
    outer loop
      vertex   -3.313012e+001 -1.675894e+001 1.298569e+001
      vertex   -4.579369e+001 -1.675894e+001 1.298569e+001
      vertex   -3.214012e+001 -1.774894e+001 1.397569e+001
    endloop
  endfacet
  facet normal 1.678706e-016 7.071068e-001 7.071068e-001
    outer loop
      vertex   -3.214012e+001 -1.774894e+001 1.397569e+001
      vertex   -4.579369e+001 -1.675894e+001 1.298569e+001
      vertex   -4.678369e+001 -1.774894e+001 1.397569e+001
    endloop
  endfacet
  facet normal 0.000000e+000 1.000000e+000 -8.223002e-016
    outer loop
      vertex   -7.517113e+001 -1.957877e+001 1.298569e+001
      vertex   -6.245629e+001 -1.957877e+001 1.298569e+001
      vertex   -7.517113e+001 -1.957877e+001 2.431255e-002
    endloop
  endfacet
  facet normal 0.000000e+000 1.000000e+000 -8.223002e-016
    outer loop
      vertex   -7.517113e+001 -1.957877e+001 2.431255e-002
      vertex   -6.245629e+001 -1.957877e+001 1.298569e+001
      vertex   -6.245629e+001 -1.957877e+001 2.431255e-002
    endloop
  endfacet
  facet normal -1.000000e+000 0.000000e+000 -0.000000e+000
    outer loop
      vertex   -6.245629e+001 -1.957877e+001 1.298569e+001
      vertex   -6.245629e+001 2.097543e+001 1.298569e+001
      vertex   -6.245629e+001 -1.957877e+001 2.431255e-002
    endloop
  endfacet
  facet normal -1.000000e+000 0.000000e+000 -0.000000e+000
    outer loop
      vertex   -6.245629e+001 -1.957877e+001 2.431255e-002
      vertex   -6.245629e+001 2.097543e+001 1.298569e+001
      vertex   -6.245629e+001 2.097543e+001 2.431255e-002
    endloop
  endfacet
  facet normal 2.132149e-016 1.000000e+000 -2.741001e-016
    outer loop
      vertex   -6.245629e+001 2.097543e+001 1.298569e+001
      vertex   -4.579369e+001 2.097543e+001 1.298569e+001
      vertex   -6.245629e+001 2.097543e+001 2.431255e-002
    endloop
  endfacet
  facet normal -0.000000e+000 1.000000e+000 0.000000e+000
    outer loop
      vertex   -6.245629e+001 2.097543e+001 2.431255e-002
      vertex   -4.579369e+001 2.097543e+001 1.298569e+001
      vertex   -4.579369e+001 2.097543e+001 2.431255e-002
    endloop
  endfacet
  facet normal 1.000000e+000 0.000000e+000 0.000000e+000
    outer loop
      vertex   -4.579369e+001 2.097543e+001 1.298569e+001
      vertex   -4.579369e+001 -1.675894e+001 1.298569e+001
      vertex   -4.579369e+001 2.097543e+001 2.431255e-002
    endloop
  endfacet
  facet normal 1.000000e+000 0.000000e+000 0.000000e+000
    outer loop
      vertex   -4.579369e+001 2.097543e+001 2.431255e-002
      vertex   -4.579369e+001 -1.675894e+001 1.298569e+001
      vertex   -4.579369e+001 -1.675894e+001 2.431255e-002
    endloop
  endfacet
  facet normal 0.000000e+000 1.000000e+000 -8.223002e-016
    outer loop
      vertex   -4.579369e+001 -1.675894e+001 1.298569e+001
      vertex   -3.313012e+001 -1.675894e+001 1.298569e+001
      vertex   -4.579369e+001 -1.675894e+001 2.431255e-002
    endloop
  endfacet
  facet normal 0.000000e+000 1.000000e+000 -8.223002e-016
    outer loop
      vertex   -4.579369e+001 -1.675894e+001 2.431255e-002
      vertex   -3.313012e+001 -1.675894e+001 1.298569e+001
      vertex   -3.313012e+001 -1.675894e+001 2.431255e-002
    endloop
  endfacet
  facet normal -1.000000e+000 -1.883012e-016 1.032267e-031
    outer loop
      vertex   -3.313012e+001 -1.675894e+001 1.298569e+001
      vertex   -3.313012e+001 2.097543e+001 1.298569e+001
      vertex   -3.313012e+001 -1.675894e+001 2.431255e-002
    endloop
  endfacet
  facet normal -1.000000e+000 -3.766024e-016 5.482001e-016
    outer loop
      vertex   -3.313012e+001 -1.675894e+001 2.431255e-002
      vertex   -3.313012e+001 2.097543e+001 1.298569e+001
      vertex   -3.313012e+001 2.097543e+001 2.431255e-002
    endloop
  endfacet
  facet normal -2.353765e-016 2.353765e-016 1.000000e+000
    outer loop
      vertex   -4.680369e+001 -1.776894e+001 1.397569e+001
      vertex   -4.678369e+001 -1.774894e+001 1.397569e+001
      vertex   -4.680369e+001 1.996543e+001 1.397569e+001
    endloop
  endfacet
  facet normal 0.000000e+000 -0.000000e+000 1.000000e+000
    outer loop
      vertex   -4.680369e+001 -1.776894e+001 1.397569e+001
      vertex   -3.212012e+001 -1.776894e+001 1.397569e+001
      vertex   -4.678369e+001 -1.774894e+001 1.397569e+001
    endloop
  endfacet
  facet normal -0.000000e+000 -0.000000e+000 1.000000e+000
    outer loop
      vertex   -4.678369e+001 -1.774894e+001 1.397569e+001
      vertex   -3.212012e+001 -1.776894e+001 1.397569e+001
      vertex   -3.214012e+001 -1.774894e+001 1.397569e+001
    endloop
  endfacet
  facet normal 2.353765e-016 2.353765e-016 1.000000e+000
    outer loop
      vertex   -3.214012e+001 -1.774894e+001 1.397569e+001
      vertex   -3.212012e+001 -1.776894e+001 1.397569e+001
      vertex   -3.212012e+001 1.996543e+001 1.397569e+001
    endloop
  endfacet
  facet normal -0.000000e+000 0.000000e+000 1.000000e+000
    outer loop
      vertex   -3.214012e+001 1.998543e+001 1.397569e+001
      vertex   -3.212012e+001 1.996543e+001 1.397569e+001
      vertex   -1.368357e+001 1.996543e+001 1.397569e+001
    endloop
  endfacet
  facet normal -2.115227e-016 2.115227e-016 1.000000e+000
    outer loop
      vertex   -1.366357e+001 1.998543e+001 1.397569e+001
      vertex   -1.368357e+001 1.996543e+001 1.397569e+001
      vertex   -1.366357e+001 -2.200431e+001 1.397569e+001
    endloop
  endfacet
  facet normal 0.000000e+000 0.000000e+000 1.000000e+000
    outer loop
      vertex   -1.366357e+001 1.998543e+001 1.397569e+001
      vertex   -3.214012e+001 1.998543e+001 1.397569e+001
      vertex   -1.368357e+001 1.996543e+001 1.397569e+001
    endloop
  endfacet
  facet normal 2.353765e-016 2.353765e-016 1.000000e+000
    outer loop
      vertex   -3.214012e+001 -1.774894e+001 1.397569e+001
      vertex   -3.212012e+001 1.996543e+001 1.397569e+001
      vertex   -3.214012e+001 1.998543e+001 1.397569e+001
    endloop
  endfacet
  facet normal -2.115227e-016 2.115227e-016 1.000000e+000
    outer loop
      vertex   -1.368357e+001 1.996543e+001 1.397569e+001
      vertex   -1.368357e+001 -2.202431e+001 1.397569e+001
      vertex   -1.366357e+001 -2.200431e+001 1.397569e+001
    endloop
  endfacet
  facet normal -0.000000e+000 0.000000e+000 1.000000e+000
    outer loop
      vertex   -1.366357e+001 -2.200431e+001 1.397569e+001
      vertex   -1.368357e+001 -2.202431e+001 1.397569e+001
      vertex   1.000000e+000 -2.202431e+001 1.397569e+001
    endloop
  endfacet
  facet normal 2.401069e-016 2.401069e-016 1.000000e+000
    outer loop
      vertex   9.800000e-001 -2.200431e+001 1.397569e+001
      vertex   1.000000e+000 -2.202431e+001 1.397569e+001
      vertex   1.000000e+000 7.568451e+000 1.397569e+001
    endloop
  endfacet
  facet normal -0.000000e+000 2.402693e-016 1.000000e+000
    outer loop
      vertex   9.800000e-001 7.568451e+000 1.397569e+001
      vertex   1.000000e+000 7.568451e+000 1.397569e+001
      vertex   9.800000e-001 3.714121e+001 1.397569e+001
    endloop
  endfacet
  facet normal 0.000000e+000 2.402693e-016 1.000000e+000
    outer loop
      vertex   9.800000e-001 7.568451e+000 1.397569e+001
      vertex   9.800000e-001 -2.200431e+001 1.397569e+001
      vertex   1.000000e+000 7.568451e+000 1.397569e+001
    endloop
  endfacet
  facet normal -0.000000e+000 -0.000000e+000 1.000000e+000
    outer loop
      vertex   -1.366357e+001 -2.200431e+001 1.397569e+001
      vertex   1.000000e+000 -2.202431e+001 1.397569e+001
      vertex   9.800000e-001 -2.200431e+001 1.397569e+001
    endloop
  endfacet
  facet normal -2.401069e-016 2.401069e-016 1.000000e+000
    outer loop
      vertex   1.000000e+000 7.568451e+000 1.397569e+001
      vertex   1.000000e+000 3.716121e+001 1.397569e+001
      vertex   9.800000e-001 3.714121e+001 1.397569e+001
    endloop
  endfacet
  facet normal 0.000000e+000 -0.000000e+000 1.000000e+000
    outer loop
      vertex   9.800000e-001 3.714121e+001 1.397569e+001
      vertex   1.000000e+000 3.716121e+001 1.397569e+001
      vertex   -3.759057e+001 3.716121e+001 1.397569e+001
    endloop
  endfacet
  facet normal 0.000000e+000 0.000000e+000 1.000000e+000
    outer loop
      vertex   -3.759057e+001 3.714121e+001 1.397569e+001
      vertex   -3.759057e+001 3.716121e+001 1.397569e+001
      vertex   -7.616113e+001 3.714121e+001 1.397569e+001
    endloop
  endfacet
  facet normal 0.000000e+000 -0.000000e+000 1.000000e+000
    outer loop
      vertex   -3.759057e+001 3.714121e+001 1.397569e+001
      vertex   9.800000e-001 3.714121e+001 1.397569e+001
      vertex   -3.759057e+001 3.716121e+001 1.397569e+001
    endloop
  endfacet
  facet normal 0.000000e+000 0.000000e+000 1.000000e+000
    outer loop
      vertex   -3.759057e+001 3.716121e+001 1.397569e+001
      vertex   -7.618113e+001 3.716121e+001 1.397569e+001
      vertex   -7.616113e+001 3.714121e+001 1.397569e+001
    endloop
  endfacet
  facet normal 3.075944e-016 3.075944e-016 1.000000e+000
    outer loop
      vertex   -7.616113e+001 3.714121e+001 1.397569e+001
      vertex   -7.618113e+001 3.716121e+001 1.397569e+001
      vertex   -7.618113e+001 8.286225e+000 1.397569e+001
    endloop
  endfacet
  facet normal -4.920985e-029 1.846845e-016 1.000000e+000
    outer loop
      vertex   -7.616113e+001 8.286225e+000 1.397569e+001
      vertex   -7.618113e+001 8.286225e+000 1.397569e+001
      vertex   -7.616113e+001 -2.056877e+001 1.397569e+001
    endloop
  endfacet
  facet normal -8.748417e-029 3.078076e-016 1.000000e+000
    outer loop
      vertex   -7.616113e+001 8.286225e+000 1.397569e+001
      vertex   -7.616113e+001 3.714121e+001 1.397569e+001
      vertex   -7.618113e+001 8.286225e+000 1.397569e+001
    endloop
  endfacet
  facet normal -1.845566e-016 1.845566e-016 1.000000e+000
    outer loop
      vertex   -7.618113e+001 8.286225e+000 1.397569e+001
      vertex   -7.618113e+001 -2.058877e+001 1.397569e+001
      vertex   -7.616113e+001 -2.056877e+001 1.397569e+001
    endloop
  endfacet
  facet normal -0.000000e+000 0.000000e+000 1.000000e+000
    outer loop
      vertex   -7.616113e+001 -2.056877e+001 1.397569e+001
      vertex   -7.618113e+001 -2.058877e+001 1.397569e+001
      vertex   -6.144629e+001 -2.058877e+001 1.397569e+001
    endloop
  endfacet
  facet normal 2.190102e-016 2.190102e-016 1.000000e+000
    outer loop
      vertex   -6.146629e+001 -2.056877e+001 1.397569e+001
      vertex   -6.144629e+001 -2.058877e+001 1.397569e+001
      vertex   -6.144629e+001 1.996543e+001 1.397569e+001
    endloop
  endfacet
  facet normal -0.000000e+000 0.000000e+000 1.000000e+000
    outer loop
      vertex   -6.146629e+001 1.998543e+001 1.397569e+001
      vertex   -6.144629e+001 1.996543e+001 1.397569e+001
      vertex   -4.680369e+001 1.996543e+001 1.397569e+001
    endloop
  endfacet
  facet normal -2.353765e-016 2.353765e-016 1.000000e+000
    outer loop
      vertex   -4.678369e+001 1.998543e+001 1.397569e+001
      vertex   -4.680369e+001 1.996543e+001 1.397569e+001
      vertex   -4.678369e+001 -1.774894e+001 1.397569e+001
    endloop
  endfacet
  facet normal 0.000000e+000 0.000000e+000 1.000000e+000
    outer loop
      vertex   -4.678369e+001 1.998543e+001 1.397569e+001
      vertex   -6.146629e+001 1.998543e+001 1.397569e+001
      vertex   -4.680369e+001 1.996543e+001 1.397569e+001
    endloop
  endfacet
  facet normal -0.000000e+000 -0.000000e+000 1.000000e+000
    outer loop
      vertex   -7.616113e+001 -2.056877e+001 1.397569e+001
      vertex   -6.144629e+001 -2.058877e+001 1.397569e+001
      vertex   -6.146629e+001 -2.056877e+001 1.397569e+001
    endloop
  endfacet
  facet normal 2.190102e-016 2.190102e-016 1.000000e+000
    outer loop
      vertex   -6.146629e+001 -2.056877e+001 1.397569e+001
      vertex   -6.144629e+001 1.996543e+001 1.397569e+001
      vertex   -6.146629e+001 1.998543e+001 1.397569e+001
    endloop
  endfacet
  facet normal 7.071068e-001 3.661599e-016 7.071068e-001
    outer loop
      vertex   -3.113012e+001 -1.875894e+001 1.298569e+001
      vertex   -3.113012e+001 1.897543e+001 1.298569e+001
      vertex   -3.212012e+001 -1.776894e+001 1.397569e+001
    endloop
  endfacet
  facet normal 7.071068e-001 1.660160e-016 7.071068e-001
    outer loop
      vertex   -3.212012e+001 -1.776894e+001 1.397569e+001
      vertex   -3.113012e+001 1.897543e+001 1.298569e+001
      vertex   -3.212012e+001 1.996543e+001 1.397569e+001
    endloop
  endfacet
  facet normal 3.053069e-016 -7.071068e-001 7.071068e-001
    outer loop
      vertex   -3.113012e+001 1.897543e+001 1.298569e+001
      vertex   -1.467357e+001 1.897543e+001 1.298569e+001
      vertex   -3.212012e+001 1.996543e+001 1.397569e+001
    endloop
  endfacet
  facet normal 0.000000e+000 -7.071068e-001 7.071068e-001
    outer loop
      vertex   -3.212012e+001 1.996543e+001 1.397569e+001
      vertex   -1.467357e+001 1.897543e+001 1.298569e+001
      vertex   -1.368357e+001 1.996543e+001 1.397569e+001
    endloop
  endfacet
  facet normal -7.071068e-001 8.875946e-017 7.071068e-001
    outer loop
      vertex   -1.467357e+001 -2.301431e+001 1.298569e+001
      vertex   -1.368357e+001 -2.202431e+001 1.397569e+001
      vertex   -1.467357e+001 1.897543e+001 1.298569e+001
    endloop
  endfacet
  facet normal -7.071068e-001 5.982765e-017 7.071068e-001
    outer loop
      vertex   -1.467357e+001 1.897543e+001 1.298569e+001
      vertex   -1.368357e+001 -2.202431e+001 1.397569e+001
      vertex   -1.368357e+001 1.996543e+001 1.397569e+001
    endloop
  endfacet
  facet normal -7.071068e-001 1.660160e-016 7.071068e-001
    outer loop
      vertex   -4.680369e+001 1.996543e+001 1.397569e+001
      vertex   -4.779369e+001 1.897543e+001 1.298569e+001
      vertex   -4.680369e+001 -1.776894e+001 1.397569e+001
    endloop
  endfacet
  facet normal -7.071068e-001 3.328726e-017 7.071068e-001
    outer loop
      vertex   -4.680369e+001 -1.776894e+001 1.397569e+001
      vertex   -4.779369e+001 1.897543e+001 1.298569e+001
      vertex   -4.779369e+001 -1.875894e+001 1.298569e+001
    endloop
  endfacet
  facet normal 0.000000e+000 -7.071068e-001 7.071068e-001
    outer loop
      vertex   -4.680369e+001 1.996543e+001 1.397569e+001
      vertex   -6.144629e+001 1.996543e+001 1.397569e+001
      vertex   -4.779369e+001 1.897543e+001 1.298569e+001
    endloop
  endfacet
  facet normal 0.000000e+000 -7.071068e-001 7.071068e-001
    outer loop
      vertex   -4.779369e+001 1.897543e+001 1.298569e+001
      vertex   -6.144629e+001 1.996543e+001 1.397569e+001
      vertex   -6.045629e+001 1.897543e+001 1.298569e+001
    endloop
  endfacet
  facet normal 7.071068e-001 1.548636e-016 7.071068e-001
    outer loop
      vertex   -6.144629e+001 1.996543e+001 1.397569e+001
      vertex   -6.144629e+001 -2.058877e+001 1.397569e+001
      vertex   -6.045629e+001 1.897543e+001 1.298569e+001
    endloop
  endfacet
  facet normal 7.071068e-001 4.028018e-016 7.071068e-001
    outer loop
      vertex   -6.045629e+001 1.897543e+001 1.298569e+001
      vertex   -6.144629e+001 -2.058877e+001 1.397569e+001
      vertex   -6.045629e+001 -2.157877e+001 1.298569e+001
    endloop
  endfacet
  facet normal 0.000000e+000 -7.071068e-001 7.071068e-001
    outer loop
      vertex   -6.144629e+001 -2.058877e+001 1.397569e+001
      vertex   -7.618113e+001 -2.058877e+001 1.397569e+001
      vertex   -6.045629e+001 -2.157877e+001 1.298569e+001
    endloop
  endfacet
  facet normal 0.000000e+000 -7.071068e-001 7.071068e-001
    outer loop
      vertex   -6.045629e+001 -2.157877e+001 1.298569e+001
      vertex   -7.618113e+001 -2.058877e+001 1.397569e+001
      vertex   -7.717113e+001 -2.157877e+001 1.298569e+001
    endloop
  endfacet
  facet normal -7.071068e-001 1.682336e-016 7.071068e-001
    outer loop
      vertex   -7.717113e+001 3.815121e+001 1.298569e+001
      vertex   -7.717113e+001 8.286225e+000 1.298569e+001
      vertex   -7.618113e+001 3.716121e+001 1.397569e+001
    endloop
  endfacet
  facet normal -7.071068e-001 2.169528e-016 7.071068e-001
    outer loop
      vertex   -7.618113e+001 3.716121e+001 1.397569e+001
      vertex   -7.717113e+001 8.286225e+000 1.298569e+001
      vertex   -7.618113e+001 8.286225e+000 1.397569e+001
    endloop
  endfacet
  facet normal -7.071068e-001 1.290732e-016 7.071068e-001
    outer loop
      vertex   -7.618113e+001 8.286225e+000 1.397569e+001
      vertex   -7.717113e+001 8.286225e+000 1.298569e+001
      vertex   -7.618113e+001 -2.058877e+001 1.397569e+001
    endloop
  endfacet
  facet normal -7.071068e-001 1.261752e-016 7.071068e-001
    outer loop
      vertex   -7.618113e+001 -2.058877e+001 1.397569e+001
      vertex   -7.717113e+001 8.286225e+000 1.298569e+001
      vertex   -7.717113e+001 -2.157877e+001 1.298569e+001
    endloop
  endfacet
  facet normal 0.000000e+000 7.071068e-001 7.071068e-001
    outer loop
      vertex   1.990000e+000 3.815121e+001 1.298569e+001
      vertex   -3.759057e+001 3.815121e+001 1.298569e+001
      vertex   1.000000e+000 3.716121e+001 1.397569e+001
    endloop
  endfacet
  facet normal -1.294552e-016 7.071068e-001 7.071068e-001
    outer loop
      vertex   1.000000e+000 3.716121e+001 1.397569e+001
      vertex   -3.759057e+001 3.815121e+001 1.298569e+001
      vertex   -3.759057e+001 3.716121e+001 1.397569e+001
    endloop
  endfacet
  facet normal 0.000000e+000 7.071068e-001 7.071068e-001
    outer loop
      vertex   -3.759057e+001 3.716121e+001 1.397569e+001
      vertex   -3.759057e+001 3.815121e+001 1.298569e+001
      vertex   -7.618113e+001 3.716121e+001 1.397569e+001
    endloop
  endfacet
  facet normal 0.000000e+000 7.071068e-001 7.071068e-001
    outer loop
      vertex   -7.618113e+001 3.716121e+001 1.397569e+001
      vertex   -3.759057e+001 3.815121e+001 1.298569e+001
      vertex   -7.717113e+001 3.815121e+001 1.298569e+001
    endloop
  endfacet
  facet normal 7.071068e-001 2.156243e-016 7.071068e-001
    outer loop
      vertex   1.990000e+000 -2.301431e+001 1.298569e+001
      vertex   1.990000e+000 7.568451e+000 1.298569e+001
      vertex   1.000000e+000 -2.202431e+001 1.397569e+001
    endloop
  endfacet
  facet normal 7.071068e-001 1.420203e-016 7.071068e-001
    outer loop
      vertex   1.000000e+000 -2.202431e+001 1.397569e+001
      vertex   1.990000e+000 7.568451e+000 1.298569e+001
      vertex   1.000000e+000 7.568451e+000 1.397569e+001
    endloop
  endfacet
  facet normal 7.071068e-001 2.116906e-016 7.071068e-001
    outer loop
      vertex   1.000000e+000 7.568451e+000 1.397569e+001
      vertex   1.990000e+000 7.568451e+000 1.298569e+001
      vertex   1.000000e+000 3.716121e+001 1.397569e+001
    endloop
  endfacet
  facet normal 7.071068e-001 2.053565e-016 7.071068e-001
    outer loop
      vertex   1.000000e+000 3.716121e+001 1.397569e+001
      vertex   1.990000e+000 7.568451e+000 1.298569e+001
      vertex   1.990000e+000 3.815121e+001 1.298569e+001
    endloop
  endfacet
  facet normal 7.537842e-017 -7.071068e-001 7.071068e-001
    outer loop
      vertex   -1.467357e+001 -2.301431e+001 1.298569e+001
      vertex   1.990000e+000 -2.301431e+001 1.298569e+001
      vertex   -1.368357e+001 -2.202431e+001 1.397569e+001
    endloop
  endfacet
  facet normal 0.000000e+000 -7.071068e-001 7.071068e-001
    outer loop
      vertex   -1.368357e+001 -2.202431e+001 1.397569e+001
      vertex   1.990000e+000 -2.301431e+001 1.298569e+001
      vertex   1.000000e+000 -2.202431e+001 1.397569e+001
    endloop
  endfacet
  facet normal 0.000000e+000 -7.071068e-001 7.071068e-001
    outer loop
      vertex   -3.212012e+001 -1.776894e+001 1.397569e+001
      vertex   -4.680369e+001 -1.776894e+001 1.397569e+001
      vertex   -3.113012e+001 -1.875894e+001 1.298569e+001
    endloop
  endfacet
  facet normal 0.000000e+000 -7.071068e-001 7.071068e-001
    outer loop
      vertex   -3.113012e+001 -1.875894e+001 1.298569e+001
      vertex   -4.680369e+001 -1.776894e+001 1.397569e+001
      vertex   -4.779369e+001 -1.875894e+001 1.298569e+001
    endloop
  endfacet
  facet normal 2.921939e-032 -1.000000e+000 2.741001e-016
    outer loop
      vertex   1.990000e+000 -2.301431e+001 1.298569e+001
      vertex   -1.467357e+001 -2.301431e+001 1.298569e+001
      vertex   1.990000e+000 -2.301431e+001 2.431255e-002
    endloop
  endfacet
  facet normal 0.000000e+000 -1.000000e+000 2.741001e-016
    outer loop
      vertex   1.990000e+000 -2.301431e+001 2.431255e-002
      vertex   -1.467357e+001 -2.301431e+001 1.298569e+001
      vertex   -1.467357e+001 -2.301431e+001 2.431255e-002
    endloop
  endfacet
  facet normal -1.000000e+000 -8.460908e-017 0.000000e+000
    outer loop
      vertex   -1.467357e+001 -2.301431e+001 1.298569e+001
      vertex   -1.467357e+001 1.897543e+001 1.298569e+001
      vertex   -1.467357e+001 -2.301431e+001 2.431255e-002
    endloop
  endfacet
  facet normal -1.000000e+000 -1.269136e-016 1.370500e-016
    outer loop
      vertex   -1.467357e+001 -2.301431e+001 2.431255e-002
      vertex   -1.467357e+001 1.897543e+001 1.298569e+001
      vertex   -1.467357e+001 1.897543e+001 2.431255e-002
    endloop
  endfacet
  facet normal 4.317691e-016 -1.000000e+000 8.223002e-016
    outer loop
      vertex   -1.467357e+001 1.897543e+001 1.298569e+001
      vertex   -3.113012e+001 1.897543e+001 1.298569e+001
      vertex   -1.467357e+001 1.897543e+001 2.431255e-002
    endloop
  endfacet
  facet normal 0.000000e+000 -1.000000e+000 2.741001e-016
    outer loop
      vertex   -1.467357e+001 1.897543e+001 2.431255e-002
      vertex   -3.113012e+001 1.897543e+001 1.298569e+001
      vertex   -3.113012e+001 1.897543e+001 2.431255e-002
    endloop
  endfacet
  facet normal 1.000000e+000 2.824518e-016 8.223002e-016
    outer loop
      vertex   -3.113012e+001 1.897543e+001 1.298569e+001
      vertex   -3.113012e+001 -1.875894e+001 1.298569e+001
      vertex   -3.113012e+001 1.897543e+001 2.431255e-002
    endloop
  endfacet
  facet normal 1.000000e+000 0.000000e+000 0.000000e+000
    outer loop
      vertex   -3.113012e+001 1.897543e+001 2.431255e-002
      vertex   -3.113012e+001 -1.875894e+001 1.298569e+001
      vertex   -3.113012e+001 -1.875894e+001 2.431255e-002
    endloop
  endfacet
  facet normal 0.000000e+000 -1.000000e+000 8.223002e-016
    outer loop
      vertex   -3.113012e+001 -1.875894e+001 1.298569e+001
      vertex   -4.779369e+001 -1.875894e+001 1.298569e+001
      vertex   -3.113012e+001 -1.875894e+001 2.431255e-002
    endloop
  endfacet
  facet normal 0.000000e+000 -1.000000e+000 8.223002e-016
    outer loop
      vertex   -3.113012e+001 -1.875894e+001 2.431255e-002
      vertex   -4.779369e+001 -1.875894e+001 1.298569e+001
      vertex   -4.779369e+001 -1.875894e+001 2.431255e-002
    endloop
  endfacet
  facet normal -1.000000e+000 -1.883012e-016 2.064535e-031
    outer loop
      vertex   -4.779369e+001 -1.875894e+001 1.298569e+001
      vertex   -4.779369e+001 1.897543e+001 1.298569e+001
      vertex   -4.779369e+001 -1.875894e+001 2.431255e-002
    endloop
  endfacet
  facet normal -1.000000e+000 -2.580668e-031 -5.482001e-016
    outer loop
      vertex   -4.779369e+001 -1.875894e+001 2.431255e-002
      vertex   -4.779369e+001 1.897543e+001 1.298569e+001
      vertex   -4.779369e+001 1.897543e+001 2.431255e-002
    endloop
  endfacet
  facet normal -1.736713e-016 1.000000e+000 -2.741001e-016
    outer loop
      vertex   -3.313012e+001 2.097543e+001 1.298569e+001
      vertex   -1.267357e+001 2.097543e+001 1.298569e+001
      vertex   -3.313012e+001 2.097543e+001 2.431255e-002
    endloop
  endfacet
  facet normal 0.000000e+000 1.000000e+000 -5.482001e-016
    outer loop
      vertex   -3.313012e+001 2.097543e+001 2.431255e-002
      vertex   -1.267357e+001 2.097543e+001 1.298569e+001
      vertex   -1.267357e+001 2.097543e+001 2.431255e-002
    endloop
  endfacet
  facet normal 1.000000e+000 4.230454e-017 0.000000e+000
    outer loop
      vertex   -1.267357e+001 2.097543e+001 1.298569e+001
      vertex   -1.267357e+001 -2.101431e+001 1.298569e+001
      vertex   -1.267357e+001 2.097543e+001 2.431255e-002
    endloop
  endfacet
  facet normal 1.000000e+000 4.230454e-017 -2.319135e-032
    outer loop
      vertex   -1.267357e+001 2.097543e+001 2.431255e-002
      vertex   -1.267357e+001 -2.101431e+001 1.298569e+001
      vertex   -1.267357e+001 -2.101431e+001 2.431255e-002
    endloop
  endfacet
  facet normal -5.610918e-016 1.000000e+000 -5.482001e-016
    outer loop
      vertex   -1.267357e+001 -2.101431e+001 1.298569e+001
      vertex   -1.000000e-002 -2.101431e+001 1.298569e+001
      vertex   -1.267357e+001 -2.101431e+001 2.431255e-002
    endloop
  endfacet
  facet normal -5.610918e-016 1.000000e+000 -5.482001e-016
    outer loop
      vertex   -1.267357e+001 -2.101431e+001 2.431255e-002
      vertex   -1.000000e-002 -2.101431e+001 1.298569e+001
      vertex   -1.000000e-002 -2.101431e+001 2.431255e-002
    endloop
  endfacet
  facet normal 0.000000e+000 -1.000000e+000 5.482001e-016
    outer loop
      vertex   -4.779369e+001 1.897543e+001 1.298569e+001
      vertex   -6.045629e+001 1.897543e+001 1.298569e+001
      vertex   -4.779369e+001 1.897543e+001 2.431255e-002
    endloop
  endfacet
  facet normal 0.000000e+000 -1.000000e+000 5.482001e-016
    outer loop
      vertex   -4.779369e+001 1.897543e+001 2.431255e-002
      vertex   -6.045629e+001 1.897543e+001 1.298569e+001
      vertex   -6.045629e+001 1.897543e+001 2.431255e-002
    endloop
  endfacet
  facet normal 1.000000e+000 3.504164e-016 1.096400e-015
    outer loop
      vertex   -6.045629e+001 1.897543e+001 1.298569e+001
      vertex   -6.045629e+001 -2.157877e+001 1.298569e+001
      vertex   -6.045629e+001 1.897543e+001 2.431255e-002
    endloop
  endfacet
  facet normal 1.000000e+000 0.000000e+000 0.000000e+000
    outer loop
      vertex   -6.045629e+001 1.897543e+001 2.431255e-002
      vertex   -6.045629e+001 -2.157877e+001 1.298569e+001
      vertex   -6.045629e+001 -2.157877e+001 2.431255e-002
    endloop
  endfacet
  facet normal 0.000000e+000 -1.000000e+000 5.482001e-016
    outer loop
      vertex   -6.045629e+001 -2.157877e+001 1.298569e+001
      vertex   -7.717113e+001 -2.157877e+001 1.298569e+001
      vertex   -6.045629e+001 -2.157877e+001 2.431255e-002
    endloop
  endfacet
  facet normal 0.000000e+000 -1.000000e+000 5.482001e-016
    outer loop
      vertex   -6.045629e+001 -2.157877e+001 2.431255e-002
      vertex   -7.717113e+001 -2.157877e+001 1.298569e+001
      vertex   -7.717113e+001 -2.157877e+001 2.431255e-002
    endloop
  endfacet
  facet normal -1.000000e+000 0.000000e+000 0.000000e+000
    outer loop
      vertex   -7.717113e+001 -2.157877e+001 2.431255e-002
      vertex   -7.717113e+001 -2.157877e+001 1.298569e+001
      vertex   -7.717113e+001 8.286225e+000 2.431255e-002
    endloop
  endfacet
  facet normal -1.000000e+000 0.000000e+000 0.000000e+000
    outer loop
      vertex   -7.717113e+001 8.286225e+000 2.431255e-002
      vertex   -7.717113e+001 -2.157877e+001 1.298569e+001
      vertex   -7.717113e+001 8.286225e+000 1.298569e+001
    endloop
  endfacet
  facet normal -1.000000e+000 -0.000000e+000 0.000000e+000
    outer loop
      vertex   -7.717113e+001 3.815121e+001 1.298569e+001
      vertex   -7.717113e+001 8.286225e+000 2.431255e-002
      vertex   -7.717113e+001 8.286225e+000 1.298569e+001
    endloop
  endfacet
  facet normal -1.000000e+000 -0.000000e+000 0.000000e+000
    outer loop
      vertex   -7.717113e+001 3.815121e+001 1.298569e+001
      vertex   -7.717113e+001 3.815121e+001 2.431255e-002
      vertex   -7.717113e+001 8.286225e+000 2.431255e-002
    endloop
  endfacet
  facet normal 0.000000e+000 1.000000e+000 -5.482001e-016
    outer loop
      vertex   -7.717113e+001 3.815121e+001 1.298569e+001
      vertex   -3.759057e+001 3.815121e+001 1.298569e+001
      vertex   -7.717113e+001 3.815121e+001 2.431255e-002
    endloop
  endfacet
  facet normal 0.000000e+000 1.000000e+000 -5.482001e-016
    outer loop
      vertex   -7.717113e+001 3.815121e+001 2.431255e-002
      vertex   -3.759057e+001 3.815121e+001 1.298569e+001
      vertex   -3.759057e+001 3.815121e+001 2.431255e-002
    endloop
  endfacet
  facet normal 0.000000e+000 1.000000e+000 -5.482001e-016
    outer loop
      vertex   -3.759057e+001 3.815121e+001 2.431255e-002
      vertex   -3.759057e+001 3.815121e+001 1.298569e+001
      vertex   1.990000e+000 3.815121e+001 1.298569e+001
    endloop
  endfacet
  facet normal -1.795181e-016 1.000000e+000 -9.841184e-032
    outer loop
      vertex   1.990000e+000 3.815121e+001 2.431255e-002
      vertex   -3.759057e+001 3.815121e+001 2.431255e-002
      vertex   1.990000e+000 3.815121e+001 1.298569e+001
    endloop
  endfacet
  facet normal -1.000000e+000 -5.959880e-017 3.406945e-032
    outer loop
      vertex   -1.000000e-002 -2.101431e+001 1.298569e+001
      vertex   -1.000000e-002 7.568451e+000 1.298569e+001
      vertex   -1.000000e-002 -2.101431e+001 2.431255e-002
    endloop
  endfacet
  facet normal -1.000000e+000 -6.123746e-017 3.613624e-018
    outer loop
      vertex   -1.000000e-002 -2.101431e+001 2.431255e-002
      vertex   -1.000000e-002 7.568451e+000 1.298569e+001
      vertex   -1.000000e-002 7.568451e+000 2.431255e-002
    endloop
  endfacet
  facet normal -1.000000e+000 5.959880e-017 3.613624e-018
    outer loop
      vertex   -1.000000e-002 7.568451e+000 2.431255e-002
      vertex   -1.000000e-002 7.568451e+000 1.298569e+001
      vertex   -1.000000e-002 3.615121e+001 1.298569e+001
    endloop
  endfacet
  facet normal -1.000000e+000 6.123746e-017 -6.813890e-032
    outer loop
      vertex   -1.000000e-002 3.615121e+001 2.431255e-002
      vertex   -1.000000e-002 7.568451e+000 2.431255e-002
      vertex   -1.000000e-002 3.615121e+001 1.298569e+001
    endloop
  endfacet
  facet normal 3.781437e-016 -1.000000e+000 1.096400e-015
    outer loop
      vertex   -1.000000e-002 3.615121e+001 1.298569e+001
      vertex   -3.759057e+001 3.615121e+001 1.298569e+001
      vertex   -1.000000e-002 3.615121e+001 2.431255e-002
    endloop
  endfacet
  facet normal -1.890719e-016 -1.000000e+000 -5.482001e-016
    outer loop
      vertex   -1.000000e-002 3.615121e+001 2.431255e-002
      vertex   -3.759057e+001 3.615121e+001 1.298569e+001
      vertex   -3.759057e+001 3.615121e+001 2.431255e-002
    endloop
  endfacet
  facet normal -0.000000e+000 -1.000000e+000 -5.482001e-016
    outer loop
      vertex   -3.759057e+001 3.615121e+001 2.431255e-002
      vertex   -3.759057e+001 3.615121e+001 1.298569e+001
      vertex   -7.517113e+001 3.615121e+001 1.298569e+001
    endloop
  endfacet
  facet normal 1.890719e-016 -1.000000e+000 0.000000e+000
    outer loop
      vertex   -7.517113e+001 3.615121e+001 2.431255e-002
      vertex   -3.759057e+001 3.615121e+001 2.431255e-002
      vertex   -7.517113e+001 3.615121e+001 1.298569e+001
    endloop
  endfacet
  facet normal 1.000000e+000 0.000000e+000 0.000000e+000
    outer loop
      vertex   -7.517113e+001 3.615121e+001 1.298569e+001
      vertex   -7.517113e+001 -1.957877e+001 1.298569e+001
      vertex   -7.517113e+001 3.615121e+001 2.431255e-002
    endloop
  endfacet
  facet normal 1.000000e+000 0.000000e+000 0.000000e+000
    outer loop
      vertex   -7.517113e+001 3.615121e+001 2.431255e-002
      vertex   -7.517113e+001 -1.957877e+001 1.298569e+001
      vertex   -7.517113e+001 -1.957877e+001 2.431255e-002
    endloop
  endfacet
  facet normal 1.000000e+000 1.742508e-016 1.884438e-016
    outer loop
      vertex   1.990000e+000 3.815121e+001 1.298569e+001
      vertex   1.990000e+000 7.568451e+000 1.298569e+001
      vertex   1.990000e+000 3.815121e+001 2.431255e-002
    endloop
  endfacet
  facet normal 1.000000e+000 9.438584e-017 -2.587116e-032
    outer loop
      vertex   1.990000e+000 3.815121e+001 2.431255e-002
      vertex   1.990000e+000 7.568451e+000 1.298569e+001
      vertex   1.990000e+000 7.568451e+000 2.431255e-002
    endloop
  endfacet
  facet normal 1.000000e+000 7.260449e-017 -1.990090e-032
    outer loop
      vertex   1.990000e+000 7.568451e+000 2.431255e-002
      vertex   1.990000e+000 7.568451e+000 1.298569e+001
      vertex   1.990000e+000 -2.301431e+001 1.298569e+001
    endloop
  endfacet
  facet normal 1.000000e+000 7.986494e-017 1.713125e-017
    outer loop
      vertex   1.990000e+000 -2.301431e+001 2.431255e-002
      vertex   1.990000e+000 7.568451e+000 2.431255e-002
      vertex   1.990000e+000 -2.301431e+001 1.298569e+001
    endloop
  endfacet
  facet normal 3.608225e-016 -4.441385e-016 -1.000000e+000
    outer loop
      vertex   -1.000000e-002 7.568451e+000 2.431255e-002
      vertex   1.990000e+000 7.568451e+000 2.431255e-002
      vertex   -1.000000e-002 -2.101431e+001 2.431255e-002
    endloop
  endfacet
  facet normal 3.608225e-016 -4.686578e-016 -1.000000e+000
    outer loop
      vertex   -1.000000e-002 7.568451e+000 2.431255e-002
      vertex   -1.000000e-002 3.615121e+001 2.431255e-002
      vertex   1.990000e+000 7.568451e+000 2.431255e-002
    endloop
  endfacet
  facet normal 2.022011e-016 -4.797569e-016 -1.000000e+000
    outer loop
      vertex   1.990000e+000 7.568451e+000 2.431255e-002
      vertex   -1.000000e-002 3.615121e+001 2.431255e-002
      vertex   1.990000e+000 3.815121e+001 2.431255e-002
    endloop
  endfacet
  facet normal 4.982628e-032 -2.775558e-016 -1.000000e+000
    outer loop
      vertex   1.990000e+000 3.815121e+001 2.431255e-002
      vertex   -1.000000e-002 3.615121e+001 2.431255e-002
      vertex   -3.759057e+001 3.815121e+001 2.431255e-002
    endloop
  endfacet
  facet normal -5.247798e-032 -2.775558e-016 -1.000000e+000
    outer loop
      vertex   -3.759057e+001 3.815121e+001 2.431255e-002
      vertex   -1.000000e-002 3.615121e+001 2.431255e-002
      vertex   -3.759057e+001 3.615121e+001 2.431255e-002
    endloop
  endfacet
  facet normal 5.247798e-032 -2.775558e-016 -1.000000e+000
    outer loop
      vertex   -7.517113e+001 3.615121e+001 2.431255e-002
      vertex   -3.759057e+001 3.815121e+001 2.431255e-002
      vertex   -3.759057e+001 3.615121e+001 2.431255e-002
    endloop
  endfacet
  facet normal 0.000000e+000 -2.775558e-016 -1.000000e+000
    outer loop
      vertex   -7.517113e+001 3.615121e+001 2.431255e-002
      vertex   -7.717113e+001 3.815121e+001 2.431255e-002
      vertex   -3.759057e+001 3.815121e+001 2.431255e-002
    endloop
  endfacet
  facet normal -1.419379e-016 -4.194936e-016 -1.000000e+000
    outer loop
      vertex   -7.517113e+001 3.615121e+001 2.431255e-002
      vertex   -7.717113e+001 8.286225e+000 2.431255e-002
      vertex   -7.717113e+001 3.815121e+001 2.431255e-002
    endloop
  endfacet
  facet normal 3.972517e-016 -4.581938e-016 -1.000000e+000
    outer loop
      vertex   -7.517113e+001 3.615121e+001 2.431255e-002
      vertex   -7.517113e+001 -1.957877e+001 2.431255e-002
      vertex   -7.717113e+001 8.286225e+000 2.431255e-002
    endloop
  endfacet
  facet normal 1.951442e-016 -4.727000e-016 -1.000000e+000
    outer loop
      vertex   -7.717113e+001 8.286225e+000 2.431255e-002
      vertex   -7.517113e+001 -1.957877e+001 2.431255e-002
      vertex   -7.717113e+001 -2.157877e+001 2.431255e-002
    endloop
  endfacet
  facet normal 0.000000e+000 -2.775558e-016 -1.000000e+000
    outer loop
      vertex   -7.717113e+001 -2.157877e+001 2.431255e-002
      vertex   -7.517113e+001 -1.957877e+001 2.431255e-002
      vertex   -6.245629e+001 -1.957877e+001 2.431255e-002
    endloop
  endfacet
  facet normal -1.604647e-016 -4.380204e-016 -1.000000e+000
    outer loop
      vertex   -6.045629e+001 -2.157877e+001 2.431255e-002
      vertex   -6.245629e+001 -1.957877e+001 2.431255e-002
      vertex   -6.045629e+001 1.897543e+001 2.431255e-002
    endloop
  endfacet
  facet normal -0.000000e+000 -2.775558e-016 -1.000000e+000
    outer loop
      vertex   -6.045629e+001 -2.157877e+001 2.431255e-002
      vertex   -7.717113e+001 -2.157877e+001 2.431255e-002
      vertex   -6.245629e+001 -1.957877e+001 2.431255e-002
    endloop
  endfacet
  facet normal -1.604647e-016 -4.380204e-016 -1.000000e+000
    outer loop
      vertex   -6.245629e+001 -1.957877e+001 2.431255e-002
      vertex   -6.245629e+001 2.097543e+001 2.431255e-002
      vertex   -6.045629e+001 1.897543e+001 2.431255e-002
    endloop
  endfacet
  facet normal 0.000000e+000 -2.775558e-016 -1.000000e+000
    outer loop
      vertex   -6.045629e+001 1.897543e+001 2.431255e-002
      vertex   -6.245629e+001 2.097543e+001 2.431255e-002
      vertex   -4.579369e+001 2.097543e+001 2.431255e-002
    endloop
  endfacet
  facet normal 1.784862e-016 -4.560419e-016 -1.000000e+000
    outer loop
      vertex   -4.779369e+001 1.897543e+001 2.431255e-002
      vertex   -4.579369e+001 2.097543e+001 2.431255e-002
      vertex   -4.579369e+001 -1.675894e+001 2.431255e-002
    endloop
  endfacet
  facet normal 0.000000e+000 -2.775558e-016 -1.000000e+000
    outer loop
      vertex   -4.779369e+001 -1.875894e+001 2.431255e-002
      vertex   -4.579369e+001 -1.675894e+001 2.431255e-002
      vertex   -3.313012e+001 -1.675894e+001 2.431255e-002
    endloop
  endfacet
  facet normal -1.784862e-016 -4.560419e-016 -1.000000e+000
    outer loop
      vertex   -3.113012e+001 -1.875894e+001 2.431255e-002
      vertex   -3.313012e+001 -1.675894e+001 2.431255e-002
      vertex   -3.113012e+001 1.897543e+001 2.431255e-002
    endloop
  endfacet
  facet normal -0.000000e+000 -2.775558e-016 -1.000000e+000
    outer loop
      vertex   -3.113012e+001 -1.875894e+001 2.431255e-002
      vertex   -4.779369e+001 -1.875894e+001 2.431255e-002
      vertex   -3.313012e+001 -1.675894e+001 2.431255e-002
    endloop
  endfacet
  facet normal 0.000000e+000 -2.775558e-016 -1.000000e+000
    outer loop
      vertex   -6.045629e+001 1.897543e+001 2.431255e-002
      vertex   -4.579369e+001 2.097543e+001 2.431255e-002
      vertex   -4.779369e+001 1.897543e+001 2.431255e-002
    endloop
  endfacet
  facet normal 1.784862e-016 -4.560419e-016 -1.000000e+000
    outer loop
      vertex   -4.779369e+001 1.897543e+001 2.431255e-002
      vertex   -4.579369e+001 -1.675894e+001 2.431255e-002
      vertex   -4.779369e+001 -1.875894e+001 2.431255e-002
    endloop
  endfacet
  facet normal -1.784862e-016 -4.560419e-016 -1.000000e+000
    outer loop
      vertex   -3.313012e+001 -1.675894e+001 2.431255e-002
      vertex   -3.313012e+001 2.097543e+001 2.431255e-002
      vertex   -3.113012e+001 1.897543e+001 2.431255e-002
    endloop
  endfacet
  facet normal 0.000000e+000 -2.775558e-016 -1.000000e+000
    outer loop
      vertex   -3.113012e+001 1.897543e+001 2.431255e-002
      vertex   -3.313012e+001 2.097543e+001 2.431255e-002
      vertex   -1.267357e+001 2.097543e+001 2.431255e-002
    endloop
  endfacet
  facet normal 1.587098e-016 -4.362656e-016 -1.000000e+000
    outer loop
      vertex   -1.467357e+001 1.897543e+001 2.431255e-002
      vertex   -1.267357e+001 2.097543e+001 2.431255e-002
      vertex   -1.267357e+001 -2.101431e+001 2.431255e-002
    endloop
  endfacet
  facet normal 1.557343e-031 -2.775558e-016 -1.000000e+000
    outer loop
      vertex   -1.467357e+001 -2.301431e+001 2.431255e-002
      vertex   -1.267357e+001 -2.101431e+001 2.431255e-002
      vertex   -1.000000e-002 -2.101431e+001 2.431255e-002
    endloop
  endfacet
  facet normal -1.320924e-016 -4.096482e-016 -1.000000e+000
    outer loop
      vertex   1.990000e+000 -2.301431e+001 2.431255e-002
      vertex   -1.000000e-002 -2.101431e+001 2.431255e-002
      vertex   1.990000e+000 7.568451e+000 2.431255e-002
    endloop
  endfacet
  facet normal -0.000000e+000 -2.775558e-016 -1.000000e+000
    outer loop
      vertex   1.990000e+000 -2.301431e+001 2.431255e-002
      vertex   -1.467357e+001 -2.301431e+001 2.431255e-002
      vertex   -1.000000e-002 -2.101431e+001 2.431255e-002
    endloop
  endfacet
  facet normal 0.000000e+000 -2.775558e-016 -1.000000e+000
    outer loop
      vertex   -3.113012e+001 1.897543e+001 2.431255e-002
      vertex   -1.267357e+001 2.097543e+001 2.431255e-002
      vertex   -1.467357e+001 1.897543e+001 2.431255e-002
    endloop
  endfacet
  facet normal 1.587098e-016 -4.362656e-016 -1.000000e+000
    outer loop
      vertex   -1.467357e+001 1.897543e+001 2.431255e-002
      vertex   -1.267357e+001 -2.101431e+001 2.431255e-002
      vertex   -1.467357e+001 -2.301431e+001 2.431255e-002
    endloop
  endfacet
endsolid
