solid ascii
  facet normal -7.071068e-001 2.805254e-016 7.071068e-001
    outer loop
      vertex   -4.666576e+001 -1.503392e+001 1.299294e+001
      vertex   -4.567576e+001 -1.404392e+001 1.398294e+001
      vertex   -4.666576e+001 1.634304e+001 1.299294e+001
    endloop
  endfacet
  facet normal -7.071068e-001 2.001587e-016 7.071068e-001
    outer loop
      vertex   -4.666576e+001 1.634304e+001 1.299294e+001
      vertex   -4.567576e+001 -1.404392e+001 1.398294e+001
      vertex   -4.567576e+001 1.733304e+001 1.398294e+001
    endloop
  endfacet
  facet normal -7.514722e-017 -7.071068e-001 7.071068e-001
    outer loop
      vertex   -4.666576e+001 -1.503392e+001 1.299294e+001
      vertex   -2.995092e+001 -1.503392e+001 1.299294e+001
      vertex   -4.567576e+001 -1.404392e+001 1.398294e+001
    endloop
  endfacet
  facet normal 8.610621e-017 -7.071068e-001 7.071068e-001
    outer loop
      vertex   -4.567576e+001 -1.404392e+001 1.398294e+001
      vertex   -2.995092e+001 -1.503392e+001 1.299294e+001
      vertex   -3.094092e+001 -1.404392e+001 1.398294e+001
    endloop
  endfacet
  facet normal 0.000000e+000 -7.071068e-001 7.071068e-001
    outer loop
      vertex   -4.567576e+001 1.733304e+001 1.398294e+001
      vertex   -6.144629e+001 1.733304e+001 1.398294e+001
      vertex   -4.666576e+001 1.634304e+001 1.299294e+001
    endloop
  endfacet
  facet normal 3.622594e-016 -7.071068e-001 7.071068e-001
    outer loop
      vertex   -4.666576e+001 1.634304e+001 1.299294e+001
      vertex   -6.144629e+001 1.733304e+001 1.398294e+001
      vertex   -6.045629e+001 1.634304e+001 1.299294e+001
    endloop
  endfacet
  facet normal 7.071068e-001 1.601270e-016 7.071068e-001
    outer loop
      vertex   -2.995092e+001 -1.503392e+001 1.299294e+001
      vertex   -2.995092e+001 1.634304e+001 1.299294e+001
      vertex   -3.094092e+001 -1.404392e+001 1.398294e+001
    endloop
  endfacet
  facet normal 7.071068e-001 1.617444e-016 7.071068e-001
    outer loop
      vertex   -3.094092e+001 -1.404392e+001 1.398294e+001
      vertex   -2.995092e+001 1.634304e+001 1.299294e+001
      vertex   -3.094092e+001 1.733304e+001 1.398294e+001
    endloop
  endfacet
  facet normal 7.071068e-001 1.727745e-016 7.071068e-001
    outer loop
      vertex   -6.144629e+001 1.733304e+001 1.398294e+001
      vertex   -6.144629e+001 -1.901706e+001 1.398294e+001
      vertex   -6.045629e+001 1.634304e+001 1.299294e+001
    endloop
  endfacet
  facet normal 7.071068e-001 4.493882e-016 7.071068e-001
    outer loop
      vertex   -6.045629e+001 1.634304e+001 1.299294e+001
      vertex   -6.144629e+001 -1.901706e+001 1.398294e+001
      vertex   -6.045629e+001 -2.000706e+001 1.299294e+001
    endloop
  endfacet
  facet normal 0.000000e+000 -7.071068e-001 7.071068e-001
    outer loop
      vertex   -6.144629e+001 -1.901706e+001 1.398294e+001
      vertex   -7.618113e+001 -1.901706e+001 1.398294e+001
      vertex   -6.045629e+001 -2.000706e+001 1.299294e+001
    endloop
  endfacet
  facet normal -7.116214e-017 -7.071068e-001 7.071068e-001
    outer loop
      vertex   -6.045629e+001 -2.000706e+001 1.299294e+001
      vertex   -7.618113e+001 -1.901706e+001 1.398294e+001
      vertex   -7.717113e+001 -2.000706e+001 1.299294e+001
    endloop
  endfacet
  facet normal -7.071068e-001 1.876632e-016 7.071068e-001
    outer loop
      vertex   -7.618113e+001 -1.901706e+001 1.398294e+001
      vertex   -7.618113e+001 3.452882e+001 1.398294e+001
      vertex   -7.717113e+001 -2.000706e+001 1.299294e+001
    endloop
  endfacet
  facet normal -7.071068e-001 1.128215e-016 7.071068e-001
    outer loop
      vertex   -7.717113e+001 -2.000706e+001 1.299294e+001
      vertex   -7.618113e+001 3.452882e+001 1.398294e+001
      vertex   -7.717113e+001 3.551882e+001 1.299294e+001
    endloop
  endfacet
  facet normal 0.000000e+000 7.071068e-001 7.071068e-001
    outer loop
      vertex   1.990000e+000 3.551882e+001 1.299294e+001
      vertex   -3.759057e+001 3.551882e+001 1.299294e+001
      vertex   1.000000e+000 3.452882e+001 1.398294e+001
    endloop
  endfacet
  facet normal -1.294552e-016 7.071068e-001 7.071068e-001
    outer loop
      vertex   1.000000e+000 3.452882e+001 1.398294e+001
      vertex   -3.759057e+001 3.551882e+001 1.299294e+001
      vertex   -3.759057e+001 3.452882e+001 1.398294e+001
    endloop
  endfacet
  facet normal 0.000000e+000 7.071068e-001 7.071068e-001
    outer loop
      vertex   -3.759057e+001 3.452882e+001 1.398294e+001
      vertex   -3.759057e+001 3.551882e+001 1.299294e+001
      vertex   -7.618113e+001 3.452882e+001 1.398294e+001
    endloop
  endfacet
  facet normal 3.173461e-017 7.071068e-001 7.071068e-001
    outer loop
      vertex   -7.618113e+001 3.452882e+001 1.398294e+001
      vertex   -3.759057e+001 3.551882e+001 1.299294e+001
      vertex   -7.717113e+001 3.551882e+001 1.299294e+001
    endloop
  endfacet
  facet normal 7.071068e-001 1.654120e-017 7.071068e-001
    outer loop
      vertex   1.990000e+000 3.551882e+001 1.299294e+001
      vertex   1.000000e+000 3.452882e+001 1.398294e+001
      vertex   1.990000e+000 1.634304e+001 1.299294e+001
    endloop
  endfacet
  facet normal 7.071068e-001 2.373978e-016 7.071068e-001
    outer loop
      vertex   1.990000e+000 1.634304e+001 1.299294e+001
      vertex   1.000000e+000 3.452882e+001 1.398294e+001
      vertex   1.000000e+000 1.733304e+001 1.398294e+001
    endloop
  endfacet
  facet normal 1.166838e-016 -7.071068e-001 7.071068e-001
    outer loop
      vertex   1.990000e+000 1.634304e+001 1.299294e+001
      vertex   1.000000e+000 1.733304e+001 1.398294e+001
      vertex   -2.995092e+001 1.634304e+001 1.299294e+001
    endloop
  endfacet
  facet normal 0.000000e+000 -7.071068e-001 7.071068e-001
    outer loop
      vertex   -2.995092e+001 1.634304e+001 1.299294e+001
      vertex   1.000000e+000 1.733304e+001 1.398294e+001
      vertex   -3.094092e+001 1.733304e+001 1.398294e+001
    endloop
  endfacet
  facet normal 1.000000e+000 -6.947658e-017 -1.711210e-016
    outer loop
      vertex   1.990000e+000 3.551882e+001 1.299294e+001
      vertex   1.990000e+000 1.634304e+001 1.299294e+001
      vertex   1.990000e+000 3.551882e+001 1.706033e-002
    endloop
  endfacet
  facet normal 1.000000e+000 5.789715e-017 1.711210e-017
    outer loop
      vertex   1.990000e+000 3.551882e+001 1.706033e-002
      vertex   1.990000e+000 1.634304e+001 1.299294e+001
      vertex   1.990000e+000 1.634304e+001 1.706033e-002
    endloop
  endfacet
  facet normal 1.112277e-016 -1.000000e+000 5.475873e-016
    outer loop
      vertex   1.990000e+000 1.634304e+001 1.299294e+001
      vertex   -2.995092e+001 1.634304e+001 1.299294e+001
      vertex   1.990000e+000 1.634304e+001 1.706033e-002
    endloop
  endfacet
  facet normal 0.000000e+000 -1.000000e+000 2.737937e-016
    outer loop
      vertex   1.990000e+000 1.634304e+001 1.706033e-002
      vertex   -2.995092e+001 1.634304e+001 1.299294e+001
      vertex   -2.995092e+001 1.634304e+001 1.706033e-002
    endloop
  endfacet
  facet normal 1.000000e+000 0.000000e+000 0.000000e+000
    outer loop
      vertex   -2.995092e+001 1.634304e+001 1.299294e+001
      vertex   -2.995092e+001 -1.503392e+001 1.299294e+001
      vertex   -2.995092e+001 1.634304e+001 1.706033e-002
    endloop
  endfacet
  facet normal 1.000000e+000 0.000000e+000 0.000000e+000
    outer loop
      vertex   -2.995092e+001 1.634304e+001 1.706033e-002
      vertex   -2.995092e+001 -1.503392e+001 1.299294e+001
      vertex   -2.995092e+001 -1.503392e+001 1.706033e-002
    endloop
  endfacet
  facet normal -1.454860e-032 -1.000000e+000 1.368968e-016
    outer loop
      vertex   -2.995092e+001 -1.503392e+001 1.299294e+001
      vertex   -4.666576e+001 -1.503392e+001 1.299294e+001
      vertex   -2.995092e+001 -1.503392e+001 1.706033e-002
    endloop
  endfacet
  facet normal 0.000000e+000 -1.000000e+000 1.368968e-016
    outer loop
      vertex   -2.995092e+001 -1.503392e+001 1.706033e-002
      vertex   -4.666576e+001 -1.503392e+001 1.299294e+001
      vertex   -4.666576e+001 -1.503392e+001 1.706033e-002
    endloop
  endfacet
  facet normal -1.000000e+000 -2.170056e-031 -5.475873e-016
    outer loop
      vertex   -4.666576e+001 -1.503392e+001 1.299294e+001
      vertex   -4.666576e+001 1.634304e+001 1.299294e+001
      vertex   -4.666576e+001 -1.503392e+001 1.706033e-002
    endloop
  endfacet
  facet normal -1.000000e+000 -2.480064e-031 -5.475873e-016
    outer loop
      vertex   -4.666576e+001 -1.503392e+001 1.706033e-002
      vertex   -4.666576e+001 1.634304e+001 1.299294e+001
      vertex   -4.666576e+001 1.634304e+001 1.706033e-002
    endloop
  endfacet
  facet normal -0.000000e+000 -0.000000e+000 1.000000e+000
    outer loop
      vertex   -4.565576e+001 -1.402392e+001 1.398294e+001
      vertex   -3.094092e+001 -1.404392e+001 1.398294e+001
      vertex   -3.096092e+001 -1.402392e+001 1.398294e+001
    endloop
  endfacet
  facet normal 1.205548e-016 8.869729e-014 1.000000e+000
    outer loop
      vertex   -4.565576e+001 -1.402392e+001 1.398294e+001
      vertex   -4.567576e+001 -1.404392e+001 1.398294e+001
      vertex   -3.094092e+001 -1.404392e+001 1.398294e+001
    endloop
  endfacet
  facet normal 8.853477e-014 2.830671e-016 1.000000e+000
    outer loop
      vertex   -4.565576e+001 -1.402392e+001 1.398294e+001
      vertex   -4.567576e+001 1.733304e+001 1.398294e+001
      vertex   -4.567576e+001 -1.404392e+001 1.398294e+001
    endloop
  endfacet
  facet normal -2.264537e-016 2.264537e-016 1.000000e+000
    outer loop
      vertex   -4.565576e+001 -1.402392e+001 1.398294e+001
      vertex   -4.565576e+001 1.735304e+001 1.398294e+001
      vertex   -4.567576e+001 1.733304e+001 1.398294e+001
    endloop
  endfacet
  facet normal 0.000000e+000 -0.000000e+000 1.000000e+000
    outer loop
      vertex   -4.567576e+001 1.733304e+001 1.398294e+001
      vertex   -4.565576e+001 1.735304e+001 1.398294e+001
      vertex   -6.146629e+001 1.735304e+001 1.398294e+001
    endloop
  endfacet
  facet normal 2.443400e-016 2.443400e-016 1.000000e+000
    outer loop
      vertex   -6.144629e+001 1.733304e+001 1.398294e+001
      vertex   -6.146629e+001 1.735304e+001 1.398294e+001
      vertex   -6.146629e+001 -1.899706e+001 1.398294e+001
    endloop
  endfacet
  facet normal 0.000000e+000 0.000000e+000 1.000000e+000
    outer loop
      vertex   -6.144629e+001 -1.901706e+001 1.398294e+001
      vertex   -6.146629e+001 -1.899706e+001 1.398294e+001
      vertex   -7.616113e+001 -1.899706e+001 1.398294e+001
    endloop
  endfacet
  facet normal -2.653959e-016 2.653959e-016 1.000000e+000
    outer loop
      vertex   -7.618113e+001 -1.901706e+001 1.398294e+001
      vertex   -7.616113e+001 -1.899706e+001 1.398294e+001
      vertex   -7.618113e+001 3.452882e+001 1.398294e+001
    endloop
  endfacet
  facet normal 0.000000e+000 -0.000000e+000 1.000000e+000
    outer loop
      vertex   -7.618113e+001 -1.901706e+001 1.398294e+001
      vertex   -6.144629e+001 -1.901706e+001 1.398294e+001
      vertex   -7.616113e+001 -1.899706e+001 1.398294e+001
    endloop
  endfacet
  facet normal 0.000000e+000 0.000000e+000 1.000000e+000
    outer loop
      vertex   -4.567576e+001 1.733304e+001 1.398294e+001
      vertex   -6.146629e+001 1.735304e+001 1.398294e+001
      vertex   -6.144629e+001 1.733304e+001 1.398294e+001
    endloop
  endfacet
  facet normal 2.443400e-016 2.443400e-016 1.000000e+000
    outer loop
      vertex   -6.144629e+001 1.733304e+001 1.398294e+001
      vertex   -6.146629e+001 -1.899706e+001 1.398294e+001
      vertex   -6.144629e+001 -1.901706e+001 1.398294e+001
    endloop
  endfacet
  facet normal 2.655943e-016 2.655943e-016 1.000000e+000
    outer loop
      vertex   -7.616113e+001 -1.899706e+001 1.398294e+001
      vertex   -7.616113e+001 3.450882e+001 1.398294e+001
      vertex   -7.618113e+001 3.452882e+001 1.398294e+001
    endloop
  endfacet
  facet normal -0.000000e+000 0.000000e+000 1.000000e+000
    outer loop
      vertex   -7.618113e+001 3.452882e+001 1.398294e+001
      vertex   -7.616113e+001 3.450882e+001 1.398294e+001
      vertex   -3.759057e+001 3.452882e+001 1.398294e+001
    endloop
  endfacet
  facet normal -0.000000e+000 0.000000e+000 1.000000e+000
    outer loop
      vertex   -3.759057e+001 3.452882e+001 1.398294e+001
      vertex   -7.616113e+001 3.450882e+001 1.398294e+001
      vertex   -3.759057e+001 3.450882e+001 1.398294e+001
    endloop
  endfacet
  facet normal 0.000000e+000 0.000000e+000 1.000000e+000
    outer loop
      vertex   9.800000e-001 3.450882e+001 1.398294e+001
      vertex   -3.759057e+001 3.452882e+001 1.398294e+001
      vertex   -3.759057e+001 3.450882e+001 1.398294e+001
    endloop
  endfacet
  facet normal 0.000000e+000 -0.000000e+000 1.000000e+000
    outer loop
      vertex   9.800000e-001 3.450882e+001 1.398294e+001
      vertex   1.000000e+000 3.452882e+001 1.398294e+001
      vertex   -3.759057e+001 3.452882e+001 1.398294e+001
    endloop
  endfacet
  facet normal -3.106283e-016 3.106283e-016 1.000000e+000
    outer loop
      vertex   9.800000e-001 3.450882e+001 1.398294e+001
      vertex   9.800000e-001 1.735304e+001 1.398294e+001
      vertex   1.000000e+000 3.452882e+001 1.398294e+001
    endloop
  endfacet
  facet normal 3.099057e-016 3.099057e-016 1.000000e+000
    outer loop
      vertex   1.000000e+000 3.452882e+001 1.398294e+001
      vertex   9.800000e-001 1.735304e+001 1.398294e+001
      vertex   1.000000e+000 1.733304e+001 1.398294e+001
    endloop
  endfacet
  facet normal 0.000000e+000 0.000000e+000 1.000000e+000
    outer loop
      vertex   1.000000e+000 1.733304e+001 1.398294e+001
      vertex   9.800000e-001 1.735304e+001 1.398294e+001
      vertex   -3.094092e+001 1.733304e+001 1.398294e+001
    endloop
  endfacet
  facet normal 0.000000e+000 -0.000000e+000 1.000000e+000
    outer loop
      vertex   -3.094092e+001 1.733304e+001 1.398294e+001
      vertex   9.800000e-001 1.735304e+001 1.398294e+001
      vertex   -3.096092e+001 1.735304e+001 1.398294e+001
    endloop
  endfacet
  facet normal 2.264537e-016 2.264537e-016 1.000000e+000
    outer loop
      vertex   -3.096092e+001 -1.402392e+001 1.398294e+001
      vertex   -3.094092e+001 1.733304e+001 1.398294e+001
      vertex   -3.096092e+001 1.735304e+001 1.398294e+001
    endloop
  endfacet
  facet normal 2.264537e-016 2.264537e-016 1.000000e+000
    outer loop
      vertex   -3.096092e+001 -1.402392e+001 1.398294e+001
      vertex   -3.094092e+001 -1.404392e+001 1.398294e+001
      vertex   -3.094092e+001 1.733304e+001 1.398294e+001
    endloop
  endfacet
  facet normal 0.000000e+000 7.071068e-001 7.071068e-001
    outer loop
      vertex   -4.466576e+001 1.834304e+001 1.299294e+001
      vertex   -6.245629e+001 1.834304e+001 1.299294e+001
      vertex   -4.565576e+001 1.735304e+001 1.398294e+001
    endloop
  endfacet
  facet normal 0.000000e+000 7.071068e-001 7.071068e-001
    outer loop
      vertex   -4.565576e+001 1.735304e+001 1.398294e+001
      vertex   -6.245629e+001 1.834304e+001 1.299294e+001
      vertex   -6.146629e+001 1.735304e+001 1.398294e+001
    endloop
  endfacet
  facet normal 1.709544e-016 7.071068e-001 7.071068e-001
    outer loop
      vertex   -4.565576e+001 -1.402392e+001 1.398294e+001
      vertex   -3.096092e+001 -1.402392e+001 1.398294e+001
      vertex   -4.466576e+001 -1.303392e+001 1.299294e+001
    endloop
  endfacet
  facet normal 9.978586e-017 7.071068e-001 7.071068e-001
    outer loop
      vertex   -4.466576e+001 -1.303392e+001 1.299294e+001
      vertex   -3.096092e+001 -1.402392e+001 1.398294e+001
      vertex   -3.195092e+001 -1.303392e+001 1.299294e+001
    endloop
  endfacet
  facet normal -7.071068e-001 1.601270e-016 7.071068e-001
    outer loop
      vertex   -3.096092e+001 -1.402392e+001 1.398294e+001
      vertex   -3.096092e+001 1.735304e+001 1.398294e+001
      vertex   -3.195092e+001 -1.303392e+001 1.299294e+001
    endloop
  endfacet
  facet normal -7.071068e-001 1.213083e-016 7.071068e-001
    outer loop
      vertex   -3.195092e+001 -1.303392e+001 1.299294e+001
      vertex   -3.096092e+001 1.735304e+001 1.398294e+001
      vertex   -3.195092e+001 1.834304e+001 1.299294e+001
    endloop
  endfacet
  facet normal -7.944428e-017 7.071068e-001 7.071068e-001
    outer loop
      vertex   9.800000e-001 1.735304e+001 1.398294e+001
      vertex   -1.000000e-002 1.834304e+001 1.299294e+001
      vertex   -3.096092e+001 1.735304e+001 1.398294e+001
    endloop
  endfacet
  facet normal -1.572997e-016 7.071068e-001 7.071068e-001
    outer loop
      vertex   -3.096092e+001 1.735304e+001 1.398294e+001
      vertex   -1.000000e-002 1.834304e+001 1.299294e+001
      vertex   -3.195092e+001 1.834304e+001 1.299294e+001
    endloop
  endfacet
  facet normal -7.071068e-001 1.987550e-016 7.071068e-001
    outer loop
      vertex   9.800000e-001 3.450882e+001 1.398294e+001
      vertex   -1.000000e-002 3.351882e+001 1.299294e+001
      vertex   9.800000e-001 1.735304e+001 1.398294e+001
    endloop
  endfacet
  facet normal -7.071068e-001 3.310733e-016 7.071068e-001
    outer loop
      vertex   9.800000e-001 1.735304e+001 1.398294e+001
      vertex   -1.000000e-002 3.351882e+001 1.299294e+001
      vertex   -1.000000e-002 1.834304e+001 1.299294e+001
    endloop
  endfacet
  facet normal 0.000000e+000 -7.071068e-001 7.071068e-001
    outer loop
      vertex   -7.616113e+001 3.450882e+001 1.398294e+001
      vertex   -7.517113e+001 3.351882e+001 1.299294e+001
      vertex   -3.759057e+001 3.450882e+001 1.398294e+001
    endloop
  endfacet
  facet normal 0.000000e+000 -7.071068e-001 7.071068e-001
    outer loop
      vertex   -3.759057e+001 3.450882e+001 1.398294e+001
      vertex   -7.517113e+001 3.351882e+001 1.299294e+001
      vertex   -3.759057e+001 3.351882e+001 1.299294e+001
    endloop
  endfacet
  facet normal 6.752222e-017 -7.071068e-001 7.071068e-001
    outer loop
      vertex   -1.000000e-002 3.351882e+001 1.299294e+001
      vertex   -3.759057e+001 3.450882e+001 1.398294e+001
      vertex   -3.759057e+001 3.351882e+001 1.299294e+001
    endloop
  endfacet
  facet normal 1.302624e-016 -7.071068e-001 7.071068e-001
    outer loop
      vertex   -1.000000e-002 3.351882e+001 1.299294e+001
      vertex   9.800000e-001 3.450882e+001 1.398294e+001
      vertex   -3.759057e+001 3.450882e+001 1.398294e+001
    endloop
  endfacet
  facet normal 7.071068e-001 1.462652e-016 7.071068e-001
    outer loop
      vertex   -7.517113e+001 -1.800706e+001 1.299294e+001
      vertex   -7.517113e+001 3.351882e+001 1.299294e+001
      vertex   -7.616113e+001 -1.899706e+001 1.398294e+001
    endloop
  endfacet
  facet normal 7.071068e-001 1.867364e-016 7.071068e-001
    outer loop
      vertex   -7.616113e+001 -1.899706e+001 1.398294e+001
      vertex   -7.517113e+001 3.351882e+001 1.299294e+001
      vertex   -7.616113e+001 3.450882e+001 1.398294e+001
    endloop
  endfacet
  facet normal 1.975760e-016 7.071068e-001 7.071068e-001
    outer loop
      vertex   -6.245629e+001 -1.800706e+001 1.299294e+001
      vertex   -7.517113e+001 -1.800706e+001 1.299294e+001
      vertex   -6.146629e+001 -1.899706e+001 1.398294e+001
    endloop
  endfacet
  facet normal 1.726812e-016 7.071068e-001 7.071068e-001
    outer loop
      vertex   -6.146629e+001 -1.899706e+001 1.398294e+001
      vertex   -7.517113e+001 -1.800706e+001 1.299294e+001
      vertex   -7.616113e+001 -1.899706e+001 1.398294e+001
    endloop
  endfacet
  facet normal -7.071068e-001 6.910980e-017 7.071068e-001
    outer loop
      vertex   -6.245629e+001 1.834304e+001 1.299294e+001
      vertex   -6.245629e+001 -1.800706e+001 1.299294e+001
      vertex   -6.146629e+001 1.735304e+001 1.398294e+001
    endloop
  endfacet
  facet normal -7.071068e-001 1.723382e-016 7.071068e-001
    outer loop
      vertex   -6.146629e+001 1.735304e+001 1.398294e+001
      vertex   -6.245629e+001 -1.800706e+001 1.299294e+001
      vertex   -6.146629e+001 -1.899706e+001 1.398294e+001
    endloop
  endfacet
  facet normal 7.071068e-001 1.592171e-016 7.071068e-001
    outer loop
      vertex   -4.466576e+001 1.834304e+001 1.299294e+001
      vertex   -4.565576e+001 1.735304e+001 1.398294e+001
      vertex   -4.466576e+001 -1.303392e+001 1.299294e+001
    endloop
  endfacet
  facet normal 7.071068e-001 1.601270e-016 7.071068e-001
    outer loop
      vertex   -4.466576e+001 -1.303392e+001 1.299294e+001
      vertex   -4.565576e+001 1.735304e+001 1.398294e+001
      vertex   -4.565576e+001 -1.402392e+001 1.398294e+001
    endloop
  endfacet
  facet normal -3.060079e-031 1.000000e+000 -1.095175e-015
    outer loop
      vertex   -7.517113e+001 -1.800706e+001 1.299294e+001
      vertex   -6.245629e+001 -1.800706e+001 1.299294e+001
      vertex   -7.517113e+001 -1.800706e+001 1.706033e-002
    endloop
  endfacet
  facet normal 0.000000e+000 1.000000e+000 -1.095175e-015
    outer loop
      vertex   -7.517113e+001 -1.800706e+001 1.706033e-002
      vertex   -6.245629e+001 -1.800706e+001 1.299294e+001
      vertex   -6.245629e+001 -1.800706e+001 1.706033e-002
    endloop
  endfacet
  facet normal -1.000000e+000 0.000000e+000 -0.000000e+000
    outer loop
      vertex   -6.245629e+001 -1.800706e+001 1.299294e+001
      vertex   -6.245629e+001 1.834304e+001 1.299294e+001
      vertex   -6.245629e+001 -1.800706e+001 1.706033e-002
    endloop
  endfacet
  facet normal -1.000000e+000 0.000000e+000 -0.000000e+000
    outer loop
      vertex   -6.245629e+001 -1.800706e+001 1.706033e-002
      vertex   -6.245629e+001 1.834304e+001 1.299294e+001
      vertex   -6.245629e+001 1.834304e+001 1.706033e-002
    endloop
  endfacet
  facet normal 0.000000e+000 1.000000e+000 -5.475873e-016
    outer loop
      vertex   -6.245629e+001 1.834304e+001 1.299294e+001
      vertex   -4.466576e+001 1.834304e+001 1.299294e+001
      vertex   -6.245629e+001 1.834304e+001 1.706033e-002
    endloop
  endfacet
  facet normal 0.000000e+000 1.000000e+000 -5.475873e-016
    outer loop
      vertex   -6.245629e+001 1.834304e+001 1.706033e-002
      vertex   -4.466576e+001 1.834304e+001 1.299294e+001
      vertex   -4.466576e+001 1.834304e+001 1.706033e-002
    endloop
  endfacet
  facet normal 1.000000e+000 0.000000e+000 0.000000e+000
    outer loop
      vertex   -4.466576e+001 1.834304e+001 1.299294e+001
      vertex   -4.466576e+001 -1.303392e+001 1.299294e+001
      vertex   -4.466576e+001 1.834304e+001 1.706033e-002
    endloop
  endfacet
  facet normal 1.000000e+000 0.000000e+000 0.000000e+000
    outer loop
      vertex   -4.466576e+001 1.834304e+001 1.706033e-002
      vertex   -4.466576e+001 -1.303392e+001 1.299294e+001
      vertex   -4.466576e+001 -1.303392e+001 1.706033e-002
    endloop
  endfacet
  facet normal -1.147529e-031 1.000000e+000 -8.213810e-016
    outer loop
      vertex   -4.466576e+001 -1.303392e+001 1.299294e+001
      vertex   -3.195092e+001 -1.303392e+001 1.299294e+001
      vertex   -4.466576e+001 -1.303392e+001 1.706033e-002
    endloop
  endfacet
  facet normal 0.000000e+000 1.000000e+000 -8.213810e-016
    outer loop
      vertex   -4.466576e+001 -1.303392e+001 1.706033e-002
      vertex   -3.195092e+001 -1.303392e+001 1.299294e+001
      vertex   -3.195092e+001 -1.303392e+001 1.706033e-002
    endloop
  endfacet
  facet normal -1.000000e+000 0.000000e+000 -0.000000e+000
    outer loop
      vertex   -3.195092e+001 -1.303392e+001 1.299294e+001
      vertex   -3.195092e+001 1.834304e+001 1.299294e+001
      vertex   -3.195092e+001 -1.303392e+001 1.706033e-002
    endloop
  endfacet
  facet normal -1.000000e+000 0.000000e+000 -0.000000e+000
    outer loop
      vertex   -3.195092e+001 -1.303392e+001 1.706033e-002
      vertex   -3.195092e+001 1.834304e+001 1.299294e+001
      vertex   -3.195092e+001 1.834304e+001 1.706033e-002
    endloop
  endfacet
  facet normal -2.224553e-016 1.000000e+000 -5.475873e-016
    outer loop
      vertex   -3.195092e+001 1.834304e+001 1.299294e+001
      vertex   -1.000000e-002 1.834304e+001 1.299294e+001
      vertex   -3.195092e+001 1.834304e+001 1.706033e-002
    endloop
  endfacet
  facet normal -2.224553e-016 1.000000e+000 -5.475873e-016
    outer loop
      vertex   -3.195092e+001 1.834304e+001 1.706033e-002
      vertex   -1.000000e-002 1.834304e+001 1.299294e+001
      vertex   -1.000000e-002 1.834304e+001 1.706033e-002
    endloop
  endfacet
  facet normal 2.821387e-031 -1.000000e+000 5.475873e-016
    outer loop
      vertex   -4.666576e+001 1.634304e+001 1.299294e+001
      vertex   -6.045629e+001 1.634304e+001 1.299294e+001
      vertex   -4.666576e+001 1.634304e+001 1.706033e-002
    endloop
  endfacet
  facet normal 0.000000e+000 -1.000000e+000 5.475873e-016
    outer loop
      vertex   -4.666576e+001 1.634304e+001 1.706033e-002
      vertex   -6.045629e+001 1.634304e+001 1.299294e+001
      vertex   -6.045629e+001 1.634304e+001 1.706033e-002
    endloop
  endfacet
  facet normal 1.000000e+000 3.909441e-016 1.095175e-015
    outer loop
      vertex   -6.045629e+001 1.634304e+001 1.299294e+001
      vertex   -6.045629e+001 -2.000706e+001 1.299294e+001
      vertex   -6.045629e+001 1.634304e+001 1.706033e-002
    endloop
  endfacet
  facet normal 1.000000e+000 0.000000e+000 0.000000e+000
    outer loop
      vertex   -6.045629e+001 1.634304e+001 1.706033e-002
      vertex   -6.045629e+001 -2.000706e+001 1.299294e+001
      vertex   -6.045629e+001 -2.000706e+001 1.706033e-002
    endloop
  endfacet
  facet normal 0.000000e+000 -1.000000e+000 -0.000000e+000
    outer loop
      vertex   -6.045629e+001 -2.000706e+001 1.299294e+001
      vertex   -7.717113e+001 -2.000706e+001 1.299294e+001
      vertex   -6.045629e+001 -2.000706e+001 1.706033e-002
    endloop
  endfacet
  facet normal -0.000000e+000 -1.000000e+000 -0.000000e+000
    outer loop
      vertex   -6.045629e+001 -2.000706e+001 1.706033e-002
      vertex   -7.717113e+001 -2.000706e+001 1.299294e+001
      vertex   -7.717113e+001 -2.000706e+001 1.706033e-002
    endloop
  endfacet
  facet normal -1.000000e+000 0.000000e+000 -0.000000e+000
    outer loop
      vertex   -7.717113e+001 -2.000706e+001 1.299294e+001
      vertex   -7.717113e+001 3.551882e+001 1.299294e+001
      vertex   -7.717113e+001 -2.000706e+001 1.706033e-002
    endloop
  endfacet
  facet normal -1.000000e+000 0.000000e+000 -0.000000e+000
    outer loop
      vertex   -7.717113e+001 -2.000706e+001 1.706033e-002
      vertex   -7.717113e+001 3.551882e+001 1.299294e+001
      vertex   -7.717113e+001 3.551882e+001 1.706033e-002
    endloop
  endfacet
  facet normal -2.457546e-032 1.000000e+000 -5.475873e-016
    outer loop
      vertex   -7.717113e+001 3.551882e+001 1.299294e+001
      vertex   -3.759057e+001 3.551882e+001 1.299294e+001
      vertex   -7.717113e+001 3.551882e+001 1.706033e-002
    endloop
  endfacet
  facet normal 0.000000e+000 1.000000e+000 -5.475873e-016
    outer loop
      vertex   -7.717113e+001 3.551882e+001 1.706033e-002
      vertex   -3.759057e+001 3.551882e+001 1.299294e+001
      vertex   -3.759057e+001 3.551882e+001 1.706033e-002
    endloop
  endfacet
  facet normal 0.000000e+000 1.000000e+000 -5.475873e-016
    outer loop
      vertex   -3.759057e+001 3.551882e+001 1.706033e-002
      vertex   -3.759057e+001 3.551882e+001 1.299294e+001
      vertex   1.990000e+000 3.551882e+001 1.299294e+001
    endloop
  endfacet
  facet normal 0.000000e+000 1.000000e+000 -5.475873e-016
    outer loop
      vertex   1.990000e+000 3.551882e+001 1.706033e-002
      vertex   -3.759057e+001 3.551882e+001 1.706033e-002
      vertex   1.990000e+000 3.551882e+001 1.299294e+001
    endloop
  endfacet
  facet normal -1.000000e+000 0.000000e+000 -0.000000e+000
    outer loop
      vertex   -1.000000e-002 1.834304e+001 1.299294e+001
      vertex   -1.000000e-002 3.351882e+001 1.299294e+001
      vertex   -1.000000e-002 1.834304e+001 1.706033e-002
    endloop
  endfacet
  facet normal -1.000000e+000 0.000000e+000 0.000000e+000
    outer loop
      vertex   -1.000000e-002 1.834304e+001 1.706033e-002
      vertex   -1.000000e-002 3.351882e+001 1.299294e+001
      vertex   -1.000000e-002 3.351882e+001 1.706033e-002
    endloop
  endfacet
  facet normal -0.000000e+000 -1.000000e+000 -0.000000e+000
    outer loop
      vertex   -1.000000e-002 3.351882e+001 1.299294e+001
      vertex   -3.759057e+001 3.351882e+001 1.299294e+001
      vertex   -1.000000e-002 3.351882e+001 1.706033e-002
    endloop
  endfacet
  facet normal -0.000000e+000 -1.000000e+000 -0.000000e+000
    outer loop
      vertex   -1.000000e-002 3.351882e+001 1.706033e-002
      vertex   -3.759057e+001 3.351882e+001 1.299294e+001
      vertex   -3.759057e+001 3.351882e+001 1.706033e-002
    endloop
  endfacet
  facet normal 0.000000e+000 -1.000000e+000 0.000000e+000
    outer loop
      vertex   -3.759057e+001 3.351882e+001 1.706033e-002
      vertex   -3.759057e+001 3.351882e+001 1.299294e+001
      vertex   -7.517113e+001 3.351882e+001 1.299294e+001
    endloop
  endfacet
  facet normal 1.890719e-016 -1.000000e+000 5.475873e-016
    outer loop
      vertex   -7.517113e+001 3.351882e+001 1.706033e-002
      vertex   -3.759057e+001 3.351882e+001 1.706033e-002
      vertex   -7.517113e+001 3.351882e+001 1.299294e+001
    endloop
  endfacet
  facet normal 1.000000e+000 0.000000e+000 0.000000e+000
    outer loop
      vertex   -7.517113e+001 3.351882e+001 1.299294e+001
      vertex   -7.517113e+001 -1.800706e+001 1.299294e+001
      vertex   -7.517113e+001 3.351882e+001 1.706033e-002
    endloop
  endfacet
  facet normal 1.000000e+000 0.000000e+000 0.000000e+000
    outer loop
      vertex   -7.517113e+001 3.351882e+001 1.706033e-002
      vertex   -7.517113e+001 -1.800706e+001 1.299294e+001
      vertex   -7.517113e+001 -1.800706e+001 1.706033e-002
    endloop
  endfacet
  facet normal 3.733250e-016 -5.121029e-016 -1.000000e+000
    outer loop
      vertex   -1.000000e-002 3.351882e+001 1.706033e-002
      vertex   1.990000e+000 3.551882e+001 1.706033e-002
      vertex   -1.000000e-002 1.834304e+001 1.706033e-002
    endloop
  endfacet
  facet normal 0.000000e+000 -1.387779e-016 -1.000000e+000
    outer loop
      vertex   -1.000000e-002 3.351882e+001 1.706033e-002
      vertex   -3.759057e+001 3.551882e+001 1.706033e-002
      vertex   1.990000e+000 3.551882e+001 1.706033e-002
    endloop
  endfacet
  facet normal -0.000000e+000 -1.387779e-016 -1.000000e+000
    outer loop
      vertex   -1.000000e-002 3.351882e+001 1.706033e-002
      vertex   -3.759057e+001 3.351882e+001 1.706033e-002
      vertex   -3.759057e+001 3.551882e+001 1.706033e-002
    endloop
  endfacet
  facet normal 2.623899e-032 -1.387779e-016 -1.000000e+000
    outer loop
      vertex   -3.759057e+001 3.551882e+001 1.706033e-002
      vertex   -3.759057e+001 3.351882e+001 1.706033e-002
      vertex   -7.517113e+001 3.351882e+001 1.706033e-002
    endloop
  endfacet
  facet normal -3.029336e-016 -4.417115e-016 -1.000000e+000
    outer loop
      vertex   -7.717113e+001 3.551882e+001 1.706033e-002
      vertex   -7.517113e+001 3.351882e+001 1.706033e-002
      vertex   -7.517113e+001 -1.800706e+001 1.706033e-002
    endloop
  endfacet
  facet normal 0.000000e+000 -2.775558e-016 -1.000000e+000
    outer loop
      vertex   -7.717113e+001 -2.000706e+001 1.706033e-002
      vertex   -7.517113e+001 -1.800706e+001 1.706033e-002
      vertex   -6.245629e+001 -1.800706e+001 1.706033e-002
    endloop
  endfacet
  facet normal -1.347681e-016 -4.123238e-016 -1.000000e+000
    outer loop
      vertex   -6.045629e+001 -2.000706e+001 1.706033e-002
      vertex   -6.245629e+001 -1.800706e+001 1.706033e-002
      vertex   -6.045629e+001 1.634304e+001 1.706033e-002
    endloop
  endfacet
  facet normal -0.000000e+000 -2.775558e-016 -1.000000e+000
    outer loop
      vertex   -6.045629e+001 -2.000706e+001 1.706033e-002
      vertex   -7.717113e+001 -2.000706e+001 1.706033e-002
      vertex   -6.245629e+001 -1.800706e+001 1.706033e-002
    endloop
  endfacet
  facet normal 0.000000e+000 -1.387779e-016 -1.000000e+000
    outer loop
      vertex   -3.759057e+001 3.551882e+001 1.706033e-002
      vertex   -7.517113e+001 3.351882e+001 1.706033e-002
      vertex   -7.717113e+001 3.551882e+001 1.706033e-002
    endloop
  endfacet
  facet normal 1.473315e-016 -4.248873e-016 -1.000000e+000
    outer loop
      vertex   -7.717113e+001 3.551882e+001 1.706033e-002
      vertex   -7.517113e+001 -1.800706e+001 1.706033e-002
      vertex   -7.717113e+001 -2.000706e+001 1.706033e-002
    endloop
  endfacet
  facet normal -1.347681e-016 -4.123238e-016 -1.000000e+000
    outer loop
      vertex   -6.245629e+001 -1.800706e+001 1.706033e-002
      vertex   -6.245629e+001 1.834304e+001 1.706033e-002
      vertex   -6.045629e+001 1.634304e+001 1.706033e-002
    endloop
  endfacet
  facet normal 0.000000e+000 -2.775558e-016 -1.000000e+000
    outer loop
      vertex   -6.045629e+001 1.634304e+001 1.706033e-002
      vertex   -6.245629e+001 1.834304e+001 1.706033e-002
      vertex   -4.466576e+001 1.834304e+001 1.706033e-002
    endloop
  endfacet
  facet normal 1.647366e-016 -4.422924e-016 -1.000000e+000
    outer loop
      vertex   -4.666576e+001 1.634304e+001 1.706033e-002
      vertex   -4.466576e+001 1.834304e+001 1.706033e-002
      vertex   -4.466576e+001 -1.303392e+001 1.706033e-002
    endloop
  endfacet
  facet normal 0.000000e+000 -2.775558e-016 -1.000000e+000
    outer loop
      vertex   -4.666576e+001 -1.503392e+001 1.706033e-002
      vertex   -4.466576e+001 -1.303392e+001 1.706033e-002
      vertex   -3.195092e+001 -1.303392e+001 1.706033e-002
    endloop
  endfacet
  facet normal -1.647366e-016 -4.422924e-016 -1.000000e+000
    outer loop
      vertex   -2.995092e+001 -1.503392e+001 1.706033e-002
      vertex   -3.195092e+001 -1.303392e+001 1.706033e-002
      vertex   -2.995092e+001 1.634304e+001 1.706033e-002
    endloop
  endfacet
  facet normal -0.000000e+000 -2.775558e-016 -1.000000e+000
    outer loop
      vertex   -2.995092e+001 -1.503392e+001 1.706033e-002
      vertex   -4.666576e+001 -1.503392e+001 1.706033e-002
      vertex   -3.195092e+001 -1.303392e+001 1.706033e-002
    endloop
  endfacet
  facet normal 0.000000e+000 -2.775558e-016 -1.000000e+000
    outer loop
      vertex   -6.045629e+001 1.634304e+001 1.706033e-002
      vertex   -4.466576e+001 1.834304e+001 1.706033e-002
      vertex   -4.666576e+001 1.634304e+001 1.706033e-002
    endloop
  endfacet
  facet normal 1.647366e-016 -4.422924e-016 -1.000000e+000
    outer loop
      vertex   -4.666576e+001 1.634304e+001 1.706033e-002
      vertex   -4.466576e+001 -1.303392e+001 1.706033e-002
      vertex   -4.666576e+001 -1.503392e+001 1.706033e-002
    endloop
  endfacet
  facet normal -1.647366e-016 -4.422924e-016 -1.000000e+000
    outer loop
      vertex   -3.195092e+001 -1.303392e+001 1.706033e-002
      vertex   -3.195092e+001 1.834304e+001 1.706033e-002
      vertex   -2.995092e+001 1.634304e+001 1.706033e-002
    endloop
  endfacet
  facet normal 6.174376e-032 -2.775558e-016 -1.000000e+000
    outer loop
      vertex   -2.995092e+001 1.634304e+001 1.706033e-002
      vertex   -3.195092e+001 1.834304e+001 1.706033e-002
      vertex   -1.000000e-002 1.834304e+001 1.706033e-002
    endloop
  endfacet
  facet normal -1.711471e-016 -4.487029e-016 -1.000000e+000
    outer loop
      vertex   1.990000e+000 1.634304e+001 1.706033e-002
      vertex   -1.000000e-002 1.834304e+001 1.706033e-002
      vertex   1.990000e+000 3.551882e+001 1.706033e-002
    endloop
  endfacet
  facet normal -0.000000e+000 -2.775558e-016 -1.000000e+000
    outer loop
      vertex   1.990000e+000 1.634304e+001 1.706033e-002
      vertex   -2.995092e+001 1.634304e+001 1.706033e-002
      vertex   -1.000000e-002 1.834304e+001 1.706033e-002
    endloop
  endfacet
endsolid
