solid ascii
  facet normal -3.860670e-017 7.071068e-001 7.071068e-001
    outer loop
      vertex   -3.287377e+001 2.239514e+001 1.448303e+001
      vertex   -3.188377e+001 2.140514e+001 1.547303e+001
      vertex   -1.000000e-002 2.239514e+001 1.448303e+001
    endloop
  endfacet
  facet normal -7.644126e-017 7.071068e-001 7.071068e-001
    outer loop
      vertex   -1.000000e-002 2.239514e+001 1.448303e+001
      vertex   -3.188377e+001 2.140514e+001 1.547303e+001
      vertex   9.800000e-001 2.140514e+001 1.547303e+001
    endloop
  endfacet
  facet normal -7.071068e-001 2.534423e-016 7.071068e-001
    outer loop
      vertex   -3.287377e+001 2.239514e+001 1.448303e+001
      vertex   -3.287377e+001 -7.341191e+000 1.448303e+001
      vertex   -3.188377e+001 2.140514e+001 1.547303e+001
    endloop
  endfacet
  facet normal -7.071068e-001 3.142612e-016 7.071068e-001
    outer loop
      vertex   -3.188377e+001 2.140514e+001 1.547303e+001
      vertex   -3.287377e+001 -7.341191e+000 1.448303e+001
      vertex   -3.188377e+001 -6.351191e+000 1.547303e+001
    endloop
  endfacet
  facet normal -7.071068e-001 3.344175e-016 7.071068e-001
    outer loop
      vertex   -1.000000e-002 -2.251697e+001 1.448303e+001
      vertex   9.800000e-001 -2.350697e+001 1.547303e+001
      vertex   -1.000000e-002 -7.341191e+000 1.448303e+001
    endloop
  endfacet
  facet normal -7.071068e-001 3.340470e-016 7.071068e-001
    outer loop
      vertex   -1.000000e-002 -7.341191e+000 1.448303e+001
      vertex   9.800000e-001 -2.350697e+001 1.547303e+001
      vertex   9.800000e-001 -6.351191e+000 1.547303e+001
    endloop
  endfacet
  facet normal 6.578911e-017 7.071068e-001 7.071068e-001
    outer loop
      vertex   9.800000e-001 -2.350697e+001 1.547303e+001
      vertex   -1.000000e-002 -2.251697e+001 1.448303e+001
      vertex   -3.759057e+001 -2.350697e+001 1.547303e+001
    endloop
  endfacet
  facet normal 2.005410e-016 7.071068e-001 7.071068e-001
    outer loop
      vertex   -3.759057e+001 -2.350697e+001 1.547303e+001
      vertex   -1.000000e-002 -2.251697e+001 1.448303e+001
      vertex   -3.759057e+001 -2.251697e+001 1.448303e+001
    endloop
  endfacet
  facet normal 0.000000e+000 7.071068e-001 7.071068e-001
    outer loop
      vertex   -7.517113e+001 -2.251697e+001 1.448303e+001
      vertex   -3.759057e+001 -2.350697e+001 1.547303e+001
      vertex   -3.759057e+001 -2.251697e+001 1.448303e+001
    endloop
  endfacet
  facet normal -0.000000e+000 7.071068e-001 7.071068e-001
    outer loop
      vertex   -7.517113e+001 -2.251697e+001 1.448303e+001
      vertex   -7.616113e+001 -2.350697e+001 1.547303e+001
      vertex   -3.759057e+001 -2.350697e+001 1.547303e+001
    endloop
  endfacet
  facet normal 7.071068e-001 3.660789e-016 7.071068e-001
    outer loop
      vertex   -7.616113e+001 -6.351191e+000 1.547303e+001
      vertex   -7.616113e+001 -2.350697e+001 1.547303e+001
      vertex   -7.517113e+001 -7.341191e+000 1.448303e+001
    endloop
  endfacet
  facet normal 7.071068e-001 4.180218e-016 7.071068e-001
    outer loop
      vertex   -7.517113e+001 -7.341191e+000 1.448303e+001
      vertex   -7.616113e+001 -2.350697e+001 1.547303e+001
      vertex   -7.517113e+001 -2.251697e+001 1.448303e+001
    endloop
  endfacet
  facet normal -1.072222e-016 -7.071068e-001 7.071068e-001
    outer loop
      vertex   -7.616113e+001 -6.351191e+000 1.547303e+001
      vertex   -7.517113e+001 -7.341191e+000 1.448303e+001
      vertex   -4.657861e+001 -6.351191e+000 1.547303e+001
    endloop
  endfacet
  facet normal 4.246001e-017 -7.071068e-001 7.071068e-001
    outer loop
      vertex   -4.657861e+001 -6.351191e+000 1.547303e+001
      vertex   -7.517113e+001 -7.341191e+000 1.448303e+001
      vertex   -4.558861e+001 -7.341191e+000 1.448303e+001
    endloop
  endfacet
  facet normal 7.071068e-001 2.714074e-016 7.071068e-001
    outer loop
      vertex   -4.657861e+001 -6.351191e+000 1.547303e+001
      vertex   -4.558861e+001 -7.341191e+000 1.448303e+001
      vertex   -4.657861e+001 2.140514e+001 1.547303e+001
    endloop
  endfacet
  facet normal 7.071068e-001 1.689615e-016 7.071068e-001
    outer loop
      vertex   -4.657861e+001 2.140514e+001 1.547303e+001
      vertex   -4.558861e+001 -7.341191e+000 1.448303e+001
      vertex   -4.558861e+001 2.239514e+001 1.448303e+001
    endloop
  endfacet
  facet normal -1.337722e-016 -7.071068e-001 7.071068e-001
    outer loop
      vertex   -3.287377e+001 -7.341191e+000 1.448303e+001
      vertex   -1.000000e-002 -7.341191e+000 1.448303e+001
      vertex   -3.188377e+001 -6.351191e+000 1.547303e+001
    endloop
  endfacet
  facet normal -9.651674e-017 -7.071068e-001 7.071068e-001
    outer loop
      vertex   -3.188377e+001 -6.351191e+000 1.547303e+001
      vertex   -1.000000e-002 -7.341191e+000 1.448303e+001
      vertex   9.800000e-001 -6.351191e+000 1.547303e+001
    endloop
  endfacet
  facet normal -8.492001e-017 7.071068e-001 7.071068e-001
    outer loop
      vertex   -7.616113e+001 2.140514e+001 1.547303e+001
      vertex   -4.657861e+001 2.140514e+001 1.547303e+001
      vertex   -7.517113e+001 2.239514e+001 1.448303e+001
    endloop
  endfacet
  facet normal -8.577779e-017 7.071068e-001 7.071068e-001
    outer loop
      vertex   -7.517113e+001 2.239514e+001 1.448303e+001
      vertex   -4.657861e+001 2.140514e+001 1.547303e+001
      vertex   -4.558861e+001 2.239514e+001 1.448303e+001
    endloop
  endfacet
  facet normal 7.071068e-001 2.196474e-016 7.071068e-001
    outer loop
      vertex   -7.616113e+001 3.856092e+001 1.547303e+001
      vertex   -7.616113e+001 2.140514e+001 1.547303e+001
      vertex   -7.517113e+001 3.757092e+001 1.448303e+001
    endloop
  endfacet
  facet normal 7.071068e-001 2.508131e-016 7.071068e-001
    outer loop
      vertex   -7.517113e+001 3.757092e+001 1.448303e+001
      vertex   -7.616113e+001 2.140514e+001 1.547303e+001
      vertex   -7.517113e+001 2.239514e+001 1.448303e+001
    endloop
  endfacet
  facet normal 0.000000e+000 -7.071068e-001 7.071068e-001
    outer loop
      vertex   9.800000e-001 3.856092e+001 1.547303e+001
      vertex   -3.759057e+001 3.856092e+001 1.547303e+001
      vertex   -1.000000e-002 3.757092e+001 1.448303e+001
    endloop
  endfacet
  facet normal 0.000000e+000 -7.071068e-001 7.071068e-001
    outer loop
      vertex   -1.000000e-002 3.757092e+001 1.448303e+001
      vertex   -3.759057e+001 3.856092e+001 1.547303e+001
      vertex   -3.759057e+001 3.757092e+001 1.448303e+001
    endloop
  endfacet
  facet normal 0.000000e+000 -7.071068e-001 7.071068e-001
    outer loop
      vertex   -3.759057e+001 3.757092e+001 1.448303e+001
      vertex   -3.759057e+001 3.856092e+001 1.547303e+001
      vertex   -7.517113e+001 3.757092e+001 1.448303e+001
    endloop
  endfacet
  facet normal -2.605249e-016 -7.071068e-001 7.071068e-001
    outer loop
      vertex   -7.517113e+001 3.757092e+001 1.448303e+001
      vertex   -3.759057e+001 3.856092e+001 1.547303e+001
      vertex   -7.616113e+001 3.856092e+001 1.547303e+001
    endloop
  endfacet
  facet normal -7.071068e-001 4.391098e-016 7.071068e-001
    outer loop
      vertex   9.800000e-001 3.856092e+001 1.547303e+001
      vertex   -1.000000e-002 3.757092e+001 1.448303e+001
      vertex   9.800000e-001 2.140514e+001 1.547303e+001
    endloop
  endfacet
  facet normal -7.071068e-001 4.571657e-016 7.071068e-001
    outer loop
      vertex   9.800000e-001 2.140514e+001 1.547303e+001
      vertex   -1.000000e-002 3.757092e+001 1.448303e+001
      vertex   -1.000000e-002 2.239514e+001 1.448303e+001
    endloop
  endfacet
  facet normal 9.171573e-032 1.000000e+000 -7.636930e-016
    outer loop
      vertex   -7.517113e+001 2.239514e+001 1.448303e+001
      vertex   -4.558861e+001 2.239514e+001 1.448303e+001
      vertex   -7.517113e+001 2.239514e+001 5.269727e-001
    endloop
  endfacet
  facet normal 0.000000e+000 1.000000e+000 -7.636930e-016
    outer loop
      vertex   -7.517113e+001 2.239514e+001 5.269727e-001
      vertex   -4.558861e+001 2.239514e+001 1.448303e+001
      vertex   -4.558861e+001 2.239514e+001 5.269727e-001
    endloop
  endfacet
  facet normal 1.000000e+000 0.000000e+000 0.000000e+000
    outer loop
      vertex   -4.558861e+001 2.239514e+001 1.448303e+001
      vertex   -4.558861e+001 -7.341191e+000 1.448303e+001
      vertex   -4.558861e+001 2.239514e+001 5.269727e-001
    endloop
  endfacet
  facet normal 1.000000e+000 0.000000e+000 0.000000e+000
    outer loop
      vertex   -4.558861e+001 2.239514e+001 5.269727e-001
      vertex   -4.558861e+001 -7.341191e+000 1.448303e+001
      vertex   -4.558861e+001 -7.341191e+000 5.269727e-001
    endloop
  endfacet
  facet normal 3.057191e-032 -1.000000e+000 5.091287e-016
    outer loop
      vertex   -4.558861e+001 -7.341191e+000 1.448303e+001
      vertex   -7.517113e+001 -7.341191e+000 1.448303e+001
      vertex   -4.558861e+001 -7.341191e+000 5.269727e-001
    endloop
  endfacet
  facet normal 0.000000e+000 -1.000000e+000 5.091287e-016
    outer loop
      vertex   -4.558861e+001 -7.341191e+000 5.269727e-001
      vertex   -7.517113e+001 -7.341191e+000 1.448303e+001
      vertex   -7.517113e+001 -7.341191e+000 5.269727e-001
    endloop
  endfacet
  facet normal 1.000000e+000 0.000000e+000 0.000000e+000
    outer loop
      vertex   -7.517113e+001 -7.341191e+000 1.448303e+001
      vertex   -7.517113e+001 -2.251697e+001 1.448303e+001
      vertex   -7.517113e+001 -7.341191e+000 5.269727e-001
    endloop
  endfacet
  facet normal 1.000000e+000 0.000000e+000 0.000000e+000
    outer loop
      vertex   -7.517113e+001 -7.341191e+000 5.269727e-001
      vertex   -7.517113e+001 -2.251697e+001 1.448303e+001
      vertex   -7.517113e+001 -2.251697e+001 5.269727e-001
    endloop
  endfacet
  facet normal 0.000000e+000 1.000000e+000 -7.636930e-016
    outer loop
      vertex   -7.517113e+001 -2.251697e+001 1.448303e+001
      vertex   -3.759057e+001 -2.251697e+001 1.448303e+001
      vertex   -7.517113e+001 -2.251697e+001 5.269727e-001
    endloop
  endfacet
  facet normal 9.453593e-017 1.000000e+000 -1.018257e-015
    outer loop
      vertex   -7.517113e+001 -2.251697e+001 5.269727e-001
      vertex   -3.759057e+001 -2.251697e+001 1.448303e+001
      vertex   -3.759057e+001 -2.251697e+001 5.269727e-001
    endloop
  endfacet
  facet normal 2.836078e-016 1.000000e+000 -1.018257e-015
    outer loop
      vertex   -3.759057e+001 -2.251697e+001 5.269727e-001
      vertex   -3.759057e+001 -2.251697e+001 1.448303e+001
      vertex   -1.000000e-002 -2.251697e+001 1.448303e+001
    endloop
  endfacet
  facet normal 0.000000e+000 1.000000e+000 -2.545643e-016
    outer loop
      vertex   -1.000000e-002 -2.251697e+001 5.269727e-001
      vertex   -3.759057e+001 -2.251697e+001 5.269727e-001
      vertex   -1.000000e-002 -2.251697e+001 1.448303e+001
    endloop
  endfacet
  facet normal -1.000000e+000 0.000000e+000 -0.000000e+000
    outer loop
      vertex   -1.000000e-002 -2.251697e+001 1.448303e+001
      vertex   -1.000000e-002 -7.341191e+000 1.448303e+001
      vertex   -1.000000e-002 -2.251697e+001 5.269727e-001
    endloop
  endfacet
  facet normal -1.000000e+000 0.000000e+000 -0.000000e+000
    outer loop
      vertex   -1.000000e-002 -2.251697e+001 5.269727e-001
      vertex   -1.000000e-002 -7.341191e+000 1.448303e+001
      vertex   -1.000000e-002 -7.341191e+000 5.269727e-001
    endloop
  endfacet
  facet normal -3.099057e-016 3.099057e-016 1.000000e+000
    outer loop
      vertex   1.000000e+000 2.138514e+001 1.547303e+001
      vertex   1.000000e+000 3.858092e+001 1.547303e+001
      vertex   9.800000e-001 3.856092e+001 1.547303e+001
    endloop
  endfacet
  facet normal 1.781534e-013 5.177138e-016 1.000000e+000
    outer loop
      vertex   9.800000e-001 2.140514e+001 1.547303e+001
      vertex   1.000000e+000 2.138514e+001 1.547303e+001
      vertex   9.800000e-001 3.856092e+001 1.547303e+001
    endloop
  endfacet
  facet normal 0.000000e+000 -1.776357e-013 1.000000e+000
    outer loop
      vertex   9.800000e-001 2.140514e+001 1.547303e+001
      vertex   -3.186377e+001 2.138514e+001 1.547303e+001
      vertex   1.000000e+000 2.138514e+001 1.547303e+001
    endloop
  endfacet
  facet normal -1.081043e-016 -1.081043e-016 1.000000e+000
    outer loop
      vertex   9.800000e-001 2.140514e+001 1.547303e+001
      vertex   -3.188377e+001 2.140514e+001 1.547303e+001
      vertex   -3.186377e+001 2.138514e+001 1.547303e+001
    endloop
  endfacet
  facet normal 4.479879e-016 4.479879e-016 1.000000e+000
    outer loop
      vertex   -3.186377e+001 2.138514e+001 1.547303e+001
      vertex   -3.188377e+001 2.140514e+001 1.547303e+001
      vertex   -3.188377e+001 -6.351191e+000 1.547303e+001
    endloop
  endfacet
  facet normal -5.405213e-017 -8.876379e-014 1.000000e+000
    outer loop
      vertex   -3.186377e+001 -6.331191e+000 1.547303e+001
      vertex   -3.188377e+001 -6.351191e+000 1.547303e+001
      vertex   9.800000e-001 -6.351191e+000 1.547303e+001
    endloop
  endfacet
  facet normal -4.132076e-016 4.132076e-016 1.000000e+000
    outer loop
      vertex   1.000000e+000 -6.331191e+000 1.547303e+001
      vertex   9.800000e-001 -6.351191e+000 1.547303e+001
      vertex   1.000000e+000 -2.352697e+001 1.547303e+001
    endloop
  endfacet
  facet normal 0.000000e+000 0.000000e+000 1.000000e+000
    outer loop
      vertex   1.000000e+000 -6.331191e+000 1.547303e+001
      vertex   -3.186377e+001 -6.331191e+000 1.547303e+001
      vertex   9.800000e-001 -6.351191e+000 1.547303e+001
    endloop
  endfacet
  facet normal -0.000000e+000 0.000000e+000 1.000000e+000
    outer loop
      vertex   -7.618113e+001 3.858092e+001 1.547303e+001
      vertex   -7.616113e+001 3.856092e+001 1.547303e+001
      vertex   -3.759057e+001 3.858092e+001 1.547303e+001
    endloop
  endfacet
  facet normal 3.099057e-016 3.099057e-016 1.000000e+000
    outer loop
      vertex   -7.618113e+001 3.858092e+001 1.547303e+001
      vertex   -7.618113e+001 2.138514e+001 1.547303e+001
      vertex   -7.616113e+001 3.856092e+001 1.547303e+001
    endloop
  endfacet
  facet normal -3.106283e-016 3.106283e-016 1.000000e+000
    outer loop
      vertex   -7.616113e+001 3.856092e+001 1.547303e+001
      vertex   -7.618113e+001 2.138514e+001 1.547303e+001
      vertex   -7.616113e+001 2.140514e+001 1.547303e+001
    endloop
  endfacet
  facet normal -0.000000e+000 0.000000e+000 1.000000e+000
    outer loop
      vertex   -7.616113e+001 2.140514e+001 1.547303e+001
      vertex   -7.618113e+001 2.138514e+001 1.547303e+001
      vertex   -4.659861e+001 2.138514e+001 1.547303e+001
    endloop
  endfacet
  facet normal -1.781484e-013 5.127250e-016 1.000000e+000
    outer loop
      vertex   -4.657861e+001 2.140514e+001 1.547303e+001
      vertex   -4.659861e+001 2.138514e+001 1.547303e+001
      vertex   -4.659861e+001 -6.331191e+000 1.547303e+001
    endloop
  endfacet
  facet normal -6.004752e-017 -6.004752e-017 1.000000e+000
    outer loop
      vertex   -4.657861e+001 -6.351191e+000 1.547303e+001
      vertex   -4.659861e+001 -6.331191e+000 1.547303e+001
      vertex   -7.616113e+001 -6.351191e+000 1.547303e+001
    endloop
  endfacet
  facet normal 3.839896e-016 3.839896e-016 1.000000e+000
    outer loop
      vertex   -4.657861e+001 -6.351191e+000 1.547303e+001
      vertex   -4.657861e+001 2.140514e+001 1.547303e+001
      vertex   -4.659861e+001 -6.331191e+000 1.547303e+001
    endloop
  endfacet
  facet normal -1.200950e-016 -1.775156e-013 1.000000e+000
    outer loop
      vertex   -7.616113e+001 2.140514e+001 1.547303e+001
      vertex   -4.659861e+001 2.138514e+001 1.547303e+001
      vertex   -4.657861e+001 2.140514e+001 1.547303e+001
    endloop
  endfacet
  facet normal -1.066658e-029 -8.881784e-014 1.000000e+000
    outer loop
      vertex   -4.659861e+001 -6.331191e+000 1.547303e+001
      vertex   -7.618113e+001 -6.331191e+000 1.547303e+001
      vertex   -7.616113e+001 -6.351191e+000 1.547303e+001
    endloop
  endfacet
  facet normal 8.923105e-014 4.132076e-016 1.000000e+000
    outer loop
      vertex   -7.616113e+001 -6.351191e+000 1.547303e+001
      vertex   -7.618113e+001 -6.331191e+000 1.547303e+001
      vertex   -7.618113e+001 -2.352697e+001 1.547303e+001
    endloop
  endfacet
  facet normal -0.000000e+000 0.000000e+000 1.000000e+000
    outer loop
      vertex   -7.616113e+001 -2.350697e+001 1.547303e+001
      vertex   -7.618113e+001 -2.352697e+001 1.547303e+001
      vertex   -3.759057e+001 -2.352697e+001 1.547303e+001
    endloop
  endfacet
  facet normal -0.000000e+000 0.000000e+000 1.000000e+000
    outer loop
      vertex   -3.759057e+001 -2.350697e+001 1.547303e+001
      vertex   -3.759057e+001 -2.352697e+001 1.547303e+001
      vertex   9.800000e-001 -2.350697e+001 1.547303e+001
    endloop
  endfacet
  facet normal 0.000000e+000 0.000000e+000 1.000000e+000
    outer loop
      vertex   -3.759057e+001 -2.350697e+001 1.547303e+001
      vertex   -7.616113e+001 -2.350697e+001 1.547303e+001
      vertex   -3.759057e+001 -2.352697e+001 1.547303e+001
    endloop
  endfacet
  facet normal -5.177138e-016 5.177138e-016 1.000000e+000
    outer loop
      vertex   -7.616113e+001 -6.351191e+000 1.547303e+001
      vertex   -7.618113e+001 -2.352697e+001 1.547303e+001
      vertex   -7.616113e+001 -2.350697e+001 1.547303e+001
    endloop
  endfacet
  facet normal -0.000000e+000 -0.000000e+000 1.000000e+000
    outer loop
      vertex   -3.759057e+001 -2.352697e+001 1.547303e+001
      vertex   1.000000e+000 -2.352697e+001 1.547303e+001
      vertex   9.800000e-001 -2.350697e+001 1.547303e+001
    endloop
  endfacet
  facet normal 4.141710e-016 4.141710e-016 1.000000e+000
    outer loop
      vertex   9.800000e-001 -2.350697e+001 1.547303e+001
      vertex   1.000000e+000 -2.352697e+001 1.547303e+001
      vertex   9.800000e-001 -6.351191e+000 1.547303e+001
    endloop
  endfacet
  facet normal -8.933057e-014 5.127250e-016 1.000000e+000
    outer loop
      vertex   -3.186377e+001 -6.331191e+000 1.547303e+001
      vertex   -3.186377e+001 2.138514e+001 1.547303e+001
      vertex   -3.188377e+001 -6.351191e+000 1.547303e+001
    endloop
  endfacet
  facet normal -0.000000e+000 0.000000e+000 1.000000e+000
    outer loop
      vertex   -7.616113e+001 3.856092e+001 1.547303e+001
      vertex   -3.759057e+001 3.856092e+001 1.547303e+001
      vertex   -3.759057e+001 3.858092e+001 1.547303e+001
    endloop
  endfacet
  facet normal -0.000000e+000 0.000000e+000 1.000000e+000
    outer loop
      vertex   -3.759057e+001 3.858092e+001 1.547303e+001
      vertex   -3.759057e+001 3.856092e+001 1.547303e+001
      vertex   9.800000e-001 3.856092e+001 1.547303e+001
    endloop
  endfacet
  facet normal 0.000000e+000 0.000000e+000 1.000000e+000
    outer loop
      vertex   1.000000e+000 3.858092e+001 1.547303e+001
      vertex   -3.759057e+001 3.858092e+001 1.547303e+001
      vertex   9.800000e-001 3.856092e+001 1.547303e+001
    endloop
  endfacet
  facet normal 2.544379e-016 7.071068e-001 7.071068e-001
    outer loop
      vertex   -7.717113e+001 3.957092e+001 1.448303e+001
      vertex   -7.618113e+001 3.858092e+001 1.547303e+001
      vertex   -3.759057e+001 3.957092e+001 1.448303e+001
    endloop
  endfacet
  facet normal 1.301949e-016 7.071068e-001 7.071068e-001
    outer loop
      vertex   -3.759057e+001 3.957092e+001 1.448303e+001
      vertex   -7.618113e+001 3.858092e+001 1.547303e+001
      vertex   -3.759057e+001 3.858092e+001 1.547303e+001
    endloop
  endfacet
  facet normal 0.000000e+000 7.071068e-001 7.071068e-001
    outer loop
      vertex   1.000000e+000 3.858092e+001 1.547303e+001
      vertex   -3.759057e+001 3.957092e+001 1.448303e+001
      vertex   -3.759057e+001 3.858092e+001 1.547303e+001
    endloop
  endfacet
  facet normal 0.000000e+000 7.071068e-001 7.071068e-001
    outer loop
      vertex   1.000000e+000 3.858092e+001 1.547303e+001
      vertex   1.990000e+000 3.957092e+001 1.448303e+001
      vertex   -3.759057e+001 3.957092e+001 1.448303e+001
    endloop
  endfacet
  facet normal 7.071068e-001 2.536301e-016 7.071068e-001
    outer loop
      vertex   1.000000e+000 2.138514e+001 1.547303e+001
      vertex   1.990000e+000 2.039514e+001 1.448303e+001
      vertex   1.000000e+000 3.858092e+001 1.547303e+001
    endloop
  endfacet
  facet normal 7.071068e-001 8.187893e-017 7.071068e-001
    outer loop
      vertex   1.000000e+000 3.858092e+001 1.547303e+001
      vertex   1.990000e+000 2.039514e+001 1.448303e+001
      vertex   1.990000e+000 3.957092e+001 1.448303e+001
    endloop
  endfacet
  facet normal 0.000000e+000 -7.071068e-001 7.071068e-001
    outer loop
      vertex   -3.186377e+001 2.138514e+001 1.547303e+001
      vertex   -3.087377e+001 2.039514e+001 1.448303e+001
      vertex   1.000000e+000 2.138514e+001 1.547303e+001
    endloop
  endfacet
  facet normal 7.644126e-017 -7.071068e-001 7.071068e-001
    outer loop
      vertex   1.000000e+000 2.138514e+001 1.547303e+001
      vertex   -3.087377e+001 2.039514e+001 1.448303e+001
      vertex   1.990000e+000 2.039514e+001 1.448303e+001
    endloop
  endfacet
  facet normal 7.071068e-001 3.625513e-016 7.071068e-001
    outer loop
      vertex   -3.186377e+001 2.138514e+001 1.547303e+001
      vertex   -3.186377e+001 -6.331191e+000 1.547303e+001
      vertex   -3.087377e+001 2.039514e+001 1.448303e+001
    endloop
  endfacet
  facet normal 7.071068e-001 3.913066e-016 7.071068e-001
    outer loop
      vertex   -3.087377e+001 2.039514e+001 1.448303e+001
      vertex   -3.186377e+001 -6.331191e+000 1.547303e+001
      vertex   -3.087377e+001 -5.341191e+000 1.448303e+001
    endloop
  endfacet
  facet normal 3.822063e-017 7.071068e-001 7.071068e-001
    outer loop
      vertex   -3.186377e+001 -6.331191e+000 1.547303e+001
      vertex   1.000000e+000 -6.331191e+000 1.547303e+001
      vertex   -3.087377e+001 -5.341191e+000 1.448303e+001
    endloop
  endfacet
  facet normal 1.713172e-016 7.071068e-001 7.071068e-001
    outer loop
      vertex   -3.087377e+001 -5.341191e+000 1.448303e+001
      vertex   1.000000e+000 -6.331191e+000 1.547303e+001
      vertex   1.990000e+000 -5.341191e+000 1.448303e+001
    endloop
  endfacet
  facet normal 7.071068e-001 1.014520e-016 7.071068e-001
    outer loop
      vertex   1.000000e+000 -2.352697e+001 1.547303e+001
      vertex   1.990000e+000 -2.451697e+001 1.448303e+001
      vertex   1.000000e+000 -6.331191e+000 1.547303e+001
    endloop
  endfacet
  facet normal 7.071068e-001 3.111399e-016 7.071068e-001
    outer loop
      vertex   1.000000e+000 -6.331191e+000 1.547303e+001
      vertex   1.990000e+000 -2.451697e+001 1.448303e+001
      vertex   1.990000e+000 -5.341191e+000 1.448303e+001
    endloop
  endfacet
  facet normal -3.205516e-017 -7.071068e-001 7.071068e-001
    outer loop
      vertex   1.990000e+000 -2.451697e+001 1.448303e+001
      vertex   1.000000e+000 -2.352697e+001 1.547303e+001
      vertex   -3.759057e+001 -2.451697e+001 1.448303e+001
    endloop
  endfacet
  facet normal -6.509746e-017 -7.071068e-001 7.071068e-001
    outer loop
      vertex   -3.759057e+001 -2.451697e+001 1.448303e+001
      vertex   1.000000e+000 -2.352697e+001 1.547303e+001
      vertex   -3.759057e+001 -2.352697e+001 1.547303e+001
    endloop
  endfacet
  facet normal 0.000000e+000 -7.071068e-001 7.071068e-001
    outer loop
      vertex   -7.618113e+001 -2.352697e+001 1.547303e+001
      vertex   -3.759057e+001 -2.451697e+001 1.448303e+001
      vertex   -3.759057e+001 -2.352697e+001 1.547303e+001
    endloop
  endfacet
  facet normal 0.000000e+000 -7.071068e-001 7.071068e-001
    outer loop
      vertex   -7.618113e+001 -2.352697e+001 1.547303e+001
      vertex   -7.717113e+001 -2.451697e+001 1.448303e+001
      vertex   -3.759057e+001 -2.451697e+001 1.448303e+001
    endloop
  endfacet
  facet normal -7.071068e-001 1.310063e-016 7.071068e-001
    outer loop
      vertex   -7.717113e+001 -5.341191e+000 1.448303e+001
      vertex   -7.717113e+001 -2.451697e+001 1.448303e+001
      vertex   -7.618113e+001 -6.331191e+000 1.547303e+001
    endloop
  endfacet
  facet normal -7.071068e-001 2.905218e-016 7.071068e-001
    outer loop
      vertex   -7.618113e+001 -6.331191e+000 1.547303e+001
      vertex   -7.717113e+001 -2.451697e+001 1.448303e+001
      vertex   -7.618113e+001 -2.352697e+001 1.547303e+001
    endloop
  endfacet
  facet normal 1.259861e-016 7.071068e-001 7.071068e-001
    outer loop
      vertex   -7.717113e+001 -5.341191e+000 1.448303e+001
      vertex   -7.618113e+001 -6.331191e+000 1.547303e+001
      vertex   -4.758861e+001 -5.341191e+000 1.448303e+001
    endloop
  endfacet
  facet normal 8.492001e-017 7.071068e-001 7.071068e-001
    outer loop
      vertex   -4.758861e+001 -5.341191e+000 1.448303e+001
      vertex   -7.618113e+001 -6.331191e+000 1.547303e+001
      vertex   -4.659861e+001 -6.331191e+000 1.547303e+001
    endloop
  endfacet
  facet normal -7.071068e-001 5.392020e-016 7.071068e-001
    outer loop
      vertex   -4.758861e+001 -5.341191e+000 1.448303e+001
      vertex   -4.659861e+001 -6.331191e+000 1.547303e+001
      vertex   -4.758861e+001 2.039514e+001 1.448303e+001
    endloop
  endfacet
  facet normal -7.071068e-001 3.625513e-016 7.071068e-001
    outer loop
      vertex   -4.758861e+001 2.039514e+001 1.448303e+001
      vertex   -4.659861e+001 -6.331191e+000 1.547303e+001
      vertex   -4.659861e+001 2.138514e+001 1.547303e+001
    endloop
  endfacet
  facet normal 8.492001e-017 -7.071068e-001 7.071068e-001
    outer loop
      vertex   -7.717113e+001 2.039514e+001 1.448303e+001
      vertex   -4.758861e+001 2.039514e+001 1.448303e+001
      vertex   -7.618113e+001 2.138514e+001 1.547303e+001
    endloop
  endfacet
  facet normal 0.000000e+000 -7.071068e-001 7.071068e-001
    outer loop
      vertex   -7.618113e+001 2.138514e+001 1.547303e+001
      vertex   -4.758861e+001 2.039514e+001 1.448303e+001
      vertex   -4.659861e+001 2.138514e+001 1.547303e+001
    endloop
  endfacet
  facet normal -7.071068e-001 3.275157e-016 7.071068e-001
    outer loop
      vertex   -7.717113e+001 3.957092e+001 1.448303e+001
      vertex   -7.717113e+001 2.039514e+001 1.448303e+001
      vertex   -7.618113e+001 3.858092e+001 1.547303e+001
    endloop
  endfacet
  facet normal -7.071068e-001 2.213499e-016 7.071068e-001
    outer loop
      vertex   -7.618113e+001 3.858092e+001 1.547303e+001
      vertex   -7.717113e+001 2.039514e+001 1.448303e+001
      vertex   -7.618113e+001 2.138514e+001 1.547303e+001
    endloop
  endfacet
  facet normal -1.000000e+000 0.000000e+000 -0.000000e+000
    outer loop
      vertex   -7.717113e+001 -2.451697e+001 1.448303e+001
      vertex   -7.717113e+001 -5.341191e+000 1.448303e+001
      vertex   -7.717113e+001 -2.451697e+001 5.269727e-001
    endloop
  endfacet
  facet normal -1.000000e+000 0.000000e+000 -0.000000e+000
    outer loop
      vertex   -7.717113e+001 -2.451697e+001 5.269727e-001
      vertex   -7.717113e+001 -5.341191e+000 1.448303e+001
      vertex   -7.717113e+001 -5.341191e+000 5.269727e-001
    endloop
  endfacet
  facet normal -9.171573e-032 1.000000e+000 -5.091287e-016
    outer loop
      vertex   -7.717113e+001 -5.341191e+000 1.448303e+001
      vertex   -4.758861e+001 -5.341191e+000 1.448303e+001
      vertex   -7.717113e+001 -5.341191e+000 5.269727e-001
    endloop
  endfacet
  facet normal 0.000000e+000 1.000000e+000 -5.091287e-016
    outer loop
      vertex   -7.717113e+001 -5.341191e+000 5.269727e-001
      vertex   -4.758861e+001 -5.341191e+000 1.448303e+001
      vertex   -4.758861e+001 -5.341191e+000 5.269727e-001
    endloop
  endfacet
  facet normal -1.000000e+000 2.760855e-016 -1.405630e-031
    outer loop
      vertex   -4.758861e+001 -5.341191e+000 1.448303e+001
      vertex   -4.758861e+001 2.039514e+001 1.448303e+001
      vertex   -4.758861e+001 -5.341191e+000 5.269727e-001
    endloop
  endfacet
  facet normal -1.000000e+000 2.760855e-016 -1.405630e-031
    outer loop
      vertex   -4.758861e+001 -5.341191e+000 5.269727e-001
      vertex   -4.758861e+001 2.039514e+001 1.448303e+001
      vertex   -4.758861e+001 2.039514e+001 5.269727e-001
    endloop
  endfacet
  facet normal 6.114382e-032 -1.000000e+000 5.091287e-016
    outer loop
      vertex   -4.758861e+001 2.039514e+001 1.448303e+001
      vertex   -7.717113e+001 2.039514e+001 1.448303e+001
      vertex   -4.758861e+001 2.039514e+001 5.269727e-001
    endloop
  endfacet
  facet normal 0.000000e+000 -1.000000e+000 5.091287e-016
    outer loop
      vertex   -4.758861e+001 2.039514e+001 5.269727e-001
      vertex   -7.717113e+001 2.039514e+001 1.448303e+001
      vertex   -7.717113e+001 2.039514e+001 5.269727e-001
    endloop
  endfacet
  facet normal -1.000000e+000 0.000000e+000 -0.000000e+000
    outer loop
      vertex   -7.717113e+001 2.039514e+001 1.448303e+001
      vertex   -7.717113e+001 3.957092e+001 1.448303e+001
      vertex   -7.717113e+001 2.039514e+001 5.269727e-001
    endloop
  endfacet
  facet normal -1.000000e+000 0.000000e+000 0.000000e+000
    outer loop
      vertex   -7.717113e+001 2.039514e+001 5.269727e-001
      vertex   -7.717113e+001 3.957092e+001 1.448303e+001
      vertex   -7.717113e+001 3.957092e+001 5.269727e-001
    endloop
  endfacet
  facet normal 3.590362e-016 1.000000e+000 0.000000e+000
    outer loop
      vertex   -7.717113e+001 3.957092e+001 1.448303e+001
      vertex   -3.759057e+001 3.957092e+001 1.448303e+001
      vertex   -7.717113e+001 3.957092e+001 5.269727e-001
    endloop
  endfacet
  facet normal 1.795181e-016 1.000000e+000 5.091287e-016
    outer loop
      vertex   -7.717113e+001 3.957092e+001 5.269727e-001
      vertex   -3.759057e+001 3.957092e+001 1.448303e+001
      vertex   -3.759057e+001 3.957092e+001 5.269727e-001
    endloop
  endfacet
  facet normal -0.000000e+000 1.000000e+000 5.091287e-016
    outer loop
      vertex   -3.759057e+001 3.957092e+001 5.269727e-001
      vertex   -3.759057e+001 3.957092e+001 1.448303e+001
      vertex   1.990000e+000 3.957092e+001 1.448303e+001
    endloop
  endfacet
  facet normal 1.795181e-016 1.000000e+000 0.000000e+000
    outer loop
      vertex   1.990000e+000 3.957092e+001 5.269727e-001
      vertex   -3.759057e+001 3.957092e+001 5.269727e-001
      vertex   1.990000e+000 3.957092e+001 1.448303e+001
    endloop
  endfacet
  facet normal 8.107820e-017 1.000000e+000 -5.091287e-016
    outer loop
      vertex   -3.087377e+001 -5.341191e+000 1.448303e+001
      vertex   1.990000e+000 -5.341191e+000 1.448303e+001
      vertex   -3.087377e+001 -5.341191e+000 5.269727e-001
    endloop
  endfacet
  facet normal 5.405213e-017 1.000000e+000 -4.454876e-016
    outer loop
      vertex   -3.087377e+001 -5.341191e+000 5.269727e-001
      vertex   1.990000e+000 -5.341191e+000 1.448303e+001
      vertex   1.990000e+000 -5.341191e+000 5.269727e-001
    endloop
  endfacet
  facet normal 1.000000e+000 0.000000e+000 0.000000e+000
    outer loop
      vertex   -3.087377e+001 2.039514e+001 1.448303e+001
      vertex   -3.087377e+001 -5.341191e+000 1.448303e+001
      vertex   -3.087377e+001 2.039514e+001 5.269727e-001
    endloop
  endfacet
  facet normal 1.000000e+000 0.000000e+000 0.000000e+000
    outer loop
      vertex   -3.087377e+001 2.039514e+001 5.269727e-001
      vertex   -3.087377e+001 -5.341191e+000 1.448303e+001
      vertex   -3.087377e+001 -5.341191e+000 5.269727e-001
    endloop
  endfacet
  facet normal 8.255847e-032 -1.000000e+000 7.636930e-016
    outer loop
      vertex   1.990000e+000 2.039514e+001 1.448303e+001
      vertex   -3.087377e+001 2.039514e+001 1.448303e+001
      vertex   1.990000e+000 2.039514e+001 5.269727e-001
    endloop
  endfacet
  facet normal 0.000000e+000 -1.000000e+000 7.636930e-016
    outer loop
      vertex   1.990000e+000 2.039514e+001 5.269727e-001
      vertex   -3.087377e+001 2.039514e+001 1.448303e+001
      vertex   -3.087377e+001 2.039514e+001 5.269727e-001
    endloop
  endfacet
  facet normal 1.000000e+000 -1.621120e-016 0.000000e+000
    outer loop
      vertex   1.990000e+000 3.957092e+001 1.448303e+001
      vertex   1.990000e+000 2.039514e+001 1.448303e+001
      vertex   1.990000e+000 3.957092e+001 5.269727e-001
    endloop
  endfacet
  facet normal 1.000000e+000 -1.621120e-016 1.238038e-031
    outer loop
      vertex   1.990000e+000 3.957092e+001 5.269727e-001
      vertex   1.990000e+000 2.039514e+001 1.448303e+001
      vertex   1.990000e+000 2.039514e+001 5.269727e-001
    endloop
  endfacet
  facet normal 1.000000e+000 0.000000e+000 0.000000e+000
    outer loop
      vertex   -7.517113e+001 3.757092e+001 1.448303e+001
      vertex   -7.517113e+001 2.239514e+001 1.448303e+001
      vertex   -7.517113e+001 3.757092e+001 5.269727e-001
    endloop
  endfacet
  facet normal 1.000000e+000 0.000000e+000 0.000000e+000
    outer loop
      vertex   -7.517113e+001 3.757092e+001 5.269727e-001
      vertex   -7.517113e+001 2.239514e+001 1.448303e+001
      vertex   -7.517113e+001 2.239514e+001 5.269727e-001
    endloop
  endfacet
  facet normal 1.000000e+000 6.947658e-017 -2.358168e-032
    outer loop
      vertex   1.990000e+000 -5.341191e+000 1.448303e+001
      vertex   1.990000e+000 -2.451697e+001 1.448303e+001
      vertex   1.990000e+000 -5.341191e+000 5.269727e-001
    endloop
  endfacet
  facet normal 1.000000e+000 6.947658e-017 -3.537252e-032
    outer loop
      vertex   1.990000e+000 -5.341191e+000 5.269727e-001
      vertex   1.990000e+000 -2.451697e+001 1.448303e+001
      vertex   1.990000e+000 -2.451697e+001 5.269727e-001
    endloop
  endfacet
  facet normal -8.975904e-017 -1.000000e+000 5.091287e-016
    outer loop
      vertex   1.990000e+000 -2.451697e+001 1.448303e+001
      vertex   -3.759057e+001 -2.451697e+001 1.448303e+001
      vertex   1.990000e+000 -2.451697e+001 5.269727e-001
    endloop
  endfacet
  facet normal -8.975904e-017 -1.000000e+000 5.091287e-016
    outer loop
      vertex   1.990000e+000 -2.451697e+001 5.269727e-001
      vertex   -3.759057e+001 -2.451697e+001 1.448303e+001
      vertex   -3.759057e+001 -2.451697e+001 5.269727e-001
    endloop
  endfacet
  facet normal 0.000000e+000 -1.000000e+000 5.091287e-016
    outer loop
      vertex   -3.759057e+001 -2.451697e+001 5.269727e-001
      vertex   -3.759057e+001 -2.451697e+001 1.448303e+001
      vertex   -7.717113e+001 -2.451697e+001 1.448303e+001
    endloop
  endfacet
  facet normal 0.000000e+000 -1.000000e+000 5.091287e-016
    outer loop
      vertex   -7.717113e+001 -2.451697e+001 5.269727e-001
      vertex   -3.759057e+001 -2.451697e+001 5.269727e-001
      vertex   -7.717113e+001 -2.451697e+001 1.448303e+001
    endloop
  endfacet
  facet normal -1.351303e-016 -1.000000e+000 5.091287e-016
    outer loop
      vertex   -1.000000e-002 -7.341191e+000 1.448303e+001
      vertex   -3.287377e+001 -7.341191e+000 1.448303e+001
      vertex   -1.000000e-002 -7.341191e+000 5.269727e-001
    endloop
  endfacet
  facet normal -1.351303e-016 -1.000000e+000 5.091287e-016
    outer loop
      vertex   -1.000000e-002 -7.341191e+000 5.269727e-001
      vertex   -3.287377e+001 -7.341191e+000 1.448303e+001
      vertex   -3.287377e+001 -7.341191e+000 5.269727e-001
    endloop
  endfacet
  facet normal -1.000000e+000 0.000000e+000 -0.000000e+000
    outer loop
      vertex   -3.287377e+001 -7.341191e+000 1.448303e+001
      vertex   -3.287377e+001 2.239514e+001 1.448303e+001
      vertex   -3.287377e+001 -7.341191e+000 5.269727e-001
    endloop
  endfacet
  facet normal -1.000000e+000 0.000000e+000 -0.000000e+000
    outer loop
      vertex   -3.287377e+001 -7.341191e+000 5.269727e-001
      vertex   -3.287377e+001 2.239514e+001 1.448303e+001
      vertex   -3.287377e+001 2.239514e+001 5.269727e-001
    endloop
  endfacet
  facet normal 2.751949e-032 1.000000e+000 -5.091287e-016
    outer loop
      vertex   -3.287377e+001 2.239514e+001 1.448303e+001
      vertex   -1.000000e-002 2.239514e+001 1.448303e+001
      vertex   -3.287377e+001 2.239514e+001 5.269727e-001
    endloop
  endfacet
  facet normal 0.000000e+000 1.000000e+000 -5.091287e-016
    outer loop
      vertex   -3.287377e+001 2.239514e+001 5.269727e-001
      vertex   -1.000000e-002 2.239514e+001 1.448303e+001
      vertex   -1.000000e-002 2.239514e+001 5.269727e-001
    endloop
  endfacet
  facet normal -1.000000e+000 6.126945e-017 -2.979729e-032
    outer loop
      vertex   -1.000000e-002 2.239514e+001 1.448303e+001
      vertex   -1.000000e-002 3.757092e+001 1.448303e+001
      vertex   -1.000000e-002 2.239514e+001 5.269727e-001
    endloop
  endfacet
  facet normal -1.000000e+000 6.126945e-017 0.000000e+000
    outer loop
      vertex   -1.000000e-002 2.239514e+001 5.269727e-001
      vertex   -1.000000e-002 3.757092e+001 1.448303e+001
      vertex   -1.000000e-002 3.757092e+001 5.269727e-001
    endloop
  endfacet
  facet normal -0.000000e+000 -1.000000e+000 -0.000000e+000
    outer loop
      vertex   -1.000000e-002 3.757092e+001 1.448303e+001
      vertex   -3.759057e+001 3.757092e+001 1.448303e+001
      vertex   -1.000000e-002 3.757092e+001 5.269727e-001
    endloop
  endfacet
  facet normal -1.890719e-016 -1.000000e+000 -5.091287e-016
    outer loop
      vertex   -1.000000e-002 3.757092e+001 5.269727e-001
      vertex   -3.759057e+001 3.757092e+001 1.448303e+001
      vertex   -3.759057e+001 3.757092e+001 5.269727e-001
    endloop
  endfacet
  facet normal -0.000000e+000 -1.000000e+000 -5.091287e-016
    outer loop
      vertex   -3.759057e+001 3.757092e+001 5.269727e-001
      vertex   -3.759057e+001 3.757092e+001 1.448303e+001
      vertex   -7.517113e+001 3.757092e+001 1.448303e+001
    endloop
  endfacet
  facet normal 1.890719e-016 -1.000000e+000 0.000000e+000
    outer loop
      vertex   -7.517113e+001 3.757092e+001 5.269727e-001
      vertex   -3.759057e+001 3.757092e+001 5.269727e-001
      vertex   -7.517113e+001 3.757092e+001 1.448303e+001
    endloop
  endfacet
  facet normal -2.926302e-016 -2.926302e-016 -1.000000e+000
    outer loop
      vertex   -1.000000e-002 -7.341191e+000 5.269727e-001
      vertex   1.990000e+000 -2.451697e+001 5.269727e-001
      vertex   -1.000000e-002 -2.251697e+001 5.269727e-001
    endloop
  endfacet
  facet normal 2.315886e-016 -2.315886e-016 -1.000000e+000
    outer loop
      vertex   -1.000000e-002 -7.341191e+000 5.269727e-001
      vertex   1.990000e+000 -5.341191e+000 5.269727e-001
      vertex   1.990000e+000 -2.451697e+001 5.269727e-001
    endloop
  endfacet
  facet normal 0.000000e+000 0.000000e+000 -1.000000e+000
    outer loop
      vertex   -1.000000e-002 -7.341191e+000 5.269727e-001
      vertex   -3.087377e+001 -5.341191e+000 5.269727e-001
      vertex   1.990000e+000 -5.341191e+000 5.269727e-001
    endloop
  endfacet
  facet normal 0.000000e+000 0.000000e+000 -1.000000e+000
    outer loop
      vertex   -1.000000e-002 -7.341191e+000 5.269727e-001
      vertex   -3.287377e+001 -7.341191e+000 5.269727e-001
      vertex   -3.087377e+001 -5.341191e+000 5.269727e-001
    endloop
  endfacet
  facet normal 2.240135e-016 -2.240135e-016 -1.000000e+000
    outer loop
      vertex   -3.087377e+001 -5.341191e+000 5.269727e-001
      vertex   -3.287377e+001 -7.341191e+000 5.269727e-001
      vertex   -3.287377e+001 2.239514e+001 5.269727e-001
    endloop
  endfacet
  facet normal 0.000000e+000 -1.110223e-015 -1.000000e+000
    outer loop
      vertex   -3.087377e+001 2.039514e+001 5.269727e-001
      vertex   -3.287377e+001 2.239514e+001 5.269727e-001
      vertex   -1.000000e-002 2.239514e+001 5.269727e-001
    endloop
  endfacet
  facet normal 9.639079e-016 -1.463151e-016 -1.000000e+000
    outer loop
      vertex   1.990000e+000 2.039514e+001 5.269727e-001
      vertex   -1.000000e-002 2.239514e+001 5.269727e-001
      vertex   -1.000000e-002 3.757092e+001 5.269727e-001
    endloop
  endfacet
  facet normal -0.000000e+000 0.000000e+000 -1.000000e+000
    outer loop
      vertex   1.990000e+000 3.957092e+001 5.269727e-001
      vertex   -1.000000e-002 3.757092e+001 5.269727e-001
      vertex   -3.759057e+001 3.957092e+001 5.269727e-001
    endloop
  endfacet
  facet normal 2.315886e-016 -2.315886e-016 -1.000000e+000
    outer loop
      vertex   1.990000e+000 3.957092e+001 5.269727e-001
      vertex   1.990000e+000 2.039514e+001 5.269727e-001
      vertex   -1.000000e-002 3.757092e+001 5.269727e-001
    endloop
  endfacet
  facet normal 9.376696e-016 -1.725534e-016 -1.000000e+000
    outer loop
      vertex   -3.087377e+001 -5.341191e+000 5.269727e-001
      vertex   -3.287377e+001 2.239514e+001 5.269727e-001
      vertex   -3.087377e+001 2.039514e+001 5.269727e-001
    endloop
  endfacet
  facet normal 0.000000e+000 -1.110223e-015 -1.000000e+000
    outer loop
      vertex   -3.087377e+001 2.039514e+001 5.269727e-001
      vertex   -1.000000e-002 2.239514e+001 5.269727e-001
      vertex   1.990000e+000 2.039514e+001 5.269727e-001
    endloop
  endfacet
  facet normal 0.000000e+000 0.000000e+000 -1.000000e+000
    outer loop
      vertex   -1.000000e-002 3.757092e+001 5.269727e-001
      vertex   -3.759057e+001 3.757092e+001 5.269727e-001
      vertex   -3.759057e+001 3.957092e+001 5.269727e-001
    endloop
  endfacet
  facet normal 0.000000e+000 0.000000e+000 -1.000000e+000
    outer loop
      vertex   -3.759057e+001 3.957092e+001 5.269727e-001
      vertex   -3.759057e+001 3.757092e+001 5.269727e-001
      vertex   -7.517113e+001 3.757092e+001 5.269727e-001
    endloop
  endfacet
  facet normal -2.315886e-016 -2.315886e-016 -1.000000e+000
    outer loop
      vertex   -7.717113e+001 3.957092e+001 5.269727e-001
      vertex   -7.517113e+001 3.757092e+001 5.269727e-001
      vertex   -7.717113e+001 2.039514e+001 5.269727e-001
    endloop
  endfacet
  facet normal 0.000000e+000 -0.000000e+000 -1.000000e+000
    outer loop
      vertex   -7.717113e+001 3.957092e+001 5.269727e-001
      vertex   -3.759057e+001 3.957092e+001 5.269727e-001
      vertex   -7.517113e+001 3.757092e+001 5.269727e-001
    endloop
  endfacet
  facet normal -9.639079e-016 -1.463151e-016 -1.000000e+000
    outer loop
      vertex   -7.517113e+001 3.757092e+001 5.269727e-001
      vertex   -7.517113e+001 2.239514e+001 5.269727e-001
      vertex   -7.717113e+001 2.039514e+001 5.269727e-001
    endloop
  endfacet
  facet normal 0.000000e+000 -1.110223e-015 -1.000000e+000
    outer loop
      vertex   -7.717113e+001 2.039514e+001 5.269727e-001
      vertex   -7.517113e+001 2.239514e+001 5.269727e-001
      vertex   -4.758861e+001 2.039514e+001 5.269727e-001
    endloop
  endfacet
  facet normal 0.000000e+000 -1.110223e-015 -1.000000e+000
    outer loop
      vertex   -4.758861e+001 2.039514e+001 5.269727e-001
      vertex   -7.517113e+001 2.239514e+001 5.269727e-001
      vertex   -4.558861e+001 2.239514e+001 5.269727e-001
    endloop
  endfacet
  facet normal -8.862096e-016 -2.240135e-016 -1.000000e+000
    outer loop
      vertex   -4.558861e+001 -7.341191e+000 5.269727e-001
      vertex   -4.758861e+001 2.039514e+001 5.269727e-001
      vertex   -4.558861e+001 2.239514e+001 5.269727e-001
    endloop
  endfacet
  facet normal -1.725534e-016 -1.725534e-016 -1.000000e+000
    outer loop
      vertex   -4.558861e+001 -7.341191e+000 5.269727e-001
      vertex   -4.758861e+001 -5.341191e+000 5.269727e-001
      vertex   -4.758861e+001 2.039514e+001 5.269727e-001
    endloop
  endfacet
  facet normal 0.000000e+000 0.000000e+000 -1.000000e+000
    outer loop
      vertex   -4.558861e+001 -7.341191e+000 5.269727e-001
      vertex   -7.517113e+001 -7.341191e+000 5.269727e-001
      vertex   -4.758861e+001 -5.341191e+000 5.269727e-001
    endloop
  endfacet
  facet normal -0.000000e+000 0.000000e+000 -1.000000e+000
    outer loop
      vertex   -4.758861e+001 -5.341191e+000 5.269727e-001
      vertex   -7.517113e+001 -7.341191e+000 5.269727e-001
      vertex   -7.717113e+001 -5.341191e+000 5.269727e-001
    endloop
  endfacet
  facet normal -2.315886e-016 -2.315886e-016 -1.000000e+000
    outer loop
      vertex   -7.717113e+001 -5.341191e+000 5.269727e-001
      vertex   -7.517113e+001 -7.341191e+000 5.269727e-001
      vertex   -7.717113e+001 -2.451697e+001 5.269727e-001
    endloop
  endfacet
  facet normal 2.926302e-016 -2.926302e-016 -1.000000e+000
    outer loop
      vertex   -7.717113e+001 -2.451697e+001 5.269727e-001
      vertex   -7.517113e+001 -7.341191e+000 5.269727e-001
      vertex   -7.517113e+001 -2.251697e+001 5.269727e-001
    endloop
  endfacet
  facet normal 0.000000e+000 0.000000e+000 -1.000000e+000
    outer loop
      vertex   -3.759057e+001 -2.451697e+001 5.269727e-001
      vertex   -7.517113e+001 -2.251697e+001 5.269727e-001
      vertex   -3.759057e+001 -2.251697e+001 5.269727e-001
    endloop
  endfacet
  facet normal -0.000000e+000 0.000000e+000 -1.000000e+000
    outer loop
      vertex   -1.000000e-002 -2.251697e+001 5.269727e-001
      vertex   -3.759057e+001 -2.451697e+001 5.269727e-001
      vertex   -3.759057e+001 -2.251697e+001 5.269727e-001
    endloop
  endfacet
  facet normal -0.000000e+000 -0.000000e+000 -1.000000e+000
    outer loop
      vertex   -1.000000e-002 -2.251697e+001 5.269727e-001
      vertex   1.990000e+000 -2.451697e+001 5.269727e-001
      vertex   -3.759057e+001 -2.451697e+001 5.269727e-001
    endloop
  endfacet
  facet normal 0.000000e+000 0.000000e+000 -1.000000e+000
    outer loop
      vertex   -7.717113e+001 -2.451697e+001 5.269727e-001
      vertex   -7.517113e+001 -2.251697e+001 5.269727e-001
      vertex   -3.759057e+001 -2.451697e+001 5.269727e-001
    endloop
  endfacet
endsolid
