solid ascii
  facet normal -7.071068e-001 9.244417e-018 7.071068e-001
    outer loop
      vertex   9.800000e-001 1.622402e+001 1.604824e+001
      vertex   -1.000000e-002 1.523402e+001 1.505824e+001
      vertex   9.800000e-001 -9.317641e-001 1.604824e+001
    endloop
  endfacet
  facet normal -7.071068e-001 8.276832e-017 7.071068e-001
    outer loop
      vertex   9.800000e-001 -9.317641e-001 1.604824e+001
      vertex   -1.000000e-002 1.523402e+001 1.505824e+001
      vertex   -1.000000e-002 5.823587e-002 1.505824e+001
    endloop
  endfacet
  facet normal 3.906228e-017 7.071068e-001 7.071068e-001
    outer loop
      vertex   9.800000e-001 -9.317641e-001 1.604824e+001
      vertex   -1.000000e-002 5.823587e-002 1.505824e+001
      vertex   -3.759057e+001 -9.317641e-001 1.604824e+001
    endloop
  endfacet
  facet normal 4.621843e-017 7.071068e-001 7.071068e-001
    outer loop
      vertex   -3.759057e+001 -9.317641e-001 1.604824e+001
      vertex   -1.000000e-002 5.823587e-002 1.505824e+001
      vertex   -3.759057e+001 5.823587e-002 1.505824e+001
    endloop
  endfacet
  facet normal 4.220139e-017 7.071068e-001 7.071068e-001
    outer loop
      vertex   -7.517113e+001 5.823587e-002 1.505824e+001
      vertex   -3.759057e+001 -9.317641e-001 1.604824e+001
      vertex   -3.759057e+001 5.823587e-002 1.505824e+001
    endloop
  endfacet
  facet normal 4.274236e-017 7.071068e-001 7.071068e-001
    outer loop
      vertex   -7.517113e+001 5.823587e-002 1.505824e+001
      vertex   -7.616113e+001 -9.317641e-001 1.604824e+001
      vertex   -3.759057e+001 -9.317641e-001 1.604824e+001
    endloop
  endfacet
  facet normal 7.071068e-001 0.000000e+000 7.071068e-001
    outer loop
      vertex   -7.616113e+001 1.622402e+001 1.604824e+001
      vertex   -7.616113e+001 -9.317641e-001 1.604824e+001
      vertex   -7.517113e+001 1.523402e+001 1.505824e+001
    endloop
  endfacet
  facet normal 7.071068e-001 7.837909e-017 7.071068e-001
    outer loop
      vertex   -7.517113e+001 1.523402e+001 1.505824e+001
      vertex   -7.616113e+001 -9.317641e-001 1.604824e+001
      vertex   -7.517113e+001 5.823587e-002 1.505824e+001
    endloop
  endfacet
  facet normal -6.513122e-017 -7.071068e-001 7.071068e-001
    outer loop
      vertex   9.800000e-001 1.622402e+001 1.604824e+001
      vertex   -3.759057e+001 1.622402e+001 1.604824e+001
      vertex   -1.000000e-002 1.523402e+001 1.505824e+001
    endloop
  endfacet
  facet normal -3.376111e-017 -7.071068e-001 7.071068e-001
    outer loop
      vertex   -1.000000e-002 1.523402e+001 1.505824e+001
      vertex   -3.759057e+001 1.622402e+001 1.604824e+001
      vertex   -3.759057e+001 1.523402e+001 1.505824e+001
    endloop
  endfacet
  facet normal -3.376111e-017 -7.071068e-001 7.071068e-001
    outer loop
      vertex   -3.759057e+001 1.523402e+001 1.505824e+001
      vertex   -3.759057e+001 1.622402e+001 1.604824e+001
      vertex   -7.517113e+001 1.523402e+001 1.505824e+001
    endloop
  endfacet
  facet normal -6.513122e-017 -7.071068e-001 7.071068e-001
    outer loop
      vertex   -7.517113e+001 1.523402e+001 1.505824e+001
      vertex   -3.759057e+001 1.622402e+001 1.604824e+001
      vertex   -7.616113e+001 1.622402e+001 1.604824e+001
    endloop
  endfacet
  facet normal 6.019280e-017 1.000000e+000 2.117700e-017
    outer loop
      vertex   -7.517113e+001 5.823587e-002 1.505824e+001
      vertex   -3.759057e+001 5.823587e-002 1.505824e+001
      vertex   -7.517113e+001 5.823587e-002 1.951764e+000
    endloop
  endfacet
  facet normal 6.443953e-017 1.000000e+000 9.000225e-018
    outer loop
      vertex   -7.517113e+001 5.823587e-002 1.951764e+000
      vertex   -3.759057e+001 5.823587e-002 1.505824e+001
      vertex   -3.759057e+001 5.823587e-002 1.951764e+000
    endloop
  endfacet
  facet normal 6.536273e-017 1.000000e+000 9.000225e-018
    outer loop
      vertex   -3.759057e+001 5.823587e-002 1.951764e+000
      vertex   -3.759057e+001 5.823587e-002 1.505824e+001
      vertex   -1.000000e-002 5.823587e-002 1.505824e+001
    endloop
  endfacet
  facet normal 6.111600e-017 1.000000e+000 2.117700e-017
    outer loop
      vertex   -1.000000e-002 5.823587e-002 1.951764e+000
      vertex   -3.759057e+001 5.823587e-002 1.951764e+000
      vertex   -1.000000e-002 5.823587e-002 1.505824e+001
    endloop
  endfacet
  facet normal -1.000000e+000 0.000000e+000 -0.000000e+000
    outer loop
      vertex   -1.000000e-002 5.823587e-002 1.505824e+001
      vertex   -1.000000e-002 1.523402e+001 1.505824e+001
      vertex   -1.000000e-002 5.823587e-002 1.951764e+000
    endloop
  endfacet
  facet normal -1.000000e+000 0.000000e+000 0.000000e+000
    outer loop
      vertex   -1.000000e-002 5.823587e-002 1.951764e+000
      vertex   -1.000000e-002 1.523402e+001 1.505824e+001
      vertex   -1.000000e-002 1.523402e+001 1.951764e+000
    endloop
  endfacet
  facet normal 0.000000e+000 0.000000e+000 1.000000e+000
    outer loop
      vertex   1.000000e+000 -9.517641e-001 1.604824e+001
      vertex   1.000000e+000 1.624402e+001 1.604824e+001
      vertex   9.800000e-001 1.622402e+001 1.604824e+001
    endloop
  endfacet
  facet normal -0.000000e+000 -0.000000e+000 1.000000e+000
    outer loop
      vertex   9.800000e-001 -9.317641e-001 1.604824e+001
      vertex   1.000000e+000 -9.517641e-001 1.604824e+001
      vertex   9.800000e-001 1.622402e+001 1.604824e+001
    endloop
  endfacet
  facet normal 0.000000e+000 0.000000e+000 1.000000e+000
    outer loop
      vertex   9.800000e-001 -9.317641e-001 1.604824e+001
      vertex   -3.759057e+001 -9.517641e-001 1.604824e+001
      vertex   1.000000e+000 -9.517641e-001 1.604824e+001
    endloop
  endfacet
  facet normal 0.000000e+000 0.000000e+000 1.000000e+000
    outer loop
      vertex   9.800000e-001 -9.317641e-001 1.604824e+001
      vertex   -3.759057e+001 -9.317641e-001 1.604824e+001
      vertex   -3.759057e+001 -9.517641e-001 1.604824e+001
    endloop
  endfacet
  facet normal 0.000000e+000 -0.000000e+000 1.000000e+000
    outer loop
      vertex   -3.759057e+001 -9.517641e-001 1.604824e+001
      vertex   -3.759057e+001 -9.317641e-001 1.604824e+001
      vertex   -7.616113e+001 -9.317641e-001 1.604824e+001
    endloop
  endfacet
  facet normal 0.000000e+000 0.000000e+000 1.000000e+000
    outer loop
      vertex   -7.618113e+001 -9.517641e-001 1.604824e+001
      vertex   -7.616113e+001 -9.317641e-001 1.604824e+001
      vertex   -7.616113e+001 1.622402e+001 1.604824e+001
    endloop
  endfacet
  facet normal -0.000000e+000 0.000000e+000 1.000000e+000
    outer loop
      vertex   -7.618113e+001 1.624402e+001 1.604824e+001
      vertex   -7.616113e+001 1.622402e+001 1.604824e+001
      vertex   -3.759057e+001 1.624402e+001 1.604824e+001
    endloop
  endfacet
  facet normal -0.000000e+000 0.000000e+000 1.000000e+000
    outer loop
      vertex   -7.618113e+001 1.624402e+001 1.604824e+001
      vertex   -7.618113e+001 -9.517641e-001 1.604824e+001
      vertex   -7.616113e+001 1.622402e+001 1.604824e+001
    endloop
  endfacet
  facet normal -0.000000e+000 -0.000000e+000 1.000000e+000
    outer loop
      vertex   -7.618113e+001 -9.517641e-001 1.604824e+001
      vertex   -3.759057e+001 -9.517641e-001 1.604824e+001
      vertex   -7.616113e+001 -9.317641e-001 1.604824e+001
    endloop
  endfacet
  facet normal -0.000000e+000 0.000000e+000 1.000000e+000
    outer loop
      vertex   -7.616113e+001 1.622402e+001 1.604824e+001
      vertex   -3.759057e+001 1.622402e+001 1.604824e+001
      vertex   -3.759057e+001 1.624402e+001 1.604824e+001
    endloop
  endfacet
  facet normal 0.000000e+000 0.000000e+000 1.000000e+000
    outer loop
      vertex   -3.759057e+001 1.624402e+001 1.604824e+001
      vertex   -3.759057e+001 1.622402e+001 1.604824e+001
      vertex   9.800000e-001 1.622402e+001 1.604824e+001
    endloop
  endfacet
  facet normal 0.000000e+000 0.000000e+000 1.000000e+000
    outer loop
      vertex   1.000000e+000 1.624402e+001 1.604824e+001
      vertex   -3.759057e+001 1.624402e+001 1.604824e+001
      vertex   9.800000e-001 1.622402e+001 1.604824e+001
    endloop
  endfacet
  facet normal 9.416205e-017 7.071068e-001 7.071068e-001
    outer loop
      vertex   -7.717113e+001 1.723402e+001 1.505824e+001
      vertex   -7.618113e+001 1.624402e+001 1.604824e+001
      vertex   -3.759057e+001 1.723402e+001 1.505824e+001
    endloop
  endfacet
  facet normal 6.509746e-017 7.071068e-001 7.071068e-001
    outer loop
      vertex   -3.759057e+001 1.723402e+001 1.505824e+001
      vertex   -7.618113e+001 1.624402e+001 1.604824e+001
      vertex   -3.759057e+001 1.624402e+001 1.604824e+001
    endloop
  endfacet
  facet normal 0.000000e+000 7.071068e-001 7.071068e-001
    outer loop
      vertex   1.000000e+000 1.624402e+001 1.604824e+001
      vertex   -3.759057e+001 1.723402e+001 1.505824e+001
      vertex   -3.759057e+001 1.624402e+001 1.604824e+001
    endloop
  endfacet
  facet normal 0.000000e+000 7.071068e-001 7.071068e-001
    outer loop
      vertex   1.000000e+000 1.624402e+001 1.604824e+001
      vertex   1.990000e+000 1.723402e+001 1.505824e+001
      vertex   -3.759057e+001 1.723402e+001 1.505824e+001
    endloop
  endfacet
  facet normal 7.071068e-001 6.456039e-017 7.071068e-001
    outer loop
      vertex   1.000000e+000 -9.517641e-001 1.604824e+001
      vertex   1.990000e+000 -1.941764e+000 1.505824e+001
      vertex   1.000000e+000 1.624402e+001 1.604824e+001
    endloop
  endfacet
  facet normal 7.071068e-001 1.146305e-016 7.071068e-001
    outer loop
      vertex   1.000000e+000 1.624402e+001 1.604824e+001
      vertex   1.990000e+000 -1.941764e+000 1.505824e+001
      vertex   1.990000e+000 1.723402e+001 1.505824e+001
    endloop
  endfacet
  facet normal -7.813446e-017 -7.071068e-001 7.071068e-001
    outer loop
      vertex   1.990000e+000 -1.941764e+000 1.505824e+001
      vertex   1.000000e+000 -9.517641e-001 1.604824e+001
      vertex   -3.759057e+001 -1.941764e+000 1.505824e+001
    endloop
  endfacet
  facet normal -4.272021e-017 -7.071068e-001 7.071068e-001
    outer loop
      vertex   -3.759057e+001 -1.941764e+000 1.505824e+001
      vertex   1.000000e+000 -9.517641e-001 1.604824e+001
      vertex   -3.759057e+001 -9.517641e-001 1.604824e+001
    endloop
  endfacet
  facet normal -3.082266e-017 -7.071068e-001 7.071068e-001
    outer loop
      vertex   -7.618113e+001 -9.517641e-001 1.604824e+001
      vertex   -3.759057e+001 -1.941764e+000 1.505824e+001
      vertex   -3.759057e+001 -9.517641e-001 1.604824e+001
    endloop
  endfacet
  facet normal -1.983413e-017 -7.071068e-001 7.071068e-001
    outer loop
      vertex   -7.618113e+001 -9.517641e-001 1.604824e+001
      vertex   -7.717113e+001 -1.941764e+000 1.505824e+001
      vertex   -3.759057e+001 -1.941764e+000 1.505824e+001
    endloop
  endfacet
  facet normal -7.071068e-001 -6.550314e-017 7.071068e-001
    outer loop
      vertex   -7.717113e+001 1.723402e+001 1.505824e+001
      vertex   -7.717113e+001 -1.941764e+000 1.505824e+001
      vertex   -7.618113e+001 1.624402e+001 1.604824e+001
    endloop
  endfacet
  facet normal -7.071068e-001 0.000000e+000 7.071068e-001
    outer loop
      vertex   -7.618113e+001 1.624402e+001 1.604824e+001
      vertex   -7.717113e+001 -1.941764e+000 1.505824e+001
      vertex   -7.618113e+001 -9.517641e-001 1.604824e+001
    endloop
  endfacet
  facet normal -1.000000e+000 0.000000e+000 -0.000000e+000
    outer loop
      vertex   -7.717113e+001 -1.941764e+000 1.505824e+001
      vertex   -7.717113e+001 1.723402e+001 1.505824e+001
      vertex   -7.717113e+001 -1.941764e+000 1.951764e+000
    endloop
  endfacet
  facet normal -1.000000e+000 0.000000e+000 0.000000e+000
    outer loop
      vertex   -7.717113e+001 -1.941764e+000 1.951764e+000
      vertex   -7.717113e+001 1.723402e+001 1.505824e+001
      vertex   -7.717113e+001 1.723402e+001 1.951764e+000
    endloop
  endfacet
  facet normal 8.975904e-017 1.000000e+000 0.000000e+000
    outer loop
      vertex   -7.717113e+001 1.723402e+001 1.505824e+001
      vertex   -3.759057e+001 1.723402e+001 1.505824e+001
      vertex   -7.717113e+001 1.723402e+001 1.951764e+000
    endloop
  endfacet
  facet normal 0.000000e+000 1.000000e+000 2.710656e-016
    outer loop
      vertex   -7.717113e+001 1.723402e+001 1.951764e+000
      vertex   -3.759057e+001 1.723402e+001 1.505824e+001
      vertex   -3.759057e+001 1.723402e+001 1.951764e+000
    endloop
  endfacet
  facet normal -0.000000e+000 1.000000e+000 2.710656e-016
    outer loop
      vertex   -3.759057e+001 1.723402e+001 1.951764e+000
      vertex   -3.759057e+001 1.723402e+001 1.505824e+001
      vertex   1.990000e+000 1.723402e+001 1.505824e+001
    endloop
  endfacet
  facet normal 8.975904e-017 1.000000e+000 0.000000e+000
    outer loop
      vertex   1.990000e+000 1.723402e+001 1.951764e+000
      vertex   -3.759057e+001 1.723402e+001 1.951764e+000
      vertex   1.990000e+000 1.723402e+001 1.505824e+001
    endloop
  endfacet
  facet normal 0.000000e+000 -0.000000e+000 -1.000000e+000
    outer loop
      vertex   -3.759057e+001 1.723402e+001 1.951764e+000
      vertex   1.990000e+000 1.723402e+001 1.951764e+000
      vertex   -1.000000e-002 1.523402e+001 1.951764e+000
    endloop
  endfacet
  facet normal 0.000000e+000 0.000000e+000 -1.000000e+000
    outer loop
      vertex   -3.759057e+001 1.523402e+001 1.951764e+000
      vertex   -3.759057e+001 1.723402e+001 1.951764e+000
      vertex   -1.000000e-002 1.523402e+001 1.951764e+000
    endloop
  endfacet
  facet normal 0.000000e+000 0.000000e+000 -1.000000e+000
    outer loop
      vertex   -3.759057e+001 1.523402e+001 1.951764e+000
      vertex   -7.517113e+001 1.523402e+001 1.951764e+000
      vertex   -3.759057e+001 1.723402e+001 1.951764e+000
    endloop
  endfacet
  facet normal -0.000000e+000 0.000000e+000 -1.000000e+000
    outer loop
      vertex   -3.759057e+001 1.723402e+001 1.951764e+000
      vertex   -7.517113e+001 1.523402e+001 1.951764e+000
      vertex   -7.717113e+001 1.723402e+001 1.951764e+000
    endloop
  endfacet
  facet normal 2.315886e-016 2.315886e-016 -1.000000e+000
    outer loop
      vertex   -7.717113e+001 1.723402e+001 1.951764e+000
      vertex   -7.517113e+001 1.523402e+001 1.951764e+000
      vertex   -7.717113e+001 -1.941764e+000 1.951764e+000
    endloop
  endfacet
  facet normal -2.926302e-016 2.926302e-016 -1.000000e+000
    outer loop
      vertex   -7.717113e+001 -1.941764e+000 1.951764e+000
      vertex   -7.517113e+001 1.523402e+001 1.951764e+000
      vertex   -7.517113e+001 5.823587e-002 1.951764e+000
    endloop
  endfacet
  facet normal 0.000000e+000 0.000000e+000 -1.000000e+000
    outer loop
      vertex   -3.759057e+001 -1.941764e+000 1.951764e+000
      vertex   -7.517113e+001 5.823587e-002 1.951764e+000
      vertex   -3.759057e+001 5.823587e-002 1.951764e+000
    endloop
  endfacet
  facet normal -0.000000e+000 0.000000e+000 -1.000000e+000
    outer loop
      vertex   -1.000000e-002 5.823587e-002 1.951764e+000
      vertex   -3.759057e+001 -1.941764e+000 1.951764e+000
      vertex   -3.759057e+001 5.823587e-002 1.951764e+000
    endloop
  endfacet
  facet normal -0.000000e+000 -0.000000e+000 -1.000000e+000
    outer loop
      vertex   -1.000000e-002 5.823587e-002 1.951764e+000
      vertex   1.990000e+000 -1.941764e+000 1.951764e+000
      vertex   -3.759057e+001 -1.941764e+000 1.951764e+000
    endloop
  endfacet
  facet normal 2.926302e-016 2.926302e-016 -1.000000e+000
    outer loop
      vertex   -1.000000e-002 5.823587e-002 1.951764e+000
      vertex   -1.000000e-002 1.523402e+001 1.951764e+000
      vertex   1.990000e+000 -1.941764e+000 1.951764e+000
    endloop
  endfacet
  facet normal -2.315886e-016 2.315886e-016 -1.000000e+000
    outer loop
      vertex   1.990000e+000 -1.941764e+000 1.951764e+000
      vertex   -1.000000e-002 1.523402e+001 1.951764e+000
      vertex   1.990000e+000 1.723402e+001 1.951764e+000
    endloop
  endfacet
  facet normal 0.000000e+000 0.000000e+000 -1.000000e+000
    outer loop
      vertex   -3.759057e+001 -1.941764e+000 1.951764e+000
      vertex   -7.717113e+001 -1.941764e+000 1.951764e+000
      vertex   -7.517113e+001 5.823587e-002 1.951764e+000
    endloop
  endfacet
  facet normal 1.000000e+000 0.000000e+000 0.000000e+000
    outer loop
      vertex   -7.517113e+001 1.523402e+001 1.505824e+001
      vertex   -7.517113e+001 5.823587e-002 1.505824e+001
      vertex   -7.517113e+001 1.523402e+001 1.951764e+000
    endloop
  endfacet
  facet normal 1.000000e+000 0.000000e+000 0.000000e+000
    outer loop
      vertex   -7.517113e+001 1.523402e+001 1.951764e+000
      vertex   -7.517113e+001 5.823587e-002 1.505824e+001
      vertex   -7.517113e+001 5.823587e-002 1.951764e+000
    endloop
  endfacet
  facet normal -4.726796e-017 -1.000000e+000 0.000000e+000
    outer loop
      vertex   -1.000000e-002 1.523402e+001 1.505824e+001
      vertex   -3.759057e+001 1.523402e+001 1.505824e+001
      vertex   -1.000000e-002 1.523402e+001 1.951764e+000
    endloop
  endfacet
  facet normal -4.726796e-017 -1.000000e+000 -0.000000e+000
    outer loop
      vertex   -1.000000e-002 1.523402e+001 1.951764e+000
      vertex   -3.759057e+001 1.523402e+001 1.505824e+001
      vertex   -3.759057e+001 1.523402e+001 1.951764e+000
    endloop
  endfacet
  facet normal -4.726796e-017 -1.000000e+000 0.000000e+000
    outer loop
      vertex   -3.759057e+001 1.523402e+001 1.951764e+000
      vertex   -3.759057e+001 1.523402e+001 1.505824e+001
      vertex   -7.517113e+001 1.523402e+001 1.505824e+001
    endloop
  endfacet
  facet normal -4.726796e-017 -1.000000e+000 0.000000e+000
    outer loop
      vertex   -7.517113e+001 1.523402e+001 1.951764e+000
      vertex   -3.759057e+001 1.523402e+001 1.951764e+000
      vertex   -7.517113e+001 1.523402e+001 1.505824e+001
    endloop
  endfacet
  facet normal -6.731928e-017 -1.000000e+000 0.000000e+000
    outer loop
      vertex   1.990000e+000 -1.941764e+000 1.505824e+001
      vertex   -3.759057e+001 -1.941764e+000 1.505824e+001
      vertex   1.990000e+000 -1.941764e+000 1.951764e+000
    endloop
  endfacet
  facet normal -6.170934e-017 -1.000000e+000 1.694160e-017
    outer loop
      vertex   1.990000e+000 -1.941764e+000 1.951764e+000
      vertex   -3.759057e+001 -1.941764e+000 1.505824e+001
      vertex   -3.759057e+001 -1.941764e+000 1.951764e+000
    endloop
  endfacet
  facet normal -2.804970e-017 -1.000000e+000 1.694160e-017
    outer loop
      vertex   -3.759057e+001 -1.941764e+000 1.951764e+000
      vertex   -3.759057e+001 -1.941764e+000 1.505824e+001
      vertex   -7.717113e+001 -1.941764e+000 1.505824e+001
    endloop
  endfacet
  facet normal -3.365964e-017 -1.000000e+000 0.000000e+000
    outer loop
      vertex   -7.717113e+001 -1.941764e+000 1.951764e+000
      vertex   -3.759057e+001 -1.941764e+000 1.951764e+000
      vertex   -7.717113e+001 -1.941764e+000 1.505824e+001
    endloop
  endfacet
  facet normal 1.000000e+000 6.947658e-017 0.000000e+000
    outer loop
      vertex   1.990000e+000 1.723402e+001 1.505824e+001
      vertex   1.990000e+000 -1.941764e+000 1.505824e+001
      vertex   1.990000e+000 1.723402e+001 1.951764e+000
    endloop
  endfacet
  facet normal 1.000000e+000 6.947658e-017 0.000000e+000
    outer loop
      vertex   1.990000e+000 1.723402e+001 1.951764e+000
      vertex   1.990000e+000 -1.941764e+000 1.505824e+001
      vertex   1.990000e+000 -1.941764e+000 1.951764e+000
    endloop
  endfacet
endsolid
