solid ascii
  facet normal -7.071068e-001 2.708487e-016 7.071068e-001
    outer loop
      vertex   9.800000e-001 -2.749959e+001 1.662886e+001
      vertex   9.800000e-001 -5.471235e+000 1.662886e+001
      vertex   -1.000000e-002 -2.567490e+001 1.563886e+001
    endloop
  endfacet
  facet normal -7.071068e-001 8.480495e-017 7.071068e-001
    outer loop
      vertex   -1.000000e-002 -2.567490e+001 1.563886e+001
      vertex   9.800000e-001 -5.471235e+000 1.662886e+001
      vertex   -1.000000e-002 -6.038673e+000 1.563886e+001
    endloop
  endfacet
  facet normal -3.573928e-001 -6.101396e-001 7.071068e-001
    outer loop
      vertex   9.800000e-001 -5.471235e+000 1.662886e+001
      vertex   -3.366514e+001 1.482236e+001 1.662886e+001
      vertex   -1.000000e-002 -6.038673e+000 1.563886e+001
    endloop
  endfacet
  facet normal -3.573928e-001 -6.101396e-001 7.071068e-001
    outer loop
      vertex   -1.000000e-002 -6.038673e+000 1.563886e+001
      vertex   -3.366514e+001 1.482236e+001 1.662886e+001
      vertex   -3.528344e+001 1.462295e+001 1.563886e+001
    endloop
  endfacet
  facet normal -4.948191e-001 5.051278e-001 7.071068e-001
    outer loop
      vertex   -2.231830e+001 2.593764e+001 1.662886e+001
      vertex   -2.272240e+001 2.692764e+001 1.563886e+001
      vertex   -3.366514e+001 1.482236e+001 1.662886e+001
    endloop
  endfacet
  facet normal -4.948191e-001 5.051278e-001 7.071068e-001
    outer loop
      vertex   -3.366514e+001 1.482236e+001 1.662886e+001
      vertex   -2.272240e+001 2.692764e+001 1.563886e+001
      vertex   -3.528344e+001 1.462295e+001 1.563886e+001
    endloop
  endfacet
  facet normal -4.914702e-001 5.083867e-001 7.071068e-001
    outer loop
      vertex   -4.589623e+001 4.163964e+000 1.563886e+001
      vertex   -7.517113e+001 -2.413682e+001 1.563886e+001
      vertex   -4.577498e+001 2.904206e+000 1.662886e+001
    endloop
  endfacet
  facet normal -4.914702e-001 5.083867e-001 7.071068e-001
    outer loop
      vertex   -4.577498e+001 2.904206e+000 1.662886e+001
      vertex   -7.517113e+001 -2.413682e+001 1.563886e+001
      vertex   -7.616113e+001 -2.647085e+001 1.662886e+001
    endloop
  endfacet
  facet normal 7.071068e-001 1.204701e-016 7.071068e-001
    outer loop
      vertex   -7.517113e+001 -3.731544e+000 1.563886e+001
      vertex   -7.616113e+001 -3.296657e+000 1.662886e+001
      vertex   -7.517113e+001 -2.413682e+001 1.563886e+001
    endloop
  endfacet
  facet normal 7.071068e-001 2.168056e-016 7.071068e-001
    outer loop
      vertex   -7.517113e+001 -2.413682e+001 1.563886e+001
      vertex   -7.616113e+001 -3.296657e+000 1.662886e+001
      vertex   -7.616113e+001 -2.647085e+001 1.662886e+001
    endloop
  endfacet
  facet normal 4.783525e-001 -5.207483e-001 7.071068e-001
    outer loop
      vertex   -4.179467e+001 2.692764e+001 1.563886e+001
      vertex   -4.433584e+001 2.593764e+001 1.662886e+001
      vertex   -7.517113e+001 -3.731544e+000 1.563886e+001
    endloop
  endfacet
  facet normal 4.783525e-001 -5.207483e-001 7.071068e-001
    outer loop
      vertex   -7.517113e+001 -3.731544e+000 1.563886e+001
      vertex   -4.433584e+001 2.593764e+001 1.662886e+001
      vertex   -7.616113e+001 -3.296657e+000 1.662886e+001
    endloop
  endfacet
  facet normal 0.000000e+000 7.071068e-001 7.071068e-001
    outer loop
      vertex   -4.179467e+001 2.692764e+001 1.563886e+001
      vertex   -7.517113e+001 2.692764e+001 1.563886e+001
      vertex   -4.433584e+001 2.593764e+001 1.662886e+001
    endloop
  endfacet
  facet normal 0.000000e+000 7.071068e-001 7.071068e-001
    outer loop
      vertex   -4.433584e+001 2.593764e+001 1.662886e+001
      vertex   -7.517113e+001 2.692764e+001 1.563886e+001
      vertex   -7.616113e+001 2.593764e+001 1.662886e+001
    endloop
  endfacet
  facet normal 7.071068e-001 1.464316e-016 7.071068e-001
    outer loop
      vertex   -7.616113e+001 4.309342e+001 1.662886e+001
      vertex   -7.616113e+001 2.593764e+001 1.662886e+001
      vertex   -7.517113e+001 4.210342e+001 1.563886e+001
    endloop
  endfacet
  facet normal 7.071068e-001 2.455878e-016 7.071068e-001
    outer loop
      vertex   -7.517113e+001 4.210342e+001 1.563886e+001
      vertex   -7.616113e+001 2.593764e+001 1.662886e+001
      vertex   -7.517113e+001 2.692764e+001 1.563886e+001
    endloop
  endfacet
  facet normal 0.000000e+000 -7.071068e-001 7.071068e-001
    outer loop
      vertex   9.800000e-001 4.309342e+001 1.662886e+001
      vertex   -3.759057e+001 4.309342e+001 1.662886e+001
      vertex   -1.000000e-002 4.210342e+001 1.563886e+001
    endloop
  endfacet
  facet normal 0.000000e+000 -7.071068e-001 7.071068e-001
    outer loop
      vertex   -1.000000e-002 4.210342e+001 1.563886e+001
      vertex   -3.759057e+001 4.309342e+001 1.662886e+001
      vertex   -3.759057e+001 4.210342e+001 1.563886e+001
    endloop
  endfacet
  facet normal 0.000000e+000 -7.071068e-001 7.071068e-001
    outer loop
      vertex   -3.759057e+001 4.210342e+001 1.563886e+001
      vertex   -3.759057e+001 4.309342e+001 1.662886e+001
      vertex   -7.517113e+001 4.210342e+001 1.563886e+001
    endloop
  endfacet
  facet normal 0.000000e+000 -7.071068e-001 7.071068e-001
    outer loop
      vertex   -7.517113e+001 4.210342e+001 1.563886e+001
      vertex   -3.759057e+001 4.309342e+001 1.662886e+001
      vertex   -7.616113e+001 4.309342e+001 1.662886e+001
    endloop
  endfacet
  facet normal -7.071068e-001 1.895106e-016 7.071068e-001
    outer loop
      vertex   9.800000e-001 4.309342e+001 1.662886e+001
      vertex   -1.000000e-002 4.210342e+001 1.563886e+001
      vertex   9.800000e-001 2.593764e+001 1.662886e+001
    endloop
  endfacet
  facet normal -7.071068e-001 2.483050e-016 7.071068e-001
    outer loop
      vertex   9.800000e-001 2.593764e+001 1.662886e+001
      vertex   -1.000000e-002 4.210342e+001 1.563886e+001
      vertex   -1.000000e-002 2.692764e+001 1.563886e+001
    endloop
  endfacet
  facet normal -2.178291e-016 7.071068e-001 7.071068e-001
    outer loop
      vertex   9.800000e-001 2.593764e+001 1.662886e+001
      vertex   -1.000000e-002 2.692764e+001 1.563886e+001
      vertex   -2.231830e+001 2.593764e+001 1.662886e+001
    endloop
  endfacet
  facet normal -2.765172e-016 7.071068e-001 7.071068e-001
    outer loop
      vertex   -2.231830e+001 2.593764e+001 1.662886e+001
      vertex   -1.000000e-002 2.692764e+001 1.563886e+001
      vertex   -2.272240e+001 2.692764e+001 1.563886e+001
    endloop
  endfacet
  facet normal 3.854814e-001 5.927935e-001 7.071068e-001
    outer loop
      vertex   -4.589623e+001 4.163964e+000 1.563886e+001
      vertex   -4.577498e+001 2.904206e+000 1.662886e+001
      vertex   -1.000000e-002 -2.567490e+001 1.563886e+001
    endloop
  endfacet
  facet normal 3.854814e-001 5.927935e-001 7.071068e-001
    outer loop
      vertex   -1.000000e-002 -2.567490e+001 1.563886e+001
      vertex   -4.577498e+001 2.904206e+000 1.662886e+001
      vertex   9.800000e-001 -2.749959e+001 1.662886e+001
    endloop
  endfacet
  facet normal -0.000000e+000 -1.000000e+000 -0.000000e+000
    outer loop
      vertex   -1.000000e-002 4.210342e+001 1.563886e+001
      vertex   -3.759057e+001 4.210342e+001 1.563886e+001
      vertex   -1.000000e-002 4.210342e+001 1.371139e+000
    endloop
  endfacet
  facet normal -0.000000e+000 -1.000000e+000 -0.000000e+000
    outer loop
      vertex   -1.000000e-002 4.210342e+001 1.371139e+000
      vertex   -3.759057e+001 4.210342e+001 1.563886e+001
      vertex   -3.759057e+001 4.210342e+001 1.371139e+000
    endloop
  endfacet
  facet normal 0.000000e+000 -1.000000e+000 0.000000e+000
    outer loop
      vertex   -3.759057e+001 4.210342e+001 1.371139e+000
      vertex   -3.759057e+001 4.210342e+001 1.563886e+001
      vertex   -7.517113e+001 4.210342e+001 1.563886e+001
    endloop
  endfacet
  facet normal 3.781437e-016 -1.000000e+000 9.960143e-016
    outer loop
      vertex   -7.517113e+001 4.210342e+001 1.371139e+000
      vertex   -3.759057e+001 4.210342e+001 1.371139e+000
      vertex   -7.517113e+001 4.210342e+001 1.563886e+001
    endloop
  endfacet
  facet normal 1.000000e+000 0.000000e+000 0.000000e+000
    outer loop
      vertex   -7.517113e+001 4.210342e+001 1.563886e+001
      vertex   -7.517113e+001 2.692764e+001 1.563886e+001
      vertex   -7.517113e+001 4.210342e+001 1.371139e+000
    endloop
  endfacet
  facet normal 1.000000e+000 0.000000e+000 0.000000e+000
    outer loop
      vertex   -7.517113e+001 4.210342e+001 1.371139e+000
      vertex   -7.517113e+001 2.692764e+001 1.563886e+001
      vertex   -7.517113e+001 2.692764e+001 1.371139e+000
    endloop
  endfacet
  facet normal 0.000000e+000 1.000000e+000 -4.980071e-016
    outer loop
      vertex   -7.517113e+001 2.692764e+001 1.563886e+001
      vertex   -4.179467e+001 2.692764e+001 1.563886e+001
      vertex   -7.517113e+001 2.692764e+001 1.371139e+000
    endloop
  endfacet
  facet normal 0.000000e+000 1.000000e+000 -4.980071e-016
    outer loop
      vertex   -7.517113e+001 2.692764e+001 1.371139e+000
      vertex   -4.179467e+001 2.692764e+001 1.563886e+001
      vertex   -4.179467e+001 2.692764e+001 1.371139e+000
    endloop
  endfacet
  facet normal 6.764927e-001 -7.364494e-001 3.516318e-016
    outer loop
      vertex   -4.179467e+001 2.692764e+001 1.563886e+001
      vertex   -7.517113e+001 -3.731544e+000 1.563886e+001
      vertex   -4.179467e+001 2.692764e+001 1.371139e+000
    endloop
  endfacet
  facet normal 6.764927e-001 -7.364494e-001 5.501356e-016
    outer loop
      vertex   -4.179467e+001 2.692764e+001 1.371139e+000
      vertex   -7.517113e+001 -3.731544e+000 1.563886e+001
      vertex   -7.517113e+001 -3.731544e+000 1.371139e+000
    endloop
  endfacet
  facet normal 1.000000e+000 0.000000e+000 0.000000e+000
    outer loop
      vertex   -7.517113e+001 -3.731544e+000 1.563886e+001
      vertex   -7.517113e+001 -2.413682e+001 1.563886e+001
      vertex   -7.517113e+001 -3.731544e+000 1.371139e+000
    endloop
  endfacet
  facet normal 1.000000e+000 0.000000e+000 0.000000e+000
    outer loop
      vertex   -7.517113e+001 -3.731544e+000 1.371139e+000
      vertex   -7.517113e+001 -2.413682e+001 1.563886e+001
      vertex   -7.517113e+001 -2.413682e+001 1.371139e+000
    endloop
  endfacet
  facet normal -6.950438e-001 7.189674e-001 1.956903e-016
    outer loop
      vertex   -7.517113e+001 -2.413682e+001 1.563886e+001
      vertex   -4.589623e+001 4.163964e+000 1.563886e+001
      vertex   -7.517113e+001 -2.413682e+001 1.371139e+000
    endloop
  endfacet
  facet normal -6.950438e-001 7.189674e-001 -3.132945e-016
    outer loop
      vertex   -7.517113e+001 -2.413682e+001 1.371139e+000
      vertex   -4.589623e+001 4.163964e+000 1.563886e+001
      vertex   -4.589623e+001 4.163964e+000 1.371139e+000
    endloop
  endfacet
  facet normal -7.211245e-016 3.058712e-016 1.000000e+000
    outer loop
      vertex   -7.618113e+001 -3.287872e+000 1.662886e+001
      vertex   -7.618113e+001 -2.651800e+001 1.662886e+001
      vertex   -7.616113e+001 -2.647085e+001 1.662886e+001
    endloop
  endfacet
  facet normal 1.346874e-016 3.066095e-016 1.000000e+000
    outer loop
      vertex   -7.616113e+001 -3.296657e+000 1.662886e+001
      vertex   -7.618113e+001 -3.287872e+000 1.662886e+001
      vertex   -7.616113e+001 -2.647085e+001 1.662886e+001
    endloop
  endfacet
  facet normal 7.229858e-017 1.645844e-016 1.000000e+000
    outer loop
      vertex   -7.616113e+001 -3.296657e+000 1.662886e+001
      vertex   -4.438718e+001 2.591764e+001 1.662886e+001
      vertex   -7.618113e+001 -3.287872e+000 1.662886e+001
    endloop
  endfacet
  facet normal -1.644223e-016 4.220460e-016 1.000000e+000
    outer loop
      vertex   -7.616113e+001 -3.296657e+000 1.662886e+001
      vertex   -4.433584e+001 2.593764e+001 1.662886e+001
      vertex   -4.438718e+001 2.591764e+001 1.662886e+001
    endloop
  endfacet
  facet normal 0.000000e+000 -0.000000e+000 1.000000e+000
    outer loop
      vertex   -4.438718e+001 2.591764e+001 1.662886e+001
      vertex   -4.433584e+001 2.593764e+001 1.662886e+001
      vertex   -7.616113e+001 2.593764e+001 1.662886e+001
    endloop
  endfacet
  facet normal -2.066038e-016 2.066038e-016 1.000000e+000
    outer loop
      vertex   -7.618113e+001 2.591764e+001 1.662886e+001
      vertex   -7.616113e+001 2.593764e+001 1.662886e+001
      vertex   -7.618113e+001 4.311342e+001 1.662886e+001
    endloop
  endfacet
  facet normal 0.000000e+000 -0.000000e+000 1.000000e+000
    outer loop
      vertex   -7.618113e+001 2.591764e+001 1.662886e+001
      vertex   -4.438718e+001 2.591764e+001 1.662886e+001
      vertex   -7.616113e+001 2.593764e+001 1.662886e+001
    endloop
  endfacet
  facet normal -2.347312e-016 -1.273555e-016 1.000000e+000
    outer loop
      vertex   1.000000e+000 -2.753645e+001 1.662886e+001
      vertex   9.800000e-001 -2.749959e+001 1.662886e+001
      vertex   -4.577253e+001 2.878756e+000 1.662886e+001
    endloop
  endfacet
  facet normal 5.932114e-016 3.218522e-016 1.000000e+000
    outer loop
      vertex   1.000000e+000 -2.753645e+001 1.662886e+001
      vertex   1.000000e+000 -5.459771e+000 1.662886e+001
      vertex   9.800000e-001 -2.749959e+001 1.662886e+001
    endloop
  endfacet
  facet normal -1.848808e-016 3.225582e-016 1.000000e+000
    outer loop
      vertex   9.800000e-001 -2.749959e+001 1.662886e+001
      vertex   1.000000e+000 -5.459771e+000 1.662886e+001
      vertex   9.800000e-001 -5.471235e+000 1.662886e+001
    endloop
  endfacet
  facet normal -5.073468e-017 8.851589e-017 1.000000e+000
    outer loop
      vertex   9.800000e-001 -5.471235e+000 1.662886e+001
      vertex   1.000000e+000 -5.459771e+000 1.662886e+001
      vertex   -3.363245e+001 1.482639e+001 1.662886e+001
    endloop
  endfacet
  facet normal -4.505206e-017 3.656150e-016 1.000000e+000
    outer loop
      vertex   -3.366514e+001 1.482236e+001 1.662886e+001
      vertex   -3.363245e+001 1.482639e+001 1.662886e+001
      vertex   -2.231830e+001 2.593764e+001 1.662886e+001
    endloop
  endfacet
  facet normal -1.782278e-017 1.446388e-016 1.000000e+000
    outer loop
      vertex   -3.366514e+001 1.482236e+001 1.662886e+001
      vertex   9.800000e-001 -5.471235e+000 1.662886e+001
      vertex   -3.363245e+001 1.482639e+001 1.662886e+001
    endloop
  endfacet
  facet normal 2.241513e-016 9.149576e-017 1.000000e+000
    outer loop
      vertex   -3.363245e+001 1.482639e+001 1.662886e+001
      vertex   -2.231013e+001 2.591764e+001 1.662886e+001
      vertex   -2.231830e+001 2.593764e+001 1.662886e+001
    endloop
  endfacet
  facet normal -0.000000e+000 0.000000e+000 1.000000e+000
    outer loop
      vertex   -2.231830e+001 2.593764e+001 1.662886e+001
      vertex   -2.231013e+001 2.591764e+001 1.662886e+001
      vertex   9.800000e-001 2.593764e+001 1.662886e+001
    endloop
  endfacet
  facet normal -0.000000e+000 0.000000e+000 1.000000e+000
    outer loop
      vertex   9.800000e-001 2.593764e+001 1.662886e+001
      vertex   -2.231013e+001 2.591764e+001 1.662886e+001
      vertex   1.000000e+000 2.591764e+001 1.662886e+001
    endloop
  endfacet
  facet normal 0.000000e+000 0.000000e+000 1.000000e+000
    outer loop
      vertex   1.000000e+000 4.311342e+001 1.662886e+001
      vertex   9.800000e-001 2.593764e+001 1.662886e+001
      vertex   1.000000e+000 2.591764e+001 1.662886e+001
    endloop
  endfacet
  facet normal -1.778428e-013 2.070855e-016 1.000000e+000
    outer loop
      vertex   1.000000e+000 4.311342e+001 1.662886e+001
      vertex   9.800000e-001 4.309342e+001 1.662886e+001
      vertex   9.800000e-001 2.593764e+001 1.662886e+001
    endloop
  endfacet
  facet normal -9.206171e-017 -1.775436e-013 1.000000e+000
    outer loop
      vertex   1.000000e+000 4.311342e+001 1.662886e+001
      vertex   -3.759057e+001 4.311342e+001 1.662886e+001
      vertex   9.800000e-001 4.309342e+001 1.662886e+001
    endloop
  endfacet
  facet normal 0.000000e+000 0.000000e+000 1.000000e+000
    outer loop
      vertex   9.800000e-001 4.309342e+001 1.662886e+001
      vertex   -3.759057e+001 4.311342e+001 1.662886e+001
      vertex   -3.759057e+001 4.309342e+001 1.662886e+001
    endloop
  endfacet
  facet normal 0.000000e+000 0.000000e+000 1.000000e+000
    outer loop
      vertex   -3.759057e+001 4.309342e+001 1.662886e+001
      vertex   -3.759057e+001 4.311342e+001 1.662886e+001
      vertex   -7.616113e+001 4.309342e+001 1.662886e+001
    endloop
  endfacet
  facet normal 0.000000e+000 -0.000000e+000 1.000000e+000
    outer loop
      vertex   -7.616113e+001 4.309342e+001 1.662886e+001
      vertex   -3.759057e+001 4.311342e+001 1.662886e+001
      vertex   -7.618113e+001 4.311342e+001 1.662886e+001
    endloop
  endfacet
  facet normal 2.070855e-016 2.070855e-016 1.000000e+000
    outer loop
      vertex   -7.616113e+001 2.593764e+001 1.662886e+001
      vertex   -7.616113e+001 4.309342e+001 1.662886e+001
      vertex   -7.618113e+001 4.311342e+001 1.662886e+001
    endloop
  endfacet
  facet normal -1.621185e-016 -1.560394e-017 1.000000e+000
    outer loop
      vertex   9.800000e-001 -2.749959e+001 1.662886e+001
      vertex   -4.577498e+001 2.904206e+000 1.662886e+001
      vertex   -4.577253e+001 2.878756e+000 1.662886e+001
    endloop
  endfacet
  facet normal 2.139318e-016 2.059098e-017 1.000000e+000
    outer loop
      vertex   -4.577253e+001 2.878756e+000 1.662886e+001
      vertex   -4.577498e+001 2.904206e+000 1.662886e+001
      vertex   -7.616113e+001 -2.647085e+001 1.662886e+001
    endloop
  endfacet
  facet normal 3.960725e-016 -1.679975e-016 1.000000e+000
    outer loop
      vertex   -7.618113e+001 -2.651800e+001 1.662886e+001
      vertex   -4.577253e+001 2.878756e+000 1.662886e+001
      vertex   -7.616113e+001 -2.647085e+001 1.662886e+001
    endloop
  endfacet
  facet normal 3.573928e-001 6.101396e-001 7.071068e-001
    outer loop
      vertex   1.990000e+000 -4.892332e+000 1.563886e+001
      vertex   -3.201415e+001 1.502580e+001 1.563886e+001
      vertex   1.000000e+000 -5.459771e+000 1.662886e+001
    endloop
  endfacet
  facet normal 3.573928e-001 6.101396e-001 7.071068e-001
    outer loop
      vertex   1.000000e+000 -5.459771e+000 1.662886e+001
      vertex   -3.201415e+001 1.502580e+001 1.563886e+001
      vertex   -3.363245e+001 1.482639e+001 1.662886e+001
    endloop
  endfacet
  facet normal 4.914702e-001 -5.083867e-001 7.071068e-001
    outer loop
      vertex   -4.577253e+001 2.878756e+000 1.662886e+001
      vertex   -7.618113e+001 -2.651800e+001 1.662886e+001
      vertex   -4.565128e+001 1.618999e+000 1.563886e+001
    endloop
  endfacet
  facet normal 4.914702e-001 -5.083867e-001 7.071068e-001
    outer loop
      vertex   -4.565128e+001 1.618999e+000 1.563886e+001
      vertex   -7.618113e+001 -2.651800e+001 1.662886e+001
      vertex   -7.717113e+001 -2.885204e+001 1.563886e+001
    endloop
  endfacet
  facet normal 4.948191e-001 -5.051278e-001 7.071068e-001
    outer loop
      vertex   -2.190603e+001 2.492764e+001 1.563886e+001
      vertex   -2.231013e+001 2.591764e+001 1.662886e+001
      vertex   -3.201415e+001 1.502580e+001 1.563886e+001
    endloop
  endfacet
  facet normal 4.948191e-001 -5.051278e-001 7.071068e-001
    outer loop
      vertex   -3.201415e+001 1.502580e+001 1.563886e+001
      vertex   -2.231013e+001 2.591764e+001 1.662886e+001
      vertex   -3.363245e+001 1.482639e+001 1.662886e+001
    endloop
  endfacet
  facet normal 0.000000e+000 -7.071068e-001 7.071068e-001
    outer loop
      vertex   1.990000e+000 2.492764e+001 1.563886e+001
      vertex   1.000000e+000 2.591764e+001 1.662886e+001
      vertex   -2.190603e+001 2.492764e+001 1.563886e+001
    endloop
  endfacet
  facet normal 3.233119e-016 -7.071068e-001 7.071068e-001
    outer loop
      vertex   -2.190603e+001 2.492764e+001 1.563886e+001
      vertex   1.000000e+000 2.591764e+001 1.662886e+001
      vertex   -2.231013e+001 2.591764e+001 1.662886e+001
    endloop
  endfacet
  facet normal 7.071068e-001 1.488708e-016 7.071068e-001
    outer loop
      vertex   1.990000e+000 4.410342e+001 1.563886e+001
      vertex   1.000000e+000 4.311342e+001 1.662886e+001
      vertex   1.990000e+000 2.492764e+001 1.563886e+001
    endloop
  endfacet
  facet normal 7.071068e-001 3.652274e-017 7.071068e-001
    outer loop
      vertex   1.990000e+000 2.492764e+001 1.563886e+001
      vertex   1.000000e+000 4.311342e+001 1.662886e+001
      vertex   1.000000e+000 2.591764e+001 1.662886e+001
    endloop
  endfacet
  facet normal -2.538769e-016 7.071068e-001 7.071068e-001
    outer loop
      vertex   1.990000e+000 4.410342e+001 1.563886e+001
      vertex   -3.759057e+001 4.410342e+001 1.563886e+001
      vertex   1.000000e+000 4.311342e+001 1.662886e+001
    endloop
  endfacet
  facet normal -6.370017e-017 7.071068e-001 7.071068e-001
    outer loop
      vertex   1.000000e+000 4.311342e+001 1.662886e+001
      vertex   -3.759057e+001 4.410342e+001 1.563886e+001
      vertex   -3.759057e+001 4.311342e+001 1.662886e+001
    endloop
  endfacet
  facet normal 0.000000e+000 7.071068e-001 7.071068e-001
    outer loop
      vertex   -3.759057e+001 4.311342e+001 1.662886e+001
      vertex   -3.759057e+001 4.410342e+001 1.563886e+001
      vertex   -7.618113e+001 4.311342e+001 1.662886e+001
    endloop
  endfacet
  facet normal 0.000000e+000 7.071068e-001 7.071068e-001
    outer loop
      vertex   -7.618113e+001 4.311342e+001 1.662886e+001
      vertex   -3.759057e+001 4.410342e+001 1.563886e+001
      vertex   -7.717113e+001 4.410342e+001 1.563886e+001
    endloop
  endfacet
  facet normal -7.071068e-001 1.460909e-016 7.071068e-001
    outer loop
      vertex   -7.618113e+001 2.591764e+001 1.662886e+001
      vertex   -7.618113e+001 4.311342e+001 1.662886e+001
      vertex   -7.717113e+001 2.492764e+001 1.563886e+001
    endloop
  endfacet
  facet normal -7.071068e-001 1.943591e-016 7.071068e-001
    outer loop
      vertex   -7.717113e+001 2.492764e+001 1.563886e+001
      vertex   -7.618113e+001 4.311342e+001 1.662886e+001
      vertex   -7.717113e+001 4.410342e+001 1.563886e+001
    endloop
  endfacet
  facet normal 0.000000e+000 -7.071068e-001 7.071068e-001
    outer loop
      vertex   -4.438718e+001 2.591764e+001 1.662886e+001
      vertex   -7.618113e+001 2.591764e+001 1.662886e+001
      vertex   -4.692835e+001 2.492764e+001 1.563886e+001
    endloop
  endfacet
  facet normal 0.000000e+000 -7.071068e-001 7.071068e-001
    outer loop
      vertex   -4.692835e+001 2.492764e+001 1.563886e+001
      vertex   -7.618113e+001 2.591764e+001 1.662886e+001
      vertex   -7.717113e+001 2.492764e+001 1.563886e+001
    endloop
  endfacet
  facet normal -4.783525e-001 5.207483e-001 7.071068e-001
    outer loop
      vertex   -4.438718e+001 2.591764e+001 1.662886e+001
      vertex   -4.692835e+001 2.492764e+001 1.563886e+001
      vertex   -7.618113e+001 -3.287872e+000 1.662886e+001
    endloop
  endfacet
  facet normal -4.783525e-001 5.207483e-001 7.071068e-001
    outer loop
      vertex   -7.618113e+001 -3.287872e+000 1.662886e+001
      vertex   -4.692835e+001 2.492764e+001 1.563886e+001
      vertex   -7.717113e+001 -2.852985e+000 1.563886e+001
    endloop
  endfacet
  facet normal -7.071068e-001 2.150547e-016 7.071068e-001
    outer loop
      vertex   -7.618113e+001 -3.287872e+000 1.662886e+001
      vertex   -7.717113e+001 -2.852985e+000 1.563886e+001
      vertex   -7.618113e+001 -2.651800e+001 1.662886e+001
    endloop
  endfacet
  facet normal -7.071068e-001 5.797476e-016 7.071068e-001
    outer loop
      vertex   -7.618113e+001 -2.651800e+001 1.662886e+001
      vertex   -7.717113e+001 -2.852985e+000 1.563886e+001
      vertex   -7.717113e+001 -2.885204e+001 1.563886e+001
    endloop
  endfacet
  facet normal -3.854814e-001 -5.927935e-001 7.071068e-001
    outer loop
      vertex   1.990000e+000 -2.936114e+001 1.563886e+001
      vertex   1.000000e+000 -2.753645e+001 1.662886e+001
      vertex   -2.183064e+001 -1.387107e+001 1.563886e+001
    endloop
  endfacet
  facet normal -3.854814e-001 -5.927935e-001 7.071068e-001
    outer loop
      vertex   -2.183064e+001 -1.387107e+001 1.563886e+001
      vertex   1.000000e+000 -2.753645e+001 1.662886e+001
      vertex   -4.577253e+001 2.878756e+000 1.662886e+001
    endloop
  endfacet
  facet normal -3.854814e-001 -5.927935e-001 7.071068e-001
    outer loop
      vertex   -4.565128e+001 1.618999e+000 1.563886e+001
      vertex   -2.183064e+001 -1.387107e+001 1.563886e+001
      vertex   -4.577253e+001 2.878756e+000 1.662886e+001
    endloop
  endfacet
  facet normal 7.071068e-001 2.987038e-016 7.071068e-001
    outer loop
      vertex   1.000000e+000 -5.459771e+000 1.662886e+001
      vertex   1.000000e+000 -2.753645e+001 1.662886e+001
      vertex   1.990000e+000 -4.892332e+000 1.563886e+001
    endloop
  endfacet
  facet normal 7.071068e-001 1.555566e-016 7.071068e-001
    outer loop
      vertex   1.990000e+000 -4.892332e+000 1.563886e+001
      vertex   1.000000e+000 -2.753645e+001 1.662886e+001
      vertex   1.990000e+000 -2.936114e+001 1.563886e+001
    endloop
  endfacet
  facet normal 0.000000e+000 -1.000000e+000 2.490036e-016
    outer loop
      vertex   1.990000e+000 2.492764e+001 1.563886e+001
      vertex   -2.190603e+001 2.492764e+001 1.563886e+001
      vertex   1.990000e+000 2.492764e+001 1.371139e+000
    endloop
  endfacet
  facet normal 0.000000e+000 -1.000000e+000 2.490036e-016
    outer loop
      vertex   1.990000e+000 2.492764e+001 1.371139e+000
      vertex   -2.190603e+001 2.492764e+001 1.563886e+001
      vertex   -2.190603e+001 2.492764e+001 1.371139e+000
    endloop
  endfacet
  facet normal 6.997798e-001 -7.143586e-001 7.039004e-016
    outer loop
      vertex   -2.190603e+001 2.492764e+001 1.563886e+001
      vertex   -3.201415e+001 1.502580e+001 1.563886e+001
      vertex   -2.190603e+001 2.492764e+001 1.371139e+000
    endloop
  endfacet
  facet normal 6.997798e-001 -7.143586e-001 1.851382e-016
    outer loop
      vertex   -2.190603e+001 2.492764e+001 1.371139e+000
      vertex   -3.201415e+001 1.502580e+001 1.563886e+001
      vertex   -3.201415e+001 1.502580e+001 1.371139e+000
    endloop
  endfacet
  facet normal 5.054298e-001 8.628677e-001 -8.087752e-016
    outer loop
      vertex   -3.201415e+001 1.502580e+001 1.563886e+001
      vertex   1.990000e+000 -4.892332e+000 1.563886e+001
      vertex   -3.201415e+001 1.502580e+001 1.371139e+000
    endloop
  endfacet
  facet normal 5.054298e-001 8.628677e-001 -4.450166e-017
    outer loop
      vertex   -3.201415e+001 1.502580e+001 1.371139e+000
      vertex   1.990000e+000 -4.892332e+000 1.563886e+001
      vertex   1.990000e+000 -4.892332e+000 1.371139e+000
    endloop
  endfacet
  facet normal 1.000000e+000 7.259679e-017 1.245018e-016
    outer loop
      vertex   1.990000e+000 -4.892332e+000 1.563886e+001
      vertex   1.990000e+000 -2.936114e+001 1.563886e+001
      vertex   1.990000e+000 -4.892332e+000 1.371139e+000
    endloop
  endfacet
  facet normal 1.000000e+000 5.444759e-017 9.337634e-017
    outer loop
      vertex   1.990000e+000 -4.892332e+000 1.371139e+000
      vertex   1.990000e+000 -2.936114e+001 1.563886e+001
      vertex   1.990000e+000 -2.936114e+001 1.371139e+000
    endloop
  endfacet
  facet normal -5.451530e-001 -8.383366e-001 -1.402137e-016
    outer loop
      vertex   1.990000e+000 -2.936114e+001 1.563886e+001
      vertex   -2.183064e+001 -1.387107e+001 1.563886e+001
      vertex   1.990000e+000 -2.936114e+001 1.371139e+000
    endloop
  endfacet
  facet normal -5.451530e-001 -8.383366e-001 -4.072351e-016
    outer loop
      vertex   1.990000e+000 -2.936114e+001 1.371139e+000
      vertex   -2.183064e+001 -1.387107e+001 1.563886e+001
      vertex   -2.183064e+001 -1.387107e+001 1.371139e+000
    endloop
  endfacet
  facet normal -5.451530e-001 -8.383366e-001 -4.072351e-016
    outer loop
      vertex   -2.183064e+001 -1.387107e+001 1.371139e+000
      vertex   -2.183064e+001 -1.387107e+001 1.563886e+001
      vertex   -4.565128e+001 1.618999e+000 1.563886e+001
    endloop
  endfacet
  facet normal -5.451530e-001 -8.383366e-001 1.402137e-016
    outer loop
      vertex   -4.565128e+001 1.618999e+000 1.371139e+000
      vertex   -2.183064e+001 -1.387107e+001 1.371139e+000
      vertex   -4.565128e+001 1.618999e+000 1.563886e+001
    endloop
  endfacet
  facet normal 6.950438e-001 -7.189674e-001 1.817526e-016
    outer loop
      vertex   -4.565128e+001 1.618999e+000 1.563886e+001
      vertex   -7.717113e+001 -2.885204e+001 1.563886e+001
      vertex   -4.565128e+001 1.618999e+000 1.371139e+000
    endloop
  endfacet
  facet normal 6.950438e-001 -7.189674e-001 -1.074153e-015
    outer loop
      vertex   -4.565128e+001 1.618999e+000 1.371139e+000
      vertex   -7.717113e+001 -2.885204e+001 1.563886e+001
      vertex   -7.717113e+001 -2.885204e+001 1.371139e+000
    endloop
  endfacet
  facet normal 3.046898e-016 -5.267344e-016 -1.000000e+000
    outer loop
      vertex   -1.000000e-002 4.210342e+001 1.371139e+000
      vertex   1.990000e+000 4.410342e+001 1.371139e+000
      vertex   -1.000000e-002 2.692764e+001 1.371139e+000
    endloop
  endfacet
  facet normal 0.000000e+000 -2.220446e-016 -1.000000e+000
    outer loop
      vertex   -1.000000e-002 4.210342e+001 1.371139e+000
      vertex   -3.759057e+001 4.410342e+001 1.371139e+000
      vertex   1.990000e+000 4.410342e+001 1.371139e+000
    endloop
  endfacet
  facet normal -0.000000e+000 -2.220446e-016 -1.000000e+000
    outer loop
      vertex   -1.000000e-002 4.210342e+001 1.371139e+000
      vertex   -3.759057e+001 4.210342e+001 1.371139e+000
      vertex   -3.759057e+001 4.410342e+001 1.371139e+000
    endloop
  endfacet
  facet normal 8.396477e-032 -2.220446e-016 -1.000000e+000
    outer loop
      vertex   -3.759057e+001 4.410342e+001 1.371139e+000
      vertex   -3.759057e+001 4.210342e+001 1.371139e+000
      vertex   -7.517113e+001 4.210342e+001 1.371139e+000
    endloop
  endfacet
  facet normal -3.046898e-016 -5.267344e-016 -1.000000e+000
    outer loop
      vertex   -7.717113e+001 4.410342e+001 1.371139e+000
      vertex   -7.517113e+001 4.210342e+001 1.371139e+000
      vertex   -7.517113e+001 2.692764e+001 1.371139e+000
    endloop
  endfacet
  facet normal 1.304214e-032 -1.110223e-016 -1.000000e+000
    outer loop
      vertex   -7.717113e+001 2.492764e+001 1.371139e+000
      vertex   -7.517113e+001 2.692764e+001 1.371139e+000
      vertex   -4.692835e+001 2.492764e+001 1.371139e+000
    endloop
  endfacet
  facet normal 3.405754e-016 -4.515977e-016 -1.000000e+000
    outer loop
      vertex   -7.717113e+001 2.492764e+001 1.371139e+000
      vertex   -7.717113e+001 4.410342e+001 1.371139e+000
      vertex   -7.517113e+001 2.692764e+001 1.371139e+000
    endloop
  endfacet
  facet normal 0.000000e+000 -2.220446e-016 -1.000000e+000
    outer loop
      vertex   -3.759057e+001 4.410342e+001 1.371139e+000
      vertex   -7.517113e+001 4.210342e+001 1.371139e+000
      vertex   -7.717113e+001 4.410342e+001 1.371139e+000
    endloop
  endfacet
  facet normal 0.000000e+000 -1.110223e-016 -1.000000e+000
    outer loop
      vertex   -7.517113e+001 2.692764e+001 1.371139e+000
      vertex   -4.179467e+001 2.692764e+001 1.371139e+000
      vertex   -4.692835e+001 2.492764e+001 1.371139e+000
    endloop
  endfacet
  facet normal 1.698642e-016 -5.470367e-016 -1.000000e+000
    outer loop
      vertex   -4.692835e+001 2.492764e+001 1.371139e+000
      vertex   -4.179467e+001 2.692764e+001 1.371139e+000
      vertex   -7.517113e+001 -3.731544e+000 1.371139e+000
    endloop
  endfacet
  facet normal -1.757851e-016 -6.529036e-016 -1.000000e+000
    outer loop
      vertex   -7.717113e+001 -2.852985e+000 1.371139e+000
      vertex   -7.517113e+001 -3.731544e+000 1.371139e+000
      vertex   -7.517113e+001 -2.413682e+001 1.371139e+000
    endloop
  endfacet
  facet normal -4.500359e-016 -4.456871e-017 -1.000000e+000
    outer loop
      vertex   -7.717113e+001 -2.885204e+001 1.371139e+000
      vertex   -7.517113e+001 -2.413682e+001 1.371139e+000
      vertex   -4.565128e+001 1.618999e+000 1.371139e+000
    endloop
  endfacet
  facet normal 7.738071e-016 -5.636723e-016 -1.000000e+000
    outer loop
      vertex   -7.717113e+001 -2.885204e+001 1.371139e+000
      vertex   -7.717113e+001 -2.852985e+000 1.371139e+000
      vertex   -7.517113e+001 -2.413682e+001 1.371139e+000
    endloop
  endfacet
  facet normal -3.890447e-017 -3.413013e-016 -1.000000e+000
    outer loop
      vertex   -4.692835e+001 2.492764e+001 1.371139e+000
      vertex   -7.517113e+001 -3.731544e+000 1.371139e+000
      vertex   -7.717113e+001 -2.852985e+000 1.371139e+000
    endloop
  endfacet
  facet normal -2.403655e-016 -2.848810e-016 -1.000000e+000
    outer loop
      vertex   -7.517113e+001 -2.413682e+001 1.371139e+000
      vertex   -4.589623e+001 4.163964e+000 1.371139e+000
      vertex   -4.565128e+001 1.618999e+000 1.371139e+000
    endloop
  endfacet
  facet normal 1.664643e-016 -2.457236e-016 -1.000000e+000
    outer loop
      vertex   -4.565128e+001 1.618999e+000 1.371139e+000
      vertex   -4.589623e+001 4.163964e+000 1.371139e+000
      vertex   -2.183064e+001 -1.387107e+001 1.371139e+000
    endloop
  endfacet
  facet normal 2.607979e-016 -1.198466e-016 -1.000000e+000
    outer loop
      vertex   -2.183064e+001 -1.387107e+001 1.371139e+000
      vertex   -4.589623e+001 4.163964e+000 1.371139e+000
      vertex   -1.000000e-002 -2.567490e+001 1.371139e+000
    endloop
  endfacet
  facet normal -6.430718e-016 -5.898489e-016 -1.000000e+000
    outer loop
      vertex   1.990000e+000 -2.936114e+001 1.371139e+000
      vertex   -1.000000e-002 -2.567490e+001 1.371139e+000
      vertex   1.990000e+000 -4.892332e+000 1.371139e+000
    endloop
  endfacet
  facet normal 2.764178e-016 -9.097161e-017 -1.000000e+000
    outer loop
      vertex   1.990000e+000 -2.936114e+001 1.371139e+000
      vertex   -2.183064e+001 -1.387107e+001 1.371139e+000
      vertex   -1.000000e-002 -2.567490e+001 1.371139e+000
    endloop
  endfacet
  facet normal 2.778590e-016 -6.784742e-016 -1.000000e+000
    outer loop
      vertex   -1.000000e-002 -2.567490e+001 1.371139e+000
      vertex   -1.000000e-002 -6.038673e+000 1.371139e+000
      vertex   1.990000e+000 -4.892332e+000 1.371139e+000
    endloop
  endfacet
  facet normal 8.476159e-018 -2.084868e-016 -1.000000e+000
    outer loop
      vertex   1.990000e+000 -4.892332e+000 1.371139e+000
      vertex   -1.000000e-002 -6.038673e+000 1.371139e+000
      vertex   -3.201415e+001 1.502580e+001 1.371139e+000
    endloop
  endfacet
  facet normal 2.297573e-017 -1.864570e-016 -1.000000e+000
    outer loop
      vertex   -3.201415e+001 1.502580e+001 1.371139e+000
      vertex   -1.000000e-002 -6.038673e+000 1.371139e+000
      vertex   -3.528344e+001 1.462295e+001 1.371139e+000
    endloop
  endfacet
  facet normal 7.885080e-017 -6.399049e-016 -1.000000e+000
    outer loop
      vertex   -2.272240e+001 2.692764e+001 1.371139e+000
      vertex   -3.201415e+001 1.502580e+001 1.371139e+000
      vertex   -3.528344e+001 1.462295e+001 1.371139e+000
    endloop
  endfacet
  facet normal -3.930770e-016 -2.714714e-016 -1.000000e+000
    outer loop
      vertex   -2.272240e+001 2.692764e+001 1.371139e+000
      vertex   -2.190603e+001 2.492764e+001 1.371139e+000
      vertex   -3.201415e+001 1.502580e+001 1.371139e+000
    endloop
  endfacet
  facet normal 3.473261e-032 -1.110223e-016 -1.000000e+000
    outer loop
      vertex   -2.272240e+001 2.692764e+001 1.371139e+000
      vertex   -1.000000e-002 2.692764e+001 1.371139e+000
      vertex   -2.190603e+001 2.492764e+001 1.371139e+000
    endloop
  endfacet
  facet normal 0.000000e+000 -1.110223e-016 -1.000000e+000
    outer loop
      vertex   -2.190603e+001 2.492764e+001 1.371139e+000
      vertex   -1.000000e-002 2.692764e+001 1.371139e+000
      vertex   1.990000e+000 2.492764e+001 1.371139e+000
    endloop
  endfacet
  facet normal -3.405754e-016 -4.515977e-016 -1.000000e+000
    outer loop
      vertex   1.990000e+000 2.492764e+001 1.371139e+000
      vertex   -1.000000e-002 2.692764e+001 1.371139e+000
      vertex   1.990000e+000 4.410342e+001 1.371139e+000
    endloop
  endfacet
  facet normal 1.000000e+000 -6.947658e-017 -1.556272e-016
    outer loop
      vertex   1.990000e+000 4.410342e+001 1.563886e+001
      vertex   1.990000e+000 2.492764e+001 1.563886e+001
      vertex   1.990000e+000 4.410342e+001 1.371139e+000
    endloop
  endfacet
  facet normal 1.000000e+000 5.789715e-017 1.556272e-017
    outer loop
      vertex   1.990000e+000 4.410342e+001 1.371139e+000
      vertex   1.990000e+000 2.492764e+001 1.563886e+001
      vertex   1.990000e+000 2.492764e+001 1.371139e+000
    endloop
  endfacet
  facet normal -0.000000e+000 1.000000e+000 0.000000e+000
    outer loop
      vertex   -7.717113e+001 4.410342e+001 1.563886e+001
      vertex   -3.759057e+001 4.410342e+001 1.563886e+001
      vertex   -7.717113e+001 4.410342e+001 1.371139e+000
    endloop
  endfacet
  facet normal -0.000000e+000 1.000000e+000 0.000000e+000
    outer loop
      vertex   -7.717113e+001 4.410342e+001 1.371139e+000
      vertex   -3.759057e+001 4.410342e+001 1.563886e+001
      vertex   -3.759057e+001 4.410342e+001 1.371139e+000
    endloop
  endfacet
  facet normal -3.590362e-016 1.000000e+000 0.000000e+000
    outer loop
      vertex   -3.759057e+001 4.410342e+001 1.371139e+000
      vertex   -3.759057e+001 4.410342e+001 1.563886e+001
      vertex   1.990000e+000 4.410342e+001 1.563886e+001
    endloop
  endfacet
  facet normal 0.000000e+000 1.000000e+000 -9.960143e-016
    outer loop
      vertex   1.990000e+000 4.410342e+001 1.371139e+000
      vertex   -3.759057e+001 4.410342e+001 1.371139e+000
      vertex   1.990000e+000 4.410342e+001 1.563886e+001
    endloop
  endfacet
  facet normal -1.000000e+000 0.000000e+000 -0.000000e+000
    outer loop
      vertex   -7.717113e+001 2.492764e+001 1.563886e+001
      vertex   -7.717113e+001 4.410342e+001 1.563886e+001
      vertex   -7.717113e+001 2.492764e+001 1.371139e+000
    endloop
  endfacet
  facet normal -1.000000e+000 0.000000e+000 0.000000e+000
    outer loop
      vertex   -7.717113e+001 2.492764e+001 1.371139e+000
      vertex   -7.717113e+001 4.410342e+001 1.563886e+001
      vertex   -7.717113e+001 4.410342e+001 1.371139e+000
    endloop
  endfacet
  facet normal -1.174731e-016 -1.000000e+000 -2.490036e-016
    outer loop
      vertex   -4.692835e+001 2.492764e+001 1.563886e+001
      vertex   -7.717113e+001 2.492764e+001 1.563886e+001
      vertex   -4.692835e+001 2.492764e+001 1.371139e+000
    endloop
  endfacet
  facet normal 1.174731e-016 -1.000000e+000 2.490036e-016
    outer loop
      vertex   -4.692835e+001 2.492764e+001 1.371139e+000
      vertex   -7.717113e+001 2.492764e+001 1.563886e+001
      vertex   -7.717113e+001 2.492764e+001 1.371139e+000
    endloop
  endfacet
  facet normal -6.764927e-001 7.364494e-001 -5.821005e-016
    outer loop
      vertex   -7.717113e+001 -2.852985e+000 1.563886e+001
      vertex   -4.692835e+001 2.492764e+001 1.563886e+001
      vertex   -7.717113e+001 -2.852985e+000 1.371139e+000
    endloop
  endfacet
  facet normal -6.764927e-001 7.364494e-001 -4.904178e-016
    outer loop
      vertex   -7.717113e+001 -2.852985e+000 1.371139e+000
      vertex   -4.692835e+001 2.492764e+001 1.563886e+001
      vertex   -4.692835e+001 2.492764e+001 1.371139e+000
    endloop
  endfacet
  facet normal -1.000000e+000 5.465913e-016 8.166191e-031
    outer loop
      vertex   -7.717113e+001 -2.885204e+001 1.563886e+001
      vertex   -7.717113e+001 -2.852985e+000 1.563886e+001
      vertex   -7.717113e+001 -2.885204e+001 1.371139e+000
    endloop
  endfacet
  facet normal -1.000000e+000 5.465913e-016 -4.083095e-031
    outer loop
      vertex   -7.717113e+001 -2.885204e+001 1.371139e+000
      vertex   -7.717113e+001 -2.852985e+000 1.563886e+001
      vertex   -7.717113e+001 -2.852985e+000 1.371139e+000
    endloop
  endfacet
  facet normal -1.000000e+000 0.000000e+000 -0.000000e+000
    outer loop
      vertex   -1.000000e-002 2.692764e+001 1.563886e+001
      vertex   -1.000000e-002 4.210342e+001 1.563886e+001
      vertex   -1.000000e-002 2.692764e+001 1.371139e+000
    endloop
  endfacet
  facet normal -1.000000e+000 0.000000e+000 0.000000e+000
    outer loop
      vertex   -1.000000e-002 2.692764e+001 1.371139e+000
      vertex   -1.000000e-002 4.210342e+001 1.563886e+001
      vertex   -1.000000e-002 4.210342e+001 1.371139e+000
    endloop
  endfacet
  facet normal -1.564217e-016 1.000000e+000 -4.980071e-016
    outer loop
      vertex   -2.272240e+001 2.692764e+001 1.563886e+001
      vertex   -1.000000e-002 2.692764e+001 1.563886e+001
      vertex   -2.272240e+001 2.692764e+001 1.371139e+000
    endloop
  endfacet
  facet normal -3.128435e-016 1.000000e+000 -2.490036e-016
    outer loop
      vertex   -2.272240e+001 2.692764e+001 1.371139e+000
      vertex   -1.000000e-002 2.692764e+001 1.563886e+001
      vertex   -1.000000e-002 2.692764e+001 1.371139e+000
    endloop
  endfacet
  facet normal -6.997798e-001 7.143586e-001 -2.265773e-016
    outer loop
      vertex   -3.528344e+001 1.462295e+001 1.563886e+001
      vertex   -2.272240e+001 2.692764e+001 1.563886e+001
      vertex   -3.528344e+001 1.462295e+001 1.371139e+000
    endloop
  endfacet
  facet normal -6.997798e-001 7.143586e-001 -3.557557e-016
    outer loop
      vertex   -3.528344e+001 1.462295e+001 1.371139e+000
      vertex   -2.272240e+001 2.692764e+001 1.563886e+001
      vertex   -2.272240e+001 2.692764e+001 1.371139e+000
    endloop
  endfacet
  facet normal -5.054298e-001 -8.628677e-001 0.000000e+000
    outer loop
      vertex   -1.000000e-002 -6.038673e+000 1.563886e+001
      vertex   -3.528344e+001 1.462295e+001 1.563886e+001
      vertex   -1.000000e-002 -6.038673e+000 1.371139e+000
    endloop
  endfacet
  facet normal -5.054298e-001 -8.628677e-001 3.222857e-016
    outer loop
      vertex   -1.000000e-002 -6.038673e+000 1.371139e+000
      vertex   -3.528344e+001 1.462295e+001 1.563886e+001
      vertex   -3.528344e+001 1.462295e+001 1.371139e+000
    endloop
  endfacet
  facet normal -1.000000e+000 -6.113335e-017 -2.252567e-032
    outer loop
      vertex   -1.000000e-002 -2.567490e+001 1.563886e+001
      vertex   -1.000000e-002 -6.038673e+000 1.563886e+001
      vertex   -1.000000e-002 -2.567490e+001 1.371139e+000
    endloop
  endfacet
  facet normal -1.000000e+000 -6.757700e-032 -8.413597e-017
    outer loop
      vertex   -1.000000e-002 -2.567490e+001 1.371139e+000
      vertex   -1.000000e-002 -6.038673e+000 1.563886e+001
      vertex   -1.000000e-002 -6.038673e+000 1.371139e+000
    endloop
  endfacet
  facet normal 5.451530e-001 8.383366e-001 0.000000e+000
    outer loop
      vertex   -4.589623e+001 4.163964e+000 1.563886e+001
      vertex   -1.000000e-002 -2.567490e+001 1.563886e+001
      vertex   -4.589623e+001 4.163964e+000 1.371139e+000
    endloop
  endfacet
  facet normal 5.451530e-001 8.383366e-001 2.087488e-016
    outer loop
      vertex   -4.589623e+001 4.163964e+000 1.371139e+000
      vertex   -1.000000e-002 -2.567490e+001 1.563886e+001
      vertex   -1.000000e-002 -2.567490e+001 1.371139e+000
    endloop
  endfacet
endsolid
