solid ascii
  facet normal 8.080633e-017 -7.071068e-001 7.071068e-001
    outer loop
      vertex   -7.691088e+001 1.690088e+001 1.548681e+001
      vertex   -4.582238e+001 1.690088e+001 1.548681e+001
      vertex   -7.592088e+001 1.789088e+001 1.647681e+001
    endloop
  endfacet
  facet normal 0.000000e+000 -7.071068e-001 7.071068e-001
    outer loop
      vertex   -7.592088e+001 1.789088e+001 1.647681e+001
      vertex   -4.582238e+001 1.690088e+001 1.548681e+001
      vertex   -4.483238e+001 1.789088e+001 1.647681e+001
    endloop
  endfacet
  facet normal 1.616127e-016 -7.071068e-001 7.071068e-001
    outer loop
      vertex   -4.483238e+001 1.789088e+001 1.647681e+001
      vertex   -4.582238e+001 1.690088e+001 1.548681e+001
      vertex   -1.473388e+001 1.690088e+001 1.548681e+001
    endloop
  endfacet
  facet normal 8.080633e-017 -7.071068e-001 7.071068e-001
    outer loop
      vertex   -1.374388e+001 1.789088e+001 1.647681e+001
      vertex   -4.483238e+001 1.789088e+001 1.647681e+001
      vertex   -1.473388e+001 1.690088e+001 1.548681e+001
    endloop
  endfacet
  facet normal -7.071068e-001 9.830091e-017 7.071068e-001
    outer loop
      vertex   -1.374388e+001 1.789088e+001 1.647681e+001
      vertex   -1.473388e+001 1.690088e+001 1.548681e+001
      vertex   -1.374388e+001 -2.002319e+001 1.647681e+001
    endloop
  endfacet
  facet normal -7.071068e-001 9.938850e-017 7.071068e-001
    outer loop
      vertex   -1.374388e+001 -2.002319e+001 1.647681e+001
      vertex   -1.473388e+001 1.690088e+001 1.548681e+001
      vertex   -1.473388e+001 -2.101319e+001 1.548681e+001
    endloop
  endfacet
  facet normal -7.071068e-001 1.957717e-016 7.071068e-001
    outer loop
      vertex   -7.691088e+001 3.614893e+001 1.548681e+001
      vertex   -7.691088e+001 1.690088e+001 1.548681e+001
      vertex   -7.592088e+001 3.515893e+001 1.647681e+001
    endloop
  endfacet
  facet normal -7.071068e-001 1.469491e-016 7.071068e-001
    outer loop
      vertex   -7.592088e+001 3.515893e+001 1.647681e+001
      vertex   -7.691088e+001 1.690088e+001 1.548681e+001
      vertex   -7.592088e+001 1.789088e+001 1.647681e+001
    endloop
  endfacet
  facet normal 0.000000e+000 -7.071068e-001 7.071068e-001
    outer loop
      vertex   1.000000e+000 -2.002319e+001 1.647681e+001
      vertex   -1.374388e+001 -2.002319e+001 1.647681e+001
      vertex   1.990000e+000 -2.101319e+001 1.548681e+001
    endloop
  endfacet
  facet normal 7.586529e-017 -7.071068e-001 7.071068e-001
    outer loop
      vertex   1.990000e+000 -2.101319e+001 1.548681e+001
      vertex   -1.374388e+001 -2.002319e+001 1.647681e+001
      vertex   -1.473388e+001 -2.101319e+001 1.548681e+001
    endloop
  endfacet
  facet normal -1.273572e-016 7.071068e-001 7.071068e-001
    outer loop
      vertex   1.990000e+000 3.614893e+001 1.548681e+001
      vertex   -3.746044e+001 3.614893e+001 1.548681e+001
      vertex   1.000000e+000 3.515893e+001 1.647681e+001
    endloop
  endfacet
  facet normal 0.000000e+000 7.071068e-001 7.071068e-001
    outer loop
      vertex   1.000000e+000 3.515893e+001 1.647681e+001
      vertex   -3.746044e+001 3.614893e+001 1.548681e+001
      vertex   -3.746044e+001 3.515893e+001 1.647681e+001
    endloop
  endfacet
  facet normal 0.000000e+000 7.071068e-001 7.071068e-001
    outer loop
      vertex   -3.746044e+001 3.515893e+001 1.647681e+001
      vertex   -3.746044e+001 3.614893e+001 1.548681e+001
      vertex   -7.592088e+001 3.515893e+001 1.647681e+001
    endloop
  endfacet
  facet normal 0.000000e+000 7.071068e-001 7.071068e-001
    outer loop
      vertex   -7.592088e+001 3.515893e+001 1.647681e+001
      vertex   -3.746044e+001 3.614893e+001 1.548681e+001
      vertex   -7.691088e+001 3.614893e+001 1.548681e+001
    endloop
  endfacet
  facet normal 7.071068e-001 2.581932e-016 7.071068e-001
    outer loop
      vertex   1.990000e+000 -2.101319e+001 1.548681e+001
      vertex   1.990000e+000 7.567870e+000 1.548681e+001
      vertex   1.000000e+000 -2.002319e+001 1.647681e+001
    endloop
  endfacet
  facet normal 7.071068e-001 1.882492e-016 7.071068e-001
    outer loop
      vertex   1.000000e+000 -2.002319e+001 1.647681e+001
      vertex   1.990000e+000 7.567870e+000 1.548681e+001
      vertex   1.000000e+000 3.515893e+001 1.647681e+001
    endloop
  endfacet
  facet normal 7.071068e-001 2.252324e-016 7.071068e-001
    outer loop
      vertex   1.000000e+000 3.515893e+001 1.647681e+001
      vertex   1.990000e+000 7.567870e+000 1.548681e+001
      vertex   1.990000e+000 3.614893e+001 1.548681e+001
    endloop
  endfacet
  facet normal -5.404869e-032 -1.000000e+000 -5.088525e-016
    outer loop
      vertex   1.990000e+000 -2.101319e+001 1.548681e+001
      vertex   -1.473388e+001 -2.101319e+001 1.548681e+001
      vertex   1.990000e+000 -2.101319e+001 1.523185e+000
    endloop
  endfacet
  facet normal 0.000000e+000 -1.000000e+000 -5.088525e-016
    outer loop
      vertex   1.990000e+000 -2.101319e+001 1.523185e+000
      vertex   -1.473388e+001 -2.101319e+001 1.548681e+001
      vertex   -1.473388e+001 -2.101319e+001 1.523185e+000
    endloop
  endfacet
  facet normal -1.000000e+000 -9.370438e-017 0.000000e+000
    outer loop
      vertex   -1.473388e+001 -2.101319e+001 1.548681e+001
      vertex   -1.473388e+001 1.690088e+001 1.548681e+001
      vertex   -1.473388e+001 -2.101319e+001 1.523185e+000
    endloop
  endfacet
  facet normal -1.000000e+000 -1.405566e-016 1.272131e-016
    outer loop
      vertex   -1.473388e+001 -2.101319e+001 1.523185e+000
      vertex   -1.473388e+001 1.690088e+001 1.548681e+001
      vertex   -1.473388e+001 1.690088e+001 1.523185e+000
    endloop
  endfacet
  facet normal 2.285548e-016 -1.000000e+000 5.088525e-016
    outer loop
      vertex   -1.473388e+001 1.690088e+001 1.548681e+001
      vertex   -4.582238e+001 1.690088e+001 1.548681e+001
      vertex   -1.473388e+001 1.690088e+001 1.523185e+000
    endloop
  endfacet
  facet normal 1.142774e-016 -1.000000e+000 2.544262e-016
    outer loop
      vertex   -1.473388e+001 1.690088e+001 1.523185e+000
      vertex   -4.582238e+001 1.690088e+001 1.548681e+001
      vertex   -4.582238e+001 1.690088e+001 1.523185e+000
    endloop
  endfacet
  facet normal 1.142774e-016 -1.000000e+000 2.544262e-016
    outer loop
      vertex   -4.582238e+001 1.690088e+001 1.523185e+000
      vertex   -4.582238e+001 1.690088e+001 1.548681e+001
      vertex   -7.691088e+001 1.690088e+001 1.548681e+001
    endloop
  endfacet
  facet normal 2.285548e-016 -1.000000e+000 5.088525e-016
    outer loop
      vertex   -7.691088e+001 1.690088e+001 1.523185e+000
      vertex   -4.582238e+001 1.690088e+001 1.523185e+000
      vertex   -7.691088e+001 1.690088e+001 1.548681e+001
    endloop
  endfacet
  facet normal -2.811131e-016 2.811131e-016 1.000000e+000
    outer loop
      vertex   -1.372388e+001 -2.000319e+001 1.647681e+001
      vertex   -1.372388e+001 1.791088e+001 1.647681e+001
      vertex   -1.374388e+001 1.789088e+001 1.647681e+001
    endloop
  endfacet
  facet normal -2.811131e-016 2.811131e-016 1.000000e+000
    outer loop
      vertex   -1.374388e+001 -2.002319e+001 1.647681e+001
      vertex   -1.372388e+001 -2.000319e+001 1.647681e+001
      vertex   -1.374388e+001 1.789088e+001 1.647681e+001
    endloop
  endfacet
  facet normal 0.000000e+000 -0.000000e+000 1.000000e+000
    outer loop
      vertex   -1.374388e+001 -2.002319e+001 1.647681e+001
      vertex   1.000000e+000 -2.002319e+001 1.647681e+001
      vertex   -1.372388e+001 -2.000319e+001 1.647681e+001
    endloop
  endfacet
  facet normal -0.000000e+000 -0.000000e+000 1.000000e+000
    outer loop
      vertex   -1.372388e+001 -2.000319e+001 1.647681e+001
      vertex   1.000000e+000 -2.002319e+001 1.647681e+001
      vertex   9.800000e-001 -2.000319e+001 1.647681e+001
    endloop
  endfacet
  facet normal 2.575265e-016 2.575265e-016 1.000000e+000
    outer loop
      vertex   9.800000e-001 -2.000319e+001 1.647681e+001
      vertex   1.000000e+000 -2.002319e+001 1.647681e+001
      vertex   1.000000e+000 3.515893e+001 1.647681e+001
    endloop
  endfacet
  facet normal 0.000000e+000 -0.000000e+000 1.000000e+000
    outer loop
      vertex   9.800000e-001 3.513893e+001 1.647681e+001
      vertex   1.000000e+000 3.515893e+001 1.647681e+001
      vertex   -3.746044e+001 3.515893e+001 1.647681e+001
    endloop
  endfacet
  facet normal 0.000000e+000 -0.000000e+000 1.000000e+000
    outer loop
      vertex   -3.746044e+001 3.513893e+001 1.647681e+001
      vertex   -3.746044e+001 3.515893e+001 1.647681e+001
      vertex   -7.590088e+001 3.513893e+001 1.647681e+001
    endloop
  endfacet
  facet normal 0.000000e+000 -0.000000e+000 1.000000e+000
    outer loop
      vertex   -3.746044e+001 3.513893e+001 1.647681e+001
      vertex   9.800000e-001 3.513893e+001 1.647681e+001
      vertex   -3.746044e+001 3.515893e+001 1.647681e+001
    endloop
  endfacet
  facet normal -0.000000e+000 0.000000e+000 1.000000e+000
    outer loop
      vertex   -7.590088e+001 1.791088e+001 1.647681e+001
      vertex   -4.483238e+001 1.789088e+001 1.647681e+001
      vertex   -4.481238e+001 1.791088e+001 1.647681e+001
    endloop
  endfacet
  facet normal -0.000000e+000 0.000000e+000 1.000000e+000
    outer loop
      vertex   -7.590088e+001 1.791088e+001 1.647681e+001
      vertex   -7.592088e+001 1.789088e+001 1.647681e+001
      vertex   -4.483238e+001 1.789088e+001 1.647681e+001
    endloop
  endfacet
  facet normal -2.057392e-016 2.057392e-016 1.000000e+000
    outer loop
      vertex   -7.590088e+001 1.791088e+001 1.647681e+001
      vertex   -7.592088e+001 3.515893e+001 1.647681e+001
      vertex   -7.592088e+001 1.789088e+001 1.647681e+001
    endloop
  endfacet
  facet normal 2.062169e-016 2.062169e-016 1.000000e+000
    outer loop
      vertex   -7.590088e+001 1.791088e+001 1.647681e+001
      vertex   -7.590088e+001 3.513893e+001 1.647681e+001
      vertex   -7.592088e+001 3.515893e+001 1.647681e+001
    endloop
  endfacet
  facet normal -0.000000e+000 0.000000e+000 1.000000e+000
    outer loop
      vertex   -7.592088e+001 3.515893e+001 1.647681e+001
      vertex   -7.590088e+001 3.513893e+001 1.647681e+001
      vertex   -3.746044e+001 3.515893e+001 1.647681e+001
    endloop
  endfacet
  facet normal -2.577133e-016 2.577133e-016 1.000000e+000
    outer loop
      vertex   9.800000e-001 3.513893e+001 1.647681e+001
      vertex   9.800000e-001 -2.000319e+001 1.647681e+001
      vertex   1.000000e+000 3.515893e+001 1.647681e+001
    endloop
  endfacet
  facet normal 0.000000e+000 -0.000000e+000 1.000000e+000
    outer loop
      vertex   -4.483238e+001 1.789088e+001 1.647681e+001
      vertex   -1.374388e+001 1.789088e+001 1.647681e+001
      vertex   -4.481238e+001 1.791088e+001 1.647681e+001
    endloop
  endfacet
  facet normal -0.000000e+000 0.000000e+000 1.000000e+000
    outer loop
      vertex   -4.481238e+001 1.791088e+001 1.647681e+001
      vertex   -1.374388e+001 1.789088e+001 1.647681e+001
      vertex   -1.372388e+001 1.791088e+001 1.647681e+001
    endloop
  endfacet
  facet normal -8.080633e-017 7.071068e-001 7.071068e-001
    outer loop
      vertex   -7.590088e+001 1.791088e+001 1.647681e+001
      vertex   -4.481238e+001 1.791088e+001 1.647681e+001
      vertex   -7.491088e+001 1.890088e+001 1.548681e+001
    endloop
  endfacet
  facet normal 0.000000e+000 7.071068e-001 7.071068e-001
    outer loop
      vertex   -7.491088e+001 1.890088e+001 1.548681e+001
      vertex   -4.481238e+001 1.791088e+001 1.647681e+001
      vertex   -4.382238e+001 1.890088e+001 1.548681e+001
    endloop
  endfacet
  facet normal -0.000000e+000 7.071068e-001 7.071068e-001
    outer loop
      vertex   -4.382238e+001 1.890088e+001 1.548681e+001
      vertex   -4.481238e+001 1.791088e+001 1.647681e+001
      vertex   -1.372388e+001 1.791088e+001 1.647681e+001
    endloop
  endfacet
  facet normal -8.080633e-017 7.071068e-001 7.071068e-001
    outer loop
      vertex   -1.273388e+001 1.890088e+001 1.548681e+001
      vertex   -4.382238e+001 1.890088e+001 1.548681e+001
      vertex   -1.372388e+001 1.791088e+001 1.647681e+001
    endloop
  endfacet
  facet normal 7.071068e-001 1.986933e-016 7.071068e-001
    outer loop
      vertex   -1.273388e+001 1.890088e+001 1.548681e+001
      vertex   -1.372388e+001 1.791088e+001 1.647681e+001
      vertex   -1.273388e+001 -1.901319e+001 1.548681e+001
    endloop
  endfacet
  facet normal 7.071068e-001 2.319065e-016 7.071068e-001
    outer loop
      vertex   -1.273388e+001 -1.901319e+001 1.548681e+001
      vertex   -1.372388e+001 1.791088e+001 1.647681e+001
      vertex   -1.372388e+001 -2.000319e+001 1.647681e+001
    endloop
  endfacet
  facet normal -3.948715e-016 7.071068e-001 7.071068e-001
    outer loop
      vertex   -1.000000e-002 -1.901319e+001 1.548681e+001
      vertex   -1.273388e+001 -1.901319e+001 1.548681e+001
      vertex   9.800000e-001 -2.000319e+001 1.647681e+001
    endloop
  endfacet
  facet normal 1.725751e-016 7.071068e-001 7.071068e-001
    outer loop
      vertex   9.800000e-001 -2.000319e+001 1.647681e+001
      vertex   -1.273388e+001 -1.901319e+001 1.548681e+001
      vertex   -1.372388e+001 -2.000319e+001 1.647681e+001
    endloop
  endfacet
  facet normal 7.071068e-001 1.458173e-016 7.071068e-001
    outer loop
      vertex   -7.590088e+001 3.513893e+001 1.647681e+001
      vertex   -7.590088e+001 1.791088e+001 1.647681e+001
      vertex   -7.491088e+001 3.414893e+001 1.548681e+001
    endloop
  endfacet
  facet normal 7.071068e-001 2.496244e-016 7.071068e-001
    outer loop
      vertex   -7.491088e+001 3.414893e+001 1.548681e+001
      vertex   -7.590088e+001 1.791088e+001 1.647681e+001
      vertex   -7.491088e+001 1.890088e+001 1.548681e+001
    endloop
  endfacet
  facet normal -7.071068e-001 2.126452e-016 7.071068e-001
    outer loop
      vertex   -1.000000e-002 3.414893e+001 1.548681e+001
      vertex   -1.000000e-002 -1.901319e+001 1.548681e+001
      vertex   9.800000e-001 3.513893e+001 1.647681e+001
    endloop
  endfacet
  facet normal -7.071068e-001 3.307535e-017 7.071068e-001
    outer loop
      vertex   9.800000e-001 3.513893e+001 1.647681e+001
      vertex   -1.000000e-002 -1.901319e+001 1.548681e+001
      vertex   9.800000e-001 -2.000319e+001 1.647681e+001
    endloop
  endfacet
  facet normal 0.000000e+000 -7.071068e-001 7.071068e-001
    outer loop
      vertex   -7.590088e+001 3.513893e+001 1.647681e+001
      vertex   -7.491088e+001 3.414893e+001 1.548681e+001
      vertex   -3.746044e+001 3.513893e+001 1.647681e+001
    endloop
  endfacet
  facet normal 0.000000e+000 -7.071068e-001 7.071068e-001
    outer loop
      vertex   -3.746044e+001 3.513893e+001 1.647681e+001
      vertex   -7.491088e+001 3.414893e+001 1.548681e+001
      vertex   -3.746044e+001 3.414893e+001 1.548681e+001
    endloop
  endfacet
  facet normal 1.672747e-016 -7.071068e-001 7.071068e-001
    outer loop
      vertex   -1.000000e-002 3.414893e+001 1.548681e+001
      vertex   -3.746044e+001 3.513893e+001 1.647681e+001
      vertex   -3.746044e+001 3.414893e+001 1.548681e+001
    endloop
  endfacet
  facet normal 1.307034e-016 -7.071068e-001 7.071068e-001
    outer loop
      vertex   -1.000000e-002 3.414893e+001 1.548681e+001
      vertex   9.800000e-001 3.513893e+001 1.647681e+001
      vertex   -3.746044e+001 3.513893e+001 1.647681e+001
    endloop
  endfacet
  facet normal 1.897288e-016 -1.000000e+000 1.017705e-015
    outer loop
      vertex   -1.000000e-002 3.414893e+001 1.548681e+001
      vertex   -3.746044e+001 3.414893e+001 1.548681e+001
      vertex   -1.000000e-002 3.414893e+001 1.523185e+000
    endloop
  endfacet
  facet normal -1.897288e-016 -1.000000e+000 -9.654398e-032
    outer loop
      vertex   -1.000000e-002 3.414893e+001 1.523185e+000
      vertex   -3.746044e+001 3.414893e+001 1.548681e+001
      vertex   -3.746044e+001 3.414893e+001 1.523185e+000
    endloop
  endfacet
  facet normal 0.000000e+000 -1.000000e+000 0.000000e+000
    outer loop
      vertex   -3.746044e+001 3.414893e+001 1.523185e+000
      vertex   -3.746044e+001 3.414893e+001 1.548681e+001
      vertex   -7.491088e+001 3.414893e+001 1.548681e+001
    endloop
  endfacet
  facet normal 1.897288e-016 -1.000000e+000 5.088525e-016
    outer loop
      vertex   -7.491088e+001 3.414893e+001 1.523185e+000
      vertex   -3.746044e+001 3.414893e+001 1.523185e+000
      vertex   -7.491088e+001 3.414893e+001 1.548681e+001
    endloop
  endfacet
  facet normal 1.000000e+000 0.000000e+000 0.000000e+000
    outer loop
      vertex   -7.491088e+001 3.414893e+001 1.548681e+001
      vertex   -7.491088e+001 1.890088e+001 1.548681e+001
      vertex   -7.491088e+001 3.414893e+001 1.523185e+000
    endloop
  endfacet
  facet normal 1.000000e+000 0.000000e+000 0.000000e+000
    outer loop
      vertex   -7.491088e+001 3.414893e+001 1.523185e+000
      vertex   -7.491088e+001 1.890088e+001 1.548681e+001
      vertex   -7.491088e+001 1.890088e+001 1.523185e+000
    endloop
  endfacet
  facet normal 0.000000e+000 1.000000e+000 -5.088525e-016
    outer loop
      vertex   -7.491088e+001 1.890088e+001 1.548681e+001
      vertex   -4.382238e+001 1.890088e+001 1.548681e+001
      vertex   -7.491088e+001 1.890088e+001 1.523185e+000
    endloop
  endfacet
  facet normal -1.142774e-016 1.000000e+000 -2.544262e-016
    outer loop
      vertex   -7.491088e+001 1.890088e+001 1.523185e+000
      vertex   -4.382238e+001 1.890088e+001 1.548681e+001
      vertex   -4.382238e+001 1.890088e+001 1.523185e+000
    endloop
  endfacet
  facet normal -1.142774e-016 1.000000e+000 -2.544262e-016
    outer loop
      vertex   -4.382238e+001 1.890088e+001 1.523185e+000
      vertex   -4.382238e+001 1.890088e+001 1.548681e+001
      vertex   -1.273388e+001 1.890088e+001 1.548681e+001
    endloop
  endfacet
  facet normal 1.142774e-016 1.000000e+000 -7.632787e-016
    outer loop
      vertex   -1.273388e+001 1.890088e+001 1.523185e+000
      vertex   -4.382238e+001 1.890088e+001 1.523185e+000
      vertex   -1.273388e+001 1.890088e+001 1.548681e+001
    endloop
  endfacet
  facet normal 1.000000e+000 4.685219e-017 -2.384085e-032
    outer loop
      vertex   -1.273388e+001 1.890088e+001 1.548681e+001
      vertex   -1.273388e+001 -1.901319e+001 1.548681e+001
      vertex   -1.273388e+001 1.890088e+001 1.523185e+000
    endloop
  endfacet
  facet normal 1.000000e+000 4.685219e-017 -3.576128e-032
    outer loop
      vertex   -1.273388e+001 1.890088e+001 1.523185e+000
      vertex   -1.273388e+001 -1.901319e+001 1.548681e+001
      vertex   -1.273388e+001 -1.901319e+001 1.523185e+000
    endloop
  endfacet
  facet normal -5.584327e-016 1.000000e+000 -7.632787e-016
    outer loop
      vertex   -1.273388e+001 -1.901319e+001 1.548681e+001
      vertex   -1.000000e-002 -1.901319e+001 1.548681e+001
      vertex   -1.273388e+001 -1.901319e+001 1.523185e+000
    endloop
  endfacet
  facet normal -1.116865e-015 1.000000e+000 -2.544262e-016
    outer loop
      vertex   -1.273388e+001 -1.901319e+001 1.523185e+000
      vertex   -1.000000e-002 -1.901319e+001 1.548681e+001
      vertex   -1.000000e-002 -1.901319e+001 1.523185e+000
    endloop
  endfacet
  facet normal -1.000000e+000 0.000000e+000 -0.000000e+000
    outer loop
      vertex   -7.691088e+001 1.690088e+001 1.548681e+001
      vertex   -7.691088e+001 3.614893e+001 1.548681e+001
      vertex   -7.691088e+001 1.690088e+001 1.523185e+000
    endloop
  endfacet
  facet normal -1.000000e+000 0.000000e+000 -0.000000e+000
    outer loop
      vertex   -7.691088e+001 1.690088e+001 1.523185e+000
      vertex   -7.691088e+001 3.614893e+001 1.548681e+001
      vertex   -7.691088e+001 3.614893e+001 1.523185e+000
    endloop
  endfacet
  facet normal 0.000000e+000 1.000000e+000 -5.088525e-016
    outer loop
      vertex   -7.691088e+001 3.614893e+001 1.548681e+001
      vertex   -3.746044e+001 3.614893e+001 1.548681e+001
      vertex   -7.691088e+001 3.614893e+001 1.523185e+000
    endloop
  endfacet
  facet normal -1.801102e-016 1.000000e+000 -9.164953e-032
    outer loop
      vertex   -7.691088e+001 3.614893e+001 1.523185e+000
      vertex   -3.746044e+001 3.614893e+001 1.548681e+001
      vertex   -3.746044e+001 3.614893e+001 1.523185e+000
    endloop
  endfacet
  facet normal -1.801102e-016 1.000000e+000 -9.164953e-032
    outer loop
      vertex   -3.746044e+001 3.614893e+001 1.523185e+000
      vertex   -3.746044e+001 3.614893e+001 1.548681e+001
      vertex   1.990000e+000 3.614893e+001 1.548681e+001
    endloop
  endfacet
  facet normal 0.000000e+000 1.000000e+000 -5.088525e-016
    outer loop
      vertex   1.990000e+000 3.614893e+001 1.523185e+000
      vertex   -3.746044e+001 3.614893e+001 1.523185e+000
      vertex   1.990000e+000 3.614893e+001 1.548681e+001
    endloop
  endfacet
  facet normal -1.000000e+000 0.000000e+000 -0.000000e+000
    outer loop
      vertex   -1.000000e-002 -1.901319e+001 1.548681e+001
      vertex   -1.000000e-002 3.414893e+001 1.548681e+001
      vertex   -1.000000e-002 -1.901319e+001 1.523185e+000
    endloop
  endfacet
  facet normal -1.000000e+000 0.000000e+000 -0.000000e+000
    outer loop
      vertex   -1.000000e-002 -1.901319e+001 1.523185e+000
      vertex   -1.000000e-002 3.414893e+001 1.548681e+001
      vertex   -1.000000e-002 3.414893e+001 1.523185e+000
    endloop
  endfacet
  facet normal 1.000000e+000 1.942236e-016 1.908197e-016
    outer loop
      vertex   1.990000e+000 3.614893e+001 1.548681e+001
      vertex   1.990000e+000 7.567870e+000 1.548681e+001
      vertex   1.990000e+000 3.614893e+001 1.523185e+000
    endloop
  endfacet
  facet normal 1.000000e+000 9.322732e-017 -1.590164e-017
    outer loop
      vertex   1.990000e+000 3.614893e+001 1.523185e+000
      vertex   1.990000e+000 7.567870e+000 1.548681e+001
      vertex   1.990000e+000 7.567870e+000 1.523185e+000
    endloop
  endfacet
  facet normal 1.000000e+000 5.438260e-017 -1.590164e-017
    outer loop
      vertex   1.990000e+000 7.567870e+000 1.523185e+000
      vertex   1.990000e+000 7.567870e+000 1.548681e+001
      vertex   1.990000e+000 -2.101319e+001 1.548681e+001
    endloop
  endfacet
  facet normal 1.000000e+000 8.545838e-017 4.770492e-017
    outer loop
      vertex   1.990000e+000 -2.101319e+001 1.523185e+000
      vertex   1.990000e+000 7.567870e+000 1.523185e+000
      vertex   1.990000e+000 -2.101319e+001 1.548681e+001
    endloop
  endfacet
  facet normal -1.110223e-016 -4.260280e-016 -1.000000e+000
    outer loop
      vertex   -1.000000e-002 3.414893e+001 1.523185e+000
      vertex   1.990000e+000 7.567870e+000 1.523185e+000
      vertex   -1.000000e-002 -1.901319e+001 1.523185e+000
    endloop
  endfacet
  facet normal 7.868710e-017 -4.117540e-016 -1.000000e+000
    outer loop
      vertex   -1.000000e-002 3.414893e+001 1.523185e+000
      vertex   1.990000e+000 3.614893e+001 1.523185e+000
      vertex   1.990000e+000 7.567870e+000 1.523185e+000
    endloop
  endfacet
  facet normal 0.000000e+000 -3.330669e-016 -1.000000e+000
    outer loop
      vertex   -1.000000e-002 3.414893e+001 1.523185e+000
      vertex   -3.746044e+001 3.614893e+001 1.523185e+000
      vertex   1.990000e+000 3.614893e+001 1.523185e+000
    endloop
  endfacet
  facet normal -6.319239e-032 -3.330669e-016 -1.000000e+000
    outer loop
      vertex   -1.000000e-002 3.414893e+001 1.523185e+000
      vertex   -3.746044e+001 3.414893e+001 1.523185e+000
      vertex   -3.746044e+001 3.614893e+001 1.523185e+000
    endloop
  endfacet
  facet normal 6.319239e-032 -3.330669e-016 -1.000000e+000
    outer loop
      vertex   -3.746044e+001 3.614893e+001 1.523185e+000
      vertex   -3.746044e+001 3.414893e+001 1.523185e+000
      vertex   -7.491088e+001 3.414893e+001 1.523185e+000
    endloop
  endfacet
  facet normal -1.620468e-016 -4.951137e-016 -1.000000e+000
    outer loop
      vertex   -7.691088e+001 3.614893e+001 1.523185e+000
      vertex   -7.491088e+001 3.414893e+001 1.523185e+000
      vertex   -7.491088e+001 1.890088e+001 1.523185e+000
    endloop
  endfacet
  facet normal 7.612405e-032 -3.330669e-016 -1.000000e+000
    outer loop
      vertex   -7.691088e+001 1.690088e+001 1.523185e+000
      vertex   -7.491088e+001 1.890088e+001 1.523185e+000
      vertex   -4.582238e+001 1.690088e+001 1.523185e+000
    endloop
  endfacet
  facet normal 1.283713e-016 -4.614382e-016 -1.000000e+000
    outer loop
      vertex   -7.691088e+001 1.690088e+001 1.523185e+000
      vertex   -7.691088e+001 3.614893e+001 1.523185e+000
      vertex   -7.491088e+001 1.890088e+001 1.523185e+000
    endloop
  endfacet
  facet normal 5.998875e-032 -3.330669e-016 -1.000000e+000
    outer loop
      vertex   -3.746044e+001 3.614893e+001 1.523185e+000
      vertex   -7.491088e+001 3.414893e+001 1.523185e+000
      vertex   -7.691088e+001 3.614893e+001 1.523185e+000
    endloop
  endfacet
  facet normal 3.806203e-032 -3.330669e-016 -1.000000e+000
    outer loop
      vertex   -7.491088e+001 1.890088e+001 1.523185e+000
      vertex   -4.382238e+001 1.890088e+001 1.523185e+000
      vertex   -4.582238e+001 1.690088e+001 1.523185e+000
    endloop
  endfacet
  facet normal 3.806203e-032 -3.330669e-016 -1.000000e+000
    outer loop
      vertex   -4.582238e+001 1.690088e+001 1.523185e+000
      vertex   -4.382238e+001 1.890088e+001 1.523185e+000
      vertex   -1.473388e+001 1.690088e+001 1.523185e+000
    endloop
  endfacet
  facet normal -3.806203e-032 -3.330669e-016 -1.000000e+000
    outer loop
      vertex   -1.473388e+001 1.690088e+001 1.523185e+000
      vertex   -4.382238e+001 1.890088e+001 1.523185e+000
      vertex   -1.273388e+001 1.890088e+001 1.523185e+000
    endloop
  endfacet
  facet normal 6.517669e-017 -3.982436e-016 -1.000000e+000
    outer loop
      vertex   -1.273388e+001 -1.901319e+001 1.523185e+000
      vertex   -1.473388e+001 1.690088e+001 1.523185e+000
      vertex   -1.273388e+001 1.890088e+001 1.523185e+000
    endloop
  endfacet
  facet normal -8.813153e-016 -4.509523e-016 -1.000000e+000
    outer loop
      vertex   -1.273388e+001 -1.901319e+001 1.523185e+000
      vertex   -1.473388e+001 -2.101319e+001 1.523185e+000
      vertex   -1.473388e+001 1.690088e+001 1.523185e+000
    endloop
  endfacet
  facet normal 1.487964e-030 -1.332268e-015 -1.000000e+000
    outer loop
      vertex   -1.273388e+001 -1.901319e+001 1.523185e+000
      vertex   -1.000000e-002 -1.901319e+001 1.523185e+000
      vertex   -1.473388e+001 -2.101319e+001 1.523185e+000
    endloop
  endfacet
  facet normal 0.000000e+000 -1.332268e-015 -1.000000e+000
    outer loop
      vertex   -1.473388e+001 -2.101319e+001 1.523185e+000
      vertex   -1.000000e-002 -1.901319e+001 1.523185e+000
      vertex   1.990000e+000 -2.101319e+001 1.523185e+000
    endloop
  endfacet
  facet normal 8.350552e-016 -4.972124e-016 -1.000000e+000
    outer loop
      vertex   1.990000e+000 -2.101319e+001 1.523185e+000
      vertex   -1.000000e-002 -1.901319e+001 1.523185e+000
      vertex   1.990000e+000 7.567870e+000 1.523185e+000
    endloop
  endfacet
endsolid
