solid ascii
  facet normal -2.532281e-016 -2.532281e-016 -1.000000e+000
    outer loop
      vertex   -7.717113e+001 1.939756e+001 5.441406e-002
      vertex   -7.717113e+001 4.570324e+001 5.441406e-002
      vertex   -7.517113e+001 4.370324e+001 5.441406e-002
    endloop
  endfacet
  facet normal 2.256197e-016 -2.926302e-016 -1.000000e+000
    outer loop
      vertex   -7.517113e+001 2.093957e+001 5.441406e-002
      vertex   -7.717113e+001 1.939756e+001 5.441406e-002
      vertex   -7.517113e+001 4.370324e+001 5.441406e-002
    endloop
  endfacet
  facet normal 3.643004e-017 -4.724999e-017 -1.000000e+000
    outer loop
      vertex   -7.517113e+001 2.093957e+001 5.441406e-002
      vertex   -3.172307e+001 7.444719e+000 5.441406e-002
      vertex   -7.717113e+001 1.939756e+001 5.441406e-002
    endloop
  endfacet
  facet normal 2.296360e-019 -1.638009e-016 -1.000000e+000
    outer loop
      vertex   -7.517113e+001 2.093957e+001 5.441406e-002
      vertex   -2.390160e+001 7.455684e+000 5.441406e-002
      vertex   -3.172307e+001 7.444719e+000 5.441406e-002
    endloop
  endfacet
  facet normal 2.294657e-019 -1.636795e-016 -1.000000e+000
    outer loop
      vertex   -3.172307e+001 7.444719e+000 5.441406e-002
      vertex   -2.390160e+001 7.455684e+000 5.441406e-002
      vertex   -7.517113e+001 -6.182012e+000 5.441406e-002
    endloop
  endfacet
  facet normal -2.254741e-016 -2.932908e-016 -1.000000e+000
    outer loop
      vertex   -7.717113e+001 -4.644465e+000 5.441406e-002
      vertex   -7.517113e+001 -6.182012e+000 5.441406e-002
      vertex   -7.517113e+001 -2.889441e+001 5.441406e-002
    endloop
  endfacet
  facet normal 0.000000e+000 0.000000e+000 -1.000000e+000
    outer loop
      vertex   -7.717113e+001 -3.089441e+001 5.441406e-002
      vertex   -7.517113e+001 -2.889441e+001 5.441406e-002
      vertex   -3.759057e+001 -3.089441e+001 5.441406e-002
    endloop
  endfacet
  facet normal 2.537658e-016 -2.537658e-016 -1.000000e+000
    outer loop
      vertex   -7.717113e+001 -3.089441e+001 5.441406e-002
      vertex   -7.717113e+001 -4.644465e+000 5.441406e-002
      vertex   -7.517113e+001 -2.889441e+001 5.441406e-002
    endloop
  endfacet
  facet normal -0.000000e+000 0.000000e+000 -1.000000e+000
    outer loop
      vertex   1.990000e+000 4.570324e+001 5.441406e-002
      vertex   -1.000000e-002 4.370324e+001 5.441406e-002
      vertex   -3.759057e+001 4.570324e+001 5.441406e-002
    endloop
  endfacet
  facet normal 2.453651e-016 -2.453651e-016 -1.000000e+000
    outer loop
      vertex   1.990000e+000 4.570324e+001 5.441406e-002
      vertex   1.990000e+000 2.760412e+001 5.441406e-002
      vertex   -1.000000e-002 4.370324e+001 5.441406e-002
    endloop
  endfacet
  facet normal -3.149765e-016 -3.149765e-016 -1.000000e+000
    outer loop
      vertex   -1.000000e-002 4.370324e+001 5.441406e-002
      vertex   1.990000e+000 2.760412e+001 5.441406e-002
      vertex   -1.000000e-002 2.960412e+001 5.441406e-002
    endloop
  endfacet
  facet normal -0.000000e+000 -0.000000e+000 -1.000000e+000
    outer loop
      vertex   -1.000000e-002 2.960412e+001 5.441406e-002
      vertex   1.990000e+000 2.760412e+001 5.441406e-002
      vertex   -2.959252e+001 2.960412e+001 5.441406e-002
    endloop
  endfacet
  facet normal -0.000000e+000 -0.000000e+000 -1.000000e+000
    outer loop
      vertex   -2.959252e+001 2.960412e+001 5.441406e-002
      vertex   1.990000e+000 2.760412e+001 5.441406e-002
      vertex   -4.306422e+001 2.760412e+001 5.441406e-002
    endloop
  endfacet
  facet normal -1.523853e-017 -1.227527e-016 -1.000000e+000
    outer loop
      vertex   -5.917504e+001 2.960412e+001 5.441406e-002
      vertex   -4.306422e+001 2.760412e+001 5.441406e-002
      vertex   -2.959252e+001 2.214440e+001 5.441406e-002
    endloop
  endfacet
  facet normal 0.000000e+000 -0.000000e+000 -1.000000e+000
    outer loop
      vertex   -5.917504e+001 2.960412e+001 5.441406e-002
      vertex   -2.959252e+001 2.960412e+001 5.441406e-002
      vertex   -4.306422e+001 2.760412e+001 5.441406e-002
    endloop
  endfacet
  facet normal 7.361667e-017 9.649503e-017 -1.000000e+000
    outer loop
      vertex   -4.306422e+001 2.760412e+001 5.441406e-002
      vertex   1.990000e+000 1.624296e+001 5.441406e-002
      vertex   -2.959252e+001 2.214440e+001 5.441406e-002
    endloop
  endfacet
  facet normal 4.483354e-017 -5.754253e-017 -1.000000e+000
    outer loop
      vertex   -2.959252e+001 2.214440e+001 5.441406e-002
      vertex   1.990000e+000 1.624296e+001 5.441406e-002
      vertex   -1.000000e-002 1.468469e+001 5.441406e-002
    endloop
  endfacet
  facet normal 2.367992e-016 -3.039247e-016 -1.000000e+000
    outer loop
      vertex   -1.000000e-002 1.468469e+001 5.441406e-002
      vertex   1.990000e+000 1.624296e+001 5.441406e-002
      vertex   -1.000000e-002 7.287109e-002 5.441406e-002
    endloop
  endfacet
  facet normal -1.953208e-016 -2.504779e-016 -1.000000e+000
    outer loop
      vertex   -1.000000e-002 7.287109e-002 5.441406e-002
      vertex   1.990000e+000 1.624296e+001 5.441406e-002
      vertex   1.990000e+000 -1.486714e+000 5.441406e-002
    endloop
  endfacet
  facet normal 1.439442e-016 -7.691491e-016 -1.000000e+000
    outer loop
      vertex   -2.959252e+001 -7.361211e+000 5.441406e-002
      vertex   1.990000e+000 -1.486714e+000 5.441406e-002
      vertex   -4.301034e+001 -1.279529e+001 5.441406e-002
    endloop
  endfacet
  facet normal 0.000000e+000 0.000000e+000 -1.000000e+000
    outer loop
      vertex   -5.917504e+001 -1.479529e+001 5.441406e-002
      vertex   -4.301034e+001 -1.279529e+001 5.441406e-002
      vertex   -2.959252e+001 -1.479529e+001 5.441406e-002
    endloop
  endfacet
  facet normal 7.370594e-017 -5.957170e-016 -1.000000e+000
    outer loop
      vertex   -5.917504e+001 -1.479529e+001 5.441406e-002
      vertex   -2.959252e+001 -7.361211e+000 5.441406e-002
      vertex   -4.301034e+001 -1.279529e+001 5.441406e-002
    endloop
  endfacet
  facet normal 7.095722e-019 9.099499e-019 -1.000000e+000
    outer loop
      vertex   -1.000000e-002 7.287109e-002 5.441406e-002
      vertex   1.990000e+000 -1.486714e+000 5.441406e-002
      vertex   -2.959252e+001 -7.361211e+000 5.441406e-002
    endloop
  endfacet
  facet normal 0.000000e+000 -0.000000e+000 -1.000000e+000
    outer loop
      vertex   -4.301034e+001 -1.279529e+001 5.441406e-002
      vertex   1.990000e+000 -1.279529e+001 5.441406e-002
      vertex   -2.959252e+001 -1.479529e+001 5.441406e-002
    endloop
  endfacet
  facet normal 0.000000e+000 -0.000000e+000 -1.000000e+000
    outer loop
      vertex   -2.959252e+001 -1.479529e+001 5.441406e-002
      vertex   1.990000e+000 -1.279529e+001 5.441406e-002
      vertex   -1.000000e-002 -1.479529e+001 5.441406e-002
    endloop
  endfacet
  facet normal 2.453651e-016 -2.453651e-016 -1.000000e+000
    outer loop
      vertex   -1.000000e-002 -1.479529e+001 5.441406e-002
      vertex   1.990000e+000 -1.279529e+001 5.441406e-002
      vertex   1.990000e+000 -3.089441e+001 5.441406e-002
    endloop
  endfacet
  facet normal -0.000000e+000 -0.000000e+000 -1.000000e+000
    outer loop
      vertex   -1.000000e-002 -2.889441e+001 5.441406e-002
      vertex   1.990000e+000 -3.089441e+001 5.441406e-002
      vertex   -3.759057e+001 -3.089441e+001 5.441406e-002
    endloop
  endfacet
  facet normal -0.000000e+000 -0.000000e+000 -1.000000e+000
    outer loop
      vertex   -3.759057e+001 -2.889441e+001 5.441406e-002
      vertex   -3.759057e+001 -3.089441e+001 5.441406e-002
      vertex   -7.517113e+001 -2.889441e+001 5.441406e-002
    endloop
  endfacet
  facet normal 0.000000e+000 -0.000000e+000 -1.000000e+000
    outer loop
      vertex   -3.759057e+001 -2.889441e+001 5.441406e-002
      vertex   -1.000000e-002 -2.889441e+001 5.441406e-002
      vertex   -3.759057e+001 -3.089441e+001 5.441406e-002
    endloop
  endfacet
  facet normal -3.149765e-016 -3.149765e-016 -1.000000e+000
    outer loop
      vertex   -1.000000e-002 -1.479529e+001 5.441406e-002
      vertex   1.990000e+000 -3.089441e+001 5.441406e-002
      vertex   -1.000000e-002 -2.889441e+001 5.441406e-002
    endloop
  endfacet
  facet normal -3.629761e-017 -4.721496e-017 -1.000000e+000
    outer loop
      vertex   -7.717113e+001 -4.644465e+000 5.441406e-002
      vertex   -3.172307e+001 7.444719e+000 5.441406e-002
      vertex   -7.517113e+001 -6.182012e+000 5.441406e-002
    endloop
  endfacet
  facet normal 0.000000e+000 0.000000e+000 -1.000000e+000
    outer loop
      vertex   -1.000000e-002 4.370324e+001 5.441406e-002
      vertex   -3.759057e+001 4.370324e+001 5.441406e-002
      vertex   -3.759057e+001 4.570324e+001 5.441406e-002
    endloop
  endfacet
  facet normal -0.000000e+000 -0.000000e+000 -1.000000e+000
    outer loop
      vertex   -3.759057e+001 4.570324e+001 5.441406e-002
      vertex   -3.759057e+001 4.370324e+001 5.441406e-002
      vertex   -7.517113e+001 4.370324e+001 5.441406e-002
    endloop
  endfacet
  facet normal 0.000000e+000 -0.000000e+000 -1.000000e+000
    outer loop
      vertex   -7.717113e+001 4.570324e+001 5.441406e-002
      vertex   -3.759057e+001 4.570324e+001 5.441406e-002
      vertex   -7.517113e+001 4.370324e+001 5.441406e-002
    endloop
  endfacet
  facet normal -1.000000e+000 6.127278e-017 -1.260765e-031
    outer loop
      vertex   -1.000000e-002 4.370324e+001 5.441406e-002
      vertex   -1.000000e-002 2.960412e+001 5.441406e-002
      vertex   -1.000000e-002 4.370324e+001 1.425559e+001
    endloop
  endfacet
  facet normal -1.000000e+000 6.127278e-017 -7.664319e-032
    outer loop
      vertex   -1.000000e-002 4.370324e+001 1.425559e+001
      vertex   -1.000000e-002 2.960412e+001 5.441406e-002
      vertex   -1.000000e-002 2.960412e+001 1.425559e+001
    endloop
  endfacet
  facet normal -3.602851e-016 1.000000e+000 -1.250852e-015
    outer loop
      vertex   -1.000000e-002 2.960412e+001 5.441406e-002
      vertex   -2.959252e+001 2.960412e+001 5.441406e-002
      vertex   -1.000000e-002 2.960412e+001 1.425559e+001
    endloop
  endfacet
  facet normal -2.401901e-016 1.000000e+000 -1.501023e-015
    outer loop
      vertex   -1.000000e-002 2.960412e+001 1.425559e+001
      vertex   -2.959252e+001 2.960412e+001 5.441406e-002
      vertex   -2.959252e+001 2.960412e+001 1.425559e+001
    endloop
  endfacet
  facet normal 0.000000e+000 1.000000e+000 -1.501023e-015
    outer loop
      vertex   -2.959252e+001 2.960412e+001 1.425559e+001
      vertex   -2.959252e+001 2.960412e+001 5.441406e-002
      vertex   -5.917504e+001 2.960412e+001 5.441406e-002
    endloop
  endfacet
  facet normal 0.000000e+000 1.000000e+000 -1.501023e-015
    outer loop
      vertex   -5.917504e+001 2.960412e+001 1.425559e+001
      vertex   -2.959252e+001 2.960412e+001 1.425559e+001
      vertex   -5.917504e+001 2.960412e+001 5.441406e-002
    endloop
  endfacet
  facet normal -2.445122e-001 -9.696462e-001 1.455461e-015
    outer loop
      vertex   -5.917504e+001 2.960412e+001 1.425559e+001
      vertex   -5.917504e+001 2.960412e+001 5.441406e-002
      vertex   -2.959252e+001 2.214440e+001 1.425559e+001
    endloop
  endfacet
  facet normal -2.445122e-001 -9.696462e-001 7.872006e-016
    outer loop
      vertex   -2.959252e+001 2.214440e+001 1.425559e+001
      vertex   -5.917504e+001 2.960412e+001 5.441406e-002
      vertex   -2.959252e+001 2.214440e+001 5.441406e-002
    endloop
  endfacet
  facet normal -2.445122e-001 -9.696462e-001 7.889002e-016
    outer loop
      vertex   -1.000000e-002 1.468469e+001 5.441406e-002
      vertex   -2.959252e+001 2.214440e+001 1.425559e+001
      vertex   -2.959252e+001 2.214440e+001 5.441406e-002
    endloop
  endfacet
  facet normal -2.445122e-001 -9.696462e-001 8.490189e-016
    outer loop
      vertex   -1.000000e-002 1.468469e+001 5.441406e-002
      vertex   -1.000000e-002 1.468469e+001 1.425559e+001
      vertex   -2.959252e+001 2.214440e+001 1.425559e+001
    endloop
  endfacet
  facet normal -1.000000e+000 6.125982e-017 -5.322309e-032
    outer loop
      vertex   -1.000000e-002 1.468469e+001 5.441406e-002
      vertex   -1.000000e-002 7.287109e-002 5.441406e-002
      vertex   -1.000000e-002 1.468469e+001 1.425559e+001
    endloop
  endfacet
  facet normal -1.000000e+000 6.125982e-017 -5.268106e-032
    outer loop
      vertex   -1.000000e-002 1.468469e+001 1.425559e+001
      vertex   -1.000000e-002 7.287109e-002 5.441406e-002
      vertex   -1.000000e-002 7.287109e-002 1.425559e+001
    endloop
  endfacet
  facet normal -2.437219e-001 9.698452e-001 -8.340290e-016
    outer loop
      vertex   -1.000000e-002 7.287109e-002 1.425559e+001
      vertex   -1.000000e-002 7.287109e-002 5.441406e-002
      vertex   -2.959252e+001 -7.361211e+000 1.425559e+001
    endloop
  endfacet
  facet normal -2.437219e-001 9.698452e-001 -8.529756e-016
    outer loop
      vertex   -2.959252e+001 -7.361211e+000 1.425559e+001
      vertex   -1.000000e-002 7.287109e-002 5.441406e-002
      vertex   -2.959252e+001 -7.361211e+000 5.441406e-002
    endloop
  endfacet
  facet normal -2.437219e-001 9.698452e-001 -8.485624e-016
    outer loop
      vertex   -5.917504e+001 -1.479529e+001 5.441406e-002
      vertex   -2.959252e+001 -7.361211e+000 1.425559e+001
      vertex   -2.959252e+001 -7.361211e+000 5.441406e-002
    endloop
  endfacet
  facet normal -2.437219e-001 9.698452e-001 -6.065665e-016
    outer loop
      vertex   -5.917504e+001 -1.479529e+001 5.441406e-002
      vertex   -5.917504e+001 -1.479529e+001 1.425559e+001
      vertex   -2.959252e+001 -7.361211e+000 1.425559e+001
    endloop
  endfacet
  facet normal -2.401901e-016 -1.000000e+000 6.254261e-016
    outer loop
      vertex   -5.917504e+001 -1.479529e+001 5.441406e-002
      vertex   -2.959252e+001 -1.479529e+001 5.441406e-002
      vertex   -5.917504e+001 -1.479529e+001 1.425559e+001
    endloop
  endfacet
  facet normal -1.200950e-016 -1.000000e+000 8.755966e-016
    outer loop
      vertex   -5.917504e+001 -1.479529e+001 1.425559e+001
      vertex   -2.959252e+001 -1.479529e+001 5.441406e-002
      vertex   -2.959252e+001 -1.479529e+001 1.425559e+001
    endloop
  endfacet
  facet normal -6.004752e-017 -1.000000e+000 8.755966e-016
    outer loop
      vertex   -2.959252e+001 -1.479529e+001 1.425559e+001
      vertex   -2.959252e+001 -1.479529e+001 5.441406e-002
      vertex   -1.000000e-002 -1.479529e+001 5.441406e-002
    endloop
  endfacet
  facet normal -1.801426e-016 -1.000000e+000 6.254261e-016
    outer loop
      vertex   -1.000000e-002 -1.479529e+001 1.425559e+001
      vertex   -2.959252e+001 -1.479529e+001 1.425559e+001
      vertex   -1.000000e-002 -1.479529e+001 5.441406e-002
    endloop
  endfacet
  facet normal 1.184229e-016 1.000000e+000 -6.254261e-016
    outer loop
      vertex   1.990000e+000 -1.279529e+001 5.441406e-002
      vertex   -4.301034e+001 -1.279529e+001 5.441406e-002
      vertex   1.990000e+000 -1.279529e+001 1.425559e+001
    endloop
  endfacet
  facet normal 7.894859e-017 1.000000e+000 -5.003409e-016
    outer loop
      vertex   1.990000e+000 -1.279529e+001 1.425559e+001
      vertex   -4.301034e+001 -1.279529e+001 5.441406e-002
      vertex   -4.301034e+001 -1.279529e+001 1.425559e+001
    endloop
  endfacet
  facet normal 2.437219e-001 -9.698452e-001 5.175995e-016
    outer loop
      vertex   -4.301034e+001 -1.279529e+001 5.441406e-002
      vertex   1.990000e+000 -1.486714e+000 5.441406e-002
      vertex   -4.301034e+001 -1.279529e+001 1.425559e+001
    endloop
  endfacet
  facet normal 2.437219e-001 -9.698452e-001 8.188648e-016
    outer loop
      vertex   -4.301034e+001 -1.279529e+001 1.425559e+001
      vertex   1.990000e+000 -1.486714e+000 5.441406e-002
      vertex   1.990000e+000 -1.486714e+000 1.425559e+001
    endloop
  endfacet
  facet normal 1.000000e+000 1.252389e-016 -1.253243e-031
    outer loop
      vertex   1.990000e+000 -1.486714e+000 5.441406e-002
      vertex   1.990000e+000 1.624296e+001 5.441406e-002
      vertex   1.990000e+000 -1.486714e+000 1.425559e+001
    endloop
  endfacet
  facet normal 1.000000e+000 1.252389e-016 -1.253243e-031
    outer loop
      vertex   1.990000e+000 -1.486714e+000 1.425559e+001
      vertex   1.990000e+000 1.624296e+001 5.441406e-002
      vertex   1.990000e+000 1.624296e+001 1.425559e+001
    endloop
  endfacet
  facet normal 2.445122e-001 9.696462e-001 -9.476033e-016
    outer loop
      vertex   1.990000e+000 1.624296e+001 5.441406e-002
      vertex   -4.306422e+001 2.760412e+001 5.441406e-002
      vertex   1.990000e+000 1.624296e+001 1.425559e+001
    endloop
  endfacet
  facet normal 2.445122e-001 9.696462e-001 -1.212884e-015
    outer loop
      vertex   1.990000e+000 1.624296e+001 1.425559e+001
      vertex   -4.306422e+001 2.760412e+001 5.441406e-002
      vertex   -4.306422e+001 2.760412e+001 1.425559e+001
    endloop
  endfacet
  facet normal 0.000000e+000 -1.000000e+000 1.250852e-015
    outer loop
      vertex   -4.306422e+001 2.760412e+001 5.441406e-002
      vertex   1.990000e+000 2.760412e+001 5.441406e-002
      vertex   -4.306422e+001 2.760412e+001 1.425559e+001
    endloop
  endfacet
  facet normal 0.000000e+000 -1.000000e+000 1.250852e-015
    outer loop
      vertex   -4.306422e+001 2.760412e+001 1.425559e+001
      vertex   1.990000e+000 2.760412e+001 5.441406e-002
      vertex   1.990000e+000 2.760412e+001 1.425559e+001
    endloop
  endfacet
  facet normal 1.000000e+000 9.814603e-017 -1.227662e-031
    outer loop
      vertex   1.990000e+000 2.760412e+001 5.441406e-002
      vertex   1.990000e+000 4.570324e+001 5.441406e-002
      vertex   1.990000e+000 2.760412e+001 1.425559e+001
    endloop
  endfacet
  facet normal 1.000000e+000 9.814603e-017 -9.821295e-032
    outer loop
      vertex   1.990000e+000 2.760412e+001 1.425559e+001
      vertex   1.990000e+000 4.570324e+001 5.441406e-002
      vertex   1.990000e+000 4.570324e+001 1.425559e+001
    endloop
  endfacet
  facet normal -1.000000e+000 0.000000e+000 0.000000e+000
    outer loop
      vertex   -1.000000e-002 -1.479529e+001 5.441406e-002
      vertex   -1.000000e-002 -2.889441e+001 5.441406e-002
      vertex   -1.000000e-002 -1.479529e+001 1.425559e+001
    endloop
  endfacet
  facet normal -1.000000e+000 -0.000000e+000 0.000000e+000
    outer loop
      vertex   -1.000000e-002 -1.479529e+001 1.425559e+001
      vertex   -1.000000e-002 -2.889441e+001 5.441406e-002
      vertex   -1.000000e-002 -2.889441e+001 1.425559e+001
    endloop
  endfacet
  facet normal 0.000000e+000 1.000000e+000 -1.000682e-015
    outer loop
      vertex   -1.000000e-002 -2.889441e+001 5.441406e-002
      vertex   -3.759057e+001 -2.889441e+001 5.441406e-002
      vertex   -1.000000e-002 -2.889441e+001 1.425559e+001
    endloop
  endfacet
  facet normal 9.453593e-017 1.000000e+000 -1.250852e-015
    outer loop
      vertex   -1.000000e-002 -2.889441e+001 1.425559e+001
      vertex   -3.759057e+001 -2.889441e+001 5.441406e-002
      vertex   -3.759057e+001 -2.889441e+001 1.425559e+001
    endloop
  endfacet
  facet normal 9.453593e-017 1.000000e+000 -1.250852e-015
    outer loop
      vertex   -3.759057e+001 -2.889441e+001 1.425559e+001
      vertex   -3.759057e+001 -2.889441e+001 5.441406e-002
      vertex   -7.517113e+001 -2.889441e+001 5.441406e-002
    endloop
  endfacet
  facet normal 0.000000e+000 1.000000e+000 -1.000682e-015
    outer loop
      vertex   -7.517113e+001 -2.889441e+001 1.425559e+001
      vertex   -3.759057e+001 -2.889441e+001 1.425559e+001
      vertex   -7.517113e+001 -2.889441e+001 5.441406e-002
    endloop
  endfacet
  facet normal 1.000000e+000 -0.000000e+000 -0.000000e+000
    outer loop
      vertex   -7.517113e+001 -2.889441e+001 5.441406e-002
      vertex   -7.517113e+001 -6.182012e+000 5.441406e-002
      vertex   -7.517113e+001 -2.889441e+001 1.425559e+001
    endloop
  endfacet
  facet normal 1.000000e+000 -0.000000e+000 0.000000e+000
    outer loop
      vertex   -7.517113e+001 -2.889441e+001 1.425559e+001
      vertex   -7.517113e+001 -6.182012e+000 5.441406e-002
      vertex   -7.517113e+001 -6.182012e+000 1.425559e+001
    endloop
  endfacet
  facet normal 2.570611e-001 -9.663951e-001 9.053837e-016
    outer loop
      vertex   -7.517113e+001 -6.182012e+000 5.441406e-002
      vertex   -2.390160e+001 7.455684e+000 5.441406e-002
      vertex   -7.517113e+001 -6.182012e+000 1.425559e+001
    endloop
  endfacet
  facet normal 2.570611e-001 -9.663951e-001 6.044088e-016
    outer loop
      vertex   -7.517113e+001 -6.182012e+000 1.425559e+001
      vertex   -2.390160e+001 7.455684e+000 5.441406e-002
      vertex   -2.390160e+001 7.455684e+000 1.425559e+001
    endloop
  endfacet
  facet normal 2.543505e-001 9.671121e-001 -6.040369e-016
    outer loop
      vertex   -2.390160e+001 7.455684e+000 5.441406e-002
      vertex   -7.517113e+001 2.093957e+001 5.441406e-002
      vertex   -2.390160e+001 7.455684e+000 1.425559e+001
    endloop
  endfacet
  facet normal 2.543505e-001 9.671121e-001 -1.209714e-015
    outer loop
      vertex   -2.390160e+001 7.455684e+000 1.425559e+001
      vertex   -7.517113e+001 2.093957e+001 5.441406e-002
      vertex   -7.517113e+001 2.093957e+001 1.425559e+001
    endloop
  endfacet
  facet normal 1.000000e+000 -0.000000e+000 -0.000000e+000
    outer loop
      vertex   -7.517113e+001 2.093957e+001 5.441406e-002
      vertex   -7.517113e+001 4.370324e+001 5.441406e-002
      vertex   -7.517113e+001 2.093957e+001 1.425559e+001
    endloop
  endfacet
  facet normal 1.000000e+000 -0.000000e+000 0.000000e+000
    outer loop
      vertex   -7.517113e+001 2.093957e+001 1.425559e+001
      vertex   -7.517113e+001 4.370324e+001 5.441406e-002
      vertex   -7.517113e+001 4.370324e+001 1.425559e+001
    endloop
  endfacet
  facet normal 3.590362e-016 1.000000e+000 -1.000682e-015
    outer loop
      vertex   1.990000e+000 4.570324e+001 5.441406e-002
      vertex   -3.759057e+001 4.570324e+001 5.441406e-002
      vertex   1.990000e+000 4.570324e+001 1.425559e+001
    endloop
  endfacet
  facet normal 0.000000e+000 1.000000e+000 -0.000000e+000
    outer loop
      vertex   1.990000e+000 4.570324e+001 1.425559e+001
      vertex   -3.759057e+001 4.570324e+001 5.441406e-002
      vertex   -3.759057e+001 4.570324e+001 1.425559e+001
    endloop
  endfacet
  facet normal -3.590362e-016 1.000000e+000 0.000000e+000
    outer loop
      vertex   -3.759057e+001 4.570324e+001 1.425559e+001
      vertex   -3.759057e+001 4.570324e+001 5.441406e-002
      vertex   -7.717113e+001 4.570324e+001 5.441406e-002
    endloop
  endfacet
  facet normal 3.590362e-016 1.000000e+000 -2.001364e-015
    outer loop
      vertex   -7.717113e+001 4.570324e+001 1.425559e+001
      vertex   -3.759057e+001 4.570324e+001 1.425559e+001
      vertex   -7.717113e+001 4.570324e+001 5.441406e-002
    endloop
  endfacet
  facet normal -1.000000e+000 0.000000e+000 0.000000e+000
    outer loop
      vertex   -7.717113e+001 4.570324e+001 5.441406e-002
      vertex   -7.717113e+001 1.939756e+001 5.441406e-002
      vertex   -7.717113e+001 4.570324e+001 1.425559e+001
    endloop
  endfacet
  facet normal -1.000000e+000 -0.000000e+000 0.000000e+000
    outer loop
      vertex   -7.717113e+001 4.570324e+001 1.425559e+001
      vertex   -7.717113e+001 1.939756e+001 5.441406e-002
      vertex   -7.717113e+001 1.939756e+001 1.425559e+001
    endloop
  endfacet
  facet normal -2.543505e-001 -9.671121e-001 1.192465e-015
    outer loop
      vertex   -7.717113e+001 1.939756e+001 5.441406e-002
      vertex   -3.172307e+001 7.444719e+000 5.441406e-002
      vertex   -7.717113e+001 1.939756e+001 1.425559e+001
    endloop
  endfacet
  facet normal -2.543505e-001 -9.671121e-001 6.048572e-016
    outer loop
      vertex   -7.717113e+001 1.939756e+001 1.425559e+001
      vertex   -3.172307e+001 7.444719e+000 5.441406e-002
      vertex   -3.172307e+001 7.444719e+000 1.425559e+001
    endloop
  endfacet
  facet normal -2.570611e-001 9.663951e-001 -6.809032e-016
    outer loop
      vertex   -3.172307e+001 7.444719e+000 5.441406e-002
      vertex   -7.717113e+001 -4.644465e+000 5.441406e-002
      vertex   -3.172307e+001 7.444719e+000 1.425559e+001
    endloop
  endfacet
  facet normal -2.570611e-001 9.663951e-001 -7.252906e-016
    outer loop
      vertex   -3.172307e+001 7.444719e+000 1.425559e+001
      vertex   -7.717113e+001 -4.644465e+000 5.441406e-002
      vertex   -7.717113e+001 -4.644465e+000 1.425559e+001
    endloop
  endfacet
  facet normal -1.000000e+000 0.000000e+000 0.000000e+000
    outer loop
      vertex   -7.717113e+001 -4.644465e+000 5.441406e-002
      vertex   -7.717113e+001 -3.089441e+001 5.441406e-002
      vertex   -7.717113e+001 -4.644465e+000 1.425559e+001
    endloop
  endfacet
  facet normal -1.000000e+000 -0.000000e+000 0.000000e+000
    outer loop
      vertex   -7.717113e+001 -4.644465e+000 1.425559e+001
      vertex   -7.717113e+001 -3.089441e+001 5.441406e-002
      vertex   -7.717113e+001 -3.089441e+001 1.425559e+001
    endloop
  endfacet
  facet normal 0.000000e+000 -1.000000e+000 1.000682e-015
    outer loop
      vertex   -7.717113e+001 -3.089441e+001 5.441406e-002
      vertex   -3.759057e+001 -3.089441e+001 5.441406e-002
      vertex   -7.717113e+001 -3.089441e+001 1.425559e+001
    endloop
  endfacet
  facet normal 0.000000e+000 -1.000000e+000 1.000682e-015
    outer loop
      vertex   -7.717113e+001 -3.089441e+001 1.425559e+001
      vertex   -3.759057e+001 -3.089441e+001 5.441406e-002
      vertex   -3.759057e+001 -3.089441e+001 1.425559e+001
    endloop
  endfacet
  facet normal -1.795181e-016 -1.000000e+000 1.000682e-015
    outer loop
      vertex   -3.759057e+001 -3.089441e+001 1.425559e+001
      vertex   -3.759057e+001 -3.089441e+001 5.441406e-002
      vertex   1.990000e+000 -3.089441e+001 5.441406e-002
    endloop
  endfacet
  facet normal -1.795181e-016 -1.000000e+000 1.000682e-015
    outer loop
      vertex   1.990000e+000 -3.089441e+001 1.425559e+001
      vertex   -3.759057e+001 -3.089441e+001 1.425559e+001
      vertex   1.990000e+000 -3.089441e+001 5.441406e-002
    endloop
  endfacet
  facet normal -7.071068e-001 9.029461e-016 7.071068e-001
    outer loop
      vertex   -1.000000e-002 1.468469e+001 1.425559e+001
      vertex   -1.000000e-002 7.287109e-002 1.425559e+001
      vertex   9.800000e-001 1.545603e+001 1.524559e+001
    endloop
  endfacet
  facet normal -7.071068e-001 7.853601e-016 7.071068e-001
    outer loop
      vertex   9.800000e-001 1.545603e+001 1.524559e+001
      vertex   -1.000000e-002 7.287109e-002 1.425559e+001
      vertex   9.800000e-001 -6.991236e-001 1.524559e+001
    endloop
  endfacet
  facet normal -1.723374e-001 6.857841e-001 7.071068e-001
    outer loop
      vertex   -1.000000e-002 7.287109e-002 1.425559e+001
      vertex   -2.959252e+001 -7.361211e+000 1.425559e+001
      vertex   9.800000e-001 -6.991236e-001 1.524559e+001
    endloop
  endfacet
  facet normal -1.723374e-001 6.857841e-001 7.071068e-001
    outer loop
      vertex   9.800000e-001 -6.991236e-001 1.524559e+001
      vertex   -2.959252e+001 -7.361211e+000 1.425559e+001
      vertex   -5.117352e+001 -1.380529e+001 1.524559e+001
    endloop
  endfacet
  facet normal -1.723374e-001 6.857841e-001 7.071068e-001
    outer loop
      vertex   -5.117352e+001 -1.380529e+001 1.524559e+001
      vertex   -2.959252e+001 -7.361211e+000 1.425559e+001
      vertex   -5.917504e+001 -1.479529e+001 1.425559e+001
    endloop
  endfacet
  facet normal -7.071068e-001 7.142853e-016 7.071068e-001
    outer loop
      vertex   -1.000000e-002 -2.889441e+001 1.425559e+001
      vertex   9.800000e-001 -2.988441e+001 1.524559e+001
      vertex   -1.000000e-002 -1.479529e+001 1.425559e+001
    endloop
  endfacet
  facet normal -7.071068e-001 5.956522e-016 7.071068e-001
    outer loop
      vertex   -1.000000e-002 -1.479529e+001 1.425559e+001
      vertex   9.800000e-001 -2.988441e+001 1.524559e+001
      vertex   9.800000e-001 -1.380529e+001 1.524559e+001
    endloop
  endfacet
  facet normal 6.373320e-017 7.071068e-001 7.071068e-001
    outer loop
      vertex   9.800000e-001 -2.988441e+001 1.524559e+001
      vertex   -1.000000e-002 -2.889441e+001 1.425559e+001
      vertex   -3.759057e+001 -2.988441e+001 1.524559e+001
    endloop
  endfacet
  facet normal 6.684699e-017 7.071068e-001 7.071068e-001
    outer loop
      vertex   -3.759057e+001 -2.988441e+001 1.524559e+001
      vertex   -1.000000e-002 -2.889441e+001 1.425559e+001
      vertex   -3.759057e+001 -2.889441e+001 1.425559e+001
    endloop
  endfacet
  facet normal 0.000000e+000 7.071068e-001 7.071068e-001
    outer loop
      vertex   -7.517113e+001 -2.889441e+001 1.425559e+001
      vertex   -3.759057e+001 -2.988441e+001 1.524559e+001
      vertex   -3.759057e+001 -2.889441e+001 1.425559e+001
    endloop
  endfacet
  facet normal 6.513122e-017 7.071068e-001 7.071068e-001
    outer loop
      vertex   -7.517113e+001 -2.889441e+001 1.425559e+001
      vertex   -7.616113e+001 -2.988441e+001 1.524559e+001
      vertex   -3.759057e+001 -2.988441e+001 1.524559e+001
    endloop
  endfacet
  facet normal 7.071068e-001 7.192240e-016 7.071068e-001
    outer loop
      vertex   -7.517113e+001 -6.182012e+000 1.425559e+001
      vertex   -7.616113e+001 -5.420926e+000 1.524559e+001
      vertex   -7.517113e+001 -2.889441e+001 1.425559e+001
    endloop
  endfacet
  facet normal 7.071068e-001 5.647933e-016 7.071068e-001
    outer loop
      vertex   -7.517113e+001 -2.889441e+001 1.425559e+001
      vertex   -7.616113e+001 -5.420926e+000 1.524559e+001
      vertex   -7.616113e+001 -2.988441e+001 1.524559e+001
    endloop
  endfacet
  facet normal 1.817697e-001 -6.833446e-001 7.071068e-001
    outer loop
      vertex   -7.616113e+001 -5.420926e+000 1.524559e+001
      vertex   -7.517113e+001 -6.182012e+000 1.425559e+001
      vertex   -2.777323e+001 7.450256e+000 1.524559e+001
    endloop
  endfacet
  facet normal 1.817697e-001 -6.833446e-001 7.071068e-001
    outer loop
      vertex   -2.777323e+001 7.450256e+000 1.524559e+001
      vertex   -7.517113e+001 -6.182012e+000 1.425559e+001
      vertex   -2.390160e+001 7.455684e+000 1.425559e+001
    endloop
  endfacet
  facet normal 1.798530e-001 6.838515e-001 7.071068e-001
    outer loop
      vertex   -7.616113e+001 2.017627e+001 1.524559e+001
      vertex   -2.777323e+001 7.450256e+000 1.524559e+001
      vertex   -7.517113e+001 2.093957e+001 1.425559e+001
    endloop
  endfacet
  facet normal 1.798530e-001 6.838515e-001 7.071068e-001
    outer loop
      vertex   -7.517113e+001 2.093957e+001 1.425559e+001
      vertex   -2.777323e+001 7.450256e+000 1.524559e+001
      vertex   -2.390160e+001 7.455684e+000 1.425559e+001
    endloop
  endfacet
  facet normal 7.071068e-001 5.635613e-016 7.071068e-001
    outer loop
      vertex   -7.616113e+001 4.469324e+001 1.524559e+001
      vertex   -7.616113e+001 2.017627e+001 1.524559e+001
      vertex   -7.517113e+001 4.370324e+001 1.425559e+001
    endloop
  endfacet
  facet normal 7.071068e-001 8.290766e-016 7.071068e-001
    outer loop
      vertex   -7.517113e+001 4.370324e+001 1.425559e+001
      vertex   -7.616113e+001 2.017627e+001 1.524559e+001
      vertex   -7.517113e+001 2.093957e+001 1.425559e+001
    endloop
  endfacet
  facet normal 0.000000e+000 -7.071068e-001 7.071068e-001
    outer loop
      vertex   9.800000e-001 4.469324e+001 1.524559e+001
      vertex   -3.759057e+001 4.469324e+001 1.524559e+001
      vertex   -1.000000e-002 4.370324e+001 1.425559e+001
    endloop
  endfacet
  facet normal 0.000000e+000 -7.071068e-001 7.071068e-001
    outer loop
      vertex   -1.000000e-002 4.370324e+001 1.425559e+001
      vertex   -3.759057e+001 4.469324e+001 1.524559e+001
      vertex   -3.759057e+001 4.370324e+001 1.425559e+001
    endloop
  endfacet
  facet normal 0.000000e+000 -7.071068e-001 7.071068e-001
    outer loop
      vertex   -3.759057e+001 4.370324e+001 1.425559e+001
      vertex   -3.759057e+001 4.469324e+001 1.524559e+001
      vertex   -7.517113e+001 4.370324e+001 1.425559e+001
    endloop
  endfacet
  facet normal 0.000000e+000 -7.071068e-001 7.071068e-001
    outer loop
      vertex   -7.517113e+001 4.370324e+001 1.425559e+001
      vertex   -3.759057e+001 4.469324e+001 1.524559e+001
      vertex   -7.616113e+001 4.469324e+001 1.524559e+001
    endloop
  endfacet
  facet normal -8.492001e-017 -7.071068e-001 7.071068e-001
    outer loop
      vertex   -5.917504e+001 -1.479529e+001 1.425559e+001
      vertex   -2.959252e+001 -1.479529e+001 1.425559e+001
      vertex   -5.117352e+001 -1.380529e+001 1.524559e+001
    endloop
  endfacet
  facet normal -7.146186e-017 -7.071068e-001 7.071068e-001
    outer loop
      vertex   -5.117352e+001 -1.380529e+001 1.524559e+001
      vertex   -2.959252e+001 -1.479529e+001 1.425559e+001
      vertex   9.800000e-001 -1.380529e+001 1.524559e+001
    endloop
  endfacet
  facet normal -1.273800e-016 -7.071068e-001 7.071068e-001
    outer loop
      vertex   9.800000e-001 -1.380529e+001 1.524559e+001
      vertex   -2.959252e+001 -1.479529e+001 1.425559e+001
      vertex   -1.000000e-002 -1.479529e+001 1.425559e+001
    endloop
  endfacet
  facet normal -7.071068e-001 2.317905e-016 7.071068e-001
    outer loop
      vertex   9.800000e-001 4.469324e+001 1.524559e+001
      vertex   -1.000000e-002 4.370324e+001 1.425559e+001
      vertex   9.800000e-001 2.861412e+001 1.524559e+001
    endloop
  endfacet
  facet normal -7.071068e-001 7.560369e-016 7.071068e-001
    outer loop
      vertex   9.800000e-001 2.861412e+001 1.524559e+001
      vertex   -1.000000e-002 4.370324e+001 1.425559e+001
      vertex   -1.000000e-002 2.960412e+001 1.425559e+001
    endloop
  endfacet
  facet normal 0.000000e+000 7.071068e-001 7.071068e-001
    outer loop
      vertex   -5.917504e+001 2.960412e+001 1.425559e+001
      vertex   -5.120018e+001 2.861412e+001 1.524559e+001
      vertex   -2.959252e+001 2.960412e+001 1.425559e+001
    endloop
  endfacet
  facet normal -0.000000e+000 7.071068e-001 7.071068e-001
    outer loop
      vertex   -2.959252e+001 2.960412e+001 1.425559e+001
      vertex   -5.120018e+001 2.861412e+001 1.524559e+001
      vertex   9.800000e-001 2.861412e+001 1.524559e+001
    endloop
  endfacet
  facet normal -1.698400e-016 7.071068e-001 7.071068e-001
    outer loop
      vertex   -1.000000e-002 2.960412e+001 1.425559e+001
      vertex   -2.959252e+001 2.960412e+001 1.425559e+001
      vertex   9.800000e-001 2.861412e+001 1.524559e+001
    endloop
  endfacet
  facet normal -1.728962e-001 -6.856434e-001 7.071068e-001
    outer loop
      vertex   -1.000000e-002 1.468469e+001 1.425559e+001
      vertex   9.800000e-001 1.545603e+001 1.524559e+001
      vertex   -2.959252e+001 2.214440e+001 1.425559e+001
    endloop
  endfacet
  facet normal -1.728962e-001 -6.856434e-001 7.071068e-001
    outer loop
      vertex   -2.959252e+001 2.214440e+001 1.425559e+001
      vertex   9.800000e-001 1.545603e+001 1.524559e+001
      vertex   -5.120018e+001 2.861412e+001 1.524559e+001
    endloop
  endfacet
  facet normal -1.728962e-001 -6.856434e-001 7.071068e-001
    outer loop
      vertex   -5.917504e+001 2.960412e+001 1.425559e+001
      vertex   -2.959252e+001 2.214440e+001 1.425559e+001
      vertex   -5.120018e+001 2.861412e+001 1.524559e+001
    endloop
  endfacet
  facet normal -3.781437e-016 -1.000000e+000 5.003409e-016
    outer loop
      vertex   -7.517113e+001 4.370324e+001 5.441406e-002
      vertex   -3.759057e+001 4.370324e+001 5.441406e-002
      vertex   -7.517113e+001 4.370324e+001 1.425559e+001
    endloop
  endfacet
  facet normal 0.000000e+000 -1.000000e+000 1.501023e-015
    outer loop
      vertex   -7.517113e+001 4.370324e+001 1.425559e+001
      vertex   -3.759057e+001 4.370324e+001 5.441406e-002
      vertex   -3.759057e+001 4.370324e+001 1.425559e+001
    endloop
  endfacet
  facet normal -1.890719e-016 -1.000000e+000 1.501023e-015
    outer loop
      vertex   -3.759057e+001 4.370324e+001 1.425559e+001
      vertex   -3.759057e+001 4.370324e+001 5.441406e-002
      vertex   -1.000000e-002 4.370324e+001 5.441406e-002
    endloop
  endfacet
  facet normal 0.000000e+000 -1.000000e+000 2.001364e-015
    outer loop
      vertex   -1.000000e-002 4.370324e+001 1.425559e+001
      vertex   -3.759057e+001 4.370324e+001 1.425559e+001
      vertex   -1.000000e-002 4.370324e+001 5.441406e-002
    endloop
  endfacet
  facet normal -2.320976e-016 2.978904e-016 1.000000e+000
    outer loop
      vertex   -5.103907e+001 2.859412e+001 1.524559e+001
      vertex   9.800000e-001 1.545603e+001 1.524559e+001
      vertex   1.000000e+000 1.547162e+001 1.524559e+001
    endloop
  endfacet
  facet normal 2.970848e-016 2.393140e-015 1.000000e+000
    outer loop
      vertex   -5.103907e+001 2.859412e+001 1.524559e+001
      vertex   -5.120018e+001 2.861412e+001 1.524559e+001
      vertex   9.800000e-001 1.545603e+001 1.524559e+001
    endloop
  endfacet
  facet normal 0.000000e+000 -0.000000e+000 1.000000e+000
    outer loop
      vertex   -5.103907e+001 2.859412e+001 1.524559e+001
      vertex   9.800000e-001 2.861412e+001 1.524559e+001
      vertex   -5.120018e+001 2.861412e+001 1.524559e+001
    endloop
  endfacet
  facet normal 0.000000e+000 -0.000000e+000 1.000000e+000
    outer loop
      vertex   -5.103907e+001 2.859412e+001 1.524559e+001
      vertex   1.000000e+000 2.859412e+001 1.524559e+001
      vertex   9.800000e-001 2.861412e+001 1.524559e+001
    endloop
  endfacet
  facet normal 2.209520e-016 2.209520e-016 1.000000e+000
    outer loop
      vertex   9.800000e-001 2.861412e+001 1.524559e+001
      vertex   1.000000e+000 2.859412e+001 1.524559e+001
      vertex   9.800000e-001 4.469324e+001 1.524559e+001
    endloop
  endfacet
  facet normal -2.204037e-016 2.204037e-016 1.000000e+000
    outer loop
      vertex   9.800000e-001 4.469324e+001 1.524559e+001
      vertex   1.000000e+000 2.859412e+001 1.524559e+001
      vertex   1.000000e+000 4.471324e+001 1.524559e+001
    endloop
  endfacet
  facet normal -0.000000e+000 0.000000e+000 1.000000e+000
    outer loop
      vertex   -3.759057e+001 4.471324e+001 1.524559e+001
      vertex   9.800000e-001 4.469324e+001 1.524559e+001
      vertex   1.000000e+000 4.471324e+001 1.524559e+001
    endloop
  endfacet
  facet normal -0.000000e+000 0.000000e+000 1.000000e+000
    outer loop
      vertex   -3.759057e+001 4.471324e+001 1.524559e+001
      vertex   -3.759057e+001 4.469324e+001 1.524559e+001
      vertex   9.800000e-001 4.469324e+001 1.524559e+001
    endloop
  endfacet
  facet normal -0.000000e+000 0.000000e+000 1.000000e+000
    outer loop
      vertex   -3.759057e+001 4.471324e+001 1.524559e+001
      vertex   -7.616113e+001 4.469324e+001 1.524559e+001
      vertex   -3.759057e+001 4.469324e+001 1.524559e+001
    endloop
  endfacet
  facet normal 0.000000e+000 0.000000e+000 1.000000e+000
    outer loop
      vertex   -3.759057e+001 4.471324e+001 1.524559e+001
      vertex   -7.618113e+001 4.471324e+001 1.524559e+001
      vertex   -7.616113e+001 4.469324e+001 1.524559e+001
    endloop
  endfacet
  facet normal 7.958462e-016 7.958462e-016 1.000000e+000
    outer loop
      vertex   -7.616113e+001 4.469324e+001 1.524559e+001
      vertex   -7.618113e+001 4.471324e+001 1.524559e+001
      vertex   -7.618113e+001 2.016085e+001 1.524559e+001
    endloop
  endfacet
  facet normal -1.096253e-016 1.421848e-016 1.000000e+000
    outer loop
      vertex   -7.616113e+001 2.017627e+001 1.524559e+001
      vertex   -7.618113e+001 2.016085e+001 1.524559e+001
      vertex   -2.785145e+001 7.450146e+000 1.524559e+001
    endloop
  endfacet
  facet normal -1.167029e-018 8.324497e-016 1.000000e+000
    outer loop
      vertex   -2.777323e+001 7.450256e+000 1.524559e+001
      vertex   -2.785145e+001 7.450146e+000 1.524559e+001
      vertex   -7.616113e+001 -5.420926e+000 1.524559e+001
    endloop
  endfacet
  facet normal -7.785966e-019 5.553782e-016 1.000000e+000
    outer loop
      vertex   -2.777323e+001 7.450256e+000 1.524559e+001
      vertex   -7.616113e+001 2.017627e+001 1.524559e+001
      vertex   -2.785145e+001 7.450146e+000 1.524559e+001
    endloop
  endfacet
  facet normal -6.144889e-016 7.969960e-016 1.000000e+000
    outer loop
      vertex   -7.616113e+001 4.469324e+001 1.524559e+001
      vertex   -7.618113e+001 2.016085e+001 1.524559e+001
      vertex   -7.616113e+001 2.017627e+001 1.524559e+001
    endloop
  endfacet
  facet normal 1.638402e-016 2.131190e-016 1.000000e+000
    outer loop
      vertex   -2.785145e+001 7.450146e+000 1.524559e+001
      vertex   -7.618113e+001 -5.405551e+000 1.524559e+001
      vertex   -7.616113e+001 -5.420926e+000 1.524559e+001
    endloop
  endfacet
  facet normal 6.140488e-016 7.987383e-016 1.000000e+000
    outer loop
      vertex   -7.616113e+001 -5.420926e+000 1.524559e+001
      vertex   -7.618113e+001 -5.405551e+000 1.524559e+001
      vertex   -7.616113e+001 -2.988441e+001 1.524559e+001
    endloop
  endfacet
  facet normal -7.975850e-016 7.975850e-016 1.000000e+000
    outer loop
      vertex   -7.616113e+001 -2.988441e+001 1.524559e+001
      vertex   -7.618113e+001 -5.405551e+000 1.524559e+001
      vertex   -7.618113e+001 -2.990441e+001 1.524559e+001
    endloop
  endfacet
  facet normal 0.000000e+000 0.000000e+000 1.000000e+000
    outer loop
      vertex   -3.759057e+001 -2.990441e+001 1.524559e+001
      vertex   -7.616113e+001 -2.988441e+001 1.524559e+001
      vertex   -7.618113e+001 -2.990441e+001 1.524559e+001
    endloop
  endfacet
  facet normal 0.000000e+000 -0.000000e+000 1.000000e+000
    outer loop
      vertex   -3.759057e+001 -2.990441e+001 1.524559e+001
      vertex   -3.759057e+001 -2.988441e+001 1.524559e+001
      vertex   -7.616113e+001 -2.988441e+001 1.524559e+001
    endloop
  endfacet
  facet normal 0.000000e+000 -0.000000e+000 1.000000e+000
    outer loop
      vertex   -3.759057e+001 -2.990441e+001 1.524559e+001
      vertex   9.800000e-001 -2.988441e+001 1.524559e+001
      vertex   -3.759057e+001 -2.988441e+001 1.524559e+001
    endloop
  endfacet
  facet normal -0.000000e+000 -0.000000e+000 1.000000e+000
    outer loop
      vertex   -3.759057e+001 -2.990441e+001 1.524559e+001
      vertex   1.000000e+000 -2.990441e+001 1.524559e+001
      vertex   9.800000e-001 -2.988441e+001 1.524559e+001
    endloop
  endfacet
  facet normal 7.733319e-016 7.733319e-016 1.000000e+000
    outer loop
      vertex   9.800000e-001 -2.988441e+001 1.524559e+001
      vertex   1.000000e+000 -2.990441e+001 1.524559e+001
      vertex   9.800000e-001 -1.380529e+001 1.524559e+001
    endloop
  endfacet
  facet normal -7.714129e-016 7.714129e-016 1.000000e+000
    outer loop
      vertex   9.800000e-001 -1.380529e+001 1.524559e+001
      vertex   1.000000e+000 -2.990441e+001 1.524559e+001
      vertex   1.000000e+000 -1.378529e+001 1.524559e+001
    endloop
  endfacet
  facet normal -0.000000e+000 0.000000e+000 1.000000e+000
    outer loop
      vertex   -5.101187e+001 -1.378529e+001 1.524559e+001
      vertex   9.800000e-001 -1.380529e+001 1.524559e+001
      vertex   1.000000e+000 -1.378529e+001 1.524559e+001
    endloop
  endfacet
  facet normal 0.000000e+000 0.000000e+000 1.000000e+000
    outer loop
      vertex   -5.101187e+001 -1.378529e+001 1.524559e+001
      vertex   -5.117352e+001 -1.380529e+001 1.524559e+001
      vertex   9.800000e-001 -1.380529e+001 1.524559e+001
    endloop
  endfacet
  facet normal -1.321323e-016 1.067939e-015 1.000000e+000
    outer loop
      vertex   -5.101187e+001 -1.378529e+001 1.524559e+001
      vertex   9.800000e-001 -6.991236e-001 1.524559e+001
      vertex   -5.117352e+001 -1.380529e+001 1.524559e+001
    endloop
  endfacet
  facet normal 1.033164e-016 1.324922e-016 1.000000e+000
    outer loop
      vertex   -5.101187e+001 -1.378529e+001 1.524559e+001
      vertex   1.000000e+000 -7.147194e-001 1.524559e+001
      vertex   9.800000e-001 -6.991236e-001 1.524559e+001
    endloop
  endfacet
  facet normal 8.557773e-016 1.097442e-015 1.000000e+000
    outer loop
      vertex   9.800000e-001 -6.991236e-001 1.524559e+001
      vertex   1.000000e+000 -7.147194e-001 1.524559e+001
      vertex   1.000000e+000 1.547162e+001 1.524559e+001
    endloop
  endfacet
  facet normal -8.567087e-016 1.099560e-015 1.000000e+000
    outer loop
      vertex   9.800000e-001 1.545603e+001 1.524559e+001
      vertex   9.800000e-001 -6.991236e-001 1.524559e+001
      vertex   1.000000e+000 1.547162e+001 1.524559e+001
    endloop
  endfacet
  facet normal 1.728962e-001 6.856434e-001 7.071068e-001
    outer loop
      vertex   -5.103907e+001 2.859412e+001 1.524559e+001
      vertex   1.000000e+000 1.547162e+001 1.524559e+001
      vertex   -4.306422e+001 2.760412e+001 1.425559e+001
    endloop
  endfacet
  facet normal 1.728962e-001 6.856434e-001 7.071068e-001
    outer loop
      vertex   -4.306422e+001 2.760412e+001 1.425559e+001
      vertex   1.000000e+000 1.547162e+001 1.524559e+001
      vertex   1.990000e+000 1.624296e+001 1.425559e+001
    endloop
  endfacet
  facet normal 7.071068e-001 1.231914e-015 7.071068e-001
    outer loop
      vertex   1.000000e+000 1.547162e+001 1.524559e+001
      vertex   1.000000e+000 -7.147194e-001 1.524559e+001
      vertex   1.990000e+000 1.624296e+001 1.425559e+001
    endloop
  endfacet
  facet normal 7.071068e-001 7.961213e-016 7.071068e-001
    outer loop
      vertex   1.990000e+000 1.624296e+001 1.425559e+001
      vertex   1.000000e+000 -7.147194e-001 1.524559e+001
      vertex   1.990000e+000 -1.486714e+000 1.425559e+001
    endloop
  endfacet
  facet normal 1.723374e-001 -6.857841e-001 7.071068e-001
    outer loop
      vertex   -5.101187e+001 -1.378529e+001 1.524559e+001
      vertex   -4.301034e+001 -1.279529e+001 1.425559e+001
      vertex   1.000000e+000 -7.147194e-001 1.524559e+001
    endloop
  endfacet
  facet normal 1.723374e-001 -6.857841e-001 7.071068e-001
    outer loop
      vertex   1.000000e+000 -7.147194e-001 1.524559e+001
      vertex   -4.301034e+001 -1.279529e+001 1.425559e+001
      vertex   1.990000e+000 -1.486714e+000 1.425559e+001
    endloop
  endfacet
  facet normal 4.829951e-017 7.071068e-001 7.071068e-001
    outer loop
      vertex   -5.101187e+001 -1.378529e+001 1.524559e+001
      vertex   1.000000e+000 -1.378529e+001 1.524559e+001
      vertex   -4.301034e+001 -1.279529e+001 1.425559e+001
    endloop
  endfacet
  facet normal 5.462682e-017 7.071068e-001 7.071068e-001
    outer loop
      vertex   -4.301034e+001 -1.279529e+001 1.425559e+001
      vertex   1.000000e+000 -1.378529e+001 1.524559e+001
      vertex   1.990000e+000 -1.279529e+001 1.425559e+001
    endloop
  endfacet
  facet normal 7.071068e-001 5.559006e-016 7.071068e-001
    outer loop
      vertex   1.000000e+000 -2.990441e+001 1.524559e+001
      vertex   1.990000e+000 -3.089441e+001 1.425559e+001
      vertex   1.000000e+000 -1.378529e+001 1.524559e+001
    endloop
  endfacet
  facet normal 7.071068e-001 7.460470e-016 7.071068e-001
    outer loop
      vertex   1.000000e+000 -1.378529e+001 1.524559e+001
      vertex   1.990000e+000 -3.089441e+001 1.425559e+001
      vertex   1.990000e+000 -1.279529e+001 1.425559e+001
    endloop
  endfacet
  facet normal -1.282207e-016 -7.071068e-001 7.071068e-001
    outer loop
      vertex   1.990000e+000 -3.089441e+001 1.425559e+001
      vertex   1.000000e+000 -2.990441e+001 1.524559e+001
      vertex   -3.759057e+001 -3.089441e+001 1.425559e+001
    endloop
  endfacet
  facet normal -6.509746e-017 -7.071068e-001 7.071068e-001
    outer loop
      vertex   -3.759057e+001 -3.089441e+001 1.425559e+001
      vertex   1.000000e+000 -2.990441e+001 1.524559e+001
      vertex   -3.759057e+001 -2.990441e+001 1.524559e+001
    endloop
  endfacet
  facet normal 0.000000e+000 -7.071068e-001 7.071068e-001
    outer loop
      vertex   -7.618113e+001 -2.990441e+001 1.524559e+001
      vertex   -3.759057e+001 -3.089441e+001 1.425559e+001
      vertex   -3.759057e+001 -2.990441e+001 1.524559e+001
    endloop
  endfacet
  facet normal 0.000000e+000 -7.071068e-001 7.071068e-001
    outer loop
      vertex   -7.618113e+001 -2.990441e+001 1.524559e+001
      vertex   -7.717113e+001 -3.089441e+001 1.425559e+001
      vertex   -3.759057e+001 -3.089441e+001 1.425559e+001
    endloop
  endfacet
  facet normal -7.071068e-001 5.664377e-016 7.071068e-001
    outer loop
      vertex   -7.618113e+001 -5.405551e+000 1.524559e+001
      vertex   -7.717113e+001 -4.644465e+000 1.425559e+001
      vertex   -7.618113e+001 -2.990441e+001 1.524559e+001
    endloop
  endfacet
  facet normal -7.071068e-001 6.220569e-016 7.071068e-001
    outer loop
      vertex   -7.618113e+001 -2.990441e+001 1.524559e+001
      vertex   -7.717113e+001 -4.644465e+000 1.425559e+001
      vertex   -7.717113e+001 -3.089441e+001 1.425559e+001
    endloop
  endfacet
  facet normal -1.817697e-001 6.833446e-001 7.071068e-001
    outer loop
      vertex   -7.717113e+001 -4.644465e+000 1.425559e+001
      vertex   -7.618113e+001 -5.405551e+000 1.524559e+001
      vertex   -3.172307e+001 7.444719e+000 1.425559e+001
    endloop
  endfacet
  facet normal -1.817697e-001 6.833446e-001 7.071068e-001
    outer loop
      vertex   -3.172307e+001 7.444719e+000 1.425559e+001
      vertex   -7.618113e+001 -5.405551e+000 1.524559e+001
      vertex   -2.785145e+001 7.450146e+000 1.524559e+001
    endloop
  endfacet
  facet normal -1.798530e-001 -6.838515e-001 7.071068e-001
    outer loop
      vertex   -7.717113e+001 1.939756e+001 1.425559e+001
      vertex   -3.172307e+001 7.444719e+000 1.425559e+001
      vertex   -7.618113e+001 2.016085e+001 1.524559e+001
    endloop
  endfacet
  facet normal -1.798530e-001 -6.838515e-001 7.071068e-001
    outer loop
      vertex   -7.618113e+001 2.016085e+001 1.524559e+001
      vertex   -3.172307e+001 7.444719e+000 1.425559e+001
      vertex   -2.785145e+001 7.450146e+000 1.524559e+001
    endloop
  endfacet
  facet normal -7.071068e-001 7.162372e-016 7.071068e-001
    outer loop
      vertex   -7.717113e+001 4.570324e+001 1.425559e+001
      vertex   -7.717113e+001 1.939756e+001 1.425559e+001
      vertex   -7.618113e+001 4.471324e+001 1.524559e+001
    endloop
  endfacet
  facet normal -7.071068e-001 5.619731e-016 7.071068e-001
    outer loop
      vertex   -7.618113e+001 4.471324e+001 1.524559e+001
      vertex   -7.717113e+001 1.939756e+001 1.425559e+001
      vertex   -7.618113e+001 2.016085e+001 1.524559e+001
    endloop
  endfacet
  facet normal 0.000000e+000 7.071068e-001 7.071068e-001
    outer loop
      vertex   1.990000e+000 4.570324e+001 1.425559e+001
      vertex   -3.759057e+001 4.570324e+001 1.425559e+001
      vertex   1.000000e+000 4.471324e+001 1.524559e+001
    endloop
  endfacet
  facet normal 0.000000e+000 7.071068e-001 7.071068e-001
    outer loop
      vertex   1.000000e+000 4.471324e+001 1.524559e+001
      vertex   -3.759057e+001 4.570324e+001 1.425559e+001
      vertex   -3.759057e+001 4.471324e+001 1.524559e+001
    endloop
  endfacet
  facet normal 2.589104e-016 7.071068e-001 7.071068e-001
    outer loop
      vertex   -3.759057e+001 4.471324e+001 1.524559e+001
      vertex   -3.759057e+001 4.570324e+001 1.425559e+001
      vertex   -7.618113e+001 4.471324e+001 1.524559e+001
    endloop
  endfacet
  facet normal 2.538769e-016 7.071068e-001 7.071068e-001
    outer loop
      vertex   -7.618113e+001 4.471324e+001 1.524559e+001
      vertex   -3.759057e+001 4.570324e+001 1.425559e+001
      vertex   -7.717113e+001 4.570324e+001 1.425559e+001
    endloop
  endfacet
  facet normal 7.071068e-001 6.221440e-016 7.071068e-001
    outer loop
      vertex   1.990000e+000 4.570324e+001 1.425559e+001
      vertex   1.000000e+000 4.471324e+001 1.524559e+001
      vertex   1.990000e+000 2.760412e+001 1.425559e+001
    endloop
  endfacet
  facet normal 7.071068e-001 1.753301e-016 7.071068e-001
    outer loop
      vertex   1.990000e+000 2.760412e+001 1.425559e+001
      vertex   1.000000e+000 4.471324e+001 1.524559e+001
      vertex   1.000000e+000 2.859412e+001 1.524559e+001
    endloop
  endfacet
  facet normal 0.000000e+000 -7.071068e-001 7.071068e-001
    outer loop
      vertex   1.990000e+000 2.760412e+001 1.425559e+001
      vertex   1.000000e+000 2.859412e+001 1.524559e+001
      vertex   -4.306422e+001 2.760412e+001 1.425559e+001
    endloop
  endfacet
  facet normal 0.000000e+000 -7.071068e-001 7.071068e-001
    outer loop
      vertex   -4.306422e+001 2.760412e+001 1.425559e+001
      vertex   1.000000e+000 2.859412e+001 1.524559e+001
      vertex   -5.103907e+001 2.859412e+001 1.524559e+001
    endloop
  endfacet
  facet normal 1.000000e+000 7.360952e-017 -7.365971e-032
    outer loop
      vertex   1.990000e+000 -3.089441e+001 5.441406e-002
      vertex   1.990000e+000 -1.279529e+001 5.441406e-002
      vertex   1.990000e+000 -3.089441e+001 1.425559e+001
    endloop
  endfacet
  facet normal 1.000000e+000 7.360952e-017 -4.603732e-032
    outer loop
      vertex   1.990000e+000 -3.089441e+001 1.425559e+001
      vertex   1.990000e+000 -1.279529e+001 5.441406e-002
      vertex   1.990000e+000 -1.279529e+001 1.425559e+001
    endloop
  endfacet
endsolid
