solid ascii
  facet normal -7.071068e-001 -3.106979e-016 7.071068e-001
    outer loop
      vertex   9.800000e-001 3.771485e+001 1.622838e+001
      vertex   -1.000000e-002 3.672485e+001 1.523838e+001
      vertex   9.800000e-001 2.163573e+001 1.622838e+001
    endloop
  endfacet
  facet normal -7.071068e-001 -1.781776e-016 7.071068e-001
    outer loop
      vertex   9.800000e-001 2.163573e+001 1.622838e+001
      vertex   -1.000000e-002 3.672485e+001 1.523838e+001
      vertex   -1.000000e-002 2.262573e+001 1.523838e+001
    endloop
  endfacet
  facet normal -9.349195e-031 -7.071068e-001 7.071068e-001
    outer loop
      vertex   9.800000e-001 3.771485e+001 1.622838e+001
      vertex   -3.759057e+001 3.771485e+001 1.622838e+001
      vertex   -1.000000e-002 3.672485e+001 1.523838e+001
    endloop
  endfacet
  facet normal -1.012833e-016 -7.071068e-001 7.071068e-001
    outer loop
      vertex   -1.000000e-002 3.672485e+001 1.523838e+001
      vertex   -3.759057e+001 3.771485e+001 1.622838e+001
      vertex   -3.759057e+001 3.672485e+001 1.523838e+001
    endloop
  endfacet
  facet normal 9.917326e-017 -7.071068e-001 7.071068e-001
    outer loop
      vertex   -3.759057e+001 3.672485e+001 1.523838e+001
      vertex   -3.759057e+001 3.771485e+001 1.622838e+001
      vertex   -7.517113e+001 3.672485e+001 1.523838e+001
    endloop
  endfacet
  facet normal 6.513122e-017 -7.071068e-001 7.071068e-001
    outer loop
      vertex   -7.517113e+001 3.672485e+001 1.523838e+001
      vertex   -3.759057e+001 3.771485e+001 1.622838e+001
      vertex   -7.616113e+001 3.771485e+001 1.622838e+001
    endloop
  endfacet
  facet normal 7.071068e-001 -7.490482e-016 7.071068e-001
    outer loop
      vertex   -7.616113e+001 3.771485e+001 1.622838e+001
      vertex   -7.616113e+001 2.094592e+001 1.622838e+001
      vertex   -7.517113e+001 3.672485e+001 1.523838e+001
    endloop
  endfacet
  facet normal 7.071068e-001 -2.499686e-016 7.071068e-001
    outer loop
      vertex   -7.517113e+001 3.672485e+001 1.523838e+001
      vertex   -7.616113e+001 2.094592e+001 1.622838e+001
      vertex   -7.517113e+001 2.149780e+001 1.523838e+001
    endloop
  endfacet
  facet normal 3.718206e-001 6.014561e-001 7.071068e-001
    outer loop
      vertex   -7.517113e+001 2.149780e+001 1.523838e+001
      vertex   -7.616113e+001 2.094592e+001 1.622838e+001
      vertex   -5.066430e+001 6.347651e+000 1.523838e+001
    endloop
  endfacet
  facet normal 3.718206e-001 6.014561e-001 7.071068e-001
    outer loop
      vertex   -5.066430e+001 6.347651e+000 1.523838e+001
      vertex   -7.616113e+001 2.094592e+001 1.622838e+001
      vertex   -2.964161e+001 -7.812495e+000 1.622838e+001
    endloop
  endfacet
  facet normal 3.718206e-001 6.014561e-001 7.071068e-001
    outer loop
      vertex   -2.615746e+001 -8.802495e+000 1.523838e+001
      vertex   -5.066430e+001 6.347651e+000 1.523838e+001
      vertex   -2.964161e+001 -7.812495e+000 1.622838e+001
    endloop
  endfacet
  facet normal -1.294294e-016 -7.071068e-001 7.071068e-001
    outer loop
      vertex   -2.615746e+001 -8.802495e+000 1.523838e+001
      vertex   -2.964161e+001 -7.812495e+000 1.622838e+001
      vertex   -7.517113e+001 -8.802495e+000 1.523838e+001
    endloop
  endfacet
  facet normal -2.700101e-017 -7.071068e-001 7.071068e-001
    outer loop
      vertex   -7.517113e+001 -8.802495e+000 1.523838e+001
      vertex   -2.964161e+001 -7.812495e+000 1.622838e+001
      vertex   -7.616113e+001 -7.812495e+000 1.622838e+001
    endloop
  endfacet
  facet normal 7.071068e-001 -0.000000e+000 7.071068e-001
    outer loop
      vertex   -7.517113e+001 -2.290162e+001 1.523838e+001
      vertex   -7.517113e+001 -8.802495e+000 1.523838e+001
      vertex   -7.616113e+001 -2.389162e+001 1.622838e+001
    endloop
  endfacet
  facet normal 7.071068e-001 -1.578148e-016 7.071068e-001
    outer loop
      vertex   -7.616113e+001 -2.389162e+001 1.622838e+001
      vertex   -7.517113e+001 -8.802495e+000 1.523838e+001
      vertex   -7.616113e+001 -7.812495e+000 1.622838e+001
    endloop
  endfacet
  facet normal -1.953114e-016 7.071068e-001 7.071068e-001
    outer loop
      vertex   9.800000e-001 -2.389162e+001 1.622838e+001
      vertex   -1.000000e-002 -2.290162e+001 1.523838e+001
      vertex   -3.759057e+001 -2.389162e+001 1.622838e+001
    endloop
  endfacet
  facet normal -3.342350e-017 7.071068e-001 7.071068e-001
    outer loop
      vertex   -3.759057e+001 -2.389162e+001 1.622838e+001
      vertex   -1.000000e-002 -2.290162e+001 1.523838e+001
      vertex   -3.759057e+001 -2.290162e+001 1.523838e+001
    endloop
  endfacet
  facet normal -2.004566e-016 7.071068e-001 7.071068e-001
    outer loop
      vertex   -7.517113e+001 -2.290162e+001 1.523838e+001
      vertex   -3.759057e+001 -2.389162e+001 1.622838e+001
      vertex   -3.759057e+001 -2.290162e+001 1.523838e+001
    endloop
  endfacet
  facet normal -6.513122e-017 7.071068e-001 7.071068e-001
    outer loop
      vertex   -7.517113e+001 -2.290162e+001 1.523838e+001
      vertex   -7.616113e+001 -2.389162e+001 1.622838e+001
      vertex   -3.759057e+001 -2.389162e+001 1.622838e+001
    endloop
  endfacet
  facet normal -7.071068e-001 -8.506744e-017 7.071068e-001
    outer loop
      vertex   -1.000000e-002 -8.135991e+000 1.523838e+001
      vertex   -1.000000e-002 -2.290162e+001 1.523838e+001
      vertex   9.800000e-001 -7.581597e+000 1.622838e+001
    endloop
  endfacet
  facet normal -7.071068e-001 -1.555806e-016 7.071068e-001
    outer loop
      vertex   9.800000e-001 -7.581597e+000 1.622838e+001
      vertex   -1.000000e-002 -2.290162e+001 1.523838e+001
      vertex   9.800000e-001 -2.389162e+001 1.622838e+001
    endloop
  endfacet
  facet normal -3.694927e-001 -6.028890e-001 7.071068e-001
    outer loop
      vertex   -5.020287e+001 2.262573e+001 1.523838e+001
      vertex   -2.510644e+001 7.244868e+000 1.523838e+001
      vertex   -4.669294e+001 2.163573e+001 1.622838e+001
    endloop
  endfacet
  facet normal -3.694927e-001 -6.028890e-001 7.071068e-001
    outer loop
      vertex   -4.669294e+001 2.163573e+001 1.622838e+001
      vertex   -2.510644e+001 7.244868e+000 1.523838e+001
      vertex   9.800000e-001 -7.581597e+000 1.622838e+001
    endloop
  endfacet
  facet normal -3.694927e-001 -6.028890e-001 7.071068e-001
    outer loop
      vertex   9.800000e-001 -7.581597e+000 1.622838e+001
      vertex   -2.510644e+001 7.244868e+000 1.523838e+001
      vertex   -1.000000e-002 -8.135991e+000 1.523838e+001
    endloop
  endfacet
  facet normal -1.011109e-016 7.071068e-001 7.071068e-001
    outer loop
      vertex   -5.020287e+001 2.262573e+001 1.523838e+001
      vertex   -4.669294e+001 2.163573e+001 1.622838e+001
      vertex   -1.000000e-002 2.262573e+001 1.523838e+001
    endloop
  endfacet
  facet normal -5.269547e-017 7.071068e-001 7.071068e-001
    outer loop
      vertex   -1.000000e-002 2.262573e+001 1.523838e+001
      vertex   -4.669294e+001 2.163573e+001 1.622838e+001
      vertex   9.800000e-001 2.163573e+001 1.622838e+001
    endloop
  endfacet
  facet normal -1.890719e-016 1.000000e+000 7.018044e-016
    outer loop
      vertex   -7.517113e+001 -2.290162e+001 1.523838e+001
      vertex   -3.759057e+001 -2.290162e+001 1.523838e+001
      vertex   -7.517113e+001 -2.290162e+001 5.161621e-002
    endloop
  endfacet
  facet normal -9.453593e-017 1.000000e+000 4.678696e-016
    outer loop
      vertex   -7.517113e+001 -2.290162e+001 5.161621e-002
      vertex   -3.759057e+001 -2.290162e+001 1.523838e+001
      vertex   -3.759057e+001 -2.290162e+001 5.161621e-002
    endloop
  endfacet
  facet normal 9.453593e-017 1.000000e+000 4.678696e-016
    outer loop
      vertex   -3.759057e+001 -2.290162e+001 5.161621e-002
      vertex   -3.759057e+001 -2.290162e+001 1.523838e+001
      vertex   -1.000000e-002 -2.290162e+001 1.523838e+001
    endloop
  endfacet
  facet normal -7.995179e-032 1.000000e+000 7.018044e-016
    outer loop
      vertex   -1.000000e-002 -2.290162e+001 5.161621e-002
      vertex   -3.759057e+001 -2.290162e+001 5.161621e-002
      vertex   -1.000000e-002 -2.290162e+001 1.523838e+001
    endloop
  endfacet
  facet normal -1.000000e+000 0.000000e+000 -0.000000e+000
    outer loop
      vertex   -1.000000e-002 -2.290162e+001 1.523838e+001
      vertex   -1.000000e-002 -8.135991e+000 1.523838e+001
      vertex   -1.000000e-002 -2.290162e+001 5.161621e-002
    endloop
  endfacet
  facet normal -1.000000e+000 0.000000e+000 0.000000e+000
    outer loop
      vertex   -1.000000e-002 -2.290162e+001 5.161621e-002
      vertex   -1.000000e-002 -8.135991e+000 1.523838e+001
      vertex   -1.000000e-002 -8.135991e+000 5.161621e-002
    endloop
  endfacet
  facet normal -5.225416e-001 -8.526138e-001 -3.989121e-016
    outer loop
      vertex   -1.000000e-002 -8.135991e+000 5.161621e-002
      vertex   -1.000000e-002 -8.135991e+000 1.523838e+001
      vertex   -2.510644e+001 7.244868e+000 5.161621e-002
    endloop
  endfacet
  facet normal -5.225416e-001 -8.526138e-001 -8.901295e-016
    outer loop
      vertex   -2.510644e+001 7.244868e+000 5.161621e-002
      vertex   -1.000000e-002 -8.135991e+000 1.523838e+001
      vertex   -2.510644e+001 7.244868e+000 1.523838e+001
    endloop
  endfacet
  facet normal -5.225416e-001 -8.526138e-001 -8.203368e-016
    outer loop
      vertex   -5.020287e+001 2.262573e+001 1.523838e+001
      vertex   -2.510644e+001 7.244868e+000 5.161621e-002
      vertex   -2.510644e+001 7.244868e+000 1.523838e+001
    endloop
  endfacet
  facet normal -5.225416e-001 -8.526138e-001 -7.978242e-016
    outer loop
      vertex   -5.020287e+001 2.262573e+001 1.523838e+001
      vertex   -5.020287e+001 2.262573e+001 5.161621e-002
      vertex   -2.510644e+001 7.244868e+000 5.161621e-002
    endloop
  endfacet
  facet normal -1.324656e-031 1.000000e+000 9.357393e-016
    outer loop
      vertex   -5.020287e+001 2.262573e+001 1.523838e+001
      vertex   -1.000000e-002 2.262573e+001 1.523838e+001
      vertex   -5.020287e+001 2.262573e+001 5.161621e-002
    endloop
  endfacet
  facet normal -1.324656e-031 1.000000e+000 9.357393e-016
    outer loop
      vertex   -5.020287e+001 2.262573e+001 5.161621e-002
      vertex   -1.000000e-002 2.262573e+001 1.523838e+001
      vertex   -1.000000e-002 2.262573e+001 5.161621e-002
    endloop
  endfacet
  facet normal -1.000000e+000 0.000000e+000 -0.000000e+000
    outer loop
      vertex   -1.000000e-002 2.262573e+001 1.523838e+001
      vertex   -1.000000e-002 3.672485e+001 1.523838e+001
      vertex   -1.000000e-002 2.262573e+001 5.161621e-002
    endloop
  endfacet
  facet normal -1.000000e+000 0.000000e+000 0.000000e+000
    outer loop
      vertex   -1.000000e-002 2.262573e+001 5.161621e-002
      vertex   -1.000000e-002 3.672485e+001 1.523838e+001
      vertex   -1.000000e-002 3.672485e+001 5.161621e-002
    endloop
  endfacet
  facet normal 4.408074e-016 -4.408074e-016 1.000000e+000
    outer loop
      vertex   1.000000e+000 3.773485e+001 1.622838e+001
      vertex   9.800000e-001 3.771485e+001 1.622838e+001
      vertex   1.000000e+000 2.161573e+001 1.622838e+001
    endloop
  endfacet
  facet normal -1.841234e-016 1.841234e-016 1.000000e+000
    outer loop
      vertex   1.000000e+000 3.773485e+001 1.622838e+001
      vertex   -3.759057e+001 3.773485e+001 1.622838e+001
      vertex   9.800000e-001 3.771485e+001 1.622838e+001
    endloop
  endfacet
  facet normal -1.842189e-016 -6.544770e-029 1.000000e+000
    outer loop
      vertex   9.800000e-001 3.771485e+001 1.622838e+001
      vertex   -3.759057e+001 3.773485e+001 1.622838e+001
      vertex   -3.759057e+001 3.771485e+001 1.622838e+001
    endloop
  endfacet
  facet normal -9.210945e-017 -3.272385e-029 1.000000e+000
    outer loop
      vertex   -3.759057e+001 3.771485e+001 1.622838e+001
      vertex   -3.759057e+001 3.773485e+001 1.622838e+001
      vertex   -7.616113e+001 3.771485e+001 1.622838e+001
    endloop
  endfacet
  facet normal -9.206171e-017 -9.206171e-017 1.000000e+000
    outer loop
      vertex   -7.616113e+001 3.771485e+001 1.622838e+001
      vertex   -3.759057e+001 3.773485e+001 1.622838e+001
      vertex   -7.618113e+001 3.773485e+001 1.622838e+001
    endloop
  endfacet
  facet normal -2.114700e-016 -2.114700e-016 1.000000e+000
    outer loop
      vertex   -7.618113e+001 2.093477e+001 1.622838e+001
      vertex   -7.616113e+001 3.771485e+001 1.622838e+001
      vertex   -7.618113e+001 3.773485e+001 1.622838e+001
    endloop
  endfacet
  facet normal 1.181045e-016 -2.118628e-016 1.000000e+000
    outer loop
      vertex   -7.618113e+001 2.093477e+001 1.622838e+001
      vertex   -7.616113e+001 2.094592e+001 1.622838e+001
      vertex   -7.616113e+001 3.771485e+001 1.622838e+001
    endloop
  endfacet
  facet normal 3.625152e-017 -6.503011e-017 1.000000e+000
    outer loop
      vertex   -7.618113e+001 2.093477e+001 1.622838e+001
      vertex   -2.971199e+001 -7.792495e+000 1.622838e+001
      vertex   -7.616113e+001 2.094592e+001 1.622838e+001
    endloop
  endfacet
  facet normal -6.495967e-017 -2.286151e-016 1.000000e+000
    outer loop
      vertex   -7.616113e+001 2.094592e+001 1.622838e+001
      vertex   -2.971199e+001 -7.792495e+000 1.622838e+001
      vertex   -2.964161e+001 -7.812495e+000 1.622838e+001
    endloop
  endfacet
  facet normal -7.637038e-017 -2.687732e-016 1.000000e+000
    outer loop
      vertex   -2.964161e+001 -7.812495e+000 1.622838e+001
      vertex   -2.971199e+001 -7.792495e+000 1.622838e+001
      vertex   -7.616113e+001 -7.812495e+000 1.622838e+001
    endloop
  endfacet
  facet normal -7.645318e-017 -7.645318e-017 1.000000e+000
    outer loop
      vertex   -7.616113e+001 -7.812495e+000 1.622838e+001
      vertex   -2.971199e+001 -7.792495e+000 1.622838e+001
      vertex   -7.618113e+001 -7.792495e+000 1.622838e+001
    endloop
  endfacet
  facet normal -2.204037e-016 -2.204037e-016 1.000000e+000
    outer loop
      vertex   -7.618113e+001 -2.391162e+001 1.622838e+001
      vertex   -7.616113e+001 -7.812495e+000 1.622838e+001
      vertex   -7.618113e+001 -7.792495e+000 1.622838e+001
    endloop
  endfacet
  facet normal 2.209520e-016 -2.209520e-016 1.000000e+000
    outer loop
      vertex   -7.618113e+001 -2.391162e+001 1.622838e+001
      vertex   -7.616113e+001 -2.389162e+001 1.622838e+001
      vertex   -7.616113e+001 -7.812495e+000 1.622838e+001
    endloop
  endfacet
  facet normal -9.206171e-017 9.206171e-017 1.000000e+000
    outer loop
      vertex   -7.618113e+001 -2.391162e+001 1.622838e+001
      vertex   -3.759057e+001 -2.391162e+001 1.622838e+001
      vertex   -7.616113e+001 -2.389162e+001 1.622838e+001
    endloop
  endfacet
  facet normal -9.210945e-017 0.000000e+000 1.000000e+000
    outer loop
      vertex   -7.616113e+001 -2.389162e+001 1.622838e+001
      vertex   -3.759057e+001 -2.391162e+001 1.622838e+001
      vertex   -3.759057e+001 -2.389162e+001 1.622838e+001
    endloop
  endfacet
  facet normal -1.842189e-016 0.000000e+000 1.000000e+000
    outer loop
      vertex   -3.759057e+001 -2.389162e+001 1.622838e+001
      vertex   -3.759057e+001 -2.391162e+001 1.622838e+001
      vertex   9.800000e-001 -2.389162e+001 1.622838e+001
    endloop
  endfacet
  facet normal -1.841234e-016 -1.841234e-016 1.000000e+000
    outer loop
      vertex   9.800000e-001 -2.389162e+001 1.622838e+001
      vertex   -3.759057e+001 -2.391162e+001 1.622838e+001
      vertex   1.000000e+000 -2.391162e+001 1.622838e+001
    endloop
  endfacet
  facet normal -2.174081e-016 -2.174081e-016 1.000000e+000
    outer loop
      vertex   1.000000e+000 -7.570398e+000 1.622838e+001
      vertex   9.800000e-001 -2.389162e+001 1.622838e+001
      vertex   1.000000e+000 -2.391162e+001 1.622838e+001
    endloop
  endfacet
  facet normal 1.219801e-016 -2.178240e-016 1.000000e+000
    outer loop
      vertex   1.000000e+000 -7.570398e+000 1.622838e+001
      vertex   9.800000e-001 -7.581597e+000 1.622838e+001
      vertex   9.800000e-001 -2.389162e+001 1.622838e+001
    endloop
  endfacet
  facet normal 0.000000e+000 0.000000e+000 1.000000e+000
    outer loop
      vertex   1.000000e+000 -7.570398e+000 1.622838e+001
      vertex   -4.662203e+001 2.161573e+001 1.622838e+001
      vertex   9.800000e-001 -7.581597e+000 1.622838e+001
    endloop
  endfacet
  facet normal 0.000000e+000 0.000000e+000 1.000000e+000
    outer loop
      vertex   9.800000e-001 -7.581597e+000 1.622838e+001
      vertex   -4.662203e+001 2.161573e+001 1.622838e+001
      vertex   -4.669294e+001 2.163573e+001 1.622838e+001
    endloop
  endfacet
  facet normal -7.452265e-017 -2.642119e-016 1.000000e+000
    outer loop
      vertex   -4.669294e+001 2.163573e+001 1.622838e+001
      vertex   -4.662203e+001 2.161573e+001 1.622838e+001
      vertex   9.800000e-001 2.163573e+001 1.622838e+001
    endloop
  endfacet
  facet normal -7.460232e-017 -7.460232e-017 1.000000e+000
    outer loop
      vertex   9.800000e-001 2.163573e+001 1.622838e+001
      vertex   -4.662203e+001 2.161573e+001 1.622838e+001
      vertex   1.000000e+000 2.161573e+001 1.622838e+001
    endloop
  endfacet
  facet normal -4.419040e-016 -4.419040e-016 1.000000e+000
    outer loop
      vertex   9.800000e-001 3.771485e+001 1.622838e+001
      vertex   9.800000e-001 2.163573e+001 1.622838e+001
      vertex   1.000000e+000 2.161573e+001 1.622838e+001
    endloop
  endfacet
  facet normal 7.071068e-001 -1.358202e-016 7.071068e-001
    outer loop
      vertex   1.990000e+000 3.872485e+001 1.523838e+001
      vertex   1.000000e+000 3.773485e+001 1.622838e+001
      vertex   1.990000e+000 2.062573e+001 1.523838e+001
    endloop
  endfacet
  facet normal 7.071068e-001 -3.116979e-016 7.071068e-001
    outer loop
      vertex   1.990000e+000 2.062573e+001 1.523838e+001
      vertex   1.000000e+000 3.773485e+001 1.622838e+001
      vertex   1.000000e+000 2.161573e+001 1.622838e+001
    endloop
  endfacet
  facet normal 3.173461e-017 7.071068e-001 7.071068e-001
    outer loop
      vertex   1.990000e+000 3.872485e+001 1.523838e+001
      vertex   -3.759057e+001 3.872485e+001 1.523838e+001
      vertex   1.000000e+000 3.773485e+001 1.622838e+001
    endloop
  endfacet
  facet normal -1.315100e-016 7.071068e-001 7.071068e-001
    outer loop
      vertex   1.000000e+000 3.773485e+001 1.622838e+001
      vertex   -3.759057e+001 3.872485e+001 1.523838e+001
      vertex   -3.759057e+001 3.773485e+001 1.622838e+001
    endloop
  endfacet
  facet normal -1.952102e-016 7.071068e-001 7.071068e-001
    outer loop
      vertex   -3.759057e+001 3.773485e+001 1.622838e+001
      vertex   -3.759057e+001 3.872485e+001 1.523838e+001
      vertex   -7.618113e+001 3.773485e+001 1.622838e+001
    endloop
  endfacet
  facet normal -6.029577e-016 7.071068e-001 7.071068e-001
    outer loop
      vertex   -7.618113e+001 3.773485e+001 1.622838e+001
      vertex   -3.759057e+001 3.872485e+001 1.523838e+001
      vertex   -7.717113e+001 3.872485e+001 1.523838e+001
    endloop
  endfacet
  facet normal -5.161951e-017 -7.071068e-001 7.071068e-001
    outer loop
      vertex   -4.662203e+001 2.161573e+001 1.622838e+001
      vertex   -4.311209e+001 2.062573e+001 1.523838e+001
      vertex   1.000000e+000 2.161573e+001 1.622838e+001
    endloop
  endfacet
  facet normal -1.113983e-016 -7.071068e-001 7.071068e-001
    outer loop
      vertex   1.000000e+000 2.161573e+001 1.622838e+001
      vertex   -4.311209e+001 2.062573e+001 1.523838e+001
      vertex   1.990000e+000 2.062573e+001 1.523838e+001
    endloop
  endfacet
  facet normal -7.071068e-001 -1.369618e-016 7.071068e-001
    outer loop
      vertex   -7.717113e+001 3.872485e+001 1.523838e+001
      vertex   -7.717113e+001 2.038288e+001 1.523838e+001
      vertex   -7.618113e+001 3.773485e+001 1.622838e+001
    endloop
  endfacet
  facet normal -7.071068e-001 -1.463222e-016 7.071068e-001
    outer loop
      vertex   -7.618113e+001 3.773485e+001 1.622838e+001
      vertex   -7.717113e+001 2.038288e+001 1.523838e+001
      vertex   -7.618113e+001 2.093477e+001 1.622838e+001
    endloop
  endfacet
  facet normal 3.694927e-001 6.028890e-001 7.071068e-001
    outer loop
      vertex   -4.662203e+001 2.161573e+001 1.622838e+001
      vertex   1.000000e+000 -7.570398e+000 1.622838e+001
      vertex   -4.311209e+001 2.062573e+001 1.523838e+001
    endloop
  endfacet
  facet normal 3.694927e-001 6.028890e-001 7.071068e-001
    outer loop
      vertex   -4.311209e+001 2.062573e+001 1.523838e+001
      vertex   1.000000e+000 -7.570398e+000 1.622838e+001
      vertex   1.990000e+000 -7.016004e+000 1.523838e+001
    endloop
  endfacet
  facet normal -3.718206e-001 -6.014561e-001 7.071068e-001
    outer loop
      vertex   -7.717113e+001 2.038288e+001 1.523838e+001
      vertex   -3.319614e+001 -6.802495e+000 1.523838e+001
      vertex   -7.618113e+001 2.093477e+001 1.622838e+001
    endloop
  endfacet
  facet normal -3.718206e-001 -6.014561e-001 7.071068e-001
    outer loop
      vertex   -7.618113e+001 2.093477e+001 1.622838e+001
      vertex   -3.319614e+001 -6.802495e+000 1.523838e+001
      vertex   -2.971199e+001 -7.792495e+000 1.622838e+001
    endloop
  endfacet
  facet normal 7.071068e-001 -1.537308e-016 7.071068e-001
    outer loop
      vertex   1.000000e+000 -7.570398e+000 1.622838e+001
      vertex   1.000000e+000 -2.391162e+001 1.622838e+001
      vertex   1.990000e+000 -7.016004e+000 1.523838e+001
    endloop
  endfacet
  facet normal 7.071068e-001 -7.093755e-017 7.071068e-001
    outer loop
      vertex   1.990000e+000 -7.016004e+000 1.523838e+001
      vertex   1.000000e+000 -2.391162e+001 1.622838e+001
      vertex   1.990000e+000 -2.490162e+001 1.523838e+001
    endloop
  endfacet
  facet normal -9.416205e-017 -7.071068e-001 7.071068e-001
    outer loop
      vertex   1.990000e+000 -2.490162e+001 1.523838e+001
      vertex   1.000000e+000 -2.391162e+001 1.622838e+001
      vertex   -3.759057e+001 -2.490162e+001 1.523838e+001
    endloop
  endfacet
  facet normal -6.509746e-017 -7.071068e-001 7.071068e-001
    outer loop
      vertex   -3.759057e+001 -2.490162e+001 1.523838e+001
      vertex   1.000000e+000 -2.391162e+001 1.622838e+001
      vertex   -3.759057e+001 -2.391162e+001 1.622838e+001
    endloop
  endfacet
  facet normal -6.370017e-017 -7.071068e-001 7.071068e-001
    outer loop
      vertex   -7.618113e+001 -2.391162e+001 1.622838e+001
      vertex   -3.759057e+001 -2.490162e+001 1.523838e+001
      vertex   -3.759057e+001 -2.391162e+001 1.622838e+001
    endloop
  endfacet
  facet normal -3.173461e-017 -7.071068e-001 7.071068e-001
    outer loop
      vertex   -7.618113e+001 -2.391162e+001 1.622838e+001
      vertex   -7.717113e+001 -2.490162e+001 1.523838e+001
      vertex   -3.759057e+001 -2.490162e+001 1.523838e+001
    endloop
  endfacet
  facet normal -7.071068e-001 -1.387994e-016 7.071068e-001
    outer loop
      vertex   -7.717113e+001 -6.802495e+000 1.523838e+001
      vertex   -7.717113e+001 -2.490162e+001 1.523838e+001
      vertex   -7.618113e+001 -7.792495e+000 1.622838e+001
    endloop
  endfacet
  facet normal -7.071068e-001 -1.574232e-016 7.071068e-001
    outer loop
      vertex   -7.618113e+001 -7.792495e+000 1.622838e+001
      vertex   -7.717113e+001 -2.490162e+001 1.523838e+001
      vertex   -7.618113e+001 -2.391162e+001 1.622838e+001
    endloop
  endfacet
  facet normal -1.136043e-016 7.071068e-001 7.071068e-001
    outer loop
      vertex   -7.717113e+001 -6.802495e+000 1.523838e+001
      vertex   -7.618113e+001 -7.792495e+000 1.622838e+001
      vertex   -3.319614e+001 -6.802495e+000 1.523838e+001
    endloop
  endfacet
  facet normal -2.432725e-016 7.071068e-001 7.071068e-001
    outer loop
      vertex   -3.319614e+001 -6.802495e+000 1.523838e+001
      vertex   -7.618113e+001 -7.792495e+000 1.622838e+001
      vertex   -2.971199e+001 -7.792495e+000 1.622838e+001
    endloop
  endfacet
  facet normal -6.614809e-032 1.000000e+000 4.093859e-016
    outer loop
      vertex   -7.717113e+001 -6.802495e+000 1.523838e+001
      vertex   -3.319614e+001 -6.802495e+000 1.523838e+001
      vertex   -7.717113e+001 -6.802495e+000 5.161621e-002
    endloop
  endfacet
  facet normal -3.779891e-032 1.000000e+000 4.093859e-016
    outer loop
      vertex   -7.717113e+001 -6.802495e+000 5.161621e-002
      vertex   -3.319614e+001 -6.802495e+000 1.523838e+001
      vertex   -3.319614e+001 -6.802495e+000 5.161621e-002
    endloop
  endfacet
  facet normal -5.258338e-001 -8.505873e-001 2.895929e-016
    outer loop
      vertex   -3.319614e+001 -6.802495e+000 1.523838e+001
      vertex   -7.717113e+001 2.038288e+001 1.523838e+001
      vertex   -3.319614e+001 -6.802495e+000 5.161621e-002
    endloop
  endfacet
  facet normal -5.258338e-001 -8.505873e-001 -1.989820e-016
    outer loop
      vertex   -3.319614e+001 -6.802495e+000 5.161621e-002
      vertex   -7.717113e+001 2.038288e+001 1.523838e+001
      vertex   -7.717113e+001 2.038288e+001 5.161621e-002
    endloop
  endfacet
  facet normal -1.000000e+000 0.000000e+000 -0.000000e+000
    outer loop
      vertex   -7.717113e+001 2.038288e+001 1.523838e+001
      vertex   -7.717113e+001 3.872485e+001 1.523838e+001
      vertex   -7.717113e+001 2.038288e+001 5.161621e-002
    endloop
  endfacet
  facet normal -1.000000e+000 0.000000e+000 0.000000e+000
    outer loop
      vertex   -7.717113e+001 2.038288e+001 5.161621e-002
      vertex   -7.717113e+001 3.872485e+001 1.523838e+001
      vertex   -7.717113e+001 3.872485e+001 5.161621e-002
    endloop
  endfacet
  facet normal -7.180723e-016 1.000000e+000 0.000000e+000
    outer loop
      vertex   -7.717113e+001 3.872485e+001 1.523838e+001
      vertex   -3.759057e+001 3.872485e+001 1.523838e+001
      vertex   -7.717113e+001 3.872485e+001 5.161621e-002
    endloop
  endfacet
  facet normal -5.385542e-016 1.000000e+000 -4.678696e-016
    outer loop
      vertex   -7.717113e+001 3.872485e+001 5.161621e-002
      vertex   -3.759057e+001 3.872485e+001 1.523838e+001
      vertex   -3.759057e+001 3.872485e+001 5.161621e-002
    endloop
  endfacet
  facet normal 1.795181e-016 1.000000e+000 -4.678696e-016
    outer loop
      vertex   -3.759057e+001 3.872485e+001 5.161621e-002
      vertex   -3.759057e+001 3.872485e+001 1.523838e+001
      vertex   1.990000e+000 3.872485e+001 1.523838e+001
    endloop
  endfacet
  facet normal 0.000000e+000 1.000000e+000 -0.000000e+000
    outer loop
      vertex   1.990000e+000 3.872485e+001 5.161621e-002
      vertex   -3.759057e+001 3.872485e+001 5.161621e-002
      vertex   1.990000e+000 3.872485e+001 1.523838e+001
    endloop
  endfacet
  facet normal 1.000000e+000 1.147989e-031 -5.848370e-016
    outer loop
      vertex   1.990000e+000 3.872485e+001 1.523838e+001
      vertex   1.990000e+000 2.062573e+001 1.523838e+001
      vertex   1.990000e+000 3.872485e+001 5.161621e-002
    endloop
  endfacet
  facet normal 1.000000e+000 3.673564e-031 -5.848370e-016
    outer loop
      vertex   1.990000e+000 3.872485e+001 5.161621e-002
      vertex   1.990000e+000 2.062573e+001 1.523838e+001
      vertex   1.990000e+000 2.062573e+001 5.161621e-002
    endloop
  endfacet
  facet normal 0.000000e+000 -1.000000e+000 -0.000000e+000
    outer loop
      vertex   -1.000000e-002 3.672485e+001 1.523838e+001
      vertex   -3.759057e+001 3.672485e+001 1.523838e+001
      vertex   -1.000000e-002 3.672485e+001 5.161621e-002
    endloop
  endfacet
  facet normal -1.890719e-016 -1.000000e+000 -4.678696e-016
    outer loop
      vertex   -1.000000e-002 3.672485e+001 5.161621e-002
      vertex   -3.759057e+001 3.672485e+001 1.523838e+001
      vertex   -3.759057e+001 3.672485e+001 5.161621e-002
    endloop
  endfacet
  facet normal 1.890719e-016 -1.000000e+000 -4.678696e-016
    outer loop
      vertex   -3.759057e+001 3.672485e+001 5.161621e-002
      vertex   -3.759057e+001 3.672485e+001 1.523838e+001
      vertex   -7.517113e+001 3.672485e+001 1.523838e+001
    endloop
  endfacet
  facet normal 1.890719e-016 -1.000000e+000 -4.678696e-016
    outer loop
      vertex   -7.517113e+001 3.672485e+001 5.161621e-002
      vertex   -3.759057e+001 3.672485e+001 5.161621e-002
      vertex   -7.517113e+001 3.672485e+001 1.523838e+001
    endloop
  endfacet
  facet normal 1.000000e+000 0.000000e+000 0.000000e+000
    outer loop
      vertex   -7.517113e+001 3.672485e+001 1.523838e+001
      vertex   -7.517113e+001 2.149780e+001 1.523838e+001
      vertex   -7.517113e+001 3.672485e+001 5.161621e-002
    endloop
  endfacet
  facet normal 1.000000e+000 0.000000e+000 0.000000e+000
    outer loop
      vertex   -7.517113e+001 3.672485e+001 5.161621e-002
      vertex   -7.517113e+001 2.149780e+001 1.523838e+001
      vertex   -7.517113e+001 2.149780e+001 5.161621e-002
    endloop
  endfacet
  facet normal 5.258338e-001 8.505873e-001 1.989820e-016
    outer loop
      vertex   -7.517113e+001 2.149780e+001 5.161621e-002
      vertex   -7.517113e+001 2.149780e+001 1.523838e+001
      vertex   -5.066430e+001 6.347651e+000 5.161621e-002
    endloop
  endfacet
  facet normal 5.258338e-001 8.505873e-001 2.598224e-016
    outer loop
      vertex   -5.066430e+001 6.347651e+000 5.161621e-002
      vertex   -7.517113e+001 2.149780e+001 1.523838e+001
      vertex   -5.066430e+001 6.347651e+000 1.523838e+001
    endloop
  endfacet
  facet normal 5.258338e-001 8.505873e-001 3.455127e-016
    outer loop
      vertex   -2.615746e+001 -8.802495e+000 1.523838e+001
      vertex   -5.066430e+001 6.347651e+000 5.161621e-002
      vertex   -5.066430e+001 6.347651e+000 1.523838e+001
    endloop
  endfacet
  facet normal 5.258338e-001 8.505873e-001 3.979640e-016
    outer loop
      vertex   -2.615746e+001 -8.802495e+000 1.523838e+001
      vertex   -2.615746e+001 -8.802495e+000 5.161621e-002
      vertex   -5.066430e+001 6.347651e+000 5.161621e-002
    endloop
  endfacet
  facet normal 8.478282e-032 -1.000000e+000 -4.678696e-016
    outer loop
      vertex   -2.615746e+001 -8.802495e+000 1.523838e+001
      vertex   -7.517113e+001 -8.802495e+000 1.523838e+001
      vertex   -2.615746e+001 -8.802495e+000 5.161621e-002
    endloop
  endfacet
  facet normal 6.782625e-032 -1.000000e+000 -4.678696e-016
    outer loop
      vertex   -2.615746e+001 -8.802495e+000 5.161621e-002
      vertex   -7.517113e+001 -8.802495e+000 1.523838e+001
      vertex   -7.517113e+001 -8.802495e+000 5.161621e-002
    endloop
  endfacet
  facet normal 3.685432e-032 -1.000000e+000 -2.339348e-016
    outer loop
      vertex   1.990000e+000 2.062573e+001 1.523838e+001
      vertex   -4.311209e+001 2.062573e+001 1.523838e+001
      vertex   1.990000e+000 2.062573e+001 5.161621e-002
    endloop
  endfacet
  facet normal 1.842716e-032 -1.000000e+000 -2.339348e-016
    outer loop
      vertex   1.990000e+000 2.062573e+001 5.161621e-002
      vertex   -4.311209e+001 2.062573e+001 1.523838e+001
      vertex   -4.311209e+001 2.062573e+001 5.161621e-002
    endloop
  endfacet
  facet normal 5.225416e-001 8.526138e-001 -2.830287e-016
    outer loop
      vertex   -4.311209e+001 2.062573e+001 1.523838e+001
      vertex   1.990000e+000 -7.016004e+000 1.523838e+001
      vertex   -4.311209e+001 2.062573e+001 5.161621e-002
    endloop
  endfacet
  facet normal 5.225416e-001 8.526138e-001 5.919505e-016
    outer loop
      vertex   -4.311209e+001 2.062573e+001 5.161621e-002
      vertex   1.990000e+000 -7.016004e+000 1.523838e+001
      vertex   1.990000e+000 -7.016004e+000 5.161621e-002
    endloop
  endfacet
  facet normal 1.000000e+000 5.808464e-032 -5.848370e-016
    outer loop
      vertex   1.990000e+000 -7.016004e+000 1.523838e+001
      vertex   1.990000e+000 -2.490162e+001 1.523838e+001
      vertex   1.990000e+000 -7.016004e+000 5.161621e-002
    endloop
  endfacet
  facet normal 1.000000e+000 1.858708e-031 -5.848370e-016
    outer loop
      vertex   1.990000e+000 -7.016004e+000 5.161621e-002
      vertex   1.990000e+000 -2.490162e+001 1.523838e+001
      vertex   1.990000e+000 -2.490162e+001 5.161621e-002
    endloop
  endfacet
  facet normal 9.448994e-032 -1.000000e+000 -7.018044e-016
    outer loop
      vertex   1.990000e+000 -2.490162e+001 1.523838e+001
      vertex   -3.759057e+001 -2.490162e+001 1.523838e+001
      vertex   1.990000e+000 -2.490162e+001 5.161621e-002
    endloop
  endfacet
  facet normal 1.795181e-016 -1.000000e+000 -2.339348e-016
    outer loop
      vertex   1.990000e+000 -2.490162e+001 5.161621e-002
      vertex   -3.759057e+001 -2.490162e+001 1.523838e+001
      vertex   -3.759057e+001 -2.490162e+001 5.161621e-002
    endloop
  endfacet
  facet normal 8.975904e-017 -1.000000e+000 -2.339348e-016
    outer loop
      vertex   -3.759057e+001 -2.490162e+001 5.161621e-002
      vertex   -3.759057e+001 -2.490162e+001 1.523838e+001
      vertex   -7.717113e+001 -2.490162e+001 1.523838e+001
    endloop
  endfacet
  facet normal 5.151014e-032 -1.000000e+000 -4.678696e-016
    outer loop
      vertex   -7.717113e+001 -2.490162e+001 5.161621e-002
      vertex   -3.759057e+001 -2.490162e+001 5.161621e-002
      vertex   -7.717113e+001 -2.490162e+001 1.523838e+001
    endloop
  endfacet
  facet normal 1.000000e+000 0.000000e+000 0.000000e+000
    outer loop
      vertex   -7.517113e+001 -8.802495e+000 1.523838e+001
      vertex   -7.517113e+001 -2.290162e+001 1.523838e+001
      vertex   -7.517113e+001 -8.802495e+000 5.161621e-002
    endloop
  endfacet
  facet normal 1.000000e+000 0.000000e+000 0.000000e+000
    outer loop
      vertex   -7.517113e+001 -8.802495e+000 5.161621e-002
      vertex   -7.517113e+001 -2.290162e+001 1.523838e+001
      vertex   -7.517113e+001 -2.290162e+001 5.161621e-002
    endloop
  endfacet
  facet normal -1.000000e+000 0.000000e+000 -0.000000e+000
    outer loop
      vertex   -7.717113e+001 -2.490162e+001 1.523838e+001
      vertex   -7.717113e+001 -6.802495e+000 1.523838e+001
      vertex   -7.717113e+001 -2.490162e+001 5.161621e-002
    endloop
  endfacet
  facet normal -1.000000e+000 0.000000e+000 0.000000e+000
    outer loop
      vertex   -7.717113e+001 -2.490162e+001 5.161621e-002
      vertex   -7.717113e+001 -6.802495e+000 1.523838e+001
      vertex   -7.717113e+001 -6.802495e+000 5.161621e-002
    endloop
  endfacet
  facet normal -3.149765e-016 3.149765e-016 -1.000000e+000
    outer loop
      vertex   -7.517113e+001 -2.290162e+001 5.161621e-002
      vertex   -7.717113e+001 -2.490162e+001 5.161621e-002
      vertex   -7.517113e+001 -8.802495e+000 5.161621e-002
    endloop
  endfacet
  facet normal 1.100951e-016 -1.100951e-016 -1.000000e+000
    outer loop
      vertex   -7.517113e+001 -2.290162e+001 5.161621e-002
      vertex   -3.759057e+001 -2.490162e+001 5.161621e-002
      vertex   -7.717113e+001 -2.490162e+001 5.161621e-002
    endloop
  endfacet
  facet normal 1.224166e-016 1.214306e-016 -1.000000e+000
    outer loop
      vertex   -7.517113e+001 -2.290162e+001 5.161621e-002
      vertex   -3.759057e+001 -2.290162e+001 5.161621e-002
      vertex   -3.759057e+001 -2.490162e+001 5.161621e-002
    endloop
  endfacet
  facet normal 1.139232e-016 1.214306e-016 -1.000000e+000
    outer loop
      vertex   -3.759057e+001 -2.490162e+001 5.161621e-002
      vertex   -3.759057e+001 -2.290162e+001 5.161621e-002
      vertex   -1.000000e-002 -2.290162e+001 5.161621e-002
    endloop
  endfacet
  facet normal 4.965882e-016 4.965882e-016 -1.000000e+000
    outer loop
      vertex   1.990000e+000 -2.490162e+001 5.161621e-002
      vertex   -1.000000e-002 -2.290162e+001 5.161621e-002
      vertex   1.990000e+000 -7.016004e+000 5.161621e-002
    endloop
  endfacet
  facet normal 1.143025e-016 1.143025e-016 -1.000000e+000
    outer loop
      vertex   1.990000e+000 -2.490162e+001 5.161621e-002
      vertex   -3.759057e+001 -2.490162e+001 5.161621e-002
      vertex   -1.000000e-002 -2.290162e+001 5.161621e-002
    endloop
  endfacet
  facet normal 2.052023e-015 3.007588e-016 -1.000000e+000
    outer loop
      vertex   -1.000000e-002 -2.290162e+001 5.161621e-002
      vertex   -1.000000e-002 -8.135991e+000 5.161621e-002
      vertex   1.990000e+000 -7.016004e+000 5.161621e-002
    endloop
  endfacet
  facet normal 1.088857e-015 2.020717e-015 -1.000000e+000
    outer loop
      vertex   1.990000e+000 -7.016004e+000 5.161621e-002
      vertex   -1.000000e-002 -8.135991e+000 5.161621e-002
      vertex   -2.510644e+001 7.244868e+000 5.161621e-002
    endloop
  endfacet
  facet normal -3.304907e-016 -6.149520e-017 -1.000000e+000
    outer loop
      vertex   -4.311209e+001 2.062573e+001 5.161621e-002
      vertex   -2.510644e+001 7.244868e+000 5.161621e-002
      vertex   -5.020287e+001 2.262573e+001 5.161621e-002
    endloop
  endfacet
  facet normal 1.327148e-016 1.580749e-015 -1.000000e+000
    outer loop
      vertex   -1.000000e-002 2.262573e+001 5.161621e-002
      vertex   -4.311209e+001 2.062573e+001 5.161621e-002
      vertex   -5.020287e+001 2.262573e+001 5.161621e-002
    endloop
  endfacet
  facet normal 9.846311e-017 2.318909e-015 -1.000000e+000
    outer loop
      vertex   -1.000000e-002 2.262573e+001 5.161621e-002
      vertex   1.990000e+000 2.062573e+001 5.161621e-002
      vertex   -4.311209e+001 2.062573e+001 5.161621e-002
    endloop
  endfacet
  facet normal -1.905470e-015 3.149765e-016 -1.000000e+000
    outer loop
      vertex   -1.000000e-002 2.262573e+001 5.161621e-002
      vertex   -1.000000e-002 3.672485e+001 5.161621e-002
      vertex   1.990000e+000 2.062573e+001 5.161621e-002
    endloop
  endfacet
  facet normal -4.907301e-016 4.907301e-016 -1.000000e+000
    outer loop
      vertex   1.990000e+000 2.062573e+001 5.161621e-002
      vertex   -1.000000e-002 3.672485e+001 5.161621e-002
      vertex   1.990000e+000 3.872485e+001 5.161621e-002
    endloop
  endfacet
  facet normal 1.100951e-016 -1.100951e-016 -1.000000e+000
    outer loop
      vertex   1.990000e+000 3.872485e+001 5.161621e-002
      vertex   -1.000000e-002 3.672485e+001 5.161621e-002
      vertex   -3.759057e+001 3.872485e+001 5.161621e-002
    endloop
  endfacet
  facet normal 1.224166e-016 1.214306e-016 -1.000000e+000
    outer loop
      vertex   -3.759057e+001 3.872485e+001 5.161621e-002
      vertex   -1.000000e-002 3.672485e+001 5.161621e-002
      vertex   -3.759057e+001 3.672485e+001 5.161621e-002
    endloop
  endfacet
  facet normal 1.139232e-016 1.214306e-016 -1.000000e+000
    outer loop
      vertex   -7.517113e+001 3.672485e+001 5.161621e-002
      vertex   -3.759057e+001 3.872485e+001 5.161621e-002
      vertex   -3.759057e+001 3.672485e+001 5.161621e-002
    endloop
  endfacet
  facet normal 1.143025e-016 1.143025e-016 -1.000000e+000
    outer loop
      vertex   -7.517113e+001 3.672485e+001 5.161621e-002
      vertex   -7.717113e+001 3.872485e+001 5.161621e-002
      vertex   -3.759057e+001 3.872485e+001 5.161621e-002
    endloop
  endfacet
  facet normal 4.842330e-016 4.842330e-016 -1.000000e+000
    outer loop
      vertex   -7.517113e+001 3.672485e+001 5.161621e-002
      vertex   -7.717113e+001 2.038288e+001 5.161621e-002
      vertex   -7.717113e+001 3.872485e+001 5.161621e-002
    endloop
  endfacet
  facet normal -3.251592e-016 5.832899e-016 -1.000000e+000
    outer loop
      vertex   -7.517113e+001 3.672485e+001 5.161621e-002
      vertex   -7.517113e+001 2.149780e+001 5.161621e-002
      vertex   -7.717113e+001 2.038288e+001 5.161621e-002
    endloop
  endfacet
  facet normal -7.209545e-017 1.293291e-016 -1.000000e+000
    outer loop
      vertex   -7.717113e+001 2.038288e+001 5.161621e-002
      vertex   -7.517113e+001 2.149780e+001 5.161621e-002
      vertex   -5.066430e+001 6.347651e+000 5.161621e-002
    endloop
  endfacet
  facet normal -4.819190e-016 -5.858134e-016 -1.000000e+000
    outer loop
      vertex   -3.319614e+001 -6.802495e+000 5.161621e-002
      vertex   -5.066430e+001 6.347651e+000 5.161621e-002
      vertex   -2.615746e+001 -8.802495e+000 5.161621e-002
    endloop
  endfacet
  facet normal 1.359078e-016 1.588528e-015 -1.000000e+000
    outer loop
      vertex   -7.517113e+001 -8.802495e+000 5.161621e-002
      vertex   -3.319614e+001 -6.802495e+000 5.161621e-002
      vertex   -2.615746e+001 -8.802495e+000 5.161621e-002
    endloop
  endfacet
  facet normal 1.009868e-016 2.321433e-015 -1.000000e+000
    outer loop
      vertex   -7.517113e+001 -8.802495e+000 5.161621e-002
      vertex   -7.717113e+001 -6.802495e+000 5.161621e-002
      vertex   -3.319614e+001 -6.802495e+000 5.161621e-002
    endloop
  endfacet
  facet normal -1.729716e-015 4.907301e-016 -1.000000e+000
    outer loop
      vertex   -7.517113e+001 -8.802495e+000 5.161621e-002
      vertex   -7.717113e+001 -2.490162e+001 5.161621e-002
      vertex   -7.717113e+001 -6.802495e+000 5.161621e-002
    endloop
  endfacet
  facet normal 7.780874e-016 1.430238e-015 -1.000000e+000
    outer loop
      vertex   1.990000e+000 -7.016004e+000 5.161621e-002
      vertex   -2.510644e+001 7.244868e+000 5.161621e-002
      vertex   -4.311209e+001 2.062573e+001 5.161621e-002
    endloop
  endfacet
  facet normal -3.768777e-016 -4.462805e-016 -1.000000e+000
    outer loop
      vertex   -7.717113e+001 2.038288e+001 5.161621e-002
      vertex   -5.066430e+001 6.347651e+000 5.161621e-002
      vertex   -3.319614e+001 -6.802495e+000 5.161621e-002
    endloop
  endfacet
endsolid
