solid ascii
  facet normal -7.071068e-001 2.240020e-016 7.071068e-001
    outer loop
      vertex   -6.146629e+001 3.829175e+001 1.656275e+001
      vertex   -6.245629e+001 3.730175e+001 1.557275e+001
      vertex   -6.146629e+001 1.598951e+001 1.656275e+001
    endloop
  endfacet
  facet normal -7.071068e-001 1.126410e-016 7.071068e-001
    outer loop
      vertex   -6.146629e+001 1.598951e+001 1.656275e+001
      vertex   -6.245629e+001 3.730175e+001 1.557275e+001
      vertex   -6.245629e+001 1.499951e+001 1.557275e+001
    endloop
  endfacet
  facet normal 7.071068e-001 1.628383e-016 7.071068e-001
    outer loop
      vertex   -7.616113e+001 3.829175e+001 1.656275e+001
      vertex   -7.616113e+001 7.437251e+000 1.656275e+001
      vertex   -7.517113e+001 3.730175e+001 1.557275e+001
    endloop
  endfacet
  facet normal 7.071068e-001 1.699357e-016 7.071068e-001
    outer loop
      vertex   -7.517113e+001 3.730175e+001 1.557275e+001
      vertex   -7.616113e+001 7.437251e+000 1.656275e+001
      vertex   -7.517113e+001 7.437251e+000 1.557275e+001
    endloop
  endfacet
  facet normal 7.071068e-001 1.672805e-016 7.071068e-001
    outer loop
      vertex   -7.517113e+001 7.437251e+000 1.557275e+001
      vertex   -7.616113e+001 7.437251e+000 1.656275e+001
      vertex   -7.517113e+001 -2.242725e+001 1.557275e+001
    endloop
  endfacet
  facet normal 7.071068e-001 1.628383e-016 7.071068e-001
    outer loop
      vertex   -7.517113e+001 -2.242725e+001 1.557275e+001
      vertex   -7.616113e+001 7.437251e+000 1.656275e+001
      vertex   -7.616113e+001 -2.341725e+001 1.656275e+001
    endloop
  endfacet
  facet normal 0.000000e+000 7.071068e-001 7.071068e-001
    outer loop
      vertex   -6.245629e+001 -2.242725e+001 1.557275e+001
      vertex   -7.517113e+001 -2.242725e+001 1.557275e+001
      vertex   -6.146629e+001 -2.341725e+001 1.656275e+001
    endloop
  endfacet
  facet normal 0.000000e+000 7.071068e-001 7.071068e-001
    outer loop
      vertex   -6.146629e+001 -2.341725e+001 1.656275e+001
      vertex   -7.517113e+001 -2.242725e+001 1.557275e+001
      vertex   -7.616113e+001 -2.341725e+001 1.656275e+001
    endloop
  endfacet
  facet normal -7.071068e-001 1.693509e-016 7.071068e-001
    outer loop
      vertex   -6.245629e+001 -1.762744e-001 1.557275e+001
      vertex   -6.245629e+001 -2.242725e+001 1.557275e+001
      vertex   -6.146629e+001 -1.166274e+000 1.656275e+001
    endloop
  endfacet
  facet normal -7.071068e-001 1.140410e-016 7.071068e-001
    outer loop
      vertex   -6.146629e+001 -1.166274e+000 1.656275e+001
      vertex   -6.245629e+001 -2.242725e+001 1.557275e+001
      vertex   -6.146629e+001 -2.341725e+001 1.656275e+001
    endloop
  endfacet
  facet normal -3.419088e-016 -7.071068e-001 7.071068e-001
    outer loop
      vertex   -6.146629e+001 3.829175e+001 1.656275e+001
      vertex   -7.616113e+001 3.829175e+001 1.656275e+001
      vertex   -6.245629e+001 3.730175e+001 1.557275e+001
    endloop
  endfacet
  facet normal -3.991434e-016 -7.071068e-001 7.071068e-001
    outer loop
      vertex   -6.245629e+001 3.730175e+001 1.557275e+001
      vertex   -7.616113e+001 3.829175e+001 1.656275e+001
      vertex   -7.517113e+001 3.730175e+001 1.557275e+001
    endloop
  endfacet
  facet normal -5.079411e-017 7.071068e-001 7.071068e-001
    outer loop
      vertex   9.800000e-001 -1.166274e+000 1.656275e+001
      vertex   -1.000000e-002 -1.762744e-001 1.557275e+001
      vertex   -3.024314e+001 -1.166274e+000 1.656275e+001
    endloop
  endfacet
  facet normal -5.154333e-017 7.071068e-001 7.071068e-001
    outer loop
      vertex   -3.024314e+001 -1.166274e+000 1.656275e+001
      vertex   -1.000000e-002 -1.762744e-001 1.557275e+001
      vertex   -3.123314e+001 -1.762744e-001 1.557275e+001
    endloop
  endfacet
  facet normal 5.154333e-017 7.071068e-001 7.071068e-001
    outer loop
      vertex   -6.146629e+001 -1.166274e+000 1.656275e+001
      vertex   -3.123314e+001 -1.762744e-001 1.557275e+001
      vertex   -6.245629e+001 -1.762744e-001 1.557275e+001
    endloop
  endfacet
  facet normal -5.531479e-017 7.071068e-001 7.071068e-001
    outer loop
      vertex   -6.146629e+001 -1.166274e+000 1.656275e+001
      vertex   -3.024314e+001 -1.166274e+000 1.656275e+001
      vertex   -3.123314e+001 -1.762744e-001 1.557275e+001
    endloop
  endfacet
  facet normal -7.071068e-001 2.455878e-016 7.071068e-001
    outer loop
      vertex   -1.000000e-002 -1.762744e-001 1.557275e+001
      vertex   9.800000e-001 -1.166274e+000 1.656275e+001
      vertex   -1.000000e-002 1.499951e+001 1.557275e+001
    endloop
  endfacet
  facet normal -7.071068e-001 1.052477e-016 7.071068e-001
    outer loop
      vertex   -1.000000e-002 1.499951e+001 1.557275e+001
      vertex   9.800000e-001 -1.166274e+000 1.656275e+001
      vertex   9.800000e-001 1.598951e+001 1.656275e+001
    endloop
  endfacet
  facet normal 4.022894e-017 -7.071068e-001 7.071068e-001
    outer loop
      vertex   -6.245629e+001 1.499951e+001 1.557275e+001
      vertex   -3.123314e+001 1.499951e+001 1.557275e+001
      vertex   -6.146629e+001 1.598951e+001 1.656275e+001
    endloop
  endfacet
  facet normal 8.127058e-017 -7.071068e-001 7.071068e-001
    outer loop
      vertex   -6.146629e+001 1.598951e+001 1.656275e+001
      vertex   -3.123314e+001 1.499951e+001 1.557275e+001
      vertex   -3.024314e+001 1.598951e+001 1.656275e+001
    endloop
  endfacet
  facet normal 8.045788e-017 -7.071068e-001 7.071068e-001
    outer loop
      vertex   -3.024314e+001 1.598951e+001 1.656275e+001
      vertex   -3.123314e+001 1.499951e+001 1.557275e+001
      vertex   -1.000000e-002 1.499951e+001 1.557275e+001
    endloop
  endfacet
  facet normal 0.000000e+000 -7.071068e-001 7.071068e-001
    outer loop
      vertex   9.800000e-001 1.598951e+001 1.656275e+001
      vertex   -3.024314e+001 1.598951e+001 1.656275e+001
      vertex   -1.000000e-002 1.499951e+001 1.557275e+001
    endloop
  endfacet
  facet normal 1.137846e-016 -1.000000e+000 5.026655e-016
    outer loop
      vertex   -1.000000e-002 1.499951e+001 1.557275e+001
      vertex   -3.123314e+001 1.499951e+001 1.557275e+001
      vertex   -1.000000e-002 1.499951e+001 1.437251e+000
    endloop
  endfacet
  facet normal 5.689231e-017 -1.000000e+000 3.769991e-016
    outer loop
      vertex   -1.000000e-002 1.499951e+001 1.437251e+000
      vertex   -3.123314e+001 1.499951e+001 1.557275e+001
      vertex   -3.123314e+001 1.499951e+001 1.437251e+000
    endloop
  endfacet
  facet normal 5.689231e-017 -1.000000e+000 3.769991e-016
    outer loop
      vertex   -3.123314e+001 1.499951e+001 1.437251e+000
      vertex   -3.123314e+001 1.499951e+001 1.557275e+001
      vertex   -6.245629e+001 1.499951e+001 1.557275e+001
    endloop
  endfacet
  facet normal 1.137846e-016 -1.000000e+000 5.026655e-016
    outer loop
      vertex   -6.245629e+001 1.499951e+001 1.437251e+000
      vertex   -3.123314e+001 1.499951e+001 1.437251e+000
      vertex   -6.245629e+001 1.499951e+001 1.557275e+001
    endloop
  endfacet
  facet normal -1.000000e+000 0.000000e+000 -0.000000e+000
    outer loop
      vertex   -6.245629e+001 1.499951e+001 1.557275e+001
      vertex   -6.245629e+001 3.730175e+001 1.557275e+001
      vertex   -6.245629e+001 1.499951e+001 1.437251e+000
    endloop
  endfacet
  facet normal -1.000000e+000 0.000000e+000 0.000000e+000
    outer loop
      vertex   -6.245629e+001 1.499951e+001 1.437251e+000
      vertex   -6.245629e+001 3.730175e+001 1.557275e+001
      vertex   -6.245629e+001 3.730175e+001 1.437251e+000
    endloop
  endfacet
  facet normal -5.588293e-016 -1.000000e+000 0.000000e+000
    outer loop
      vertex   -6.245629e+001 3.730175e+001 1.557275e+001
      vertex   -7.517113e+001 3.730175e+001 1.557275e+001
      vertex   -6.245629e+001 3.730175e+001 1.437251e+000
    endloop
  endfacet
  facet normal 0.000000e+000 -1.000000e+000 5.026655e-016
    outer loop
      vertex   -6.245629e+001 3.730175e+001 1.437251e+000
      vertex   -7.517113e+001 3.730175e+001 1.557275e+001
      vertex   -7.517113e+001 3.730175e+001 1.437251e+000
    endloop
  endfacet
  facet normal 1.000000e+000 0.000000e+000 -0.000000e+000
    outer loop
      vertex   -7.517113e+001 3.730175e+001 1.437251e+000
      vertex   -7.517113e+001 3.730175e+001 1.557275e+001
      vertex   -7.517113e+001 7.437251e+000 1.437251e+000
    endloop
  endfacet
  facet normal 1.000000e+000 0.000000e+000 -0.000000e+000
    outer loop
      vertex   -7.517113e+001 7.437251e+000 1.437251e+000
      vertex   -7.517113e+001 3.730175e+001 1.557275e+001
      vertex   -7.517113e+001 7.437251e+000 1.557275e+001
    endloop
  endfacet
  facet normal 1.000000e+000 -0.000000e+000 0.000000e+000
    outer loop
      vertex   -7.517113e+001 -2.242725e+001 1.557275e+001
      vertex   -7.517113e+001 7.437251e+000 1.437251e+000
      vertex   -7.517113e+001 7.437251e+000 1.557275e+001
    endloop
  endfacet
  facet normal 1.000000e+000 0.000000e+000 0.000000e+000
    outer loop
      vertex   -7.517113e+001 -2.242725e+001 1.557275e+001
      vertex   -7.517113e+001 -2.242725e+001 1.437251e+000
      vertex   -7.517113e+001 7.437251e+000 1.437251e+000
    endloop
  endfacet
  facet normal 2.301390e-016 2.301390e-016 1.000000e+000
    outer loop
      vertex   -7.618113e+001 7.437251e+000 1.656275e+001
      vertex   -7.616113e+001 3.829175e+001 1.656275e+001
      vertex   -7.618113e+001 3.831175e+001 1.656275e+001
    endloop
  endfacet
  facet normal -4.090740e-029 2.302882e-016 1.000000e+000
    outer loop
      vertex   -7.618113e+001 7.437251e+000 1.656275e+001
      vertex   -7.616113e+001 7.437251e+000 1.656275e+001
      vertex   -7.616113e+001 3.829175e+001 1.656275e+001
    endloop
  endfacet
  facet normal -4.090740e-029 2.302882e-016 1.000000e+000
    outer loop
      vertex   -7.618113e+001 7.437251e+000 1.656275e+001
      vertex   -7.616113e+001 -2.341725e+001 1.656275e+001
      vertex   -7.616113e+001 7.437251e+000 1.656275e+001
    endloop
  endfacet
  facet normal -2.301390e-016 2.301390e-016 1.000000e+000
    outer loop
      vertex   -7.618113e+001 7.437251e+000 1.656275e+001
      vertex   -7.618113e+001 -2.343725e+001 1.656275e+001
      vertex   -7.616113e+001 -2.341725e+001 1.656275e+001
    endloop
  endfacet
  facet normal -0.000000e+000 0.000000e+000 1.000000e+000
    outer loop
      vertex   -7.616113e+001 -2.341725e+001 1.656275e+001
      vertex   -7.618113e+001 -2.343725e+001 1.656275e+001
      vertex   -6.144629e+001 -2.343725e+001 1.656275e+001
    endloop
  endfacet
  facet normal 1.596655e-016 1.596655e-016 1.000000e+000
    outer loop
      vertex   -6.146629e+001 -2.341725e+001 1.656275e+001
      vertex   -6.144629e+001 -2.343725e+001 1.656275e+001
      vertex   -6.144629e+001 -1.186274e+000 1.656275e+001
    endloop
  endfacet
  facet normal -0.000000e+000 0.000000e+000 1.000000e+000
    outer loop
      vertex   -6.146629e+001 -1.166274e+000 1.656275e+001
      vertex   -6.144629e+001 -1.186274e+000 1.656275e+001
      vertex   -3.024314e+001 -1.166274e+000 1.656275e+001
    endloop
  endfacet
  facet normal 1.596655e-016 1.596655e-016 1.000000e+000
    outer loop
      vertex   -6.146629e+001 -1.166274e+000 1.656275e+001
      vertex   -6.146629e+001 -2.341725e+001 1.656275e+001
      vertex   -6.144629e+001 -1.186274e+000 1.656275e+001
    endloop
  endfacet
  facet normal -0.000000e+000 -0.000000e+000 1.000000e+000
    outer loop
      vertex   -7.616113e+001 -2.341725e+001 1.656275e+001
      vertex   -6.144629e+001 -2.343725e+001 1.656275e+001
      vertex   -6.146629e+001 -2.341725e+001 1.656275e+001
    endloop
  endfacet
  facet normal 0.000000e+000 -0.000000e+000 1.000000e+000
    outer loop
      vertex   -6.144629e+001 -1.186274e+000 1.656275e+001
      vertex   -3.022314e+001 -1.186274e+000 1.656275e+001
      vertex   -3.024314e+001 -1.166274e+000 1.656275e+001
    endloop
  endfacet
  facet normal -0.000000e+000 0.000000e+000 1.000000e+000
    outer loop
      vertex   -3.024314e+001 -1.166274e+000 1.656275e+001
      vertex   -3.022314e+001 -1.186274e+000 1.656275e+001
      vertex   9.800000e-001 -1.166274e+000 1.656275e+001
    endloop
  endfacet
  facet normal -0.000000e+000 0.000000e+000 1.000000e+000
    outer loop
      vertex   9.800000e-001 -1.166274e+000 1.656275e+001
      vertex   -3.022314e+001 -1.186274e+000 1.656275e+001
      vertex   1.000000e+000 -1.186274e+000 1.656275e+001
    endloop
  endfacet
  facet normal 2.066038e-016 2.066038e-016 1.000000e+000
    outer loop
      vertex   1.000000e+000 1.600951e+001 1.656275e+001
      vertex   9.800000e-001 -1.166274e+000 1.656275e+001
      vertex   1.000000e+000 -1.186274e+000 1.656275e+001
    endloop
  endfacet
  facet normal -2.070855e-016 2.070855e-016 1.000000e+000
    outer loop
      vertex   1.000000e+000 1.600951e+001 1.656275e+001
      vertex   9.800000e-001 1.598951e+001 1.656275e+001
      vertex   9.800000e-001 -1.166274e+000 1.656275e+001
    endloop
  endfacet
  facet normal 0.000000e+000 0.000000e+000 1.000000e+000
    outer loop
      vertex   1.000000e+000 1.600951e+001 1.656275e+001
      vertex   -3.022314e+001 1.600951e+001 1.656275e+001
      vertex   9.800000e-001 1.598951e+001 1.656275e+001
    endloop
  endfacet
  facet normal 0.000000e+000 0.000000e+000 1.000000e+000
    outer loop
      vertex   9.800000e-001 1.598951e+001 1.656275e+001
      vertex   -3.022314e+001 1.600951e+001 1.656275e+001
      vertex   -3.024314e+001 1.598951e+001 1.656275e+001
    endloop
  endfacet
  facet normal 0.000000e+000 -0.000000e+000 1.000000e+000
    outer loop
      vertex   -3.024314e+001 1.598951e+001 1.656275e+001
      vertex   -3.022314e+001 1.600951e+001 1.656275e+001
      vertex   -6.144629e+001 1.600951e+001 1.656275e+001
    endloop
  endfacet
  facet normal -3.185969e-016 3.185969e-016 1.000000e+000
    outer loop
      vertex   -6.146629e+001 1.598951e+001 1.656275e+001
      vertex   -6.144629e+001 1.600951e+001 1.656275e+001
      vertex   -6.146629e+001 3.829175e+001 1.656275e+001
    endloop
  endfacet
  facet normal 0.000000e+000 -0.000000e+000 1.000000e+000
    outer loop
      vertex   -6.146629e+001 1.598951e+001 1.656275e+001
      vertex   -3.024314e+001 1.598951e+001 1.656275e+001
      vertex   -6.144629e+001 1.600951e+001 1.656275e+001
    endloop
  endfacet
  facet normal -3.185969e-016 3.185969e-016 1.000000e+000
    outer loop
      vertex   -6.144629e+001 1.600951e+001 1.656275e+001
      vertex   -6.144629e+001 3.831175e+001 1.656275e+001
      vertex   -6.146629e+001 3.829175e+001 1.656275e+001
    endloop
  endfacet
  facet normal 0.000000e+000 -0.000000e+000 1.000000e+000
    outer loop
      vertex   -6.146629e+001 3.829175e+001 1.656275e+001
      vertex   -6.144629e+001 3.831175e+001 1.656275e+001
      vertex   -7.618113e+001 3.831175e+001 1.656275e+001
    endloop
  endfacet
  facet normal -0.000000e+000 -0.000000e+000 1.000000e+000
    outer loop
      vertex   -7.616113e+001 3.829175e+001 1.656275e+001
      vertex   -6.146629e+001 3.829175e+001 1.656275e+001
      vertex   -7.618113e+001 3.831175e+001 1.656275e+001
    endloop
  endfacet
  facet normal -7.071068e-001 1.576769e-016 7.071068e-001
    outer loop
      vertex   -7.717113e+001 3.930175e+001 1.557275e+001
      vertex   -7.717113e+001 7.437251e+000 1.557275e+001
      vertex   -7.618113e+001 3.831175e+001 1.656275e+001
    endloop
  endfacet
  facet normal -7.071068e-001 1.618082e-016 7.071068e-001
    outer loop
      vertex   -7.618113e+001 3.831175e+001 1.656275e+001
      vertex   -7.717113e+001 7.437251e+000 1.557275e+001
      vertex   -7.618113e+001 7.437251e+000 1.656275e+001
    endloop
  endfacet
  facet normal -7.071068e-001 1.618082e-016 7.071068e-001
    outer loop
      vertex   -7.618113e+001 7.437251e+000 1.656275e+001
      vertex   -7.717113e+001 7.437251e+000 1.557275e+001
      vertex   -7.618113e+001 -2.343725e+001 1.656275e+001
    endloop
  endfacet
  facet normal -7.071068e-001 1.576769e-016 7.071068e-001
    outer loop
      vertex   -7.618113e+001 -2.343725e+001 1.656275e+001
      vertex   -7.717113e+001 7.437251e+000 1.557275e+001
      vertex   -7.717113e+001 -2.442725e+001 1.557275e+001
    endloop
  endfacet
  facet normal 0.000000e+000 -7.071068e-001 7.071068e-001
    outer loop
      vertex   -6.144629e+001 -2.343725e+001 1.656275e+001
      vertex   -7.618113e+001 -2.343725e+001 1.656275e+001
      vertex   -6.045629e+001 -2.442725e+001 1.557275e+001
    endloop
  endfacet
  facet normal 0.000000e+000 -7.071068e-001 7.071068e-001
    outer loop
      vertex   -6.045629e+001 -2.442725e+001 1.557275e+001
      vertex   -7.618113e+001 -2.343725e+001 1.656275e+001
      vertex   -7.717113e+001 -2.442725e+001 1.557275e+001
    endloop
  endfacet
  facet normal 0.000000e+000 7.071068e-001 7.071068e-001
    outer loop
      vertex   -6.045629e+001 3.930175e+001 1.557275e+001
      vertex   -7.717113e+001 3.930175e+001 1.557275e+001
      vertex   -6.144629e+001 3.831175e+001 1.656275e+001
    endloop
  endfacet
  facet normal 0.000000e+000 7.071068e-001 7.071068e-001
    outer loop
      vertex   -6.144629e+001 3.831175e+001 1.656275e+001
      vertex   -7.717113e+001 3.930175e+001 1.557275e+001
      vertex   -7.618113e+001 3.831175e+001 1.656275e+001
    endloop
  endfacet
  facet normal 7.071068e-001 1.129006e-016 7.071068e-001
    outer loop
      vertex   -6.144629e+001 -1.186274e+000 1.656275e+001
      vertex   -6.144629e+001 -2.343725e+001 1.656275e+001
      vertex   -6.045629e+001 -2.176274e+000 1.557275e+001
    endloop
  endfacet
  facet normal 7.071068e-001 1.674977e-016 7.071068e-001
    outer loop
      vertex   -6.045629e+001 -2.176274e+000 1.557275e+001
      vertex   -6.144629e+001 -2.343725e+001 1.656275e+001
      vertex   -6.045629e+001 -2.442725e+001 1.557275e+001
    endloop
  endfacet
  facet normal 7.071068e-001 5.653385e-016 7.071068e-001
    outer loop
      vertex   -6.045629e+001 3.930175e+001 1.557275e+001
      vertex   -6.144629e+001 3.831175e+001 1.656275e+001
      vertex   -6.045629e+001 1.699951e+001 1.557275e+001
    endloop
  endfacet
  facet normal 7.071068e-001 2.252821e-016 7.071068e-001
    outer loop
      vertex   -6.045629e+001 1.699951e+001 1.557275e+001
      vertex   -6.144629e+001 3.831175e+001 1.656275e+001
      vertex   -6.144629e+001 1.600951e+001 1.656275e+001
    endloop
  endfacet
  facet normal 4.063529e-017 -7.071068e-001 7.071068e-001
    outer loop
      vertex   1.990000e+000 -2.176274e+000 1.557275e+001
      vertex   1.000000e+000 -1.186274e+000 1.656275e+001
      vertex   -2.923314e+001 -2.176274e+000 1.557275e+001
    endloop
  endfacet
  facet normal 4.525756e-017 -7.071068e-001 7.071068e-001
    outer loop
      vertex   -2.923314e+001 -2.176274e+000 1.557275e+001
      vertex   1.000000e+000 -1.186274e+000 1.656275e+001
      vertex   -3.022314e+001 -1.186274e+000 1.656275e+001
    endloop
  endfacet
  facet normal 5.028617e-017 -7.071068e-001 7.071068e-001
    outer loop
      vertex   -6.045629e+001 -2.176274e+000 1.557275e+001
      vertex   -3.022314e+001 -1.186274e+000 1.656275e+001
      vertex   -6.144629e+001 -1.186274e+000 1.656275e+001
    endloop
  endfacet
  facet normal 6.034341e-017 -7.071068e-001 7.071068e-001
    outer loop
      vertex   -6.045629e+001 -2.176274e+000 1.557275e+001
      vertex   -2.923314e+001 -2.176274e+000 1.557275e+001
      vertex   -3.022314e+001 -1.186274e+000 1.656275e+001
    endloop
  endfacet
  facet normal -8.045788e-017 7.071068e-001 7.071068e-001
    outer loop
      vertex   1.990000e+000 1.699951e+001 1.557275e+001
      vertex   -2.923314e+001 1.699951e+001 1.557275e+001
      vertex   1.000000e+000 1.600951e+001 1.656275e+001
    endloop
  endfacet
  facet normal 0.000000e+000 7.071068e-001 7.071068e-001
    outer loop
      vertex   1.000000e+000 1.600951e+001 1.656275e+001
      vertex   -2.923314e+001 1.699951e+001 1.557275e+001
      vertex   -3.022314e+001 1.600951e+001 1.656275e+001
    endloop
  endfacet
  facet normal 8.045788e-017 7.071068e-001 7.071068e-001
    outer loop
      vertex   -3.022314e+001 1.600951e+001 1.656275e+001
      vertex   -2.923314e+001 1.699951e+001 1.557275e+001
      vertex   -6.045629e+001 1.699951e+001 1.557275e+001
    endloop
  endfacet
  facet normal -8.045788e-017 7.071068e-001 7.071068e-001
    outer loop
      vertex   -6.144629e+001 1.600951e+001 1.656275e+001
      vertex   -3.022314e+001 1.600951e+001 1.656275e+001
      vertex   -6.045629e+001 1.699951e+001 1.557275e+001
    endloop
  endfacet
  facet normal 7.071068e-001 1.488708e-016 7.071068e-001
    outer loop
      vertex   1.990000e+000 1.699951e+001 1.557275e+001
      vertex   1.000000e+000 1.600951e+001 1.656275e+001
      vertex   1.990000e+000 -2.176274e+000 1.557275e+001
    endloop
  endfacet
  facet normal 7.071068e-001 1.460909e-016 7.071068e-001
    outer loop
      vertex   1.990000e+000 -2.176274e+000 1.557275e+001
      vertex   1.000000e+000 1.600951e+001 1.656275e+001
      vertex   1.000000e+000 -1.186274e+000 1.656275e+001
    endloop
  endfacet
  facet normal 5.689231e-017 -1.000000e+000 4.398323e-016
    outer loop
      vertex   1.990000e+000 -2.176274e+000 1.557275e+001
      vertex   -2.923314e+001 -2.176274e+000 1.557275e+001
      vertex   1.990000e+000 -2.176274e+000 1.437251e+000
    endloop
  endfacet
  facet normal 1.706769e-016 -1.000000e+000 6.911651e-016
    outer loop
      vertex   1.990000e+000 -2.176274e+000 1.437251e+000
      vertex   -2.923314e+001 -2.176274e+000 1.557275e+001
      vertex   -2.923314e+001 -2.176274e+000 1.437251e+000
    endloop
  endfacet
  facet normal 8.533847e-017 -1.000000e+000 6.911651e-016
    outer loop
      vertex   -2.923314e+001 -2.176274e+000 1.437251e+000
      vertex   -2.923314e+001 -2.176274e+000 1.557275e+001
      vertex   -6.045629e+001 -2.176274e+000 1.557275e+001
    endloop
  endfacet
  facet normal -2.844616e-017 -1.000000e+000 4.398323e-016
    outer loop
      vertex   -6.045629e+001 -2.176274e+000 1.437251e+000
      vertex   -2.923314e+001 -2.176274e+000 1.437251e+000
      vertex   -6.045629e+001 -2.176274e+000 1.557275e+001
    endloop
  endfacet
  facet normal 1.000000e+000 0.000000e+000 0.000000e+000
    outer loop
      vertex   -6.045629e+001 -2.176274e+000 1.557275e+001
      vertex   -6.045629e+001 -2.442725e+001 1.557275e+001
      vertex   -6.045629e+001 -2.176274e+000 1.437251e+000
    endloop
  endfacet
  facet normal 1.000000e+000 0.000000e+000 0.000000e+000
    outer loop
      vertex   -6.045629e+001 -2.176274e+000 1.437251e+000
      vertex   -6.045629e+001 -2.442725e+001 1.557275e+001
      vertex   -6.045629e+001 -2.442725e+001 1.437251e+000
    endloop
  endfacet
  facet normal 0.000000e+000 -1.000000e+000 2.513328e-016
    outer loop
      vertex   -6.045629e+001 -2.442725e+001 1.557275e+001
      vertex   -7.717113e+001 -2.442725e+001 1.557275e+001
      vertex   -6.045629e+001 -2.442725e+001 1.437251e+000
    endloop
  endfacet
  facet normal 0.000000e+000 -1.000000e+000 2.513328e-016
    outer loop
      vertex   -6.045629e+001 -2.442725e+001 1.437251e+000
      vertex   -7.717113e+001 -2.442725e+001 1.557275e+001
      vertex   -7.717113e+001 -2.442725e+001 1.437251e+000
    endloop
  endfacet
  facet normal -1.000000e+000 0.000000e+000 -0.000000e+000
    outer loop
      vertex   -7.717113e+001 -2.442725e+001 1.557275e+001
      vertex   -7.717113e+001 7.437251e+000 1.557275e+001
      vertex   -7.717113e+001 -2.442725e+001 1.437251e+000
    endloop
  endfacet
  facet normal -1.000000e+000 0.000000e+000 -0.000000e+000
    outer loop
      vertex   -7.717113e+001 -2.442725e+001 1.437251e+000
      vertex   -7.717113e+001 7.437251e+000 1.557275e+001
      vertex   -7.717113e+001 7.437251e+000 1.437251e+000
    endloop
  endfacet
  facet normal -1.000000e+000 0.000000e+000 0.000000e+000
    outer loop
      vertex   -7.717113e+001 7.437251e+000 1.437251e+000
      vertex   -7.717113e+001 7.437251e+000 1.557275e+001
      vertex   -7.717113e+001 3.930175e+001 1.557275e+001
    endloop
  endfacet
  facet normal -1.000000e+000 0.000000e+000 0.000000e+000
    outer loop
      vertex   -7.717113e+001 3.930175e+001 1.437251e+000
      vertex   -7.717113e+001 7.437251e+000 1.437251e+000
      vertex   -7.717113e+001 3.930175e+001 1.557275e+001
    endloop
  endfacet
  facet normal 0.000000e+000 1.000000e+000 -5.026655e-016
    outer loop
      vertex   -7.517113e+001 -2.242725e+001 1.557275e+001
      vertex   -6.245629e+001 -2.242725e+001 1.557275e+001
      vertex   -7.517113e+001 -2.242725e+001 1.437251e+000
    endloop
  endfacet
  facet normal 0.000000e+000 1.000000e+000 -5.026655e-016
    outer loop
      vertex   -7.517113e+001 -2.242725e+001 1.437251e+000
      vertex   -6.245629e+001 -2.242725e+001 1.557275e+001
      vertex   -6.245629e+001 -2.242725e+001 1.437251e+000
    endloop
  endfacet
  facet normal -1.000000e+000 0.000000e+000 -0.000000e+000
    outer loop
      vertex   -6.245629e+001 -2.242725e+001 1.557275e+001
      vertex   -6.245629e+001 -1.762744e-001 1.557275e+001
      vertex   -6.245629e+001 -2.242725e+001 1.437251e+000
    endloop
  endfacet
  facet normal -1.000000e+000 0.000000e+000 -0.000000e+000
    outer loop
      vertex   -6.245629e+001 -2.242725e+001 1.437251e+000
      vertex   -6.245629e+001 -1.762744e-001 1.557275e+001
      vertex   -6.245629e+001 -1.762744e-001 1.437251e+000
    endloop
  endfacet
  facet normal 7.289327e-017 1.000000e+000 -4.437594e-016
    outer loop
      vertex   -6.245629e+001 -1.762744e-001 1.557275e+001
      vertex   -3.123314e+001 -1.762744e-001 1.557275e+001
      vertex   -6.245629e+001 -1.762744e-001 1.437251e+000
    endloop
  endfacet
  facet normal 7.111539e-017 1.000000e+000 -4.398323e-016
    outer loop
      vertex   -6.245629e+001 -1.762744e-001 1.437251e+000
      vertex   -3.123314e+001 -1.762744e-001 1.557275e+001
      vertex   -3.123314e+001 -1.762744e-001 1.437251e+000
    endloop
  endfacet
  facet normal -7.289327e-017 1.000000e+000 -4.398323e-016
    outer loop
      vertex   -3.123314e+001 -1.762744e-001 1.437251e+000
      vertex   -3.123314e+001 -1.762744e-001 1.557275e+001
      vertex   -1.000000e-002 -1.762744e-001 1.557275e+001
    endloop
  endfacet
  facet normal -7.111539e-017 1.000000e+000 -4.437594e-016
    outer loop
      vertex   -1.000000e-002 -1.762744e-001 1.437251e+000
      vertex   -3.123314e+001 -1.762744e-001 1.437251e+000
      vertex   -1.000000e-002 -1.762744e-001 1.557275e+001
    endloop
  endfacet
  facet normal 0.000000e+000 1.000000e+000 -5.026655e-016
    outer loop
      vertex   -7.717113e+001 3.930175e+001 1.557275e+001
      vertex   -6.045629e+001 3.930175e+001 1.557275e+001
      vertex   -7.717113e+001 3.930175e+001 1.437251e+000
    endloop
  endfacet
  facet normal 0.000000e+000 1.000000e+000 -5.026655e-016
    outer loop
      vertex   -7.717113e+001 3.930175e+001 1.437251e+000
      vertex   -6.045629e+001 3.930175e+001 1.557275e+001
      vertex   -6.045629e+001 3.930175e+001 1.437251e+000
    endloop
  endfacet
  facet normal 1.000000e+000 6.371939e-016 1.005331e-015
    outer loop
      vertex   -6.045629e+001 3.930175e+001 1.557275e+001
      vertex   -6.045629e+001 1.699951e+001 1.557275e+001
      vertex   -6.045629e+001 3.930175e+001 1.437251e+000
    endloop
  endfacet
  facet normal 1.000000e+000 0.000000e+000 0.000000e+000
    outer loop
      vertex   -6.045629e+001 3.930175e+001 1.437251e+000
      vertex   -6.045629e+001 1.699951e+001 1.557275e+001
      vertex   -6.045629e+001 1.699951e+001 1.437251e+000
    endloop
  endfacet
  facet normal 1.137846e-016 1.000000e+000 -7.539983e-016
    outer loop
      vertex   -6.045629e+001 1.699951e+001 1.557275e+001
      vertex   -2.923314e+001 1.699951e+001 1.557275e+001
      vertex   -6.045629e+001 1.699951e+001 1.437251e+000
    endloop
  endfacet
  facet normal -1.137846e-016 1.000000e+000 -2.513328e-016
    outer loop
      vertex   -6.045629e+001 1.699951e+001 1.437251e+000
      vertex   -2.923314e+001 1.699951e+001 1.557275e+001
      vertex   -2.923314e+001 1.699951e+001 1.437251e+000
    endloop
  endfacet
  facet normal -1.137846e-016 1.000000e+000 -2.513328e-016
    outer loop
      vertex   -2.923314e+001 1.699951e+001 1.437251e+000
      vertex   -2.923314e+001 1.699951e+001 1.557275e+001
      vertex   1.990000e+000 1.699951e+001 1.557275e+001
    endloop
  endfacet
  facet normal 0.000000e+000 1.000000e+000 -5.026655e-016
    outer loop
      vertex   1.990000e+000 1.699951e+001 1.437251e+000
      vertex   -2.923314e+001 1.699951e+001 1.437251e+000
      vertex   1.990000e+000 1.699951e+001 1.557275e+001
    endloop
  endfacet
  facet normal -1.000000e+000 0.000000e+000 -0.000000e+000
    outer loop
      vertex   -1.000000e-002 -1.762744e-001 1.557275e+001
      vertex   -1.000000e-002 1.499951e+001 1.557275e+001
      vertex   -1.000000e-002 -1.762744e-001 1.437251e+000
    endloop
  endfacet
  facet normal -1.000000e+000 0.000000e+000 -0.000000e+000
    outer loop
      vertex   -1.000000e-002 -1.762744e-001 1.437251e+000
      vertex   -1.000000e-002 1.499951e+001 1.557275e+001
      vertex   -1.000000e-002 1.499951e+001 1.437251e+000
    endloop
  endfacet
  facet normal 1.000000e+000 -6.947658e-017 -1.570830e-016
    outer loop
      vertex   1.990000e+000 1.699951e+001 1.557275e+001
      vertex   1.990000e+000 -2.176274e+000 1.557275e+001
      vertex   1.990000e+000 1.699951e+001 1.437251e+000
    endloop
  endfacet
  facet normal 1.000000e+000 5.789715e-017 1.570830e-017
    outer loop
      vertex   1.990000e+000 1.699951e+001 1.437251e+000
      vertex   1.990000e+000 -2.176274e+000 1.557275e+001
      vertex   1.990000e+000 -2.176274e+000 1.437251e+000
    endloop
  endfacet
  facet normal -1.790360e-016 -5.121029e-016 -1.000000e+000
    outer loop
      vertex   -1.000000e-002 1.499951e+001 1.437251e+000
      vertex   1.990000e+000 -2.176274e+000 1.437251e+000
      vertex   -1.000000e-002 -1.762744e-001 1.437251e+000
    endloop
  endfacet
  facet normal 3.405754e-016 -4.515977e-016 -1.000000e+000
    outer loop
      vertex   -1.000000e-002 1.499951e+001 1.437251e+000
      vertex   1.990000e+000 1.699951e+001 1.437251e+000
      vertex   1.990000e+000 -2.176274e+000 1.437251e+000
    endloop
  endfacet
  facet normal 0.000000e+000 -1.110223e-016 -1.000000e+000
    outer loop
      vertex   -1.000000e-002 1.499951e+001 1.437251e+000
      vertex   -2.923314e+001 1.699951e+001 1.437251e+000
      vertex   1.990000e+000 1.699951e+001 1.437251e+000
    endloop
  endfacet
  facet normal 6.316315e-033 -1.110223e-016 -1.000000e+000
    outer loop
      vertex   -1.000000e-002 1.499951e+001 1.437251e+000
      vertex   -3.123314e+001 1.499951e+001 1.437251e+000
      vertex   -2.923314e+001 1.699951e+001 1.437251e+000
    endloop
  endfacet
  facet normal 1.263263e-032 -1.110223e-016 -1.000000e+000
    outer loop
      vertex   -2.923314e+001 1.699951e+001 1.437251e+000
      vertex   -3.123314e+001 1.499951e+001 1.437251e+000
      vertex   -6.045629e+001 1.699951e+001 1.437251e+000
    endloop
  endfacet
  facet normal 1.263263e-032 -1.110223e-016 -1.000000e+000
    outer loop
      vertex   -6.045629e+001 1.699951e+001 1.437251e+000
      vertex   -3.123314e+001 1.499951e+001 1.437251e+000
      vertex   -6.245629e+001 1.499951e+001 1.437251e+000
    endloop
  endfacet
  facet normal 3.071362e-016 -4.181585e-016 -1.000000e+000
    outer loop
      vertex   -6.245629e+001 3.730175e+001 1.437251e+000
      vertex   -6.045629e+001 1.699951e+001 1.437251e+000
      vertex   -6.245629e+001 1.499951e+001 1.437251e+000
    endloop
  endfacet
  facet normal -1.714187e-015 -6.172816e-016 -1.000000e+000
    outer loop
      vertex   -6.245629e+001 3.730175e+001 1.437251e+000
      vertex   -6.045629e+001 3.930175e+001 1.437251e+000
      vertex   -6.045629e+001 1.699951e+001 1.437251e+000
    endloop
  endfacet
  facet normal -0.000000e+000 -2.331468e-015 -1.000000e+000
    outer loop
      vertex   -6.245629e+001 3.730175e+001 1.437251e+000
      vertex   -7.517113e+001 3.730175e+001 1.437251e+000
      vertex   -6.045629e+001 3.930175e+001 1.437251e+000
    endloop
  endfacet
  facet normal 0.000000e+000 -2.331468e-015 -1.000000e+000
    outer loop
      vertex   -6.045629e+001 3.930175e+001 1.437251e+000
      vertex   -7.517113e+001 3.730175e+001 1.437251e+000
      vertex   -7.717113e+001 3.930175e+001 1.437251e+000
    endloop
  endfacet
  facet normal 1.801870e-015 -5.295984e-016 -1.000000e+000
    outer loop
      vertex   -7.717113e+001 3.930175e+001 1.437251e+000
      vertex   -7.517113e+001 3.730175e+001 1.437251e+000
      vertex   -7.717113e+001 7.437251e+000 1.437251e+000
    endloop
  endfacet
  facet normal 5.551115e-016 -4.461041e-016 -1.000000e+000
    outer loop
      vertex   -7.717113e+001 7.437251e+000 1.437251e+000
      vertex   -7.517113e+001 3.730175e+001 1.437251e+000
      vertex   -7.517113e+001 7.437251e+000 1.437251e+000
    endloop
  endfacet
  facet normal 5.551115e-016 -4.461041e-016 -1.000000e+000
    outer loop
      vertex   -7.517113e+001 -2.242725e+001 1.437251e+000
      vertex   -7.717113e+001 7.437251e+000 1.437251e+000
      vertex   -7.517113e+001 7.437251e+000 1.437251e+000
    endloop
  endfacet
  facet normal 2.448382e-016 -4.668828e-016 -1.000000e+000
    outer loop
      vertex   -7.517113e+001 -2.242725e+001 1.437251e+000
      vertex   -7.717113e+001 -2.442725e+001 1.437251e+000
      vertex   -7.717113e+001 7.437251e+000 1.437251e+000
    endloop
  endfacet
  facet normal 0.000000e+000 -2.220446e-016 -1.000000e+000
    outer loop
      vertex   -7.517113e+001 -2.242725e+001 1.437251e+000
      vertex   -6.245629e+001 -2.242725e+001 1.437251e+000
      vertex   -7.717113e+001 -2.442725e+001 1.437251e+000
    endloop
  endfacet
  facet normal 0.000000e+000 -2.220446e-016 -1.000000e+000
    outer loop
      vertex   -7.717113e+001 -2.442725e+001 1.437251e+000
      vertex   -6.245629e+001 -2.242725e+001 1.437251e+000
      vertex   -6.045629e+001 -2.442725e+001 1.437251e+000
    endloop
  endfacet
  facet normal -1.970774e-016 -4.191220e-016 -1.000000e+000
    outer loop
      vertex   -6.045629e+001 -2.442725e+001 1.437251e+000
      vertex   -6.245629e+001 -2.242725e+001 1.437251e+000
      vertex   -6.045629e+001 -2.176274e+000 1.437251e+000
    endloop
  endfacet
  facet normal -9.603417e-017 -4.291011e-016 -1.000000e+000
    outer loop
      vertex   -6.045629e+001 -2.176274e+000 1.437251e+000
      vertex   -6.245629e+001 -2.242725e+001 1.437251e+000
      vertex   -6.245629e+001 -1.762744e-001 1.437251e+000
    endloop
  endfacet
  facet normal -2.526526e-032 -3.330669e-016 -1.000000e+000
    outer loop
      vertex   -3.123314e+001 -1.762744e-001 1.437251e+000
      vertex   -6.045629e+001 -2.176274e+000 1.437251e+000
      vertex   -6.245629e+001 -1.762744e-001 1.437251e+000
    endloop
  endfacet
  facet normal -9.474473e-033 -3.330669e-016 -1.000000e+000
    outer loop
      vertex   -3.123314e+001 -1.762744e-001 1.437251e+000
      vertex   -2.923314e+001 -2.176274e+000 1.437251e+000
      vertex   -6.045629e+001 -2.176274e+000 1.437251e+000
    endloop
  endfacet
  facet normal 2.368618e-032 -3.330669e-016 -1.000000e+000
    outer loop
      vertex   -3.123314e+001 -1.762744e-001 1.437251e+000
      vertex   -1.000000e-002 -1.762744e-001 1.437251e+000
      vertex   -2.923314e+001 -2.176274e+000 1.437251e+000
    endloop
  endfacet
  facet normal 5.684684e-032 -3.330669e-016 -1.000000e+000
    outer loop
      vertex   -2.923314e+001 -2.176274e+000 1.437251e+000
      vertex   -1.000000e-002 -1.762744e-001 1.437251e+000
      vertex   1.990000e+000 -2.176274e+000 1.437251e+000
    endloop
  endfacet
endsolid
