solid ascii
  facet normal -2.379984e-001 -6.658504e-001 7.071068e-001
    outer loop
      vertex   9.800000e-001 1.632580e+001 1.649882e+001
      vertex   -3.759057e+001 3.011227e+001 1.649882e+001
      vertex   -1.000000e-002 1.562832e+001 1.550882e+001
    endloop
  endfacet
  facet normal -2.379984e-001 -6.658504e-001 7.071068e-001
    outer loop
      vertex   -1.000000e-002 1.562832e+001 1.550882e+001
      vertex   -3.759057e+001 3.011227e+001 1.649882e+001
      vertex   -3.759057e+001 2.906093e+001 1.550882e+001
    endloop
  endfacet
  facet normal -2.379984e-001 -6.658504e-001 7.071068e-001
    outer loop
      vertex   -3.759057e+001 2.906093e+001 1.550882e+001
      vertex   -3.759057e+001 3.011227e+001 1.649882e+001
      vertex   -7.517113e+001 4.249355e+001 1.550882e+001
    endloop
  endfacet
  facet normal -2.379984e-001 -6.658504e-001 7.071068e-001
    outer loop
      vertex   -7.517113e+001 4.249355e+001 1.550882e+001
      vertex   -3.759057e+001 3.011227e+001 1.649882e+001
      vertex   -7.616113e+001 4.389875e+001 1.649882e+001
    endloop
  endfacet
  facet normal 7.071068e-001 -4.058292e-016 7.071068e-001
    outer loop
      vertex   -7.616113e+001 4.389875e+001 1.649882e+001
      vertex   -7.616113e+001 2.532827e+001 1.649882e+001
      vertex   -7.517113e+001 4.249355e+001 1.550882e+001
    endloop
  endfacet
  facet normal 7.071068e-001 4.625587e-016 7.071068e-001
    outer loop
      vertex   -7.517113e+001 4.249355e+001 1.550882e+001
      vertex   -7.616113e+001 2.532827e+001 1.649882e+001
      vertex   -7.517113e+001 2.603603e+001 1.550882e+001
    endloop
  endfacet
  facet normal 2.221213e-001 -6.713137e-001 7.071068e-001
    outer loop
      vertex   -7.517113e+001 -1.139073e+001 1.550882e+001
      vertex   -4.735741e+001 -2.187846e+000 1.550882e+001
      vertex   -7.616113e+001 -1.067551e+001 1.649882e+001
    endloop
  endfacet
  facet normal 2.221213e-001 -6.713137e-001 7.071068e-001
    outer loop
      vertex   -7.616113e+001 -1.067551e+001 1.649882e+001
      vertex   -4.735741e+001 -2.187846e+000 1.550882e+001
      vertex   -2.264867e+001 7.030460e+000 1.649882e+001
    endloop
  endfacet
  facet normal 2.221213e-001 -6.713137e-001 7.071068e-001
    outer loop
      vertex   -2.264867e+001 7.030460e+000 1.649882e+001
      vertex   -4.735741e+001 -2.187846e+000 1.550882e+001
      vertex   -1.954369e+001 7.015035e+000 1.550882e+001
    endloop
  endfacet
  facet normal 2.287801e-001 6.690738e-001 7.071068e-001
    outer loop
      vertex   -7.616113e+001 2.532827e+001 1.649882e+001
      vertex   -4.940490e+001 1.617937e+001 1.649882e+001
      vertex   -7.517113e+001 2.603603e+001 1.550882e+001
    endloop
  endfacet
  facet normal 2.287801e-001 6.690738e-001 7.071068e-001
    outer loop
      vertex   -7.517113e+001 2.603603e+001 1.550882e+001
      vertex   -4.940490e+001 1.617937e+001 1.649882e+001
      vertex   -4.735741e+001 1.652553e+001 1.550882e+001
    endloop
  endfacet
  facet normal 2.287801e-001 6.690738e-001 7.071068e-001
    outer loop
      vertex   -4.735741e+001 1.652553e+001 1.550882e+001
      vertex   -4.940490e+001 1.617937e+001 1.649882e+001
      vertex   -2.264867e+001 7.030460e+000 1.649882e+001
    endloop
  endfacet
  facet normal 2.287801e-001 6.690738e-001 7.071068e-001
    outer loop
      vertex   -1.954369e+001 7.015035e+000 1.550882e+001
      vertex   -4.735741e+001 1.652553e+001 1.550882e+001
      vertex   -2.264867e+001 7.030460e+000 1.649882e+001
    endloop
  endfacet
  facet normal 7.071068e-001 0.000000e+000 7.071068e-001
    outer loop
      vertex   -7.517113e+001 -1.139073e+001 1.550882e+001
      vertex   -7.616113e+001 -1.067551e+001 1.649882e+001
      vertex   -7.517113e+001 -2.748936e+001 1.550882e+001
    endloop
  endfacet
  facet normal 7.071068e-001 -4.136368e-016 7.071068e-001
    outer loop
      vertex   -7.517113e+001 -2.748936e+001 1.550882e+001
      vertex   -7.616113e+001 -1.067551e+001 1.649882e+001
      vertex   -7.616113e+001 -2.889546e+001 1.649882e+001
    endloop
  endfacet
  facet normal -2.384010e-001 6.657064e-001 7.071068e-001
    outer loop
      vertex   9.800000e-001 -1.269888e+000 1.649882e+001
      vertex   -1.000000e-002 -5.728558e-001 1.550882e+001
      vertex   -3.759057e+001 -1.508268e+001 1.649882e+001
    endloop
  endfacet
  facet normal -2.384010e-001 6.657064e-001 7.071068e-001
    outer loop
      vertex   -3.759057e+001 -1.508268e+001 1.649882e+001
      vertex   -1.000000e-002 -5.728558e-001 1.550882e+001
      vertex   -3.759057e+001 -1.403111e+001 1.550882e+001
    endloop
  endfacet
  facet normal -2.384010e-001 6.657064e-001 7.071068e-001
    outer loop
      vertex   -7.517113e+001 -2.748936e+001 1.550882e+001
      vertex   -3.759057e+001 -1.508268e+001 1.649882e+001
      vertex   -3.759057e+001 -1.403111e+001 1.550882e+001
    endloop
  endfacet
  facet normal -2.384010e-001 6.657064e-001 7.071068e-001
    outer loop
      vertex   -7.517113e+001 -2.748936e+001 1.550882e+001
      vertex   -7.616113e+001 -2.889546e+001 1.649882e+001
      vertex   -3.759057e+001 -1.508268e+001 1.649882e+001
    endloop
  endfacet
  facet normal -7.071068e-001 1.517313e-016 7.071068e-001
    outer loop
      vertex   -1.000000e-002 -5.728558e-001 1.550882e+001
      vertex   9.800000e-001 -1.269888e+000 1.649882e+001
      vertex   -1.000000e-002 1.562832e+001 1.550882e+001
    endloop
  endfacet
  facet normal -7.071068e-001 4.550816e-016 7.071068e-001
    outer loop
      vertex   -1.000000e-002 1.562832e+001 1.550882e+001
      vertex   9.800000e-001 -1.269888e+000 1.649882e+001
      vertex   9.800000e-001 1.632580e+001 1.649882e+001
    endloop
  endfacet
  facet normal -3.365805e-001 -9.416547e-001 4.067277e-016
    outer loop
      vertex   -1.000000e-002 1.562832e+001 1.550882e+001
      vertex   -3.759057e+001 2.906093e+001 1.550882e+001
      vertex   -1.000000e-002 1.562832e+001 1.501183e+000
    endloop
  endfacet
  facet normal -3.365805e-001 -9.416547e-001 7.845843e-016
    outer loop
      vertex   -1.000000e-002 1.562832e+001 1.501183e+000
      vertex   -3.759057e+001 2.906093e+001 1.550882e+001
      vertex   -3.759057e+001 2.906093e+001 1.501183e+000
    endloop
  endfacet
  facet normal -3.365805e-001 -9.416547e-001 7.845843e-016
    outer loop
      vertex   -3.759057e+001 2.906093e+001 1.501183e+000
      vertex   -3.759057e+001 2.906093e+001 1.550882e+001
      vertex   -7.517113e+001 4.249355e+001 1.550882e+001
    endloop
  endfacet
  facet normal -3.365805e-001 -9.416547e-001 5.084097e-016
    outer loop
      vertex   -7.517113e+001 4.249355e+001 1.501183e+000
      vertex   -3.759057e+001 2.906093e+001 1.501183e+000
      vertex   -7.517113e+001 4.249355e+001 1.550882e+001
    endloop
  endfacet
  facet normal 1.000000e+000 0.000000e+000 0.000000e+000
    outer loop
      vertex   -7.517113e+001 4.249355e+001 1.550882e+001
      vertex   -7.517113e+001 2.603603e+001 1.550882e+001
      vertex   -7.517113e+001 4.249355e+001 1.501183e+000
    endloop
  endfacet
  facet normal 1.000000e+000 0.000000e+000 0.000000e+000
    outer loop
      vertex   -7.517113e+001 4.249355e+001 1.501183e+000
      vertex   -7.517113e+001 2.603603e+001 1.550882e+001
      vertex   -7.517113e+001 2.603603e+001 1.501183e+000
    endloop
  endfacet
  facet normal 3.235439e-001 9.462132e-001 0.000000e+000
    outer loop
      vertex   -7.517113e+001 2.603603e+001 1.550882e+001
      vertex   -4.735741e+001 1.652553e+001 1.550882e+001
      vertex   -7.517113e+001 2.603603e+001 1.501183e+000
    endloop
  endfacet
  facet normal 3.235439e-001 9.462132e-001 -7.586629e-017
    outer loop
      vertex   -7.517113e+001 2.603603e+001 1.501183e+000
      vertex   -4.735741e+001 1.652553e+001 1.550882e+001
      vertex   -4.735741e+001 1.652553e+001 1.501183e+000
    endloop
  endfacet
  facet normal 3.235439e-001 9.462132e-001 -7.586629e-017
    outer loop
      vertex   -4.735741e+001 1.652553e+001 1.501183e+000
      vertex   -4.735741e+001 1.652553e+001 1.550882e+001
      vertex   -1.954369e+001 7.015035e+000 1.550882e+001
    endloop
  endfacet
  facet normal 3.235439e-001 9.462132e-001 -4.141585e-016
    outer loop
      vertex   -1.954369e+001 7.015035e+000 1.501183e+000
      vertex   -4.735741e+001 1.652553e+001 1.501183e+000
      vertex   -1.954369e+001 7.015035e+000 1.550882e+001
    endloop
  endfacet
  facet normal 3.141270e-001 -9.493810e-001 4.848026e-016
    outer loop
      vertex   -1.954369e+001 7.015035e+000 1.550882e+001
      vertex   -4.735741e+001 -2.187846e+000 1.550882e+001
      vertex   -1.954369e+001 7.015035e+000 1.501183e+000
    endloop
  endfacet
  facet normal 3.141270e-001 -9.493810e-001 5.417744e-016
    outer loop
      vertex   -1.954369e+001 7.015035e+000 1.501183e+000
      vertex   -4.735741e+001 -2.187846e+000 1.550882e+001
      vertex   -4.735741e+001 -2.187846e+000 1.501183e+000
    endloop
  endfacet
  facet normal 3.141270e-001 -9.493810e-001 5.417744e-016
    outer loop
      vertex   -4.735741e+001 -2.187846e+000 1.501183e+000
      vertex   -4.735741e+001 -2.187846e+000 1.550882e+001
      vertex   -7.517113e+001 -1.139073e+001 1.550882e+001
    endloop
  endfacet
  facet normal 3.141270e-001 -9.493810e-001 2.077725e-016
    outer loop
      vertex   -7.517113e+001 -1.139073e+001 1.501183e+000
      vertex   -4.735741e+001 -2.187846e+000 1.501183e+000
      vertex   -7.517113e+001 -1.139073e+001 1.550882e+001
    endloop
  endfacet
  facet normal 5.747293e-014 1.680812e-013 1.000000e+000
    outer loop
      vertex   -4.944626e+001 1.617237e+001 1.649882e+001
      vertex   -7.616113e+001 2.532827e+001 1.649882e+001
      vertex   -7.618113e+001 2.531397e+001 1.649882e+001
    endloop
  endfacet
  facet normal -4.393142e-017 2.598425e-016 1.000000e+000
    outer loop
      vertex   -4.944626e+001 1.617237e+001 1.649882e+001
      vertex   -4.940490e+001 1.617937e+001 1.649882e+001
      vertex   -7.616113e+001 2.532827e+001 1.649882e+001
    endloop
  endfacet
  facet normal -0.000000e+000 -0.000000e+000 1.000000e+000
    outer loop
      vertex   -4.944626e+001 1.617237e+001 1.649882e+001
      vertex   -2.271139e+001 7.030771e+000 1.649882e+001
      vertex   -4.940490e+001 1.617937e+001 1.649882e+001
    endloop
  endfacet
  facet normal 0.000000e+000 0.000000e+000 1.000000e+000
    outer loop
      vertex   -4.940490e+001 1.617937e+001 1.649882e+001
      vertex   -2.271139e+001 7.030771e+000 1.649882e+001
      vertex   -2.264867e+001 7.030460e+000 1.649882e+001
    endloop
  endfacet
  facet normal 9.820424e-019 1.976826e-016 1.000000e+000
    outer loop
      vertex   -2.264867e+001 7.030460e+000 1.649882e+001
      vertex   -2.271139e+001 7.030771e+000 1.649882e+001
      vertex   -7.616113e+001 -1.067551e+001 1.649882e+001
    endloop
  endfacet
  facet normal 4.557176e-017 6.308014e-017 1.000000e+000
    outer loop
      vertex   -7.616113e+001 -1.067551e+001 1.649882e+001
      vertex   -2.271139e+001 7.030771e+000 1.649882e+001
      vertex   -7.618113e+001 -1.066106e+001 1.649882e+001
    endloop
  endfacet
  facet normal -2.762963e-016 1.945327e-016 1.000000e+000
    outer loop
      vertex   -7.616113e+001 -2.889546e+001 1.649882e+001
      vertex   -7.618113e+001 -1.066106e+001 1.649882e+001
      vertex   -7.618113e+001 -2.892387e+001 1.649882e+001
    endloop
  endfacet
  facet normal 1.231003e-016 -8.667159e-017 1.000000e+000
    outer loop
      vertex   -3.759057e+001 -1.510392e+001 1.649882e+001
      vertex   -7.616113e+001 -2.889546e+001 1.649882e+001
      vertex   -7.618113e+001 -2.892387e+001 1.649882e+001
    endloop
  endfacet
  facet normal 9.210945e-017 9.242370e-029 1.000000e+000
    outer loop
      vertex   -3.759057e+001 -1.510392e+001 1.649882e+001
      vertex   -3.759057e+001 -1.508268e+001 1.649882e+001
      vertex   -7.616113e+001 -2.889546e+001 1.649882e+001
    endloop
  endfacet
  facet normal 0.000000e+000 -0.000000e+000 1.000000e+000
    outer loop
      vertex   -3.759057e+001 -1.510392e+001 1.649882e+001
      vertex   9.800000e-001 -1.269888e+000 1.649882e+001
      vertex   -3.759057e+001 -1.508268e+001 1.649882e+001
    endloop
  endfacet
  facet normal 0.000000e+000 -0.000000e+000 1.000000e+000
    outer loop
      vertex   -3.759057e+001 -1.510392e+001 1.649882e+001
      vertex   1.000000e+000 -1.283969e+000 1.649882e+001
      vertex   9.800000e-001 -1.269888e+000 1.649882e+001
    endloop
  endfacet
  facet normal 1.421581e-016 2.019082e-016 1.000000e+000
    outer loop
      vertex   9.800000e-001 -1.269888e+000 1.649882e+001
      vertex   1.000000e+000 -1.283969e+000 1.649882e+001
      vertex   9.800000e-001 1.632580e+001 1.649882e+001
    endloop
  endfacet
  facet normal -1.420221e-016 2.015855e-016 1.000000e+000
    outer loop
      vertex   9.800000e-001 1.632580e+001 1.649882e+001
      vertex   1.000000e+000 -1.283969e+000 1.649882e+001
      vertex   1.000000e+000 1.633989e+001 1.649882e+001
    endloop
  endfacet
  facet normal -6.107553e-017 8.669034e-017 1.000000e+000
    outer loop
      vertex   -3.759057e+001 3.013351e+001 1.649882e+001
      vertex   9.800000e-001 1.632580e+001 1.649882e+001
      vertex   1.000000e+000 1.633989e+001 1.649882e+001
    endloop
  endfacet
  facet normal -9.210945e-017 -6.162913e-029 1.000000e+000
    outer loop
      vertex   -3.759057e+001 3.013351e+001 1.649882e+001
      vertex   -3.759057e+001 3.011227e+001 1.649882e+001
      vertex   9.800000e-001 1.632580e+001 1.649882e+001
    endloop
  endfacet
  facet normal -9.210945e-017 -6.162913e-029 1.000000e+000
    outer loop
      vertex   -3.759057e+001 3.013351e+001 1.649882e+001
      vertex   -7.616113e+001 4.389875e+001 1.649882e+001
      vertex   -3.759057e+001 3.011227e+001 1.649882e+001
    endloop
  endfacet
  facet normal -1.230479e-016 -8.669034e-017 1.000000e+000
    outer loop
      vertex   -3.759057e+001 3.013351e+001 1.649882e+001
      vertex   -7.618113e+001 4.392714e+001 1.649882e+001
      vertex   -7.616113e+001 4.389875e+001 1.649882e+001
    endloop
  endfacet
  facet normal 5.418429e-016 3.817420e-016 1.000000e+000
    outer loop
      vertex   -7.616113e+001 4.389875e+001 1.649882e+001
      vertex   -7.618113e+001 4.392714e+001 1.649882e+001
      vertex   -7.618113e+001 2.531397e+001 1.649882e+001
    endloop
  endfacet
  facet normal 1.774989e-013 1.913097e-016 1.000000e+000
    outer loop
      vertex   -7.616113e+001 2.532827e+001 1.649882e+001
      vertex   -7.616113e+001 4.389875e+001 1.649882e+001
      vertex   -7.618113e+001 2.531397e+001 1.649882e+001
    endloop
  endfacet
  facet normal 1.408692e-016 1.949903e-016 1.000000e+000
    outer loop
      vertex   -7.616113e+001 -1.067551e+001 1.649882e+001
      vertex   -7.618113e+001 -1.066106e+001 1.649882e+001
      vertex   -7.616113e+001 -2.889546e+001 1.649882e+001
    endloop
  endfacet
  facet normal 2.379984e-001 6.658504e-001 7.071068e-001
    outer loop
      vertex   -7.717113e+001 4.533234e+001 1.550882e+001
      vertex   -7.618113e+001 4.392714e+001 1.649882e+001
      vertex   -3.759057e+001 3.118485e+001 1.550882e+001
    endloop
  endfacet
  facet normal 2.379984e-001 6.658504e-001 7.071068e-001
    outer loop
      vertex   -3.759057e+001 3.118485e+001 1.550882e+001
      vertex   -7.618113e+001 4.392714e+001 1.649882e+001
      vertex   -3.759057e+001 3.013351e+001 1.649882e+001
    endloop
  endfacet
  facet normal 2.379984e-001 6.658504e-001 7.071068e-001
    outer loop
      vertex   1.000000e+000 1.633989e+001 1.649882e+001
      vertex   -3.759057e+001 3.118485e+001 1.550882e+001
      vertex   -3.759057e+001 3.013351e+001 1.649882e+001
    endloop
  endfacet
  facet normal 2.379984e-001 6.658504e-001 7.071068e-001
    outer loop
      vertex   1.000000e+000 1.633989e+001 1.649882e+001
      vertex   1.990000e+000 1.703737e+001 1.550882e+001
      vertex   -3.759057e+001 3.118485e+001 1.550882e+001
    endloop
  endfacet
  facet normal -2.287801e-001 -6.690738e-001 7.071068e-001
    outer loop
      vertex   -7.618113e+001 2.531397e+001 1.649882e+001
      vertex   -7.717113e+001 2.460621e+001 1.550882e+001
      vertex   -4.944626e+001 1.617237e+001 1.649882e+001
    endloop
  endfacet
  facet normal -2.287801e-001 -6.690738e-001 7.071068e-001
    outer loop
      vertex   -4.944626e+001 1.617237e+001 1.649882e+001
      vertex   -7.717113e+001 2.460621e+001 1.550882e+001
      vertex   -2.581637e+001 7.046196e+000 1.550882e+001
    endloop
  endfacet
  facet normal -2.287801e-001 -6.690738e-001 7.071068e-001
    outer loop
      vertex   -2.271139e+001 7.030771e+000 1.649882e+001
      vertex   -4.944626e+001 1.617237e+001 1.649882e+001
      vertex   -2.581637e+001 7.046196e+000 1.550882e+001
    endloop
  endfacet
  facet normal 7.071068e-001 6.794164e-016 7.071068e-001
    outer loop
      vertex   1.000000e+000 -1.283969e+000 1.649882e+001
      vertex   1.990000e+000 -1.981002e+000 1.550882e+001
      vertex   1.000000e+000 1.633989e+001 1.649882e+001
    endloop
  endfacet
  facet normal 7.071068e-001 1.651133e-016 7.071068e-001
    outer loop
      vertex   1.000000e+000 1.633989e+001 1.649882e+001
      vertex   1.990000e+000 -1.981002e+000 1.550882e+001
      vertex   1.990000e+000 1.703737e+001 1.550882e+001
    endloop
  endfacet
  facet normal -2.221213e-001 6.713137e-001 7.071068e-001
    outer loop
      vertex   -7.717113e+001 -9.945842e+000 1.550882e+001
      vertex   -7.618113e+001 -1.066106e+001 1.649882e+001
      vertex   -2.581637e+001 7.046196e+000 1.550882e+001
    endloop
  endfacet
  facet normal -2.221213e-001 6.713137e-001 7.071068e-001
    outer loop
      vertex   -2.581637e+001 7.046196e+000 1.550882e+001
      vertex   -7.618113e+001 -1.066106e+001 1.649882e+001
      vertex   -2.271139e+001 7.030771e+000 1.649882e+001
    endloop
  endfacet
  facet normal -7.071068e-001 2.450803e-016 7.071068e-001
    outer loop
      vertex   -7.717113e+001 -3.032997e+001 1.550882e+001
      vertex   -7.618113e+001 -2.892387e+001 1.649882e+001
      vertex   -7.717113e+001 -9.945842e+000 1.550882e+001
    endloop
  endfacet
  facet normal -7.071068e-001 1.375554e-016 7.071068e-001
    outer loop
      vertex   -7.717113e+001 -9.945842e+000 1.550882e+001
      vertex   -7.618113e+001 -2.892387e+001 1.649882e+001
      vertex   -7.618113e+001 -1.066106e+001 1.649882e+001
    endloop
  endfacet
  facet normal 2.384010e-001 -6.657064e-001 7.071068e-001
    outer loop
      vertex   1.990000e+000 -1.981002e+000 1.550882e+001
      vertex   1.000000e+000 -1.283969e+000 1.649882e+001
      vertex   -3.759057e+001 -1.615549e+001 1.550882e+001
    endloop
  endfacet
  facet normal 2.384010e-001 -6.657064e-001 7.071068e-001
    outer loop
      vertex   -3.759057e+001 -1.615549e+001 1.550882e+001
      vertex   1.000000e+000 -1.283969e+000 1.649882e+001
      vertex   -3.759057e+001 -1.510392e+001 1.649882e+001
    endloop
  endfacet
  facet normal 2.384010e-001 -6.657064e-001 7.071068e-001
    outer loop
      vertex   -7.618113e+001 -2.892387e+001 1.649882e+001
      vertex   -3.759057e+001 -1.615549e+001 1.550882e+001
      vertex   -3.759057e+001 -1.510392e+001 1.649882e+001
    endloop
  endfacet
  facet normal 2.384010e-001 -6.657064e-001 7.071068e-001
    outer loop
      vertex   -7.618113e+001 -2.892387e+001 1.649882e+001
      vertex   -7.717113e+001 -3.032997e+001 1.550882e+001
      vertex   -3.759057e+001 -1.615549e+001 1.550882e+001
    endloop
  endfacet
  facet normal -7.071068e-001 0.000000e+000 7.071068e-001
    outer loop
      vertex   -7.717113e+001 4.533234e+001 1.550882e+001
      vertex   -7.717113e+001 2.460621e+001 1.550882e+001
      vertex   -7.618113e+001 4.392714e+001 1.649882e+001
    endloop
  endfacet
  facet normal -7.071068e-001 2.726589e-016 7.071068e-001
    outer loop
      vertex   -7.618113e+001 4.392714e+001 1.649882e+001
      vertex   -7.717113e+001 2.460621e+001 1.550882e+001
      vertex   -7.618113e+001 2.531397e+001 1.649882e+001
    endloop
  endfacet
  facet normal 3.371499e-001 -9.414510e-001 3.860923e-016
    outer loop
      vertex   1.990000e+000 -1.981002e+000 1.550882e+001
      vertex   -3.759057e+001 -1.615549e+001 1.550882e+001
      vertex   1.990000e+000 -1.981002e+000 1.501183e+000
    endloop
  endfacet
  facet normal 3.371499e-001 -9.414510e-001 -6.775674e-017
    outer loop
      vertex   1.990000e+000 -1.981002e+000 1.501183e+000
      vertex   -3.759057e+001 -1.615549e+001 1.550882e+001
      vertex   -3.759057e+001 -1.615549e+001 1.501183e+000
    endloop
  endfacet
  facet normal 3.371499e-001 -9.414510e-001 -6.775674e-017
    outer loop
      vertex   -3.759057e+001 -1.615549e+001 1.501183e+000
      vertex   -3.759057e+001 -1.615549e+001 1.550882e+001
      vertex   -7.717113e+001 -3.032997e+001 1.550882e+001
    endloop
  endfacet
  facet normal 3.371499e-001 -9.414510e-001 1.930461e-016
    outer loop
      vertex   -7.717113e+001 -3.032997e+001 1.501183e+000
      vertex   -3.759057e+001 -1.615549e+001 1.501183e+000
      vertex   -7.717113e+001 -3.032997e+001 1.550882e+001
    endloop
  endfacet
  facet normal -1.000000e+000 0.000000e+000 -0.000000e+000
    outer loop
      vertex   -7.717113e+001 -3.032997e+001 1.550882e+001
      vertex   -7.717113e+001 -9.945842e+000 1.550882e+001
      vertex   -7.717113e+001 -3.032997e+001 1.501183e+000
    endloop
  endfacet
  facet normal -1.000000e+000 0.000000e+000 -0.000000e+000
    outer loop
      vertex   -7.717113e+001 -3.032997e+001 1.501183e+000
      vertex   -7.717113e+001 -9.945842e+000 1.550882e+001
      vertex   -7.717113e+001 -9.945842e+000 1.501183e+000
    endloop
  endfacet
  facet normal -3.141270e-001 9.493810e-001 -7.501968e-016
    outer loop
      vertex   -7.717113e+001 -9.945842e+000 1.550882e+001
      vertex   -2.581637e+001 7.046196e+000 1.550882e+001
      vertex   -7.717113e+001 -9.945842e+000 1.501183e+000
    endloop
  endfacet
  facet normal -3.141270e-001 9.493810e-001 -2.620380e-016
    outer loop
      vertex   -7.717113e+001 -9.945842e+000 1.501183e+000
      vertex   -2.581637e+001 7.046196e+000 1.550882e+001
      vertex   -2.581637e+001 7.046196e+000 1.501183e+000
    endloop
  endfacet
  facet normal -3.235439e-001 -9.462132e-001 7.476936e-016
    outer loop
      vertex   -2.581637e+001 7.046196e+000 1.550882e+001
      vertex   -7.717113e+001 2.460621e+001 1.550882e+001
      vertex   -2.581637e+001 7.046196e+000 1.501183e+000
    endloop
  endfacet
  facet normal -3.235439e-001 -9.462132e-001 1.048193e-015
    outer loop
      vertex   -2.581637e+001 7.046196e+000 1.501183e+000
      vertex   -7.717113e+001 2.460621e+001 1.550882e+001
      vertex   -7.717113e+001 2.460621e+001 1.501183e+000
    endloop
  endfacet
  facet normal 1.000000e+000 0.000000e+000 0.000000e+000
    outer loop
      vertex   -7.517113e+001 -1.139073e+001 1.550882e+001
      vertex   -7.517113e+001 -2.748936e+001 1.550882e+001
      vertex   -7.517113e+001 -1.139073e+001 1.501183e+000
    endloop
  endfacet
  facet normal 1.000000e+000 0.000000e+000 0.000000e+000
    outer loop
      vertex   -7.517113e+001 -1.139073e+001 1.501183e+000
      vertex   -7.517113e+001 -2.748936e+001 1.550882e+001
      vertex   -7.517113e+001 -2.748936e+001 1.501183e+000
    endloop
  endfacet
  facet normal -3.371499e-001 9.414510e-001 -1.016599e-015
    outer loop
      vertex   -7.517113e+001 -2.748936e+001 1.550882e+001
      vertex   -3.759057e+001 -1.403111e+001 1.550882e+001
      vertex   -7.517113e+001 -2.748936e+001 1.501183e+000
    endloop
  endfacet
  facet normal -3.371499e-001 9.414510e-001 -1.006741e-015
    outer loop
      vertex   -7.517113e+001 -2.748936e+001 1.501183e+000
      vertex   -3.759057e+001 -1.403111e+001 1.550882e+001
      vertex   -3.759057e+001 -1.403111e+001 1.501183e+000
    endloop
  endfacet
  facet normal -3.371499e-001 9.414510e-001 -1.006741e-015
    outer loop
      vertex   -3.759057e+001 -1.403111e+001 1.501183e+000
      vertex   -3.759057e+001 -1.403111e+001 1.550882e+001
      vertex   -1.000000e-002 -5.728558e-001 1.550882e+001
    endloop
  endfacet
  facet normal -3.371499e-001 9.414510e-001 0.000000e+000
    outer loop
      vertex   -1.000000e-002 -5.728558e-001 1.501183e+000
      vertex   -3.759057e+001 -1.403111e+001 1.501183e+000
      vertex   -1.000000e-002 -5.728558e-001 1.550882e+001
    endloop
  endfacet
  facet normal -1.000000e+000 0.000000e+000 1.014508e-015
    outer loop
      vertex   -7.717113e+001 2.460621e+001 1.550882e+001
      vertex   -7.717113e+001 4.533234e+001 1.550882e+001
      vertex   -7.717113e+001 2.460621e+001 1.501183e+000
    endloop
  endfacet
  facet normal -1.000000e+000 6.856493e-016 -6.955966e-031
    outer loop
      vertex   -7.717113e+001 2.460621e+001 1.501183e+000
      vertex   -7.717113e+001 4.533234e+001 1.550882e+001
      vertex   -7.717113e+001 4.533234e+001 1.501183e+000
    endloop
  endfacet
  facet normal 3.365805e-001 9.416547e-001 -9.654396e-016
    outer loop
      vertex   -7.717113e+001 4.533234e+001 1.550882e+001
      vertex   -3.759057e+001 3.118485e+001 1.550882e+001
      vertex   -7.717113e+001 4.533234e+001 1.501183e+000
    endloop
  endfacet
  facet normal 3.365805e-001 9.416547e-001 -5.457553e-016
    outer loop
      vertex   -7.717113e+001 4.533234e+001 1.501183e+000
      vertex   -3.759057e+001 3.118485e+001 1.550882e+001
      vertex   -3.759057e+001 3.118485e+001 1.501183e+000
    endloop
  endfacet
  facet normal 3.365805e-001 9.416547e-001 -5.457553e-016
    outer loop
      vertex   -3.759057e+001 3.118485e+001 1.501183e+000
      vertex   -3.759057e+001 3.118485e+001 1.550882e+001
      vertex   1.990000e+000 1.703737e+001 1.550882e+001
    endloop
  endfacet
  facet normal 3.365805e-001 9.416547e-001 -7.723517e-016
    outer loop
      vertex   1.990000e+000 1.703737e+001 1.501183e+000
      vertex   -3.759057e+001 3.118485e+001 1.501183e+000
      vertex   1.990000e+000 1.703737e+001 1.550882e+001
    endloop
  endfacet
  facet normal -1.000000e+000 0.000000e+000 -0.000000e+000
    outer loop
      vertex   -1.000000e-002 -5.728558e-001 1.550882e+001
      vertex   -1.000000e-002 1.562832e+001 1.550882e+001
      vertex   -1.000000e-002 -5.728558e-001 1.501183e+000
    endloop
  endfacet
  facet normal -1.000000e+000 0.000000e+000 -0.000000e+000
    outer loop
      vertex   -1.000000e-002 -5.728558e-001 1.501183e+000
      vertex   -1.000000e-002 1.562832e+001 1.550882e+001
      vertex   -1.000000e-002 1.562832e+001 1.501183e+000
    endloop
  endfacet
  facet normal 1.000000e+000 -1.401033e-016 -2.219236e-016
    outer loop
      vertex   1.990000e+000 1.703737e+001 1.550882e+001
      vertex   1.990000e+000 -1.981002e+000 1.550882e+001
      vertex   1.990000e+000 1.703737e+001 1.501183e+000
    endloop
  endfacet
  facet normal 1.000000e+000 5.837636e-017 4.755506e-017
    outer loop
      vertex   1.990000e+000 1.703737e+001 1.501183e+000
      vertex   1.990000e+000 -1.981002e+000 1.550882e+001
      vertex   1.990000e+000 -1.981002e+000 1.501183e+000
    endloop
  endfacet
  facet normal -5.302169e-017 -2.329929e-016 -1.000000e+000
    outer loop
      vertex   -1.000000e-002 1.562832e+001 1.501183e+000
      vertex   1.990000e+000 -1.981002e+000 1.501183e+000
      vertex   -1.000000e-002 -5.728558e-001 1.501183e+000
    endloop
  endfacet
  facet normal 4.526263e-017 -2.218302e-016 -1.000000e+000
    outer loop
      vertex   -1.000000e-002 1.562832e+001 1.501183e+000
      vertex   1.990000e+000 1.703737e+001 1.501183e+000
      vertex   1.990000e+000 -1.981002e+000 1.501183e+000
    endloop
  endfacet
  facet normal 1.449975e-016 -3.633934e-016 -1.000000e+000
    outer loop
      vertex   -1.000000e-002 1.562832e+001 1.501183e+000
      vertex   -3.759057e+001 3.118485e+001 1.501183e+000
      vertex   1.990000e+000 1.703737e+001 1.501183e+000
    endloop
  endfacet
  facet normal -6.999334e-016 -2.404527e-015 -1.000000e+000
    outer loop
      vertex   -1.000000e-002 1.562832e+001 1.501183e+000
      vertex   -3.759057e+001 2.906093e+001 1.501183e+000
      vertex   -3.759057e+001 3.118485e+001 1.501183e+000
    endloop
  endfacet
  facet normal -6.231229e-016 -2.404527e-015 -1.000000e+000
    outer loop
      vertex   -3.759057e+001 3.118485e+001 1.501183e+000
      vertex   -3.759057e+001 2.906093e+001 1.501183e+000
      vertex   -7.517113e+001 4.249355e+001 1.501183e+000
    endloop
  endfacet
  facet normal -2.903942e-016 -4.392441e-016 -1.000000e+000
    outer loop
      vertex   -7.717113e+001 4.533234e+001 1.501183e+000
      vertex   -7.517113e+001 4.249355e+001 1.501183e+000
      vertex   -7.717113e+001 2.460621e+001 1.501183e+000
    endloop
  endfacet
  facet normal 3.785890e-017 -2.079815e-016 -1.000000e+000
    outer loop
      vertex   -7.717113e+001 4.533234e+001 1.501183e+000
      vertex   -3.759057e+001 3.118485e+001 1.501183e+000
      vertex   -7.517113e+001 4.249355e+001 1.501183e+000
    endloop
  endfacet
  facet normal 1.251948e-016 -4.857115e-016 -1.000000e+000
    outer loop
      vertex   -7.517113e+001 4.249355e+001 1.501183e+000
      vertex   -7.517113e+001 2.603603e+001 1.501183e+000
      vertex   -7.717113e+001 2.460621e+001 1.501183e+000
    endloop
  endfacet
  facet normal 3.076522e-017 -3.536253e-016 -1.000000e+000
    outer loop
      vertex   -7.717113e+001 2.460621e+001 1.501183e+000
      vertex   -7.517113e+001 2.603603e+001 1.501183e+000
      vertex   -4.735741e+001 1.652553e+001 1.501183e+000
    endloop
  endfacet
  facet normal -2.471576e-018 -4.975218e-016 -1.000000e+000
    outer loop
      vertex   -2.581637e+001 7.046196e+000 1.501183e+000
      vertex   -4.735741e+001 1.652553e+001 1.501183e+000
      vertex   -1.954369e+001 7.015035e+000 1.501183e+000
    endloop
  endfacet
  facet normal -2.125586e-018 -4.278750e-016 -1.000000e+000
    outer loop
      vertex   -4.735741e+001 -2.187846e+000 1.501183e+000
      vertex   -2.581637e+001 7.046196e+000 1.501183e+000
      vertex   -1.954369e+001 7.015035e+000 1.501183e+000
    endloop
  endfacet
  facet normal 3.245151e-016 -1.189858e-015 -1.000000e+000
    outer loop
      vertex   -4.735741e+001 -2.187846e+000 1.501183e+000
      vertex   -7.717113e+001 -9.945842e+000 1.501183e+000
      vertex   -2.581637e+001 7.046196e+000 1.501183e+000
    endloop
  endfacet
  facet normal 6.975020e-017 -2.108049e-016 -1.000000e+000
    outer loop
      vertex   -4.735741e+001 -2.187846e+000 1.501183e+000
      vertex   -7.517113e+001 -1.139073e+001 1.501183e+000
      vertex   -7.717113e+001 -9.945842e+000 1.501183e+000
    endloop
  endfacet
  facet normal -3.359660e-016 -7.723947e-016 -1.000000e+000
    outer loop
      vertex   -7.717113e+001 -9.945842e+000 1.501183e+000
      vertex   -7.517113e+001 -1.139073e+001 1.501183e+000
      vertex   -7.517113e+001 -2.748936e+001 1.501183e+000
    endloop
  endfacet
  facet normal -2.626976e-016 2.862265e-017 -1.000000e+000
    outer loop
      vertex   -7.717113e+001 -3.032997e+001 1.501183e+000
      vertex   -7.517113e+001 -2.748936e+001 1.501183e+000
      vertex   -3.759057e+001 -1.615549e+001 1.501183e+000
    endloop
  endfacet
  facet normal 7.062410e-016 -6.535807e-016 -1.000000e+000
    outer loop
      vertex   -7.717113e+001 -3.032997e+001 1.501183e+000
      vertex   -7.717113e+001 -9.945842e+000 1.501183e+000
      vertex   -7.517113e+001 -2.748936e+001 1.501183e+000
    endloop
  endfacet
  facet normal -1.748071e-017 -5.316289e-016 -1.000000e+000
    outer loop
      vertex   -7.717113e+001 2.460621e+001 1.501183e+000
      vertex   -4.735741e+001 1.652553e+001 1.501183e+000
      vertex   -2.581637e+001 7.046196e+000 1.501183e+000
    endloop
  endfacet
  facet normal -7.584279e-016 1.672353e-015 -1.000000e+000
    outer loop
      vertex   -7.517113e+001 -2.748936e+001 1.501183e+000
      vertex   -3.759057e+001 -1.403111e+001 1.501183e+000
      vertex   -3.759057e+001 -1.615549e+001 1.501183e+000
    endloop
  endfacet
  facet normal -8.293299e-016 1.672353e-015 -1.000000e+000
    outer loop
      vertex   -3.759057e+001 -1.615549e+001 1.501183e+000
      vertex   -3.759057e+001 -1.403111e+001 1.501183e+000
      vertex   -1.000000e-002 -5.728558e-001 1.501183e+000
    endloop
  endfacet
  facet normal -4.437693e-017 -2.207147e-016 -1.000000e+000
    outer loop
      vertex   1.990000e+000 -1.981002e+000 1.501183e+000
      vertex   -3.759057e+001 -1.615549e+001 1.501183e+000
      vertex   -1.000000e-002 -5.728558e-001 1.501183e+000
    endloop
  endfacet
endsolid
