solid ascii
  facet normal 1.515769e-001 6.906696e-001 7.071068e-001
    outer loop
      vertex   -7.616113e+001 4.052065e+001 1.618893e+001
      vertex   -2.773962e+001 2.989388e+001 1.618893e+001
      vertex   -7.517113e+001 4.131694e+001 1.519893e+001
    endloop
  endfacet
  facet normal 1.515769e-001 6.906696e-001 7.071068e-001
    outer loop
      vertex   -7.517113e+001 4.131694e+001 1.519893e+001
      vertex   -2.773962e+001 2.989388e+001 1.618893e+001
      vertex   -2.354271e+001 2.998637e+001 1.519893e+001
    endloop
  endfacet
  facet normal 1.818571e-001 -6.833213e-001 7.071068e-001
    outer loop
      vertex   -7.616113e+001 1.700712e+001 1.618893e+001
      vertex   -7.517113e+001 1.624614e+001 1.519893e+001
      vertex   -2.773962e+001 2.989388e+001 1.618893e+001
    endloop
  endfacet
  facet normal 1.818571e-001 -6.833213e-001 7.071068e-001
    outer loop
      vertex   -2.773962e+001 2.989388e+001 1.618893e+001
      vertex   -7.517113e+001 1.624614e+001 1.519893e+001
      vertex   -2.354271e+001 2.998637e+001 1.519893e+001
    endloop
  endfacet
  facet normal 7.071068e-001 1.295971e-016 7.071068e-001
    outer loop
      vertex   -7.616113e+001 -2.572973e+000 1.618893e+001
      vertex   -7.517113e+001 -1.800736e+000 1.519893e+001
      vertex   -7.616113e+001 1.700712e+001 1.618893e+001
    endloop
  endfacet
  facet normal 7.071068e-001 2.784025e-016 7.071068e-001
    outer loop
      vertex   -7.616113e+001 1.700712e+001 1.618893e+001
      vertex   -7.517113e+001 -1.800736e+000 1.519893e+001
      vertex   -7.517113e+001 1.624614e+001 1.519893e+001
    endloop
  endfacet
  facet normal 1.517501e-001 -6.906315e-001 7.071068e-001
    outer loop
      vertex   -7.616113e+001 -2.571656e+001 1.618893e+001
      vertex   -7.517113e+001 -2.651265e+001 1.519893e+001
      vertex   -2.699301e+001 -1.491302e+001 1.618893e+001
    endloop
  endfacet
  facet normal 1.517501e-001 -6.906315e-001 7.071068e-001
    outer loop
      vertex   -2.699301e+001 -1.491302e+001 1.618893e+001
      vertex   -7.517113e+001 -2.651265e+001 1.519893e+001
      vertex   -2.267113e+001 -1.497701e+001 1.519893e+001
    endloop
  endfacet
  facet normal 7.071068e-001 2.882120e-016 7.071068e-001
    outer loop
      vertex   -7.616113e+001 -4.305015e+001 1.618893e+001
      vertex   -7.517113e+001 -4.179097e+001 1.519893e+001
      vertex   -7.616113e+001 -2.571656e+001 1.618893e+001
    endloop
  endfacet
  facet normal 7.071068e-001 4.110642e-016 7.071068e-001
    outer loop
      vertex   -7.616113e+001 -2.571656e+001 1.618893e+001
      vertex   -7.517113e+001 -4.179097e+001 1.519893e+001
      vertex   -7.517113e+001 -2.651265e+001 1.519893e+001
    endloop
  endfacet
  facet normal -1.668627e-001 6.871367e-001 7.071068e-001
    outer loop
      vertex   -1.000000e-002 -2.353902e+001 1.519893e+001
      vertex   -3.759057e+001 -3.266499e+001 1.519893e+001
      vertex   9.800000e-001 -2.431738e+001 1.618893e+001
    endloop
  endfacet
  facet normal -1.668627e-001 6.871367e-001 7.071068e-001
    outer loop
      vertex   9.800000e-001 -2.431738e+001 1.618893e+001
      vertex   -3.759057e+001 -3.266499e+001 1.519893e+001
      vertex   -3.759057e+001 -3.368377e+001 1.618893e+001
    endloop
  endfacet
  facet normal -1.668627e-001 6.871367e-001 7.071068e-001
    outer loop
      vertex   -3.759057e+001 -3.368377e+001 1.618893e+001
      vertex   -3.759057e+001 -3.266499e+001 1.519893e+001
      vertex   -7.517113e+001 -4.179097e+001 1.519893e+001
    endloop
  endfacet
  facet normal -1.668627e-001 6.871367e-001 7.071068e-001
    outer loop
      vertex   -7.616113e+001 -4.305015e+001 1.618893e+001
      vertex   -3.759057e+001 -3.368377e+001 1.618893e+001
      vertex   -7.517113e+001 -4.179097e+001 1.519893e+001
    endloop
  endfacet
  facet normal -7.071068e-001 -2.774259e-016 7.071068e-001
    outer loop
      vertex   -1.000000e-002 -7.440385e+000 1.519893e+001
      vertex   -1.000000e-002 -2.353902e+001 1.519893e+001
      vertex   9.800000e-001 -6.679610e+000 1.618893e+001
    endloop
  endfacet
  facet normal -7.071068e-001 4.271102e-016 7.071068e-001
    outer loop
      vertex   9.800000e-001 -6.679610e+000 1.618893e+001
      vertex   -1.000000e-002 -2.353902e+001 1.519893e+001
      vertex   9.800000e-001 -2.431738e+001 1.618893e+001
    endloop
  endfacet
  facet normal -1.820398e-001 -6.832726e-001 7.071068e-001
    outer loop
      vertex   -5.620141e+001 7.530319e+000 1.519893e+001
      vertex   -2.810570e+001 4.496704e-002 1.519893e+001
      vertex   -5.234974e+001 7.528678e+000 1.618893e+001
    endloop
  endfacet
  facet normal -1.820398e-001 -6.832726e-001 7.071068e-001
    outer loop
      vertex   -5.234974e+001 7.528678e+000 1.618893e+001
      vertex   -2.810570e+001 4.496704e-002 1.519893e+001
      vertex   9.800000e-001 -6.679610e+000 1.618893e+001
    endloop
  endfacet
  facet normal -1.820398e-001 -6.832726e-001 7.071068e-001
    outer loop
      vertex   9.800000e-001 -6.679610e+000 1.618893e+001
      vertex   -2.810570e+001 4.496704e-002 1.519893e+001
      vertex   -1.000000e-002 -7.440385e+000 1.519893e+001
    endloop
  endfacet
  facet normal 1.721289e-001 6.858365e-001 7.071068e-001
    outer loop
      vertex   -7.616113e+001 -2.572973e+000 1.618893e+001
      vertex   -2.699301e+001 -1.491302e+001 1.618893e+001
      vertex   -7.517113e+001 -1.800736e+000 1.519893e+001
    endloop
  endfacet
  facet normal 1.721289e-001 6.858365e-001 7.071068e-001
    outer loop
      vertex   -7.517113e+001 -1.800736e+000 1.519893e+001
      vertex   -2.699301e+001 -1.491302e+001 1.618893e+001
      vertex   -2.267113e+001 -1.497701e+001 1.519893e+001
    endloop
  endfacet
  facet normal -1.814575e-001 6.834275e-001 7.071068e-001
    outer loop
      vertex   -1.000000e-002 2.244975e+001 1.519893e+001
      vertex   -2.810570e+001 1.499004e+001 1.519893e+001
      vertex   9.800000e-001 2.168831e+001 1.618893e+001
    endloop
  endfacet
  facet normal -1.814575e-001 6.834275e-001 7.071068e-001
    outer loop
      vertex   9.800000e-001 2.168831e+001 1.618893e+001
      vertex   -2.810570e+001 1.499004e+001 1.519893e+001
      vertex   -5.234974e+001 7.528678e+000 1.618893e+001
    endloop
  endfacet
  facet normal -1.814575e-001 6.834275e-001 7.071068e-001
    outer loop
      vertex   -5.234974e+001 7.528678e+000 1.618893e+001
      vertex   -2.810570e+001 1.499004e+001 1.519893e+001
      vertex   -5.620141e+001 7.530319e+000 1.519893e+001
    endloop
  endfacet
  facet normal -7.071068e-001 3.035542e-016 7.071068e-001
    outer loop
      vertex   -1.000000e-002 2.244975e+001 1.519893e+001
      vertex   9.800000e-001 2.168831e+001 1.618893e+001
      vertex   -1.000000e-002 3.890727e+001 1.519893e+001
    endloop
  endfacet
  facet normal -7.071068e-001 9.594780e-016 7.071068e-001
    outer loop
      vertex   -1.000000e-002 3.890727e+001 1.519893e+001
      vertex   9.800000e-001 2.168831e+001 1.618893e+001
      vertex   9.800000e-001 3.968874e+001 1.618893e+001
    endloop
  endfacet
  facet normal -1.642033e-001 -6.877771e-001 7.071068e-001
    outer loop
      vertex   -7.616113e+001 5.810579e+001 1.618893e+001
      vertex   -7.517113e+001 5.685161e+001 1.519893e+001
      vertex   -3.759057e+001 4.889726e+001 1.618893e+001
    endloop
  endfacet
  facet normal -1.642033e-001 -6.877771e-001 7.071068e-001
    outer loop
      vertex   -3.759057e+001 4.889726e+001 1.618893e+001
      vertex   -7.517113e+001 5.685161e+001 1.519893e+001
      vertex   -3.759057e+001 4.787944e+001 1.519893e+001
    endloop
  endfacet
  facet normal -1.642033e-001 -6.877771e-001 7.071068e-001
    outer loop
      vertex   9.800000e-001 3.968874e+001 1.618893e+001
      vertex   -3.759057e+001 4.787944e+001 1.519893e+001
      vertex   -1.000000e-002 3.890727e+001 1.519893e+001
    endloop
  endfacet
  facet normal -1.642033e-001 -6.877771e-001 7.071068e-001
    outer loop
      vertex   9.800000e-001 3.968874e+001 1.618893e+001
      vertex   -3.759057e+001 4.889726e+001 1.618893e+001
      vertex   -3.759057e+001 4.787944e+001 1.519893e+001
    endloop
  endfacet
  facet normal 7.071068e-001 4.042809e-016 7.071068e-001
    outer loop
      vertex   -7.517113e+001 4.131694e+001 1.519893e+001
      vertex   -7.517113e+001 5.685161e+001 1.519893e+001
      vertex   -7.616113e+001 4.052065e+001 1.618893e+001
    endloop
  endfacet
  facet normal 7.071068e-001 1.397899e-016 7.071068e-001
    outer loop
      vertex   -7.616113e+001 4.052065e+001 1.618893e+001
      vertex   -7.517113e+001 5.685161e+001 1.519893e+001
      vertex   -7.616113e+001 5.810579e+001 1.618893e+001
    endloop
  endfacet
  facet normal -2.322185e-001 -9.726637e-001 5.494631e-016
    outer loop
      vertex   -1.000000e-002 3.890727e+001 1.519893e+001
      vertex   -3.759057e+001 4.787944e+001 1.519893e+001
      vertex   -1.000000e-002 3.890727e+001 1.811072e+000
    endloop
  endfacet
  facet normal -2.322185e-001 -9.726637e-001 5.162284e-016
    outer loop
      vertex   -1.000000e-002 3.890727e+001 1.811072e+000
      vertex   -3.759057e+001 4.787944e+001 1.519893e+001
      vertex   -3.759057e+001 4.787944e+001 1.811072e+000
    endloop
  endfacet
  facet normal -2.322185e-001 -9.726637e-001 5.162284e-016
    outer loop
      vertex   -3.759057e+001 4.787944e+001 1.811072e+000
      vertex   -3.759057e+001 4.787944e+001 1.519893e+001
      vertex   -7.517113e+001 5.685161e+001 1.519893e+001
    endloop
  endfacet
  facet normal -2.322185e-001 -9.726637e-001 1.098926e-015
    outer loop
      vertex   -7.517113e+001 5.685161e+001 1.811072e+000
      vertex   -3.759057e+001 4.787944e+001 1.811072e+000
      vertex   -7.517113e+001 5.685161e+001 1.519893e+001
    endloop
  endfacet
  facet normal 1.000000e+000 0.000000e+000 0.000000e+000
    outer loop
      vertex   -7.517113e+001 5.685161e+001 1.519893e+001
      vertex   -7.517113e+001 4.131694e+001 1.519893e+001
      vertex   -7.517113e+001 5.685161e+001 1.811072e+000
    endloop
  endfacet
  facet normal 1.000000e+000 0.000000e+000 0.000000e+000
    outer loop
      vertex   -7.517113e+001 5.685161e+001 1.811072e+000
      vertex   -7.517113e+001 4.131694e+001 1.519893e+001
      vertex   -7.517113e+001 4.131694e+001 1.811072e+000
    endloop
  endfacet
  facet normal 2.143622e-001 9.767543e-001 0.000000e+000
    outer loop
      vertex   -7.517113e+001 4.131694e+001 1.519893e+001
      vertex   -2.354271e+001 2.998637e+001 1.519893e+001
      vertex   -7.517113e+001 4.131694e+001 1.811072e+000
    endloop
  endfacet
  facet normal 2.143622e-001 9.767543e-001 -2.591997e-016
    outer loop
      vertex   -7.517113e+001 4.131694e+001 1.811072e+000
      vertex   -2.354271e+001 2.998637e+001 1.519893e+001
      vertex   -2.354271e+001 2.998637e+001 1.811072e+000
    endloop
  endfacet
  facet normal 2.571848e-001 -9.663622e-001 1.589463e-016
    outer loop
      vertex   -2.354271e+001 2.998637e+001 1.519893e+001
      vertex   -7.517113e+001 1.624614e+001 1.519893e+001
      vertex   -2.354271e+001 2.998637e+001 1.811072e+000
    endloop
  endfacet
  facet normal 2.571848e-001 -9.663622e-001 7.693260e-016
    outer loop
      vertex   -2.354271e+001 2.998637e+001 1.811072e+000
      vertex   -7.517113e+001 1.624614e+001 1.519893e+001
      vertex   -7.517113e+001 1.624614e+001 1.811072e+000
    endloop
  endfacet
  facet normal 1.000000e+000 0.000000e+000 0.000000e+000
    outer loop
      vertex   -7.517113e+001 1.624614e+001 1.519893e+001
      vertex   -7.517113e+001 -1.800736e+000 1.519893e+001
      vertex   -7.517113e+001 1.624614e+001 1.811072e+000
    endloop
  endfacet
  facet normal 1.000000e+000 0.000000e+000 0.000000e+000
    outer loop
      vertex   -7.517113e+001 1.624614e+001 1.811072e+000
      vertex   -7.517113e+001 -1.800736e+000 1.519893e+001
      vertex   -7.517113e+001 -1.800736e+000 1.811072e+000
    endloop
  endfacet
  facet normal 2.434270e-001 9.699192e-001 -7.844142e-016
    outer loop
      vertex   -7.517113e+001 -1.800736e+000 1.519893e+001
      vertex   -2.267113e+001 -1.497701e+001 1.519893e+001
      vertex   -7.517113e+001 -1.800736e+000 1.811072e+000
    endloop
  endfacet
  facet normal 2.434270e-001 9.699192e-001 -7.721577e-016
    outer loop
      vertex   -7.517113e+001 -1.800736e+000 1.811072e+000
      vertex   -2.267113e+001 -1.497701e+001 1.519893e+001
      vertex   -2.267113e+001 -1.497701e+001 1.811072e+000
    endloop
  endfacet
  facet normal 2.146070e-001 -9.767005e-001 6.319188e-016
    outer loop
      vertex   -2.267113e+001 -1.497701e+001 1.519893e+001
      vertex   -7.517113e+001 -2.651265e+001 1.519893e+001
      vertex   -2.267113e+001 -1.497701e+001 1.811072e+000
    endloop
  endfacet
  facet normal 2.146070e-001 -9.767005e-001 2.591854e-016
    outer loop
      vertex   -2.267113e+001 -1.497701e+001 1.811072e+000
      vertex   -7.517113e+001 -2.651265e+001 1.519893e+001
      vertex   -7.517113e+001 -2.651265e+001 1.811072e+000
    endloop
  endfacet
  facet normal -1.413104e-016 1.811586e-016 1.000000e+000
    outer loop
      vertex   -7.618113e+001 1.702250e+001 1.618893e+001
      vertex   -7.618113e+001 -2.588574e+000 1.618893e+001
      vertex   -7.616113e+001 -2.572973e+000 1.618893e+001
    endloop
  endfacet
  facet normal 1.394717e-016 1.814452e-016 1.000000e+000
    outer loop
      vertex   -7.616113e+001 1.700712e+001 1.618893e+001
      vertex   -7.618113e+001 1.702250e+001 1.618893e+001
      vertex   -7.616113e+001 -2.572973e+000 1.618893e+001
    endloop
  endfacet
  facet normal 5.457379e-017 7.099754e-017 1.000000e+000
    outer loop
      vertex   -7.616113e+001 1.700712e+001 1.618893e+001
      vertex   -2.782441e+001 2.989201e+001 1.618893e+001
      vertex   -7.618113e+001 1.702250e+001 1.618893e+001
    endloop
  endfacet
  facet normal -6.624156e-018 3.005772e-016 1.000000e+000
    outer loop
      vertex   -7.616113e+001 1.700712e+001 1.618893e+001
      vertex   -2.773962e+001 2.989388e+001 1.618893e+001
      vertex   -2.782441e+001 2.989201e+001 1.618893e+001
    endloop
  endfacet
  facet normal -6.695390e-018 3.038095e-016 1.000000e+000
    outer loop
      vertex   -2.782441e+001 2.989201e+001 1.618893e+001
      vertex   -2.773962e+001 2.989388e+001 1.618893e+001
      vertex   -7.616113e+001 4.052065e+001 1.618893e+001
    endloop
  endfacet
  facet normal -1.624993e-016 2.020293e-016 1.000000e+000
    outer loop
      vertex   -7.618113e+001 4.050456e+001 1.618893e+001
      vertex   -7.616113e+001 4.052065e+001 1.618893e+001
      vertex   -7.616113e+001 5.810579e+001 1.618893e+001
    endloop
  endfacet
  facet normal -1.134401e-016 -8.954508e-017 1.000000e+000
    outer loop
      vertex   -7.618113e+001 5.813113e+001 1.618893e+001
      vertex   -7.616113e+001 5.810579e+001 1.618893e+001
      vertex   -3.759057e+001 4.891783e+001 1.618893e+001
    endloop
  endfacet
  facet normal 2.553392e-016 2.015545e-016 1.000000e+000
    outer loop
      vertex   -7.618113e+001 5.813113e+001 1.618893e+001
      vertex   -7.618113e+001 4.050456e+001 1.618893e+001
      vertex   -7.616113e+001 5.810579e+001 1.618893e+001
    endloop
  endfacet
  facet normal -0.000000e+000 0.000000e+000 1.000000e+000
    outer loop
      vertex   -7.618113e+001 -2.570048e+001 1.618893e+001
      vertex   -7.616113e+001 -2.571656e+001 1.618893e+001
      vertex   -2.708032e+001 -1.491173e+001 1.618893e+001
    endloop
  endfacet
  facet normal 3.296304e-016 4.099225e-016 1.000000e+000
    outer loop
      vertex   -7.618113e+001 -2.570048e+001 1.618893e+001
      vertex   -7.616113e+001 -4.305015e+001 1.618893e+001
      vertex   -7.616113e+001 -2.571656e+001 1.618893e+001
    endloop
  endfacet
  facet normal -5.201346e-016 4.089429e-016 1.000000e+000
    outer loop
      vertex   -7.618113e+001 -2.570048e+001 1.618893e+001
      vertex   -7.618113e+001 -4.307559e+001 1.618893e+001
      vertex   -7.616113e+001 -4.305015e+001 1.618893e+001
    endloop
  endfacet
  facet normal 1.137864e-016 -8.946171e-017 1.000000e+000
    outer loop
      vertex   -7.616113e+001 -4.305015e+001 1.618893e+001
      vertex   -7.618113e+001 -4.307559e+001 1.618893e+001
      vertex   -3.759057e+001 -3.370435e+001 1.618893e+001
    endloop
  endfacet
  facet normal 9.210945e-017 6.359933e-029 1.000000e+000
    outer loop
      vertex   -3.759057e+001 -3.368377e+001 1.618893e+001
      vertex   -3.759057e+001 -3.370435e+001 1.618893e+001
      vertex   9.800000e-001 -2.431738e+001 1.618893e+001
    endloop
  endfacet
  facet normal 9.210945e-017 6.359933e-029 1.000000e+000
    outer loop
      vertex   -3.759057e+001 -3.368377e+001 1.618893e+001
      vertex   -7.616113e+001 -4.305015e+001 1.618893e+001
      vertex   -3.759057e+001 -3.370435e+001 1.618893e+001
    endloop
  endfacet
  facet normal 7.033704e-017 8.946171e-017 1.000000e+000
    outer loop
      vertex   -3.759057e+001 -3.370435e+001 1.618893e+001
      vertex   1.000000e+000 -2.433310e+001 1.618893e+001
      vertex   9.800000e-001 -2.431738e+001 1.618893e+001
    endloop
  endfacet
  facet normal 1.580878e-016 2.010720e-016 1.000000e+000
    outer loop
      vertex   9.800000e-001 -2.431738e+001 1.618893e+001
      vertex   1.000000e+000 -2.433310e+001 1.618893e+001
      vertex   1.000000e+000 -6.664241e+000 1.618893e+001
    endloop
  endfacet
  facet normal -4.952124e-017 6.444227e-017 1.000000e+000
    outer loop
      vertex   9.800000e-001 -6.679610e+000 1.618893e+001
      vertex   1.000000e+000 -6.664241e+000 1.618893e+001
      vertex   -5.227193e+001 7.528644e+000 1.618893e+001
    endloop
  endfacet
  facet normal -0.000000e+000 0.000000e+000 1.000000e+000
    outer loop
      vertex   -5.234974e+001 7.528678e+000 1.618893e+001
      vertex   -5.227193e+001 7.528644e+000 1.618893e+001
      vertex   9.800000e-001 2.168831e+001 1.618893e+001
    endloop
  endfacet
  facet normal 1.067062e-019 2.504457e-016 1.000000e+000
    outer loop
      vertex   -5.234974e+001 7.528678e+000 1.618893e+001
      vertex   9.800000e-001 -6.679610e+000 1.618893e+001
      vertex   -5.227193e+001 7.528644e+000 1.618893e+001
    endloop
  endfacet
  facet normal -1.547880e-016 2.014265e-016 1.000000e+000
    outer loop
      vertex   9.800000e-001 -2.431738e+001 1.618893e+001
      vertex   1.000000e+000 -6.664241e+000 1.618893e+001
      vertex   9.800000e-001 -6.679610e+000 1.618893e+001
    endloop
  endfacet
  facet normal 0.000000e+000 -0.000000e+000 1.000000e+000
    outer loop
      vertex   -5.227193e+001 7.528644e+000 1.618893e+001
      vertex   1.000000e+000 2.167292e+001 1.618893e+001
      vertex   9.800000e-001 2.168831e+001 1.618893e+001
    endloop
  endfacet
  facet normal 3.036064e-016 3.947365e-016 1.000000e+000
    outer loop
      vertex   9.800000e-001 2.168831e+001 1.618893e+001
      vertex   1.000000e+000 2.167292e+001 1.618893e+001
      vertex   9.800000e-001 3.968874e+001 1.618893e+001
    endloop
  endfacet
  facet normal -3.110505e-016 3.940542e-016 1.000000e+000
    outer loop
      vertex   9.800000e-001 3.968874e+001 1.618893e+001
      vertex   1.000000e+000 2.167292e+001 1.618893e+001
      vertex   1.000000e+000 3.970453e+001 1.618893e+001
    endloop
  endfacet
  facet normal -0.000000e+000 0.000000e+000 1.000000e+000
    outer loop
      vertex   -3.759057e+001 4.891783e+001 1.618893e+001
      vertex   9.800000e-001 3.968874e+001 1.618893e+001
      vertex   1.000000e+000 3.970453e+001 1.618893e+001
    endloop
  endfacet
  facet normal 0.000000e+000 0.000000e+000 1.000000e+000
    outer loop
      vertex   -3.759057e+001 4.891783e+001 1.618893e+001
      vertex   -3.759057e+001 4.889726e+001 1.618893e+001
      vertex   9.800000e-001 3.968874e+001 1.618893e+001
    endloop
  endfacet
  facet normal -9.210945e-017 -3.182930e-029 1.000000e+000
    outer loop
      vertex   -3.759057e+001 4.891783e+001 1.618893e+001
      vertex   -7.616113e+001 5.810579e+001 1.618893e+001
      vertex   -3.759057e+001 4.889726e+001 1.618893e+001
    endloop
  endfacet
  facet normal -5.771992e-017 7.176103e-017 1.000000e+000
    outer loop
      vertex   -7.618113e+001 4.050456e+001 1.618893e+001
      vertex   -2.782441e+001 2.989201e+001 1.618893e+001
      vertex   -7.616113e+001 4.052065e+001 1.618893e+001
    endloop
  endfacet
  facet normal 0.000000e+000 -0.000000e+000 1.000000e+000
    outer loop
      vertex   -7.616113e+001 -2.571656e+001 1.618893e+001
      vertex   -2.699301e+001 -1.491302e+001 1.618893e+001
      vertex   -2.708032e+001 -1.491173e+001 1.618893e+001
    endloop
  endfacet
  facet normal 4.529616e-018 3.059491e-016 1.000000e+000
    outer loop
      vertex   -2.708032e+001 -1.491173e+001 1.618893e+001
      vertex   -2.699301e+001 -1.491302e+001 1.618893e+001
      vertex   -7.616113e+001 -2.572973e+000 1.618893e+001
    endloop
  endfacet
  facet normal -5.474221e-017 7.017899e-017 1.000000e+000
    outer loop
      vertex   -7.618113e+001 -2.588574e+000 1.618893e+001
      vertex   -2.708032e+001 -1.491173e+001 1.618893e+001
      vertex   -7.616113e+001 -2.572973e+000 1.618893e+001
    endloop
  endfacet
  facet normal 1.642033e-001 6.877771e-001 7.071068e-001
    outer loop
      vertex   -7.717113e+001 5.938531e+001 1.519893e+001
      vertex   -7.618113e+001 5.813113e+001 1.618893e+001
      vertex   -3.759057e+001 4.993565e+001 1.519893e+001
    endloop
  endfacet
  facet normal 1.642033e-001 6.877771e-001 7.071068e-001
    outer loop
      vertex   -3.759057e+001 4.993565e+001 1.519893e+001
      vertex   -7.618113e+001 5.813113e+001 1.618893e+001
      vertex   -3.759057e+001 4.891783e+001 1.618893e+001
    endloop
  endfacet
  facet normal 1.642033e-001 6.877771e-001 7.071068e-001
    outer loop
      vertex   1.990000e+000 4.048599e+001 1.519893e+001
      vertex   -3.759057e+001 4.891783e+001 1.618893e+001
      vertex   1.000000e+000 3.970453e+001 1.618893e+001
    endloop
  endfacet
  facet normal 1.642033e-001 6.877771e-001 7.071068e-001
    outer loop
      vertex   1.990000e+000 4.048599e+001 1.519893e+001
      vertex   -3.759057e+001 4.993565e+001 1.519893e+001
      vertex   -3.759057e+001 4.891783e+001 1.618893e+001
    endloop
  endfacet
  facet normal 7.071068e-001 3.078391e-016 7.071068e-001
    outer loop
      vertex   1.000000e+000 2.167292e+001 1.618893e+001
      vertex   1.990000e+000 2.091148e+001 1.519893e+001
      vertex   1.000000e+000 3.970453e+001 1.618893e+001
    endloop
  endfacet
  facet normal 7.071068e-001 3.048020e-016 7.071068e-001
    outer loop
      vertex   1.000000e+000 3.970453e+001 1.618893e+001
      vertex   1.990000e+000 2.091148e+001 1.519893e+001
      vertex   1.990000e+000 4.048599e+001 1.519893e+001
    endloop
  endfacet
  facet normal -1.721289e-001 -6.858365e-001 7.071068e-001
    outer loop
      vertex   -7.717113e+001 -3.360810e+000 1.519893e+001
      vertex   -3.140219e+001 -1.484774e+001 1.519893e+001
      vertex   -7.618113e+001 -2.588574e+000 1.618893e+001
    endloop
  endfacet
  facet normal -1.721289e-001 -6.858365e-001 7.071068e-001
    outer loop
      vertex   -7.618113e+001 -2.588574e+000 1.618893e+001
      vertex   -3.140219e+001 -1.484774e+001 1.519893e+001
      vertex   -2.708032e+001 -1.491173e+001 1.618893e+001
    endloop
  endfacet
  facet normal -1.517501e-001 6.906315e-001 7.071068e-001
    outer loop
      vertex   -7.717113e+001 -2.490439e+001 1.519893e+001
      vertex   -7.618113e+001 -2.570048e+001 1.618893e+001
      vertex   -3.140219e+001 -1.484774e+001 1.519893e+001
    endloop
  endfacet
  facet normal -1.517501e-001 6.906315e-001 7.071068e-001
    outer loop
      vertex   -3.140219e+001 -1.484774e+001 1.519893e+001
      vertex   -7.618113e+001 -2.570048e+001 1.618893e+001
      vertex   -2.708032e+001 -1.491173e+001 1.618893e+001
    endloop
  endfacet
  facet normal -7.071068e-001 1.918124e-016 7.071068e-001
    outer loop
      vertex   -7.717113e+001 -4.433477e+001 1.519893e+001
      vertex   -7.618113e+001 -4.307559e+001 1.618893e+001
      vertex   -7.717113e+001 -2.490439e+001 1.519893e+001
    endloop
  endfacet
  facet normal -7.071068e-001 2.891663e-016 7.071068e-001
    outer loop
      vertex   -7.717113e+001 -2.490439e+001 1.519893e+001
      vertex   -7.618113e+001 -4.307559e+001 1.618893e+001
      vertex   -7.618113e+001 -2.570048e+001 1.618893e+001
    endloop
  endfacet
  facet normal 1.668627e-001 -6.871367e-001 7.071068e-001
    outer loop
      vertex   1.000000e+000 -2.433310e+001 1.618893e+001
      vertex   -3.759057e+001 -3.370435e+001 1.618893e+001
      vertex   1.990000e+000 -2.511147e+001 1.519893e+001
    endloop
  endfacet
  facet normal 1.668627e-001 -6.871367e-001 7.071068e-001
    outer loop
      vertex   1.990000e+000 -2.511147e+001 1.519893e+001
      vertex   -3.759057e+001 -3.370435e+001 1.618893e+001
      vertex   -3.759057e+001 -3.472312e+001 1.519893e+001
    endloop
  endfacet
  facet normal 1.668627e-001 -6.871367e-001 7.071068e-001
    outer loop
      vertex   -3.759057e+001 -3.472312e+001 1.519893e+001
      vertex   -3.759057e+001 -3.370435e+001 1.618893e+001
      vertex   -7.618113e+001 -4.307559e+001 1.618893e+001
    endloop
  endfacet
  facet normal 1.668627e-001 -6.871367e-001 7.071068e-001
    outer loop
      vertex   -7.717113e+001 -4.433477e+001 1.519893e+001
      vertex   -3.759057e+001 -3.472312e+001 1.519893e+001
      vertex   -7.618113e+001 -4.307559e+001 1.618893e+001
    endloop
  endfacet
  facet normal 7.071068e-001 4.709692e-016 7.071068e-001
    outer loop
      vertex   1.000000e+000 -6.664241e+000 1.618893e+001
      vertex   1.000000e+000 -2.433310e+001 1.618893e+001
      vertex   1.990000e+000 -5.903467e+000 1.519893e+001
    endloop
  endfacet
  facet normal 7.071068e-001 1.816480e-016 7.071068e-001
    outer loop
      vertex   1.990000e+000 -5.903467e+000 1.519893e+001
      vertex   1.000000e+000 -2.433310e+001 1.618893e+001
      vertex   1.990000e+000 -2.511147e+001 1.519893e+001
    endloop
  endfacet
  facet normal 1.820398e-001 6.832726e-001 7.071068e-001
    outer loop
      vertex   -5.227193e+001 7.528644e+000 1.618893e+001
      vertex   1.000000e+000 -6.664241e+000 1.618893e+001
      vertex   -4.842026e+001 7.527003e+000 1.519893e+001
    endloop
  endfacet
  facet normal 1.820398e-001 6.832726e-001 7.071068e-001
    outer loop
      vertex   -4.842026e+001 7.527003e+000 1.519893e+001
      vertex   1.000000e+000 -6.664241e+000 1.618893e+001
      vertex   1.990000e+000 -5.903467e+000 1.519893e+001
    endloop
  endfacet
  facet normal -7.071068e-001 0.000000e+000 7.071068e-001
    outer loop
      vertex   -7.717113e+001 -3.360810e+000 1.519893e+001
      vertex   -7.618113e+001 -2.588574e+000 1.618893e+001
      vertex   -7.717113e+001 1.778348e+001 1.519893e+001
    endloop
  endfacet
  facet normal -7.071068e-001 1.280985e-016 7.071068e-001
    outer loop
      vertex   -7.717113e+001 1.778348e+001 1.519893e+001
      vertex   -7.618113e+001 -2.588574e+000 1.618893e+001
      vertex   -7.618113e+001 1.702250e+001 1.618893e+001
    endloop
  endfacet
  facet normal 1.814575e-001 -6.834275e-001 7.071068e-001
    outer loop
      vertex   -5.227193e+001 7.528644e+000 1.618893e+001
      vertex   -4.842026e+001 7.527003e+000 1.519893e+001
      vertex   1.000000e+000 2.167292e+001 1.618893e+001
    endloop
  endfacet
  facet normal 1.814575e-001 -6.834275e-001 7.071068e-001
    outer loop
      vertex   1.000000e+000 2.167292e+001 1.618893e+001
      vertex   -4.842026e+001 7.527003e+000 1.519893e+001
      vertex   1.990000e+000 2.091148e+001 1.519893e+001
    endloop
  endfacet
  facet normal -1.818571e-001 6.833213e-001 7.071068e-001
    outer loop
      vertex   -7.717113e+001 1.778348e+001 1.519893e+001
      vertex   -7.618113e+001 1.702250e+001 1.618893e+001
      vertex   -3.202132e+001 2.979952e+001 1.519893e+001
    endloop
  endfacet
  facet normal -1.818571e-001 6.833213e-001 7.071068e-001
    outer loop
      vertex   -3.202132e+001 2.979952e+001 1.519893e+001
      vertex   -7.618113e+001 1.702250e+001 1.618893e+001
      vertex   -2.782441e+001 2.989201e+001 1.618893e+001
    endloop
  endfacet
  facet normal -1.515769e-001 -6.906696e-001 7.071068e-001
    outer loop
      vertex   -7.717113e+001 3.970827e+001 1.519893e+001
      vertex   -3.202132e+001 2.979952e+001 1.519893e+001
      vertex   -7.618113e+001 4.050456e+001 1.618893e+001
    endloop
  endfacet
  facet normal -1.515769e-001 -6.906696e-001 7.071068e-001
    outer loop
      vertex   -7.618113e+001 4.050456e+001 1.618893e+001
      vertex   -3.202132e+001 2.979952e+001 1.519893e+001
      vertex   -2.782441e+001 2.989201e+001 1.618893e+001
    endloop
  endfacet
  facet normal -7.071068e-001 0.000000e+000 7.071068e-001
    outer loop
      vertex   -7.717113e+001 5.938531e+001 1.519893e+001
      vertex   -7.717113e+001 3.970827e+001 1.519893e+001
      vertex   -7.618113e+001 5.813113e+001 1.618893e+001
    endloop
  endfacet
  facet normal -7.071068e-001 1.439602e-016 7.071068e-001
    outer loop
      vertex   -7.618113e+001 5.813113e+001 1.618893e+001
      vertex   -7.717113e+001 3.970827e+001 1.519893e+001
      vertex   -7.618113e+001 4.050456e+001 1.618893e+001
    endloop
  endfacet
  facet normal 2.566196e-001 -9.665125e-001 3.256250e-016
    outer loop
      vertex   1.990000e+000 2.091148e+001 1.519893e+001
      vertex   -4.842026e+001 7.527003e+000 1.519893e+001
      vertex   1.990000e+000 2.091148e+001 1.811072e+000
    endloop
  endfacet
  facet normal 2.566196e-001 -9.665125e-001 -7.207702e-017
    outer loop
      vertex   1.990000e+000 2.091148e+001 1.811072e+000
      vertex   -4.842026e+001 7.527003e+000 1.519893e+001
      vertex   -4.842026e+001 7.527003e+000 1.811072e+000
    endloop
  endfacet
  facet normal 2.574431e-001 9.662934e-001 -1.627756e-016
    outer loop
      vertex   -4.842026e+001 7.527003e+000 1.519893e+001
      vertex   1.990000e+000 -5.903467e+000 1.519893e+001
      vertex   -4.842026e+001 7.527003e+000 1.811072e+000
    endloop
  endfacet
  facet normal 2.574431e-001 9.662934e-001 -1.153439e-016
    outer loop
      vertex   -4.842026e+001 7.527003e+000 1.811072e+000
      vertex   1.990000e+000 -5.903467e+000 1.519893e+001
      vertex   1.990000e+000 -5.903467e+000 1.811072e+000
    endloop
  endfacet
  facet normal 1.000000e+000 -1.156001e-016 -1.990263e-016
    outer loop
      vertex   1.990000e+000 -5.903467e+000 1.519893e+001
      vertex   1.990000e+000 -2.511147e+001 1.519893e+001
      vertex   1.990000e+000 -5.903467e+000 1.811072e+000
    endloop
  endfacet
  facet normal 1.000000e+000 5.780003e-017 4.975657e-017
    outer loop
      vertex   1.990000e+000 -5.903467e+000 1.811072e+000
      vertex   1.990000e+000 -2.511147e+001 1.519893e+001
      vertex   1.990000e+000 -2.511147e+001 1.811072e+000
    endloop
  endfacet
  facet normal 2.359794e-001 -9.717580e-001 -9.381836e-016
    outer loop
      vertex   1.990000e+000 -2.511147e+001 1.519893e+001
      vertex   -3.759057e+001 -3.472312e+001 1.519893e+001
      vertex   1.990000e+000 -2.511147e+001 1.811072e+000
    endloop
  endfacet
  facet normal 2.359794e-001 -9.717580e-001 6.409907e-016
    outer loop
      vertex   1.990000e+000 -2.511147e+001 1.811072e+000
      vertex   -3.759057e+001 -3.472312e+001 1.519893e+001
      vertex   -3.759057e+001 -3.472312e+001 1.811072e+000
    endloop
  endfacet
  facet normal 2.359794e-001 -9.717580e-001 6.409907e-016
    outer loop
      vertex   -3.759057e+001 -3.472312e+001 1.811072e+000
      vertex   -3.759057e+001 -3.472312e+001 1.519893e+001
      vertex   -7.717113e+001 -4.433477e+001 1.519893e+001
    endloop
  endfacet
  facet normal 2.359794e-001 -9.717580e-001 5.212131e-016
    outer loop
      vertex   -7.717113e+001 -4.433477e+001 1.811072e+000
      vertex   -3.759057e+001 -3.472312e+001 1.811072e+000
      vertex   -7.717113e+001 -4.433477e+001 1.519893e+001
    endloop
  endfacet
  facet normal -1.000000e+000 0.000000e+000 -0.000000e+000
    outer loop
      vertex   -7.717113e+001 -4.433477e+001 1.519893e+001
      vertex   -7.717113e+001 -2.490439e+001 1.519893e+001
      vertex   -7.717113e+001 -4.433477e+001 1.811072e+000
    endloop
  endfacet
  facet normal -1.000000e+000 0.000000e+000 -0.000000e+000
    outer loop
      vertex   -7.717113e+001 -4.433477e+001 1.811072e+000
      vertex   -7.717113e+001 -2.490439e+001 1.519893e+001
      vertex   -7.717113e+001 -2.490439e+001 1.811072e+000
    endloop
  endfacet
  facet normal -2.146070e-001 9.767005e-001 -1.540312e-015
    outer loop
      vertex   -7.717113e+001 -2.490439e+001 1.519893e+001
      vertex   -3.140219e+001 -1.484774e+001 1.519893e+001
      vertex   -7.717113e+001 -2.490439e+001 1.811072e+000
    endloop
  endfacet
  facet normal -2.146070e-001 9.767005e-001 -2.434926e-016
    outer loop
      vertex   -7.717113e+001 -2.490439e+001 1.811072e+000
      vertex   -3.140219e+001 -1.484774e+001 1.519893e+001
      vertex   -3.140219e+001 -1.484774e+001 1.811072e+000
    endloop
  endfacet
  facet normal -2.434270e-001 -9.699192e-001 0.000000e+000
    outer loop
      vertex   -3.140219e+001 -1.484774e+001 1.519893e+001
      vertex   -7.717113e+001 -3.360810e+000 1.519893e+001
      vertex   -3.140219e+001 -1.484774e+001 1.811072e+000
    endloop
  endfacet
  facet normal -2.434270e-001 -9.699192e-001 -8.998452e-016
    outer loop
      vertex   -3.140219e+001 -1.484774e+001 1.811072e+000
      vertex   -7.717113e+001 -3.360810e+000 1.519893e+001
      vertex   -7.717113e+001 -3.360810e+000 1.811072e+000
    endloop
  endfacet
  facet normal 1.000000e+000 0.000000e+000 0.000000e+000
    outer loop
      vertex   -7.517113e+001 -2.651265e+001 1.519893e+001
      vertex   -7.517113e+001 -4.179097e+001 1.519893e+001
      vertex   -7.517113e+001 -2.651265e+001 1.811072e+000
    endloop
  endfacet
  facet normal 1.000000e+000 0.000000e+000 0.000000e+000
    outer loop
      vertex   -7.517113e+001 -2.651265e+001 1.811072e+000
      vertex   -7.517113e+001 -4.179097e+001 1.519893e+001
      vertex   -7.517113e+001 -4.179097e+001 1.811072e+000
    endloop
  endfacet
  facet normal -2.359794e-001 9.717580e-001 -5.489515e-016
    outer loop
      vertex   -7.517113e+001 -4.179097e+001 1.519893e+001
      vertex   -3.759057e+001 -3.266499e+001 1.519893e+001
      vertex   -7.517113e+001 -4.179097e+001 1.811072e+000
    endloop
  endfacet
  facet normal -2.359794e-001 9.717580e-001 -5.157477e-016
    outer loop
      vertex   -7.517113e+001 -4.179097e+001 1.811072e+000
      vertex   -3.759057e+001 -3.266499e+001 1.519893e+001
      vertex   -3.759057e+001 -3.266499e+001 1.811072e+000
    endloop
  endfacet
  facet normal -2.359794e-001 9.717580e-001 -5.157477e-016
    outer loop
      vertex   -3.759057e+001 -3.266499e+001 1.811072e+000
      vertex   -3.759057e+001 -3.266499e+001 1.519893e+001
      vertex   -1.000000e-002 -2.353902e+001 1.519893e+001
    endloop
  endfacet
  facet normal -2.359794e-001 9.717580e-001 -2.195806e-016
    outer loop
      vertex   -1.000000e-002 -2.353902e+001 1.811072e+000
      vertex   -3.759057e+001 -3.266499e+001 1.811072e+000
      vertex   -1.000000e-002 -2.353902e+001 1.519893e+001
    endloop
  endfacet
  facet normal -1.000000e+000 -6.130236e-016 1.171252e-031
    outer loop
      vertex   -1.000000e-002 -2.353902e+001 1.519893e+001
      vertex   -1.000000e-002 -7.440385e+000 1.519893e+001
      vertex   -1.000000e-002 -2.353902e+001 1.811072e+000
    endloop
  endfacet
  facet normal -1.000000e+000 -5.517105e-016 -7.372784e-017
    outer loop
      vertex   -1.000000e-002 -2.353902e+001 1.811072e+000
      vertex   -1.000000e-002 -7.440385e+000 1.519893e+001
      vertex   -1.000000e-002 -7.440385e+000 1.811072e+000
    endloop
  endfacet
  facet normal -2.574431e-001 -9.662934e-001 4.512521e-017
    outer loop
      vertex   -1.000000e-002 -7.440385e+000 1.811072e+000
      vertex   -1.000000e-002 -7.440385e+000 1.519893e+001
      vertex   -2.810570e+001 4.496704e-002 1.811072e+000
    endloop
  endfacet
  facet normal -2.574431e-001 -9.662934e-001 1.460287e-016
    outer loop
      vertex   -2.810570e+001 4.496704e-002 1.811072e+000
      vertex   -1.000000e-002 -7.440385e+000 1.519893e+001
      vertex   -2.810570e+001 4.496704e-002 1.519893e+001
    endloop
  endfacet
  facet normal -2.574431e-001 -9.662934e-001 1.366345e-016
    outer loop
      vertex   -5.620141e+001 7.530319e+000 1.519893e+001
      vertex   -2.810570e+001 4.496704e-002 1.811072e+000
      vertex   -2.810570e+001 4.496704e-002 1.519893e+001
    endloop
  endfacet
  facet normal -2.574431e-001 -9.662934e-001 6.410593e-017
    outer loop
      vertex   -5.620141e+001 7.530319e+000 1.519893e+001
      vertex   -5.620141e+001 7.530319e+000 1.811072e+000
      vertex   -2.810570e+001 4.496704e-002 1.811072e+000
    endloop
  endfacet
  facet normal -2.566196e-001 9.665125e-001 -6.412046e-017
    outer loop
      vertex   -5.620141e+001 7.530319e+000 1.811072e+000
      vertex   -5.620141e+001 7.530319e+000 1.519893e+001
      vertex   -2.810570e+001 1.499004e+001 1.811072e+000
    endloop
  endfacet
  facet normal -2.566196e-001 9.665125e-001 -8.033401e-016
    outer loop
      vertex   -2.810570e+001 1.499004e+001 1.811072e+000
      vertex   -5.620141e+001 7.530319e+000 1.519893e+001
      vertex   -2.810570e+001 1.499004e+001 1.519893e+001
    endloop
  endfacet
  facet normal -2.566196e-001 9.665125e-001 -7.694456e-016
    outer loop
      vertex   -1.000000e-002 2.244975e+001 1.519893e+001
      vertex   -2.810570e+001 1.499004e+001 1.811072e+000
      vertex   -2.810570e+001 1.499004e+001 1.519893e+001
    endloop
  endfacet
  facet normal -2.566196e-001 9.665125e-001 -2.564819e-016
    outer loop
      vertex   -1.000000e-002 2.244975e+001 1.519893e+001
      vertex   -1.000000e-002 2.244975e+001 1.811072e+000
      vertex   -2.810570e+001 1.499004e+001 1.811072e+000
    endloop
  endfacet
  facet normal -1.000000e+000 0.000000e+000 1.061474e-015
    outer loop
      vertex   -7.717113e+001 -3.360810e+000 1.519893e+001
      vertex   -7.717113e+001 1.778348e+001 1.519893e+001
      vertex   -7.717113e+001 -3.360810e+000 1.811072e+000
    endloop
  endfacet
  facet normal -1.000000e+000 6.720894e-016 -1.783513e-031
    outer loop
      vertex   -7.717113e+001 -3.360810e+000 1.811072e+000
      vertex   -7.717113e+001 1.778348e+001 1.519893e+001
      vertex   -7.717113e+001 1.778348e+001 1.811072e+000
    endloop
  endfacet
  facet normal -2.571848e-001 9.663622e-001 -3.635073e-016
    outer loop
      vertex   -7.717113e+001 1.778348e+001 1.519893e+001
      vertex   -3.202132e+001 2.979952e+001 1.519893e+001
      vertex   -7.717113e+001 1.778348e+001 1.811072e+000
    endloop
  endfacet
  facet normal -2.571848e-001 9.663622e-001 -2.564420e-016
    outer loop
      vertex   -7.717113e+001 1.778348e+001 1.811072e+000
      vertex   -3.202132e+001 2.979952e+001 1.519893e+001
      vertex   -3.202132e+001 2.979952e+001 1.811072e+000
    endloop
  endfacet
  facet normal -2.143622e-001 -9.767543e-001 2.755623e-016
    outer loop
      vertex   -3.202132e+001 2.979952e+001 1.519893e+001
      vertex   -7.717113e+001 3.970827e+001 1.519893e+001
      vertex   -3.202132e+001 2.979952e+001 1.811072e+000
    endloop
  endfacet
  facet normal -2.143622e-001 -9.767543e-001 7.459392e-016
    outer loop
      vertex   -3.202132e+001 2.979952e+001 1.811072e+000
      vertex   -7.717113e+001 3.970827e+001 1.519893e+001
      vertex   -7.717113e+001 3.970827e+001 1.811072e+000
    endloop
  endfacet
  facet normal -1.000000e+000 0.000000e+000 1.061474e-015
    outer loop
      vertex   -7.717113e+001 3.970827e+001 1.519893e+001
      vertex   -7.717113e+001 5.938531e+001 1.519893e+001
      vertex   -7.717113e+001 3.970827e+001 1.811072e+000
    endloop
  endfacet
  facet normal -1.000000e+000 7.222050e-016 -7.666015e-031
    outer loop
      vertex   -7.717113e+001 3.970827e+001 1.811072e+000
      vertex   -7.717113e+001 5.938531e+001 1.519893e+001
      vertex   -7.717113e+001 5.938531e+001 1.811072e+000
    endloop
  endfacet
  facet normal 2.322185e-001 9.726637e-001 -9.390579e-016
    outer loop
      vertex   -7.717113e+001 5.938531e+001 1.519893e+001
      vertex   -3.759057e+001 4.993565e+001 1.519893e+001
      vertex   -7.717113e+001 5.938531e+001 1.811072e+000
    endloop
  endfacet
  facet normal 2.322185e-001 9.726637e-001 -7.627221e-016
    outer loop
      vertex   -7.717113e+001 5.938531e+001 1.811072e+000
      vertex   -3.759057e+001 4.993565e+001 1.519893e+001
      vertex   -3.759057e+001 4.993565e+001 1.811072e+000
    endloop
  endfacet
  facet normal 2.322185e-001 9.726637e-001 -7.627221e-016
    outer loop
      vertex   -3.759057e+001 4.993565e+001 1.811072e+000
      vertex   -3.759057e+001 4.993565e+001 1.519893e+001
      vertex   1.990000e+000 4.048599e+001 1.519893e+001
    endloop
  endfacet
  facet normal 2.322185e-001 9.726637e-001 -1.147737e-015
    outer loop
      vertex   1.990000e+000 4.048599e+001 1.811072e+000
      vertex   -3.759057e+001 4.993565e+001 1.811072e+000
      vertex   1.990000e+000 4.048599e+001 1.519893e+001
    endloop
  endfacet
  facet normal -1.000000e+000 0.000000e+000 -0.000000e+000
    outer loop
      vertex   -1.000000e-002 2.244975e+001 1.519893e+001
      vertex   -1.000000e-002 3.890727e+001 1.519893e+001
      vertex   -1.000000e-002 2.244975e+001 1.811072e+000
    endloop
  endfacet
  facet normal -1.000000e+000 0.000000e+000 -0.000000e+000
    outer loop
      vertex   -1.000000e-002 2.244975e+001 1.811072e+000
      vertex   -1.000000e-002 3.890727e+001 1.519893e+001
      vertex   -1.000000e-002 3.890727e+001 1.811072e+000
    endloop
  endfacet
  facet normal 1.000000e+000 -1.134356e-016 -1.990263e-016
    outer loop
      vertex   1.990000e+000 4.048599e+001 1.519893e+001
      vertex   1.990000e+000 2.091148e+001 1.519893e+001
      vertex   1.990000e+000 4.048599e+001 1.811072e+000
    endloop
  endfacet
  facet normal 1.000000e+000 5.671779e-017 4.975657e-017
    outer loop
      vertex   1.990000e+000 4.048599e+001 1.811072e+000
      vertex   1.990000e+000 2.091148e+001 1.519893e+001
      vertex   1.990000e+000 2.091148e+001 1.811072e+000
    endloop
  endfacet
  facet normal 2.849050e-017 -1.073044e-016 -1.000000e+000
    outer loop
      vertex   -2.810570e+001 1.499004e+001 1.811072e+000
      vertex   -1.000000e-002 2.244975e+001 1.811072e+000
      vertex   1.990000e+000 2.091148e+001 1.811072e+000
    endloop
  endfacet
  facet normal 2.049538e-016 -1.004178e-015 -1.000000e+000
    outer loop
      vertex   -4.842026e+001 7.527003e+000 1.811072e+000
      vertex   -2.810570e+001 1.499004e+001 1.811072e+000
      vertex   1.990000e+000 2.091148e+001 1.811072e+000
    endloop
  endfacet
  facet normal -1.899279e-019 -4.457720e-016 -1.000000e+000
    outer loop
      vertex   -4.842026e+001 7.527003e+000 1.811072e+000
      vertex   -5.620141e+001 7.530319e+000 1.811072e+000
      vertex   -2.810570e+001 1.499004e+001 1.811072e+000
    endloop
  endfacet
  facet normal -2.531798e-019 -5.942280e-016 -1.000000e+000
    outer loop
      vertex   -4.842026e+001 7.527003e+000 1.811072e+000
      vertex   -2.810570e+001 4.496704e-002 1.811072e+000
      vertex   -5.620141e+001 7.530319e+000 1.811072e+000
    endloop
  endfacet
  facet normal -3.026251e-017 -6.757066e-016 -1.000000e+000
    outer loop
      vertex   -4.842026e+001 7.527003e+000 1.811072e+000
      vertex   1.990000e+000 -5.903467e+000 1.811072e+000
      vertex   -2.810570e+001 4.496704e-002 1.811072e+000
    endloop
  endfacet
  facet normal 5.944616e-017 -2.218316e-016 -1.000000e+000
    outer loop
      vertex   -2.810570e+001 4.496704e-002 1.811072e+000
      vertex   1.990000e+000 -5.903467e+000 1.811072e+000
      vertex   -1.000000e-002 -7.440385e+000 1.811072e+000
    endloop
  endfacet
  facet normal 2.705479e-016 -4.965394e-016 -1.000000e+000
    outer loop
      vertex   -1.000000e-002 -7.440385e+000 1.811072e+000
      vertex   1.990000e+000 -5.903467e+000 1.811072e+000
      vertex   -1.000000e-002 -2.353902e+001 1.811072e+000
    endloop
  endfacet
  facet normal -2.343508e-016 -4.392802e-016 -1.000000e+000
    outer loop
      vertex   -1.000000e-002 -2.353902e+001 1.811072e+000
      vertex   1.990000e+000 -5.903467e+000 1.811072e+000
      vertex   1.990000e+000 -2.511147e+001 1.811072e+000
    endloop
  endfacet
  facet normal -4.237877e-017 -1.951109e-016 -1.000000e+000
    outer loop
      vertex   -3.759057e+001 -3.472312e+001 1.811072e+000
      vertex   -1.000000e-002 -2.353902e+001 1.811072e+000
      vertex   1.990000e+000 -2.511147e+001 1.811072e+000
    endloop
  endfacet
  facet normal -2.288743e-016 4.315473e-016 -1.000000e+000
    outer loop
      vertex   -3.759057e+001 -3.472312e+001 1.811072e+000
      vertex   -3.759057e+001 -3.266499e+001 1.811072e+000
      vertex   -1.000000e-002 -2.353902e+001 1.811072e+000
    endloop
  endfacet
  facet normal -2.111488e-016 4.315473e-016 -1.000000e+000
    outer loop
      vertex   -3.759057e+001 -3.472312e+001 1.811072e+000
      vertex   -7.517113e+001 -4.179097e+001 1.811072e+000
      vertex   -3.759057e+001 -3.266499e+001 1.811072e+000
    endloop
  endfacet
  facet normal -1.140125e-016 -8.493753e-017 -1.000000e+000
    outer loop
      vertex   -3.759057e+001 -3.472312e+001 1.811072e+000
      vertex   -7.717113e+001 -4.433477e+001 1.811072e+000
      vertex   -7.517113e+001 -4.179097e+001 1.811072e+000
    endloop
  endfacet
  facet normal 3.593514e-016 -4.571081e-016 -1.000000e+000
    outer loop
      vertex   -7.517113e+001 -4.179097e+001 1.811072e+000
      vertex   -7.717113e+001 -4.433477e+001 1.811072e+000
      vertex   -7.717113e+001 -2.490439e+001 1.811072e+000
    endloop
  endfacet
  facet normal 9.549579e-018 -2.642550e-016 -1.000000e+000
    outer loop
      vertex   -7.517113e+001 -2.651265e+001 1.811072e+000
      vertex   -7.717113e+001 -2.490439e+001 1.811072e+000
      vertex   -3.140219e+001 -1.484774e+001 1.811072e+000
    endloop
  endfacet
  facet normal -8.484294e-018 -5.730645e-016 -1.000000e+000
    outer loop
      vertex   -2.267113e+001 -1.497701e+001 1.811072e+000
      vertex   -3.140219e+001 -1.484774e+001 1.811072e+000
      vertex   -7.517113e+001 -1.800736e+000 1.811072e+000
    endloop
  endfacet
  facet normal -3.203855e-018 -2.164017e-016 -1.000000e+000
    outer loop
      vertex   -2.267113e+001 -1.497701e+001 1.811072e+000
      vertex   -7.517113e+001 -2.651265e+001 1.811072e+000
      vertex   -3.140219e+001 -1.484774e+001 1.811072e+000
    endloop
  endfacet
  facet normal -9.989852e-017 -8.638989e-016 -1.000000e+000
    outer loop
      vertex   -3.759057e+001 4.787944e+001 1.811072e+000
      vertex   -3.759057e+001 4.993565e+001 1.811072e+000
      vertex   -1.000000e-002 3.890727e+001 1.811072e+000
    endloop
  endfacet
  facet normal -9.399002e-017 -8.638989e-016 -1.000000e+000
    outer loop
      vertex   -3.759057e+001 4.787944e+001 1.811072e+000
      vertex   -7.517113e+001 5.685161e+001 1.811072e+000
      vertex   -3.759057e+001 4.993565e+001 1.811072e+000
    endloop
  endfacet
  facet normal 1.943312e-017 -2.475699e-016 -1.000000e+000
    outer loop
      vertex   -3.759057e+001 4.993565e+001 1.811072e+000
      vertex   -7.517113e+001 5.685161e+001 1.811072e+000
      vertex   -7.717113e+001 5.938531e+001 1.811072e+000
    endloop
  endfacet
  facet normal -2.387612e-016 -4.513781e-016 -1.000000e+000
    outer loop
      vertex   -7.717113e+001 5.938531e+001 1.811072e+000
      vertex   -7.517113e+001 5.685161e+001 1.811072e+000
      vertex   -7.717113e+001 3.970827e+001 1.811072e+000
    endloop
  endfacet
  facet normal 1.803419e-016 -5.002721e-016 -1.000000e+000
    outer loop
      vertex   -7.717113e+001 3.970827e+001 1.811072e+000
      vertex   -7.517113e+001 5.685161e+001 1.811072e+000
      vertex   -7.517113e+001 4.131694e+001 1.811072e+000
    endloop
  endfacet
  facet normal -1.163244e-017 -6.605095e-016 -1.000000e+000
    outer loop
      vertex   -3.202132e+001 2.979952e+001 1.811072e+000
      vertex   -7.517113e+001 4.131694e+001 1.811072e+000
      vertex   -2.354271e+001 2.998637e+001 1.811072e+000
    endloop
  endfacet
  facet normal -2.311714e-017 -1.393807e-016 -1.000000e+000
    outer loop
      vertex   -7.517113e+001 1.624614e+001 1.811072e+000
      vertex   -3.202132e+001 2.979952e+001 1.811072e+000
      vertex   -2.354271e+001 2.998637e+001 1.811072e+000
    endloop
  endfacet
  facet normal -1.528430e-017 -1.643180e-016 -1.000000e+000
    outer loop
      vertex   -7.517113e+001 1.624614e+001 1.811072e+000
      vertex   -7.717113e+001 1.778348e+001 1.811072e+000
      vertex   -3.202132e+001 2.979952e+001 1.811072e+000
    endloop
  endfacet
  facet normal -2.578225e-016 -4.798470e-016 -1.000000e+000
    outer loop
      vertex   -7.517113e+001 1.624614e+001 1.811072e+000
      vertex   -7.517113e+001 -1.800736e+000 1.811072e+000
      vertex   -7.717113e+001 1.778348e+001 1.811072e+000
    endloop
  endfacet
  facet normal 2.248284e-016 -4.305573e-016 -1.000000e+000
    outer loop
      vertex   -7.717113e+001 1.778348e+001 1.811072e+000
      vertex   -7.517113e+001 -1.800736e+000 1.811072e+000
      vertex   -7.717113e+001 -3.360810e+000 1.811072e+000
    endloop
  endfacet
  facet normal 8.675837e-017 -2.535529e-016 -1.000000e+000
    outer loop
      vertex   -7.717113e+001 -3.360810e+000 1.811072e+000
      vertex   -7.517113e+001 -1.800736e+000 1.811072e+000
      vertex   -3.140219e+001 -1.484774e+001 1.811072e+000
    endloop
  endfacet
  facet normal 6.831390e-017 -3.609919e-016 -1.000000e+000
    outer loop
      vertex   -7.717113e+001 3.970827e+001 1.811072e+000
      vertex   -7.517113e+001 4.131694e+001 1.811072e+000
      vertex   -3.202132e+001 2.979952e+001 1.811072e+000
    endloop
  endfacet
  facet normal -1.986750e-016 -5.231993e-016 -1.000000e+000
    outer loop
      vertex   -7.517113e+001 -2.651265e+001 1.811072e+000
      vertex   -7.517113e+001 -4.179097e+001 1.811072e+000
      vertex   -7.717113e+001 -2.490439e+001 1.811072e+000
    endloop
  endfacet
  facet normal 8.189878e-017 -2.444020e-016 -1.000000e+000
    outer loop
      vertex   -3.759057e+001 4.993565e+001 1.811072e+000
      vertex   1.990000e+000 4.048599e+001 1.811072e+000
      vertex   -1.000000e-002 3.890727e+001 1.811072e+000
    endloop
  endfacet
  facet normal 2.381894e-016 -4.423987e-016 -1.000000e+000
    outer loop
      vertex   -1.000000e-002 3.890727e+001 1.811072e+000
      vertex   1.990000e+000 4.048599e+001 1.811072e+000
      vertex   1.990000e+000 2.091148e+001 1.811072e+000
    endloop
  endfacet
  facet normal -2.729335e-016 -4.992034e-016 -1.000000e+000
    outer loop
      vertex   -1.000000e-002 2.244975e+001 1.811072e+000
      vertex   -1.000000e-002 3.890727e+001 1.811072e+000
      vertex   1.990000e+000 2.091148e+001 1.811072e+000
    endloop
  endfacet
endsolid
