solid ascii
  facet normal 7.071068e-001 2.119359e-016 7.071068e-001
    outer loop
      vertex   -7.517113e+001 -7.617403e+000 1.546039e+001
      vertex   -7.616113e+001 -7.062344e+000 1.645039e+001
      vertex   -7.517113e+001 -2.520285e+001 1.546039e+001
    endloop
  endfacet
  facet normal 7.071068e-001 1.259210e-016 7.071068e-001
    outer loop
      vertex   -7.517113e+001 -2.520285e+001 1.546039e+001
      vertex   -7.616113e+001 -7.062344e+000 1.645039e+001
      vertex   -7.616113e+001 -2.701253e+001 1.645039e+001
    endloop
  endfacet
  facet normal 3.913305e-001 5.889486e-001 7.071068e-001
    outer loop
      vertex   9.800000e-001 -2.935641e+001 1.645039e+001
      vertex   -1.000000e-002 -2.750998e+001 1.546039e+001
      vertex   -3.867718e+001 -3.005953e+000 1.645039e+001
    endloop
  endfacet
  facet normal 3.913305e-001 5.889486e-001 7.071068e-001
    outer loop
      vertex   -3.867718e+001 -3.005953e+000 1.645039e+001
      vertex   -1.000000e-002 -2.750998e+001 1.546039e+001
      vertex   -3.866723e+001 -1.823946e+000 1.546039e+001
    endloop
  endfacet
  facet normal -7.071068e-001 3.528557e-016 7.071068e-001
    outer loop
      vertex   9.800000e-001 -2.935641e+001 1.645039e+001
      vertex   9.800000e-001 -8.665433e+000 1.645039e+001
      vertex   -1.000000e-002 -2.750998e+001 1.546039e+001
    endloop
  endfacet
  facet normal -7.071068e-001 2.296193e-016 7.071068e-001
    outer loop
      vertex   -1.000000e-002 -2.750998e+001 1.546039e+001
      vertex   9.800000e-001 -8.665433e+000 1.645039e+001
      vertex   -1.000000e-002 -9.206758e+000 1.546039e+001
    endloop
  endfacet
  facet normal -3.816016e-001 -5.952984e-001 7.071068e-001
    outer loop
      vertex   9.800000e-001 -8.665433e+000 1.645039e+001
      vertex   -2.417118e+001 7.457119e+000 1.645039e+001
      vertex   -1.000000e-002 -9.206758e+000 1.546039e+001
    endloop
  endfacet
  facet normal -3.816016e-001 -5.952984e-001 7.071068e-001
    outer loop
      vertex   -1.000000e-002 -9.206758e+000 1.546039e+001
      vertex   -2.417118e+001 7.457119e+000 1.645039e+001
      vertex   -2.600365e+001 7.455839e+000 1.546039e+001
    endloop
  endfacet
  facet normal -3.824326e-001 5.947649e-001 7.071068e-001
    outer loop
      vertex   9.800000e-001 2.362928e+001 1.645039e+001
      vertex   -1.000000e-002 2.416971e+001 1.546039e+001
      vertex   -2.417118e+001 7.457119e+000 1.645039e+001
    endloop
  endfacet
  facet normal -3.824326e-001 5.947649e-001 7.071068e-001
    outer loop
      vertex   -2.417118e+001 7.457119e+000 1.645039e+001
      vertex   -1.000000e-002 2.416971e+001 1.546039e+001
      vertex   -2.600365e+001 7.455839e+000 1.546039e+001
    endloop
  endfacet
  facet normal -7.071068e-001 4.124286e-016 7.071068e-001
    outer loop
      vertex   9.800000e-001 4.420215e+001 1.645039e+001
      vertex   -1.000000e-002 4.237039e+001 1.546039e+001
      vertex   9.800000e-001 2.362928e+001 1.645039e+001
    endloop
  endfacet
  facet normal -7.071068e-001 0.000000e+000 7.071068e-001
    outer loop
      vertex   9.800000e-001 2.362928e+001 1.645039e+001
      vertex   -1.000000e-002 4.237039e+001 1.546039e+001
      vertex   -1.000000e-002 2.416971e+001 1.546039e+001
    endloop
  endfacet
  facet normal 3.874011e-001 -5.915407e-001 7.071068e-001
    outer loop
      vertex   -3.923119e+001 1.668435e+001 1.546039e+001
      vertex   -1.000000e-002 4.237039e+001 1.546039e+001
      vertex   -3.923420e+001 1.786579e+001 1.645039e+001
    endloop
  endfacet
  facet normal 3.874011e-001 -5.915407e-001 7.071068e-001
    outer loop
      vertex   -3.923420e+001 1.786579e+001 1.645039e+001
      vertex   -1.000000e-002 4.237039e+001 1.546039e+001
      vertex   9.800000e-001 4.420215e+001 1.645039e+001
    endloop
  endfacet
  facet normal -3.843824e-001 -5.935067e-001 7.071068e-001
    outer loop
      vertex   -3.923119e+001 1.668435e+001 1.546039e+001
      vertex   -3.923420e+001 1.786579e+001 1.645039e+001
      vertex   -7.517113e+001 3.996072e+001 1.546039e+001
    endloop
  endfacet
  facet normal -3.843824e-001 -5.935067e-001 7.071068e-001
    outer loop
      vertex   -7.517113e+001 3.996072e+001 1.546039e+001
      vertex   -3.923420e+001 1.786579e+001 1.645039e+001
      vertex   -7.616113e+001 4.178138e+001 1.645039e+001
    endloop
  endfacet
  facet normal 7.071068e-001 2.124227e-016 7.071068e-001
    outer loop
      vertex   -7.517113e+001 2.222146e+001 1.546039e+001
      vertex   -7.517113e+001 3.996072e+001 1.546039e+001
      vertex   -7.616113e+001 2.167239e+001 1.645039e+001
    endloop
  endfacet
  facet normal 7.071068e-001 1.261885e-016 7.071068e-001
    outer loop
      vertex   -7.616113e+001 2.167239e+001 1.645039e+001
      vertex   -7.517113e+001 3.996072e+001 1.546039e+001
      vertex   -7.616113e+001 4.178138e+001 1.645039e+001
    endloop
  endfacet
  facet normal 3.744224e-001 5.998399e-001 7.071068e-001
    outer loop
      vertex   -5.102318e+001 7.148222e+000 1.546039e+001
      vertex   -7.517113e+001 2.222146e+001 1.546039e+001
      vertex   -5.290674e+001 7.156905e+000 1.645039e+001
    endloop
  endfacet
  facet normal 3.744224e-001 5.998399e-001 7.071068e-001
    outer loop
      vertex   -5.290674e+001 7.156905e+000 1.645039e+001
      vertex   -7.517113e+001 2.222146e+001 1.546039e+001
      vertex   -7.616113e+001 2.167239e+001 1.645039e+001
    endloop
  endfacet
  facet normal 3.688763e-001 -6.032664e-001 7.071068e-001
    outer loop
      vertex   -5.102318e+001 7.148222e+000 1.546039e+001
      vertex   -5.290674e+001 7.156905e+000 1.645039e+001
      vertex   -7.517113e+001 -7.617403e+000 1.546039e+001
    endloop
  endfacet
  facet normal 3.688763e-001 -6.032664e-001 7.071068e-001
    outer loop
      vertex   -7.517113e+001 -7.617403e+000 1.546039e+001
      vertex   -5.290674e+001 7.156905e+000 1.645039e+001
      vertex   -7.616113e+001 -7.062344e+000 1.645039e+001
    endloop
  endfacet
  facet normal -3.813584e-001 5.954543e-001 7.071068e-001
    outer loop
      vertex   -3.866723e+001 -1.823946e+000 1.546039e+001
      vertex   -7.517113e+001 -2.520285e+001 1.546039e+001
      vertex   -3.867718e+001 -3.005953e+000 1.645039e+001
    endloop
  endfacet
  facet normal -3.813584e-001 5.954543e-001 7.071068e-001
    outer loop
      vertex   -3.867718e+001 -3.005953e+000 1.645039e+001
      vertex   -7.517113e+001 -2.520285e+001 1.546039e+001
      vertex   -7.616113e+001 -2.701253e+001 1.645039e+001
    endloop
  endfacet
  facet normal 1.000000e+000 0.000000e+000 0.000000e+000
    outer loop
      vertex   -7.517113e+001 3.996072e+001 1.546039e+001
      vertex   -7.517113e+001 2.222146e+001 1.546039e+001
      vertex   -7.517113e+001 3.996072e+001 1.549612e+000
    endloop
  endfacet
  facet normal 1.000000e+000 0.000000e+000 0.000000e+000
    outer loop
      vertex   -7.517113e+001 3.996072e+001 1.549612e+000
      vertex   -7.517113e+001 2.222146e+001 1.546039e+001
      vertex   -7.517113e+001 2.222146e+001 1.549612e+000
    endloop
  endfacet
  facet normal 5.295132e-001 8.483017e-001 -1.435486e-016
    outer loop
      vertex   -7.517113e+001 2.222146e+001 1.546039e+001
      vertex   -5.102318e+001 7.148222e+000 1.546039e+001
      vertex   -7.517113e+001 2.222146e+001 1.549612e+000
    endloop
  endfacet
  facet normal 5.295132e-001 8.483017e-001 -3.791379e-016
    outer loop
      vertex   -7.517113e+001 2.222146e+001 1.549612e+000
      vertex   -5.102318e+001 7.148222e+000 1.546039e+001
      vertex   -5.102318e+001 7.148222e+000 1.549612e+000
    endloop
  endfacet
  facet normal 5.216698e-001 -8.531475e-001 2.887372e-016
    outer loop
      vertex   -5.102318e+001 7.148222e+000 1.546039e+001
      vertex   -7.517113e+001 -7.617403e+000 1.546039e+001
      vertex   -5.102318e+001 7.148222e+000 1.549612e+000
    endloop
  endfacet
  facet normal 5.216698e-001 -8.531475e-001 7.081354e-016
    outer loop
      vertex   -5.102318e+001 7.148222e+000 1.549612e+000
      vertex   -7.517113e+001 -7.617403e+000 1.546039e+001
      vertex   -7.517113e+001 -7.617403e+000 1.549612e+000
    endloop
  endfacet
  facet normal 1.000000e+000 0.000000e+000 0.000000e+000
    outer loop
      vertex   -7.517113e+001 -7.617403e+000 1.546039e+001
      vertex   -7.517113e+001 -2.520285e+001 1.546039e+001
      vertex   -7.517113e+001 -7.617403e+000 1.549612e+000
    endloop
  endfacet
  facet normal 1.000000e+000 0.000000e+000 0.000000e+000
    outer loop
      vertex   -7.517113e+001 -7.617403e+000 1.549612e+000
      vertex   -7.517113e+001 -2.520285e+001 1.546039e+001
      vertex   -7.517113e+001 -2.520285e+001 1.549612e+000
    endloop
  endfacet
  facet normal -5.393222e-001 8.420995e-001 1.885311e-016
    outer loop
      vertex   -7.517113e+001 -2.520285e+001 1.546039e+001
      vertex   -3.866723e+001 -1.823946e+000 1.546039e+001
      vertex   -7.517113e+001 -2.520285e+001 1.549612e+000
    endloop
  endfacet
  facet normal -5.393222e-001 8.420995e-001 -1.075331e-016
    outer loop
      vertex   -7.517113e+001 -2.520285e+001 1.549612e+000
      vertex   -3.866723e+001 -1.823946e+000 1.546039e+001
      vertex   -3.866723e+001 -1.823946e+000 1.549612e+000
    endloop
  endfacet
  facet normal 5.534250e-001 8.328990e-001 0.000000e+000
    outer loop
      vertex   -3.866723e+001 -1.823946e+000 1.546039e+001
      vertex   -1.000000e-002 -2.750998e+001 1.546039e+001
      vertex   -3.866723e+001 -1.823946e+000 1.549612e+000
    endloop
  endfacet
  facet normal 5.534250e-001 8.328990e-001 4.254330e-016
    outer loop
      vertex   -3.866723e+001 -1.823946e+000 1.549612e+000
      vertex   -1.000000e-002 -2.750998e+001 1.546039e+001
      vertex   -1.000000e-002 -2.750998e+001 1.549612e+000
    endloop
  endfacet
  facet normal -3.247436e-016 1.776538e-016 1.000000e+000
    outer loop
      vertex   -7.618113e+001 -2.704909e+001 1.645039e+001
      vertex   -7.616113e+001 -2.701253e+001 1.645039e+001
      vertex   -7.618113e+001 -7.051131e+000 1.645039e+001
    endloop
  endfacet
  facet normal 1.458193e-016 -7.977171e-017 1.000000e+000
    outer loop
      vertex   -7.618113e+001 -2.704909e+001 1.645039e+001
      vertex   -3.867738e+001 -3.029832e+000 1.645039e+001
      vertex   -7.616113e+001 -2.701253e+001 1.645039e+001
    endloop
  endfacet
  facet normal 9.529344e-017 -8.023313e-019 1.000000e+000
    outer loop
      vertex   -7.616113e+001 -2.701253e+001 1.645039e+001
      vertex   -3.867738e+001 -3.029832e+000 1.645039e+001
      vertex   -3.867718e+001 -3.005953e+000 1.645039e+001
    endloop
  endfacet
  facet normal -8.908725e-017 7.500778e-019 1.000000e+000
    outer loop
      vertex   -3.867718e+001 -3.005953e+000 1.645039e+001
      vertex   -3.867738e+001 -3.029832e+000 1.645039e+001
      vertex   9.800000e-001 -2.935641e+001 1.645039e+001
    endloop
  endfacet
  facet normal 9.802983e-014 1.478034e-013 1.000000e+000
    outer loop
      vertex   9.800000e-001 -2.935641e+001 1.645039e+001
      vertex   -3.867738e+001 -3.029832e+000 1.645039e+001
      vertex   1.000000e+000 -2.939371e+001 1.645039e+001
    endloop
  endfacet
  facet normal -1.769967e-013 3.426083e-016 1.000000e+000
    outer loop
      vertex   1.000000e+000 -8.654497e+000 1.645039e+001
      vertex   9.800000e-001 -2.935641e+001 1.645039e+001
      vertex   1.000000e+000 -2.939371e+001 1.645039e+001
    endloop
  endfacet
  facet normal -9.388633e-017 1.717035e-016 1.000000e+000
    outer loop
      vertex   1.000000e+000 -8.654497e+000 1.645039e+001
      vertex   9.800000e-001 -8.665433e+000 1.645039e+001
      vertex   9.800000e-001 -2.935641e+001 1.645039e+001
    endloop
  endfacet
  facet normal -6.506819e-017 1.189996e-016 1.000000e+000
    outer loop
      vertex   1.000000e+000 -8.654497e+000 1.645039e+001
      vertex   -2.413416e+001 7.457145e+000 1.645039e+001
      vertex   9.800000e-001 -8.665433e+000 1.645039e+001
    endloop
  endfacet
  facet normal -1.537184e-019 2.201170e-016 1.000000e+000
    outer loop
      vertex   9.800000e-001 -8.665433e+000 1.645039e+001
      vertex   -2.413416e+001 7.457145e+000 1.645039e+001
      vertex   -2.417118e+001 7.457119e+000 1.645039e+001
    endloop
  endfacet
  facet normal -1.535806e-019 2.199197e-016 1.000000e+000
    outer loop
      vertex   -2.417118e+001 7.457119e+000 1.645039e+001
      vertex   -2.413416e+001 7.457145e+000 1.645039e+001
      vertex   9.800000e-001 2.362928e+001 1.645039e+001
    endloop
  endfacet
  facet normal 6.490206e-017 1.188930e-016 1.000000e+000
    outer loop
      vertex   9.800000e-001 2.362928e+001 1.645039e+001
      vertex   -2.413416e+001 7.457145e+000 1.645039e+001
      vertex   1.000000e+000 2.361836e+001 1.645039e+001
    endloop
  endfacet
  facet normal -3.187785e-016 1.722879e-016 1.000000e+000
    outer loop
      vertex   9.800000e-001 4.420215e+001 1.645039e+001
      vertex   1.000000e+000 2.361836e+001 1.645039e+001
      vertex   1.000000e+000 4.423916e+001 1.645039e+001
    endloop
  endfacet
  facet normal 1.366778e-016 -7.386926e-017 1.000000e+000
    outer loop
      vertex   -3.923426e+001 1.788966e+001 1.645039e+001
      vertex   9.800000e-001 4.420215e+001 1.645039e+001
      vertex   1.000000e+000 4.423916e+001 1.645039e+001
    endloop
  endfacet
  facet normal 8.819761e-017 2.246734e-019 1.000000e+000
    outer loop
      vertex   -3.923426e+001 1.788966e+001 1.645039e+001
      vertex   -3.923420e+001 1.786579e+001 1.645039e+001
      vertex   9.800000e-001 4.420215e+001 1.645039e+001
    endloop
  endfacet
  facet normal -9.636827e-017 -2.454872e-019 1.000000e+000
    outer loop
      vertex   -3.923426e+001 1.788966e+001 1.645039e+001
      vertex   -7.616113e+001 4.178138e+001 1.645039e+001
      vertex   -3.923420e+001 1.786579e+001 1.645039e+001
    endloop
  endfacet
  facet normal -1.484284e-016 -8.070922e-017 1.000000e+000
    outer loop
      vertex   -3.923426e+001 1.788966e+001 1.645039e+001
      vertex   -7.618113e+001 4.181816e+001 1.645039e+001
      vertex   -7.616113e+001 4.178138e+001 1.645039e+001
    endloop
  endfacet
  facet normal 3.241388e-016 1.762533e-016 1.000000e+000
    outer loop
      vertex   -7.616113e+001 4.178138e+001 1.645039e+001
      vertex   -7.618113e+001 4.181816e+001 1.645039e+001
      vertex   -7.618113e+001 2.166130e+001 1.645039e+001
    endloop
  endfacet
  facet normal -7.193493e-017 1.297008e-016 1.000000e+000
    outer loop
      vertex   -7.616113e+001 2.167239e+001 1.645039e+001
      vertex   -7.618113e+001 2.166130e+001 1.645039e+001
      vertex   -5.294479e+001 7.157080e+000 1.645039e+001
    endloop
  endfacet
  facet normal 1.143157e-018 2.479829e-016 1.000000e+000
    outer loop
      vertex   -5.290674e+001 7.156905e+000 1.645039e+001
      vertex   -5.294479e+001 7.157080e+000 1.645039e+001
      vertex   -7.616113e+001 -7.062344e+000 1.645039e+001
    endloop
  endfacet
  facet normal 1.136664e-018 2.465744e-016 1.000000e+000
    outer loop
      vertex   -5.290674e+001 7.156905e+000 1.645039e+001
      vertex   -7.616113e+001 2.167239e+001 1.645039e+001
      vertex   -5.294479e+001 7.157080e+000 1.645039e+001
    endloop
  endfacet
  facet normal 9.426871e-017 1.726892e-016 1.000000e+000
    outer loop
      vertex   9.800000e-001 2.362928e+001 1.645039e+001
      vertex   1.000000e+000 2.361836e+001 1.645039e+001
      vertex   9.800000e-001 4.420215e+001 1.645039e+001
    endloop
  endfacet
  facet normal -9.798667e-017 1.766729e-016 1.000000e+000
    outer loop
      vertex   -7.616113e+001 4.178138e+001 1.645039e+001
      vertex   -7.618113e+001 2.166130e+001 1.645039e+001
      vertex   -7.616113e+001 2.167239e+001 1.645039e+001
    endloop
  endfacet
  facet normal 7.313414e-017 1.304417e-016 1.000000e+000
    outer loop
      vertex   -5.294479e+001 7.157080e+000 1.645039e+001
      vertex   -7.618113e+001 -7.051131e+000 1.645039e+001
      vertex   -7.616113e+001 -7.062344e+000 1.645039e+001
    endloop
  endfacet
  facet normal 9.984285e-017 1.780792e-016 1.000000e+000
    outer loop
      vertex   -7.616113e+001 -7.062344e+000 1.645039e+001
      vertex   -7.618113e+001 -7.051131e+000 1.645039e+001
      vertex   -7.616113e+001 -2.701253e+001 1.645039e+001
    endloop
  endfacet
  facet normal -3.913305e-001 -5.889486e-001 7.071068e-001
    outer loop
      vertex   1.990000e+000 -3.124014e+001 1.546039e+001
      vertex   1.000000e+000 -2.939371e+001 1.645039e+001
      vertex   -3.868733e+001 -4.211838e+000 1.546039e+001
    endloop
  endfacet
  facet normal -3.913305e-001 -5.889486e-001 7.071068e-001
    outer loop
      vertex   -3.868733e+001 -4.211838e+000 1.546039e+001
      vertex   1.000000e+000 -2.939371e+001 1.645039e+001
      vertex   -3.867738e+001 -3.029832e+000 1.645039e+001
    endloop
  endfacet
  facet normal 7.071068e-001 8.825713e-017 7.071068e-001
    outer loop
      vertex   1.990000e+000 -3.124014e+001 1.546039e+001
      vertex   1.990000e+000 -8.113172e+000 1.546039e+001
      vertex   1.000000e+000 -2.939371e+001 1.645039e+001
    endloop
  endfacet
  facet normal 7.071068e-001 2.217664e-016 7.071068e-001
    outer loop
      vertex   1.000000e+000 -2.939371e+001 1.645039e+001
      vertex   1.990000e+000 -8.113172e+000 1.546039e+001
      vertex   1.000000e+000 -8.654497e+000 1.645039e+001
    endloop
  endfacet
  facet normal 3.816016e-001 5.952984e-001 7.071068e-001
    outer loop
      vertex   1.990000e+000 -8.113172e+000 1.546039e+001
      vertex   -2.230169e+001 7.458425e+000 1.546039e+001
      vertex   1.000000e+000 -8.654497e+000 1.645039e+001
    endloop
  endfacet
  facet normal 3.816016e-001 5.952984e-001 7.071068e-001
    outer loop
      vertex   1.000000e+000 -8.654497e+000 1.645039e+001
      vertex   -2.230169e+001 7.458425e+000 1.546039e+001
      vertex   -2.413416e+001 7.457145e+000 1.645039e+001
    endloop
  endfacet
  facet normal -7.071068e-001 1.268891e-016 7.071068e-001
    outer loop
      vertex   -7.618113e+001 -7.051131e+000 1.645039e+001
      vertex   -7.717113e+001 -6.496072e+000 1.546039e+001
      vertex   -7.618113e+001 -2.704909e+001 1.645039e+001
    endloop
  endfacet
  facet normal -7.071068e-001 1.685048e-016 7.071068e-001
    outer loop
      vertex   -7.618113e+001 -2.704909e+001 1.645039e+001
      vertex   -7.717113e+001 -6.496072e+000 1.546039e+001
      vertex   -7.717113e+001 -2.885877e+001 1.546039e+001
    endloop
  endfacet
  facet normal -3.688763e-001 6.032664e-001 7.071068e-001
    outer loop
      vertex   -5.294479e+001 7.157080e+000 1.645039e+001
      vertex   -5.482834e+001 7.165763e+000 1.546039e+001
      vertex   -7.618113e+001 -7.051131e+000 1.645039e+001
    endloop
  endfacet
  facet normal -3.688763e-001 6.032664e-001 7.071068e-001
    outer loop
      vertex   -7.618113e+001 -7.051131e+000 1.645039e+001
      vertex   -5.482834e+001 7.165763e+000 1.546039e+001
      vertex   -7.717113e+001 -6.496072e+000 1.546039e+001
    endloop
  endfacet
  facet normal -3.744224e-001 -5.998399e-001 7.071068e-001
    outer loop
      vertex   -5.294479e+001 7.157080e+000 1.645039e+001
      vertex   -7.618113e+001 2.166130e+001 1.645039e+001
      vertex   -5.482834e+001 7.165763e+000 1.546039e+001
    endloop
  endfacet
  facet normal -3.744224e-001 -5.998399e-001 7.071068e-001
    outer loop
      vertex   -5.482834e+001 7.165763e+000 1.546039e+001
      vertex   -7.618113e+001 2.166130e+001 1.645039e+001
      vertex   -7.717113e+001 2.111222e+001 1.546039e+001
    endloop
  endfacet
  facet normal -7.071068e-001 1.246299e-016 7.071068e-001
    outer loop
      vertex   -7.618113e+001 2.166130e+001 1.645039e+001
      vertex   -7.618113e+001 4.181816e+001 1.645039e+001
      vertex   -7.717113e+001 2.111222e+001 1.546039e+001
    endloop
  endfacet
  facet normal -7.071068e-001 0.000000e+000 7.071068e-001
    outer loop
      vertex   -7.717113e+001 2.111222e+001 1.546039e+001
      vertex   -7.618113e+001 4.181816e+001 1.645039e+001
      vertex   -7.717113e+001 4.363882e+001 1.546039e+001
    endloop
  endfacet
  facet normal 3.843824e-001 5.935067e-001 7.071068e-001
    outer loop
      vertex   -7.717113e+001 4.363882e+001 1.546039e+001
      vertex   -7.618113e+001 4.181816e+001 1.645039e+001
      vertex   -3.923727e+001 1.907110e+001 1.546039e+001
    endloop
  endfacet
  facet normal 3.843824e-001 5.935067e-001 7.071068e-001
    outer loop
      vertex   -3.923727e+001 1.907110e+001 1.546039e+001
      vertex   -7.618113e+001 4.181816e+001 1.645039e+001
      vertex   -3.923426e+001 1.788966e+001 1.645039e+001
    endloop
  endfacet
  facet normal -3.874011e-001 5.915407e-001 7.071068e-001
    outer loop
      vertex   1.990000e+000 4.607092e+001 1.546039e+001
      vertex   -3.923727e+001 1.907110e+001 1.546039e+001
      vertex   1.000000e+000 4.423916e+001 1.645039e+001
    endloop
  endfacet
  facet normal -3.874011e-001 5.915407e-001 7.071068e-001
    outer loop
      vertex   1.000000e+000 4.423916e+001 1.645039e+001
      vertex   -3.923727e+001 1.907110e+001 1.546039e+001
      vertex   -3.923426e+001 1.788966e+001 1.645039e+001
    endloop
  endfacet
  facet normal 7.071068e-001 2.207215e-016 7.071068e-001
    outer loop
      vertex   1.990000e+000 4.607092e+001 1.546039e+001
      vertex   1.000000e+000 4.423916e+001 1.645039e+001
      vertex   1.990000e+000 2.307793e+001 1.546039e+001
    endloop
  endfacet
  facet normal 7.071068e-001 1.522824e-016 7.071068e-001
    outer loop
      vertex   1.990000e+000 2.307793e+001 1.546039e+001
      vertex   1.000000e+000 4.423916e+001 1.645039e+001
      vertex   1.000000e+000 2.361836e+001 1.645039e+001
    endloop
  endfacet
  facet normal 3.824326e-001 -5.947649e-001 7.071068e-001
    outer loop
      vertex   1.990000e+000 2.307793e+001 1.546039e+001
      vertex   1.000000e+000 2.361836e+001 1.645039e+001
      vertex   -2.230169e+001 7.458425e+000 1.546039e+001
    endloop
  endfacet
  facet normal 3.824326e-001 -5.947649e-001 7.071068e-001
    outer loop
      vertex   -2.230169e+001 7.458425e+000 1.546039e+001
      vertex   1.000000e+000 2.361836e+001 1.645039e+001
      vertex   -2.413416e+001 7.457145e+000 1.645039e+001
    endloop
  endfacet
  facet normal 3.813584e-001 -5.954543e-001 7.071068e-001
    outer loop
      vertex   -3.867738e+001 -3.029832e+000 1.645039e+001
      vertex   -7.618113e+001 -2.704909e+001 1.645039e+001
      vertex   -3.868733e+001 -4.211838e+000 1.546039e+001
    endloop
  endfacet
  facet normal 3.813584e-001 -5.954543e-001 7.071068e-001
    outer loop
      vertex   -3.868733e+001 -4.211838e+000 1.546039e+001
      vertex   -7.618113e+001 -2.704909e+001 1.645039e+001
      vertex   -7.717113e+001 -2.885877e+001 1.546039e+001
    endloop
  endfacet
  facet normal 5.408414e-001 -8.411246e-001 0.000000e+000
    outer loop
      vertex   1.990000e+000 2.307793e+001 1.546039e+001
      vertex   -2.230169e+001 7.458425e+000 1.546039e+001
      vertex   1.990000e+000 2.307793e+001 1.549612e+000
    endloop
  endfacet
  facet normal 5.408414e-001 -8.411246e-001 1.074086e-016
    outer loop
      vertex   1.990000e+000 2.307793e+001 1.549612e+000
      vertex   -2.230169e+001 7.458425e+000 1.546039e+001
      vertex   -2.230169e+001 7.458425e+000 1.549612e+000
    endloop
  endfacet
  facet normal 5.396661e-001 8.418791e-001 0.000000e+000
    outer loop
      vertex   -2.230169e+001 7.458425e+000 1.546039e+001
      vertex   1.990000e+000 -8.113172e+000 1.546039e+001
      vertex   -2.230169e+001 7.458425e+000 1.549612e+000
    endloop
  endfacet
  facet normal 5.396661e-001 8.418791e-001 -6.450299e-016
    outer loop
      vertex   -2.230169e+001 7.458425e+000 1.549612e+000
      vertex   1.990000e+000 -8.113172e+000 1.546039e+001
      vertex   1.990000e+000 -8.113172e+000 1.549612e+000
    endloop
  endfacet
  facet normal 1.000000e+000 1.248144e-016 -7.846577e-032
    outer loop
      vertex   1.990000e+000 -8.113172e+000 1.546039e+001
      vertex   1.990000e+000 -3.124014e+001 1.546039e+001
      vertex   1.990000e+000 -8.113172e+000 1.549612e+000
    endloop
  endfacet
  facet normal 1.000000e+000 1.344155e-016 1.596206e-017
    outer loop
      vertex   1.990000e+000 -8.113172e+000 1.549612e+000
      vertex   1.990000e+000 -3.124014e+001 1.546039e+001
      vertex   1.990000e+000 -3.124014e+001 1.549612e+000
    endloop
  endfacet
  facet normal -5.534250e-001 -8.328990e-001 -3.346792e-016
    outer loop
      vertex   1.990000e+000 -3.124014e+001 1.546039e+001
      vertex   -3.868733e+001 -4.211838e+000 1.546039e+001
      vertex   1.990000e+000 -3.124014e+001 1.549612e+000
    endloop
  endfacet
  facet normal -5.534250e-001 -8.328990e-001 1.063583e-016
    outer loop
      vertex   1.990000e+000 -3.124014e+001 1.549612e+000
      vertex   -3.868733e+001 -4.211838e+000 1.546039e+001
      vertex   -3.868733e+001 -4.211838e+000 1.549612e+000
    endloop
  endfacet
  facet normal 5.393222e-001 -8.420995e-001 0.000000e+000
    outer loop
      vertex   -3.868733e+001 -4.211838e+000 1.546039e+001
      vertex   -7.717113e+001 -2.885877e+001 1.546039e+001
      vertex   -3.868733e+001 -4.211838e+000 1.549612e+000
    endloop
  endfacet
  facet normal 5.393222e-001 -8.420995e-001 -1.290397e-015
    outer loop
      vertex   -3.868733e+001 -4.211838e+000 1.549612e+000
      vertex   -7.717113e+001 -2.885877e+001 1.546039e+001
      vertex   -7.717113e+001 -2.885877e+001 1.549612e+000
    endloop
  endfacet
  facet normal -1.000000e+000 0.000000e+000 -0.000000e+000
    outer loop
      vertex   -7.717113e+001 -2.885877e+001 1.546039e+001
      vertex   -7.717113e+001 -6.496072e+000 1.546039e+001
      vertex   -7.717113e+001 -2.885877e+001 1.549612e+000
    endloop
  endfacet
  facet normal -1.000000e+000 0.000000e+000 -0.000000e+000
    outer loop
      vertex   -7.717113e+001 -2.885877e+001 1.549612e+000
      vertex   -7.717113e+001 -6.496072e+000 1.546039e+001
      vertex   -7.717113e+001 -6.496072e+000 1.549612e+000
    endloop
  endfacet
  facet normal -1.000000e+000 -6.122590e-017 -3.717943e-032
    outer loop
      vertex   -1.000000e-002 -2.750998e+001 1.546039e+001
      vertex   -1.000000e-002 -9.206758e+000 1.546039e+001
      vertex   -1.000000e-002 -2.750998e+001 1.549612e+000
    endloop
  endfacet
  facet normal -1.000000e+000 -4.957258e-032 -8.055851e-017
    outer loop
      vertex   -1.000000e-002 -2.750998e+001 1.549612e+000
      vertex   -1.000000e-002 -9.206758e+000 1.546039e+001
      vertex   -1.000000e-002 -9.206758e+000 1.549612e+000
    endloop
  endfacet
  facet normal -5.396661e-001 -8.418791e-001 0.000000e+000
    outer loop
      vertex   -1.000000e-002 -9.206758e+000 1.546039e+001
      vertex   -2.600365e+001 7.455839e+000 1.546039e+001
      vertex   -1.000000e-002 -9.206758e+000 1.549612e+000
    endloop
  endfacet
  facet normal -5.396661e-001 -8.418791e-001 3.762674e-016
    outer loop
      vertex   -1.000000e-002 -9.206758e+000 1.549612e+000
      vertex   -2.600365e+001 7.455839e+000 1.546039e+001
      vertex   -2.600365e+001 7.455839e+000 1.549612e+000
    endloop
  endfacet
  facet normal -5.408414e-001 8.411246e-001 -3.966825e-016
    outer loop
      vertex   -2.600365e+001 7.455839e+000 1.546039e+001
      vertex   -1.000000e-002 2.416971e+001 1.546039e+001
      vertex   -2.600365e+001 7.455839e+000 1.549612e+000
    endloop
  endfacet
  facet normal -5.408414e-001 8.411246e-001 -2.148172e-016
    outer loop
      vertex   -2.600365e+001 7.455839e+000 1.549612e+000
      vertex   -1.000000e-002 2.416971e+001 1.546039e+001
      vertex   -1.000000e-002 2.416971e+001 1.549612e+000
    endloop
  endfacet
  facet normal -5.216698e-001 8.531475e-001 -3.120653e-016
    outer loop
      vertex   -7.717113e+001 -6.496072e+000 1.546039e+001
      vertex   -5.482834e+001 7.165763e+000 1.546039e+001
      vertex   -7.717113e+001 -6.496072e+000 1.549612e+000
    endloop
  endfacet
  facet normal -5.216698e-001 8.531475e-001 -9.142267e-016
    outer loop
      vertex   -7.717113e+001 -6.496072e+000 1.549612e+000
      vertex   -5.482834e+001 7.165763e+000 1.546039e+001
      vertex   -5.482834e+001 7.165763e+000 1.549612e+000
    endloop
  endfacet
  facet normal -5.295132e-001 -8.483017e-001 -3.102928e-016
    outer loop
      vertex   -5.482834e+001 7.165763e+000 1.546039e+001
      vertex   -7.717113e+001 2.111222e+001 1.546039e+001
      vertex   -5.482834e+001 7.165763e+000 1.549612e+000
    endloop
  endfacet
  facet normal -5.295132e-001 -8.483017e-001 2.166502e-016
    outer loop
      vertex   -5.482834e+001 7.165763e+000 1.549612e+000
      vertex   -7.717113e+001 2.111222e+001 1.546039e+001
      vertex   -7.717113e+001 2.111222e+001 1.549612e+000
    endloop
  endfacet
  facet normal -1.000000e+000 0.000000e+000 -0.000000e+000
    outer loop
      vertex   -7.717113e+001 2.111222e+001 1.546039e+001
      vertex   -7.717113e+001 4.363882e+001 1.546039e+001
      vertex   -7.717113e+001 2.111222e+001 1.549612e+000
    endloop
  endfacet
  facet normal -1.000000e+000 0.000000e+000 0.000000e+000
    outer loop
      vertex   -7.717113e+001 2.111222e+001 1.549612e+000
      vertex   -7.717113e+001 4.363882e+001 1.546039e+001
      vertex   -7.717113e+001 4.363882e+001 1.549612e+000
    endloop
  endfacet
  facet normal 5.435988e-001 8.393452e-001 0.000000e+000
    outer loop
      vertex   -7.717113e+001 4.363882e+001 1.546039e+001
      vertex   -3.923727e+001 1.907110e+001 1.546039e+001
      vertex   -7.717113e+001 4.363882e+001 1.549612e+000
    endloop
  endfacet
  facet normal 5.435988e-001 8.393452e-001 -3.654259e-016
    outer loop
      vertex   -7.717113e+001 4.363882e+001 1.549612e+000
      vertex   -3.923727e+001 1.907110e+001 1.546039e+001
      vertex   -3.923727e+001 1.907110e+001 1.549612e+000
    endloop
  endfacet
  facet normal -5.478679e-001 8.365648e-001 -9.950046e-016
    outer loop
      vertex   -3.923727e+001 1.907110e+001 1.546039e+001
      vertex   1.990000e+000 4.607092e+001 1.546039e+001
      vertex   -3.923727e+001 1.907110e+001 1.549612e+000
    endloop
  endfacet
  facet normal -5.478679e-001 8.365648e-001 -3.311094e-016
    outer loop
      vertex   -3.923727e+001 1.907110e+001 1.549612e+000
      vertex   1.990000e+000 4.607092e+001 1.546039e+001
      vertex   1.990000e+000 4.607092e+001 1.549612e+000
    endloop
  endfacet
  facet normal -1.000000e+000 0.000000e+000 -0.000000e+000
    outer loop
      vertex   -1.000000e-002 2.416971e+001 1.546039e+001
      vertex   -1.000000e-002 4.237039e+001 1.546039e+001
      vertex   -1.000000e-002 2.416971e+001 1.549612e+000
    endloop
  endfacet
  facet normal -1.000000e+000 0.000000e+000 -0.000000e+000
    outer loop
      vertex   -1.000000e-002 2.416971e+001 1.549612e+000
      vertex   -1.000000e-002 4.237039e+001 1.546039e+001
      vertex   -1.000000e-002 4.237039e+001 1.549612e+000
    endloop
  endfacet
  facet normal 5.478679e-001 -8.365648e-001 6.972646e-016
    outer loop
      vertex   -1.000000e-002 4.237039e+001 1.546039e+001
      vertex   -3.923119e+001 1.668435e+001 1.546039e+001
      vertex   -1.000000e-002 4.237039e+001 1.549612e+000
    endloop
  endfacet
  facet normal 5.478679e-001 -8.365648e-001 4.273054e-016
    outer loop
      vertex   -1.000000e-002 4.237039e+001 1.549612e+000
      vertex   -3.923119e+001 1.668435e+001 1.546039e+001
      vertex   -3.923119e+001 1.668435e+001 1.549612e+000
    endloop
  endfacet
  facet normal -5.435988e-001 -8.393452e-001 3.817263e-016
    outer loop
      vertex   -3.923119e+001 1.668435e+001 1.546039e+001
      vertex   -7.517113e+001 3.996072e+001 1.546039e+001
      vertex   -3.923119e+001 1.668435e+001 1.549612e+000
    endloop
  endfacet
  facet normal -5.435988e-001 -8.393452e-001 4.287256e-016
    outer loop
      vertex   -3.923119e+001 1.668435e+001 1.549612e+000
      vertex   -7.517113e+001 3.996072e+001 1.546039e+001
      vertex   -7.517113e+001 3.996072e+001 1.549612e+000
    endloop
  endfacet
  facet normal 1.000000e+000 7.725645e-017 -1.755826e-016
    outer loop
      vertex   1.990000e+000 4.607092e+001 1.546039e+001
      vertex   1.990000e+000 2.307793e+001 1.546039e+001
      vertex   1.990000e+000 4.607092e+001 1.549612e+000
    endloop
  endfacet
  facet normal 1.000000e+000 1.931411e-016 1.596206e-017
    outer loop
      vertex   1.990000e+000 4.607092e+001 1.549612e+000
      vertex   1.990000e+000 2.307793e+001 1.546039e+001
      vertex   1.990000e+000 2.307793e+001 1.549612e+000
    endloop
  endfacet
  facet normal -3.102413e-017 -4.635922e-016 -1.000000e+000
    outer loop
      vertex   -1.000000e-002 4.237039e+001 1.549612e+000
      vertex   1.990000e+000 2.307793e+001 1.549612e+000
      vertex   -1.000000e-002 2.416971e+001 1.549612e+000
    endloop
  endfacet
  facet normal 3.421085e-016 -4.249105e-016 -1.000000e+000
    outer loop
      vertex   -1.000000e-002 4.237039e+001 1.549612e+000
      vertex   1.990000e+000 4.607092e+001 1.549612e+000
      vertex   1.990000e+000 2.307793e+001 1.549612e+000
    endloop
  endfacet
  facet normal -1.568551e-016 -1.552393e-016 -1.000000e+000
    outer loop
      vertex   -1.000000e-002 4.237039e+001 1.549612e+000
      vertex   -3.923727e+001 1.907110e+001 1.549612e+000
      vertex   1.990000e+000 4.607092e+001 1.549612e+000
    endloop
  endfacet
  facet normal 9.651360e-016 -2.044252e-015 -1.000000e+000
    outer loop
      vertex   -1.000000e-002 4.237039e+001 1.549612e+000
      vertex   -3.923119e+001 1.668435e+001 1.549612e+000
      vertex   -3.923727e+001 1.907110e+001 1.549612e+000
    endloop
  endfacet
  facet normal -9.316758e-016 -2.049084e-015 -1.000000e+000
    outer loop
      vertex   -3.923727e+001 1.907110e+001 1.549612e+000
      vertex   -3.923119e+001 1.668435e+001 1.549612e+000
      vertex   -7.517113e+001 3.996072e+001 1.549612e+000
    endloop
  endfacet
  facet normal -3.353940e-016 -4.238507e-016 -1.000000e+000
    outer loop
      vertex   -7.717113e+001 4.363882e+001 1.549612e+000
      vertex   -7.517113e+001 3.996072e+001 1.549612e+000
      vertex   -7.717113e+001 2.111222e+001 1.549612e+000
    endloop
  endfacet
  facet normal 1.742223e-016 -1.467425e-016 -1.000000e+000
    outer loop
      vertex   -7.717113e+001 4.363882e+001 1.549612e+000
      vertex   -3.923727e+001 1.907110e+001 1.549612e+000
      vertex   -7.517113e+001 3.996072e+001 1.549612e+000
    endloop
  endfacet
  facet normal 1.527842e-016 -4.756510e-016 -1.000000e+000
    outer loop
      vertex   -7.517113e+001 3.996072e+001 1.549612e+000
      vertex   -7.517113e+001 2.222146e+001 1.549612e+000
      vertex   -7.717113e+001 2.111222e+001 1.549612e+000
    endloop
  endfacet
  facet normal 1.001873e-016 -3.808173e-016 -1.000000e+000
    outer loop
      vertex   -7.717113e+001 2.111222e+001 1.549612e+000
      vertex   -7.517113e+001 2.222146e+001 1.549612e+000
      vertex   -5.482834e+001 7.165763e+000 1.549612e+000
    endloop
  endfacet
  facet normal -2.394445e-018 -5.194226e-016 -1.000000e+000
    outer loop
      vertex   -5.482834e+001 7.165763e+000 1.549612e+000
      vertex   -7.517113e+001 2.222146e+001 1.549612e+000
      vertex   -5.102318e+001 7.148222e+000 1.549612e+000
    endloop
  endfacet
  facet normal -1.032053e-018 -2.238813e-016 -1.000000e+000
    outer loop
      vertex   -7.517113e+001 -7.617403e+000 1.549612e+000
      vertex   -5.482834e+001 7.165763e+000 1.549612e+000
      vertex   -5.102318e+001 7.148222e+000 1.549612e+000
    endloop
  endfacet
  facet normal 5.403604e-017 -2.996593e-016 -1.000000e+000
    outer loop
      vertex   -7.517113e+001 -7.617403e+000 1.549612e+000
      vertex   -7.717113e+001 -6.496072e+000 1.549612e+000
      vertex   -5.482834e+001 7.165763e+000 1.549612e+000
    endloop
  endfacet
  facet normal -1.814756e-016 -7.197168e-016 -1.000000e+000
    outer loop
      vertex   -7.517113e+001 -7.617403e+000 1.549612e+000
      vertex   -7.517113e+001 -2.520285e+001 1.549612e+000
      vertex   -7.717113e+001 -6.496072e+000 1.549612e+000
    endloop
  endfacet
  facet normal 6.993754e-016 -6.255422e-016 -1.000000e+000
    outer loop
      vertex   -7.717113e+001 -6.496072e+000 1.549612e+000
      vertex   -7.517113e+001 -2.520285e+001 1.549612e+000
      vertex   -7.717113e+001 -2.885877e+001 1.549612e+000
    endloop
  endfacet
  facet normal -3.377976e-016 -5.814774e-017 -1.000000e+000
    outer loop
      vertex   -7.717113e+001 -2.885877e+001 1.549612e+000
      vertex   -7.517113e+001 -2.520285e+001 1.549612e+000
      vertex   -3.868733e+001 -4.211838e+000 1.549612e+000
    endloop
  endfacet
  facet normal -3.192991e-016 -9.029932e-017 -1.000000e+000
    outer loop
      vertex   -3.868733e+001 -4.211838e+000 1.549612e+000
      vertex   -7.517113e+001 -2.520285e+001 1.549612e+000
      vertex   -3.866723e+001 -1.823946e+000 1.549612e+000
    endloop
  endfacet
  facet normal 3.098362e-016 -9.559638e-017 -1.000000e+000
    outer loop
      vertex   -1.000000e-002 -2.750998e+001 1.549612e+000
      vertex   -3.868733e+001 -4.211838e+000 1.549612e+000
      vertex   -3.866723e+001 -1.823946e+000 1.549612e+000
    endloop
  endfacet
  facet normal 3.308463e-016 -6.071739e-017 -1.000000e+000
    outer loop
      vertex   -1.000000e-002 -2.750998e+001 1.549612e+000
      vertex   1.990000e+000 -3.124014e+001 1.549612e+000
      vertex   -3.868733e+001 -4.211838e+000 1.549612e+000
    endloop
  endfacet
  facet normal -6.840427e-016 -6.048699e-016 -1.000000e+000
    outer loop
      vertex   -1.000000e-002 -2.750998e+001 1.549612e+000
      vertex   1.990000e+000 -8.113172e+000 1.549612e+000
      vertex   1.990000e+000 -3.124014e+001 1.549612e+000
    endloop
  endfacet
  facet normal 3.913703e-016 -7.157555e-016 -1.000000e+000
    outer loop
      vertex   -1.000000e-002 -2.750998e+001 1.549612e+000
      vertex   -1.000000e-002 -9.206758e+000 1.549612e+000
      vertex   1.990000e+000 -8.113172e+000 1.549612e+000
    endloop
  endfacet
  facet normal 6.732485e-017 -1.231267e-016 -1.000000e+000
    outer loop
      vertex   1.990000e+000 -8.113172e+000 1.549612e+000
      vertex   -1.000000e-002 -9.206758e+000 1.549612e+000
      vertex   -2.230169e+001 7.458425e+000 1.549612e+000
    endloop
  endfacet
  facet normal 1.487363e-019 -2.129828e-016 -1.000000e+000
    outer loop
      vertex   -2.230169e+001 7.458425e+000 1.549612e+000
      vertex   -1.000000e-002 -9.206758e+000 1.549612e+000
      vertex   -2.600365e+001 7.455839e+000 1.549612e+000
    endloop
  endfacet
  facet normal 3.436444e-019 -4.920814e-016 -1.000000e+000
    outer loop
      vertex   -1.000000e-002 2.416971e+001 1.549612e+000
      vertex   -2.230169e+001 7.458425e+000 1.549612e+000
      vertex   -2.600365e+001 7.455839e+000 1.549612e+000
    endloop
  endfacet
  facet normal -2.680618e-017 -4.558654e-016 -1.000000e+000
    outer loop
      vertex   -1.000000e-002 2.416971e+001 1.549612e+000
      vertex   1.990000e+000 2.307793e+001 1.549612e+000
      vertex   -2.230169e+001 7.458425e+000 1.549612e+000
    endloop
  endfacet
endsolid
