solid ascii
  facet normal 7.071068e-001 1.246653e-016 7.071068e-001
    outer loop
      vertex   -7.616113e+001 4.452248e+001 1.642171e+001
      vertex   -7.616113e+001 2.437133e+001 1.642171e+001
      vertex   -7.517113e+001 4.272488e+001 1.543171e+001
    endloop
  endfacet
  facet normal 7.071068e-001 3.565835e-016 7.071068e-001
    outer loop
      vertex   -7.517113e+001 4.272488e+001 1.543171e+001
      vertex   -7.616113e+001 2.437133e+001 1.642171e+001
      vertex   -7.517113e+001 2.493436e+001 1.543171e+001
    endloop
  endfacet
  facet normal 3.560286e-001 -6.109367e-001 7.071068e-001
    outer loop
      vertex   -7.616113e+001 -9.513824e+000 1.642171e+001
      vertex   -7.517113e+001 -1.008273e+001 1.543171e+001
      vertex   -4.738604e+001 7.255112e+000 1.642171e+001
    endloop
  endfacet
  facet normal 3.560286e-001 -6.109367e-001 7.071068e-001
    outer loop
      vertex   -4.738604e+001 7.255112e+000 1.642171e+001
      vertex   -7.517113e+001 -1.008273e+001 1.543171e+001
      vertex   -4.543480e+001 7.246368e+000 1.543171e+001
    endloop
  endfacet
  facet normal 7.071068e-001 2.556605e-016 7.071068e-001
    outer loop
      vertex   -7.616113e+001 -2.936455e+001 1.642171e+001
      vertex   -7.517113e+001 -2.756564e+001 1.543171e+001
      vertex   -7.616113e+001 -9.513824e+000 1.642171e+001
    endloop
  endfacet
  facet normal 7.071068e-001 -0.000000e+000 7.071068e-001
    outer loop
      vertex   -7.616113e+001 -9.513824e+000 1.642171e+001
      vertex   -7.517113e+001 -2.756564e+001 1.543171e+001
      vertex   -7.517113e+001 -1.008273e+001 1.543171e+001
    endloop
  endfacet
  facet normal -3.783557e-001 5.973667e-001 7.071068e-001
    outer loop
      vertex   -3.154076e+001 6.863387e-002 1.543171e+001
      vertex   -7.517113e+001 -2.756564e+001 1.543171e+001
      vertex   -3.125362e+001 -9.213661e-001 1.642171e+001
    endloop
  endfacet
  facet normal -3.783557e-001 5.973667e-001 7.071068e-001
    outer loop
      vertex   -3.125362e+001 -9.213661e-001 1.642171e+001
      vertex   -7.517113e+001 -2.756564e+001 1.543171e+001
      vertex   -7.616113e+001 -2.936455e+001 1.642171e+001
    endloop
  endfacet
  facet normal 1.986793e-016 7.071068e-001 7.071068e-001
    outer loop
      vertex   -3.154076e+001 6.863387e-002 1.543171e+001
      vertex   -3.125362e+001 -9.213661e-001 1.642171e+001
      vertex   -1.000000e-002 6.863387e-002 1.543171e+001
    endloop
  endfacet
  facet normal -0.000000e+000 7.071068e-001 7.071068e-001
    outer loop
      vertex   -1.000000e-002 6.863387e-002 1.543171e+001
      vertex   -3.125362e+001 -9.213661e-001 1.642171e+001
      vertex   9.800000e-001 -9.213661e-001 1.642171e+001
    endloop
  endfacet
  facet normal -7.071068e-001 1.625326e-016 7.071068e-001
    outer loop
      vertex   -1.000000e-002 6.863387e-002 1.543171e+001
      vertex   9.800000e-001 -9.213661e-001 1.642171e+001
      vertex   -1.000000e-002 1.519315e+001 1.543171e+001
    endloop
  endfacet
  facet normal -7.071068e-001 2.524336e-016 7.071068e-001
    outer loop
      vertex   -1.000000e-002 1.519315e+001 1.543171e+001
      vertex   9.800000e-001 -9.213661e-001 1.642171e+001
      vertex   9.800000e-001 1.618315e+001 1.642171e+001
    endloop
  endfacet
  facet normal 3.614895e-001 6.077214e-001 7.071068e-001
    outer loop
      vertex   -7.616113e+001 2.437133e+001 1.642171e+001
      vertex   -4.738604e+001 7.255112e+000 1.642171e+001
      vertex   -7.517113e+001 2.493436e+001 1.543171e+001
    endloop
  endfacet
  facet normal 3.614895e-001 6.077214e-001 7.071068e-001
    outer loop
      vertex   -7.517113e+001 2.493436e+001 1.543171e+001
      vertex   -4.738604e+001 7.255112e+000 1.642171e+001
      vertex   -4.543480e+001 7.246368e+000 1.543171e+001
    endloop
  endfacet
  facet normal 0.000000e+000 -7.071068e-001 7.071068e-001
    outer loop
      vertex   -3.164330e+001 1.519315e+001 1.543171e+001
      vertex   -1.000000e-002 1.519315e+001 1.543171e+001
      vertex   -3.135649e+001 1.618315e+001 1.642171e+001
    endloop
  endfacet
  facet normal 1.544926e-016 -7.071068e-001 7.071068e-001
    outer loop
      vertex   -3.135649e+001 1.618315e+001 1.642171e+001
      vertex   -1.000000e-002 1.519315e+001 1.543171e+001
      vertex   9.800000e-001 1.618315e+001 1.642171e+001
    endloop
  endfacet
  facet normal -3.779872e-001 -5.975999e-001 7.071068e-001
    outer loop
      vertex   -3.164330e+001 1.519315e+001 1.543171e+001
      vertex   -3.135649e+001 1.618315e+001 1.642171e+001
      vertex   -7.517113e+001 4.272488e+001 1.543171e+001
    endloop
  endfacet
  facet normal -3.779872e-001 -5.975999e-001 7.071068e-001
    outer loop
      vertex   -7.517113e+001 4.272488e+001 1.543171e+001
      vertex   -3.135649e+001 1.618315e+001 1.642171e+001
      vertex   -7.616113e+001 4.452248e+001 1.642171e+001
    endloop
  endfacet
  facet normal 0.000000e+000 -1.000000e+000 5.129009e-016
    outer loop
      vertex   -1.000000e-002 1.519315e+001 1.543171e+001
      vertex   -3.164330e+001 1.519315e+001 1.543171e+001
      vertex   -1.000000e-002 1.519315e+001 1.578295e+000
    endloop
  endfacet
  facet normal 0.000000e+000 -1.000000e+000 5.129009e-016
    outer loop
      vertex   -1.000000e-002 1.519315e+001 1.578295e+000
      vertex   -3.164330e+001 1.519315e+001 1.543171e+001
      vertex   -3.164330e+001 1.519315e+001 1.578295e+000
    endloop
  endfacet
  facet normal -5.345547e-001 -8.451339e-001 3.186706e-016
    outer loop
      vertex   -3.164330e+001 1.519315e+001 1.543171e+001
      vertex   -7.517113e+001 4.272488e+001 1.543171e+001
      vertex   -3.164330e+001 1.519315e+001 1.578295e+000
    endloop
  endfacet
  facet normal -5.345547e-001 -8.451339e-001 4.334700e-016
    outer loop
      vertex   -3.164330e+001 1.519315e+001 1.578295e+000
      vertex   -7.517113e+001 4.272488e+001 1.543171e+001
      vertex   -7.517113e+001 4.272488e+001 1.578295e+000
    endloop
  endfacet
  facet normal 1.000000e+000 0.000000e+000 0.000000e+000
    outer loop
      vertex   -7.517113e+001 4.272488e+001 1.543171e+001
      vertex   -7.517113e+001 2.493436e+001 1.543171e+001
      vertex   -7.517113e+001 4.272488e+001 1.578295e+000
    endloop
  endfacet
  facet normal 1.000000e+000 0.000000e+000 0.000000e+000
    outer loop
      vertex   -7.517113e+001 4.272488e+001 1.578295e+000
      vertex   -7.517113e+001 2.493436e+001 1.543171e+001
      vertex   -7.517113e+001 2.493436e+001 1.578295e+000
    endloop
  endfacet
  facet normal 5.112233e-001 8.594479e-001 -4.743683e-016
    outer loop
      vertex   -7.517113e+001 2.493436e+001 1.543171e+001
      vertex   -4.543480e+001 7.246368e+000 1.543171e+001
      vertex   -7.517113e+001 2.493436e+001 1.578295e+000
    endloop
  endfacet
  facet normal 5.112233e-001 8.594479e-001 -4.408116e-016
    outer loop
      vertex   -7.517113e+001 2.493436e+001 1.578295e+000
      vertex   -4.543480e+001 7.246368e+000 1.543171e+001
      vertex   -4.543480e+001 7.246368e+000 1.578295e+000
    endloop
  endfacet
  facet normal 5.035005e-001 -8.639949e-001 4.768780e-016
    outer loop
      vertex   -4.543480e+001 7.246368e+000 1.543171e+001
      vertex   -7.517113e+001 -1.008273e+001 1.543171e+001
      vertex   -4.543480e+001 7.246368e+000 1.578295e+000
    endloop
  endfacet
  facet normal 5.035005e-001 -8.639949e-001 6.647157e-016
    outer loop
      vertex   -4.543480e+001 7.246368e+000 1.578295e+000
      vertex   -7.517113e+001 -1.008273e+001 1.543171e+001
      vertex   -7.517113e+001 -1.008273e+001 1.578295e+000
    endloop
  endfacet
  facet normal -6.038750e-017 1.061833e-016 1.000000e+000
    outer loop
      vertex   -4.742545e+001 7.255288e+000 1.642171e+001
      vertex   -7.616113e+001 2.437133e+001 1.642171e+001
      vertex   -7.618113e+001 2.435996e+001 1.642171e+001
    endloop
  endfacet
  facet normal 9.371647e-019 2.091397e-016 1.000000e+000
    outer loop
      vertex   -4.742545e+001 7.255288e+000 1.642171e+001
      vertex   -4.738604e+001 7.255112e+000 1.642171e+001
      vertex   -7.616113e+001 2.437133e+001 1.642171e+001
    endloop
  endfacet
  facet normal 9.421229e-019 2.102461e-016 1.000000e+000
    outer loop
      vertex   -4.742545e+001 7.255288e+000 1.642171e+001
      vertex   -7.616113e+001 -9.513824e+000 1.642171e+001
      vertex   -4.738604e+001 7.255112e+000 1.642171e+001
    endloop
  endfacet
  facet normal 6.134164e-017 1.067451e-016 1.000000e+000
    outer loop
      vertex   -4.742545e+001 7.255288e+000 1.642171e+001
      vertex   -7.618113e+001 -9.502331e+000 1.642171e+001
      vertex   -7.616113e+001 -9.513824e+000 1.642171e+001
    endloop
  endfacet
  facet normal 2.056939e-016 3.579429e-016 1.000000e+000
    outer loop
      vertex   -7.616113e+001 -9.513824e+000 1.642171e+001
      vertex   -7.618113e+001 -9.502331e+000 1.642171e+001
      vertex   -7.616113e+001 -2.936455e+001 1.642171e+001
    endloop
  endfacet
  facet normal -1.779601e-013 1.785412e-016 1.000000e+000
    outer loop
      vertex   -7.616113e+001 -2.936455e+001 1.642171e+001
      vertex   -7.618113e+001 -9.502331e+000 1.642171e+001
      vertex   -7.618113e+001 -2.940089e+001 1.642171e+001
    endloop
  endfacet
  facet normal 9.516991e-014 -1.501342e-013 1.000000e+000
    outer loop
      vertex   -3.124782e+001 -9.413661e-001 1.642171e+001
      vertex   -7.616113e+001 -2.936455e+001 1.642171e+001
      vertex   -7.618113e+001 -2.940089e+001 1.642171e+001
    endloop
  endfacet
  facet normal 1.336679e-016 3.876968e-017 1.000000e+000
    outer loop
      vertex   -3.124782e+001 -9.413661e-001 1.642171e+001
      vertex   -3.125362e+001 -9.213661e-001 1.642171e+001
      vertex   -7.616113e+001 -2.936455e+001 1.642171e+001
    endloop
  endfacet
  facet normal 0.000000e+000 -0.000000e+000 1.000000e+000
    outer loop
      vertex   -3.124782e+001 -9.413661e-001 1.642171e+001
      vertex   9.800000e-001 -9.213661e-001 1.642171e+001
      vertex   -3.125362e+001 -9.213661e-001 1.642171e+001
    endloop
  endfacet
  facet normal -0.000000e+000 -0.000000e+000 1.000000e+000
    outer loop
      vertex   -3.124782e+001 -9.413661e-001 1.642171e+001
      vertex   1.000000e+000 -9.413661e-001 1.642171e+001
      vertex   9.800000e-001 -9.213661e-001 1.642171e+001
    endloop
  endfacet
  facet normal 4.144433e-016 4.144433e-016 1.000000e+000
    outer loop
      vertex   9.800000e-001 -9.213661e-001 1.642171e+001
      vertex   1.000000e+000 -9.413661e-001 1.642171e+001
      vertex   1.000000e+000 1.620315e+001 1.642171e+001
    endloop
  endfacet
  facet normal 0.000000e+000 -0.000000e+000 1.000000e+000
    outer loop
      vertex   9.800000e-001 1.618315e+001 1.642171e+001
      vertex   1.000000e+000 1.620315e+001 1.642171e+001
      vertex   -3.135069e+001 1.620315e+001 1.642171e+001
    endloop
  endfacet
  facet normal -6.701356e-017 1.941453e-017 1.000000e+000
    outer loop
      vertex   -3.135649e+001 1.618315e+001 1.642171e+001
      vertex   -3.135069e+001 1.620315e+001 1.642171e+001
      vertex   -7.616113e+001 4.452248e+001 1.642171e+001
    endloop
  endfacet
  facet normal 0.000000e+000 -0.000000e+000 1.000000e+000
    outer loop
      vertex   -3.135649e+001 1.618315e+001 1.642171e+001
      vertex   9.800000e-001 1.618315e+001 1.642171e+001
      vertex   -3.135069e+001 1.620315e+001 1.642171e+001
    endloop
  endfacet
  facet normal -4.154125e-016 4.154125e-016 1.000000e+000
    outer loop
      vertex   9.800000e-001 -9.213661e-001 1.642171e+001
      vertex   1.000000e+000 1.620315e+001 1.642171e+001
      vertex   9.800000e-001 1.618315e+001 1.642171e+001
    endloop
  endfacet
  facet normal 9.471276e-014 1.499920e-013 1.000000e+000
    outer loop
      vertex   -3.135069e+001 1.620315e+001 1.642171e+001
      vertex   -7.618113e+001 4.455879e+001 1.642171e+001
      vertex   -7.616113e+001 4.452248e+001 1.642171e+001
    endloop
  endfacet
  facet normal -1.769969e-013 3.517741e-016 1.000000e+000
    outer loop
      vertex   -7.616113e+001 4.452248e+001 1.642171e+001
      vertex   -7.618113e+001 4.455879e+001 1.642171e+001
      vertex   -7.618113e+001 2.435996e+001 1.642171e+001
    endloop
  endfacet
  facet normal -1.002655e-016 1.763033e-016 1.000000e+000
    outer loop
      vertex   -7.616113e+001 2.437133e+001 1.642171e+001
      vertex   -7.616113e+001 4.452248e+001 1.642171e+001
      vertex   -7.618113e+001 2.435996e+001 1.642171e+001
    endloop
  endfacet
  facet normal -0.000000e+000 7.071068e-001 7.071068e-001
    outer loop
      vertex   -3.135069e+001 1.620315e+001 1.642171e+001
      vertex   1.000000e+000 1.620315e+001 1.642171e+001
      vertex   -3.106388e+001 1.719315e+001 1.543171e+001
    endloop
  endfacet
  facet normal -3.838465e-017 7.071068e-001 7.071068e-001
    outer loop
      vertex   -3.106388e+001 1.719315e+001 1.543171e+001
      vertex   1.000000e+000 1.620315e+001 1.642171e+001
      vertex   1.990000e+000 1.719315e+001 1.543171e+001
    endloop
  endfacet
  facet normal 7.071068e-001 2.960158e-016 7.071068e-001
    outer loop
      vertex   1.000000e+000 -9.413661e-001 1.642171e+001
      vertex   1.990000e+000 -1.931366e+000 1.543171e+001
      vertex   1.000000e+000 1.620315e+001 1.642171e+001
    endloop
  endfacet
  facet normal 7.071068e-001 2.462953e-016 7.071068e-001
    outer loop
      vertex   1.000000e+000 1.620315e+001 1.642171e+001
      vertex   1.990000e+000 -1.931366e+000 1.543171e+001
      vertex   1.990000e+000 1.719315e+001 1.543171e+001
    endloop
  endfacet
  facet normal -3.614895e-001 -6.077214e-001 7.071068e-001
    outer loop
      vertex   -7.717113e+001 2.379694e+001 1.543171e+001
      vertex   -4.937668e+001 7.264032e+000 1.543171e+001
      vertex   -7.618113e+001 2.435996e+001 1.642171e+001
    endloop
  endfacet
  facet normal -3.614895e-001 -6.077214e-001 7.071068e-001
    outer loop
      vertex   -7.618113e+001 2.435996e+001 1.642171e+001
      vertex   -4.937668e+001 7.264032e+000 1.543171e+001
      vertex   -4.742545e+001 7.255288e+000 1.642171e+001
    endloop
  endfacet
  facet normal -3.560286e-001 6.109367e-001 7.071068e-001
    outer loop
      vertex   -7.717113e+001 -8.933422e+000 1.543171e+001
      vertex   -7.618113e+001 -9.502331e+000 1.642171e+001
      vertex   -4.937668e+001 7.264032e+000 1.543171e+001
    endloop
  endfacet
  facet normal -3.560286e-001 6.109367e-001 7.071068e-001
    outer loop
      vertex   -4.937668e+001 7.264032e+000 1.543171e+001
      vertex   -7.618113e+001 -9.502331e+000 1.642171e+001
      vertex   -4.742545e+001 7.255288e+000 1.642171e+001
    endloop
  endfacet
  facet normal -7.071068e-001 2.243629e-016 7.071068e-001
    outer loop
      vertex   -7.717113e+001 -3.119980e+001 1.543171e+001
      vertex   -7.618113e+001 -2.940089e+001 1.642171e+001
      vertex   -7.717113e+001 -8.933422e+000 1.543171e+001
    endloop
  endfacet
  facet normal -7.071068e-001 1.262477e-016 7.071068e-001
    outer loop
      vertex   -7.717113e+001 -8.933422e+000 1.543171e+001
      vertex   -7.618113e+001 -2.940089e+001 1.642171e+001
      vertex   -7.618113e+001 -9.502331e+000 1.642171e+001
    endloop
  endfacet
  facet normal 3.783557e-001 -5.973667e-001 7.071068e-001
    outer loop
      vertex   -3.124782e+001 -9.413661e-001 1.642171e+001
      vertex   -7.618113e+001 -2.940089e+001 1.642171e+001
      vertex   -3.096067e+001 -1.931366e+000 1.543171e+001
    endloop
  endfacet
  facet normal 3.783557e-001 -5.973667e-001 7.071068e-001
    outer loop
      vertex   -3.096067e+001 -1.931366e+000 1.543171e+001
      vertex   -7.618113e+001 -2.940089e+001 1.642171e+001
      vertex   -7.717113e+001 -3.119980e+001 1.543171e+001
    endloop
  endfacet
  facet normal -9.590126e-017 -7.071068e-001 7.071068e-001
    outer loop
      vertex   -3.124782e+001 -9.413661e-001 1.642171e+001
      vertex   -3.096067e+001 -1.931366e+000 1.543171e+001
      vertex   1.000000e+000 -9.413661e-001 1.642171e+001
    endloop
  endfacet
  facet normal 0.000000e+000 -7.071068e-001 7.071068e-001
    outer loop
      vertex   1.000000e+000 -9.413661e-001 1.642171e+001
      vertex   -3.096067e+001 -1.931366e+000 1.543171e+001
      vertex   1.990000e+000 -1.931366e+000 1.543171e+001
    endloop
  endfacet
  facet normal -7.071068e-001 1.113568e-016 7.071068e-001
    outer loop
      vertex   -7.717113e+001 4.635639e+001 1.543171e+001
      vertex   -7.717113e+001 2.379694e+001 1.543171e+001
      vertex   -7.618113e+001 4.455879e+001 1.642171e+001
    endloop
  endfacet
  facet normal -7.071068e-001 2.473286e-016 7.071068e-001
    outer loop
      vertex   -7.618113e+001 4.455879e+001 1.642171e+001
      vertex   -7.717113e+001 2.379694e+001 1.543171e+001
      vertex   -7.618113e+001 2.435996e+001 1.642171e+001
    endloop
  endfacet
  facet normal 3.779872e-001 5.975999e-001 7.071068e-001
    outer loop
      vertex   -7.717113e+001 4.635639e+001 1.543171e+001
      vertex   -7.618113e+001 4.455879e+001 1.642171e+001
      vertex   -3.106388e+001 1.719315e+001 1.543171e+001
    endloop
  endfacet
  facet normal 3.779872e-001 5.975999e-001 7.071068e-001
    outer loop
      vertex   -3.106388e+001 1.719315e+001 1.543171e+001
      vertex   -7.618113e+001 4.455879e+001 1.642171e+001
      vertex   -3.135069e+001 1.620315e+001 1.642171e+001
    endloop
  endfacet
  facet normal 0.000000e+000 -1.000000e+000 1.282252e-016
    outer loop
      vertex   1.990000e+000 -1.931366e+000 1.543171e+001
      vertex   -3.096067e+001 -1.931366e+000 1.543171e+001
      vertex   1.990000e+000 -1.931366e+000 1.578295e+000
    endloop
  endfacet
  facet normal 0.000000e+000 -1.000000e+000 1.282252e-016
    outer loop
      vertex   1.990000e+000 -1.931366e+000 1.578295e+000
      vertex   -3.096067e+001 -1.931366e+000 1.543171e+001
      vertex   -3.096067e+001 -1.931366e+000 1.578295e+000
    endloop
  endfacet
  facet normal 5.350757e-001 -8.448041e-001 0.000000e+000
    outer loop
      vertex   -3.096067e+001 -1.931366e+000 1.543171e+001
      vertex   -7.717113e+001 -3.119980e+001 1.543171e+001
      vertex   -3.096067e+001 -1.931366e+000 1.578295e+000
    endloop
  endfacet
  facet normal 5.350757e-001 -8.448041e-001 2.166504e-016
    outer loop
      vertex   -3.096067e+001 -1.931366e+000 1.578295e+000
      vertex   -7.717113e+001 -3.119980e+001 1.543171e+001
      vertex   -7.717113e+001 -3.119980e+001 1.578295e+000
    endloop
  endfacet
  facet normal -1.000000e+000 0.000000e+000 -0.000000e+000
    outer loop
      vertex   -7.717113e+001 -3.119980e+001 1.543171e+001
      vertex   -7.717113e+001 -8.933422e+000 1.543171e+001
      vertex   -7.717113e+001 -3.119980e+001 1.578295e+000
    endloop
  endfacet
  facet normal -1.000000e+000 0.000000e+000 -0.000000e+000
    outer loop
      vertex   -7.717113e+001 -3.119980e+001 1.578295e+000
      vertex   -7.717113e+001 -8.933422e+000 1.543171e+001
      vertex   -7.717113e+001 -8.933422e+000 1.578295e+000
    endloop
  endfacet
  facet normal -5.035005e-001 8.639949e-001 -1.275489e-015
    outer loop
      vertex   -7.717113e+001 -8.933422e+000 1.543171e+001
      vertex   -4.937668e+001 7.264032e+000 1.543171e+001
      vertex   -7.717113e+001 -8.933422e+000 1.578295e+000
    endloop
  endfacet
  facet normal -5.035005e-001 8.639949e-001 -4.431438e-016
    outer loop
      vertex   -7.717113e+001 -8.933422e+000 1.578295e+000
      vertex   -4.937668e+001 7.264032e+000 1.543171e+001
      vertex   -4.937668e+001 7.264032e+000 1.578295e+000
    endloop
  endfacet
  facet normal -5.112233e-001 -8.594479e-001 3.806328e-016
    outer loop
      vertex   -4.937668e+001 7.264032e+000 1.543171e+001
      vertex   -7.717113e+001 2.379694e+001 1.543171e+001
      vertex   -4.937668e+001 7.264032e+000 1.578295e+000
    endloop
  endfacet
  facet normal -5.112233e-001 -8.594479e-001 5.244138e-016
    outer loop
      vertex   -4.937668e+001 7.264032e+000 1.578295e+000
      vertex   -7.717113e+001 2.379694e+001 1.543171e+001
      vertex   -7.717113e+001 2.379694e+001 1.578295e+000
    endloop
  endfacet
  facet normal 1.000000e+000 0.000000e+000 0.000000e+000
    outer loop
      vertex   -7.517113e+001 -1.008273e+001 1.543171e+001
      vertex   -7.517113e+001 -2.756564e+001 1.543171e+001
      vertex   -7.517113e+001 -1.008273e+001 1.578295e+000
    endloop
  endfacet
  facet normal 1.000000e+000 0.000000e+000 0.000000e+000
    outer loop
      vertex   -7.517113e+001 -1.008273e+001 1.578295e+000
      vertex   -7.517113e+001 -2.756564e+001 1.543171e+001
      vertex   -7.517113e+001 -2.756564e+001 1.578295e+000
    endloop
  endfacet
  facet normal -5.350757e-001 8.448041e-001 -9.533927e-016
    outer loop
      vertex   -7.517113e+001 -2.756564e+001 1.543171e+001
      vertex   -3.154076e+001 6.863387e-002 1.543171e+001
      vertex   -7.517113e+001 -2.756564e+001 1.578295e+000
    endloop
  endfacet
  facet normal -5.350757e-001 8.448041e-001 -1.040938e-016
    outer loop
      vertex   -7.517113e+001 -2.756564e+001 1.578295e+000
      vertex   -3.154076e+001 6.863387e-002 1.543171e+001
      vertex   -3.154076e+001 6.863387e-002 1.578295e+000
    endloop
  endfacet
  facet normal 2.816863e-016 1.000000e+000 -1.232164e-016
    outer loop
      vertex   -3.154076e+001 6.863387e-002 1.543171e+001
      vertex   -1.000000e-002 6.863387e-002 1.543171e+001
      vertex   -3.154076e+001 6.863387e-002 1.578295e+000
    endloop
  endfacet
  facet normal 5.633726e-016 1.000000e+000 -7.643426e-016
    outer loop
      vertex   -3.154076e+001 6.863387e-002 1.578295e+000
      vertex   -1.000000e-002 6.863387e-002 1.543171e+001
      vertex   -1.000000e-002 6.863387e-002 1.578295e+000
    endloop
  endfacet
  facet normal -1.000000e+000 1.615456e-031 1.025802e-015
    outer loop
      vertex   -7.717113e+001 2.379694e+001 1.543171e+001
      vertex   -7.717113e+001 4.635639e+001 1.543171e+001
      vertex   -7.717113e+001 2.379694e+001 1.578295e+000
    endloop
  endfacet
  facet normal -1.000000e+000 6.299290e-016 -3.230912e-031
    outer loop
      vertex   -7.717113e+001 2.379694e+001 1.578295e+000
      vertex   -7.717113e+001 4.635639e+001 1.543171e+001
      vertex   -7.717113e+001 4.635639e+001 1.578295e+000
    endloop
  endfacet
  facet normal 5.345547e-001 8.451339e-001 -3.008429e-016
    outer loop
      vertex   -7.717113e+001 4.635639e+001 1.543171e+001
      vertex   -3.106388e+001 1.719315e+001 1.543171e+001
      vertex   -7.717113e+001 4.635639e+001 1.578295e+000
    endloop
  endfacet
  facet normal 5.345547e-001 8.451339e-001 -4.334700e-016
    outer loop
      vertex   -7.717113e+001 4.635639e+001 1.578295e+000
      vertex   -3.106388e+001 1.719315e+001 1.543171e+001
      vertex   -3.106388e+001 1.719315e+001 1.578295e+000
    endloop
  endfacet
  facet normal 2.756394e-032 1.000000e+000 -5.129009e-016
    outer loop
      vertex   -3.106388e+001 1.719315e+001 1.543171e+001
      vertex   1.990000e+000 1.719315e+001 1.543171e+001
      vertex   -3.106388e+001 1.719315e+001 1.578295e+000
    endloop
  endfacet
  facet normal 0.000000e+000 1.000000e+000 -5.129009e-016
    outer loop
      vertex   -3.106388e+001 1.719315e+001 1.578295e+000
      vertex   1.990000e+000 1.719315e+001 1.543171e+001
      vertex   1.990000e+000 1.719315e+001 1.578295e+000
    endloop
  endfacet
  facet normal -1.000000e+000 0.000000e+000 -0.000000e+000
    outer loop
      vertex   -1.000000e-002 6.863387e-002 1.543171e+001
      vertex   -1.000000e-002 1.519315e+001 1.543171e+001
      vertex   -1.000000e-002 6.863387e-002 1.578295e+000
    endloop
  endfacet
  facet normal -1.000000e+000 0.000000e+000 -0.000000e+000
    outer loop
      vertex   -1.000000e-002 6.863387e-002 1.578295e+000
      vertex   -1.000000e-002 1.519315e+001 1.543171e+001
      vertex   -1.000000e-002 1.519315e+001 1.578295e+000
    endloop
  endfacet
  facet normal 1.000000e+000 1.625466e-016 3.205631e-017
    outer loop
      vertex   1.990000e+000 1.719315e+001 1.543171e+001
      vertex   1.990000e+000 -1.931366e+000 1.543171e+001
      vertex   1.990000e+000 1.719315e+001 1.578295e+000
    endloop
  endfacet
  facet normal 1.000000e+000 1.509361e-016 1.602815e-017
    outer loop
      vertex   1.990000e+000 1.719315e+001 1.578295e+000
      vertex   1.990000e+000 -1.931366e+000 1.543171e+001
      vertex   1.990000e+000 -1.931366e+000 1.578295e+000
    endloop
  endfacet
  facet normal 1.128503e-016 -2.202166e-016 -1.000000e+000
    outer loop
      vertex   -1.000000e-002 1.519315e+001 1.578295e+000
      vertex   1.990000e+000 -1.931366e+000 1.578295e+000
      vertex   -1.000000e-002 6.863387e-002 1.578295e+000
    endloop
  endfacet
  facet normal 1.095767e-016 -2.205990e-016 -1.000000e+000
    outer loop
      vertex   -1.000000e-002 1.519315e+001 1.578295e+000
      vertex   1.990000e+000 1.719315e+001 1.578295e+000
      vertex   1.990000e+000 -1.931366e+000 1.578295e+000
    endloop
  endfacet
  facet normal 0.000000e+000 -1.110223e-016 -1.000000e+000
    outer loop
      vertex   -1.000000e-002 1.519315e+001 1.578295e+000
      vertex   -3.106388e+001 1.719315e+001 1.578295e+000
      vertex   1.990000e+000 1.719315e+001 1.578295e+000
    endloop
  endfacet
  facet normal -0.000000e+000 -1.110223e-016 -1.000000e+000
    outer loop
      vertex   -1.000000e-002 1.519315e+001 1.578295e+000
      vertex   -3.164330e+001 1.519315e+001 1.578295e+000
      vertex   -3.106388e+001 1.719315e+001 1.578295e+000
    endloop
  endfacet
  facet normal 2.295033e-016 -1.775118e-016 -1.000000e+000
    outer loop
      vertex   -3.106388e+001 1.719315e+001 1.578295e+000
      vertex   -3.164330e+001 1.519315e+001 1.578295e+000
      vertex   -7.517113e+001 4.272488e+001 1.578295e+000
    endloop
  endfacet
  facet normal -3.065267e-016 -4.133909e-016 -1.000000e+000
    outer loop
      vertex   -7.717113e+001 4.635639e+001 1.578295e+000
      vertex   -7.517113e+001 4.272488e+001 1.578295e+000
      vertex   -7.717113e+001 2.379694e+001 1.578295e+000
    endloop
  endfacet
  facet normal 2.799206e-016 -9.041348e-017 -1.000000e+000
    outer loop
      vertex   -7.717113e+001 4.635639e+001 1.578295e+000
      vertex   -3.106388e+001 1.719315e+001 1.578295e+000
      vertex   -7.517113e+001 4.272488e+001 1.578295e+000
    endloop
  endfacet
  facet normal 1.516075e-016 -4.617991e-016 -1.000000e+000
    outer loop
      vertex   -7.517113e+001 4.272488e+001 1.578295e+000
      vertex   -7.517113e+001 2.493436e+001 1.578295e+000
      vertex   -7.717113e+001 2.379694e+001 1.578295e+000
    endloop
  endfacet
  facet normal 9.162311e-017 -3.563246e-016 -1.000000e+000
    outer loop
      vertex   -7.717113e+001 2.379694e+001 1.578295e+000
      vertex   -7.517113e+001 2.493436e+001 1.578295e+000
      vertex   -4.937668e+001 7.264032e+000 1.578295e+000
    endloop
  endfacet
  facet normal -2.210497e-018 -4.932993e-016 -1.000000e+000
    outer loop
      vertex   -4.937668e+001 7.264032e+000 1.578295e+000
      vertex   -7.517113e+001 2.493436e+001 1.578295e+000
      vertex   -4.543480e+001 7.246368e+000 1.578295e+000
    endloop
  endfacet
  facet normal -9.116686e-019 -2.034499e-016 -1.000000e+000
    outer loop
      vertex   -7.517113e+001 -1.008273e+001 1.578295e+000
      vertex   -4.937668e+001 7.264032e+000 1.578295e+000
      vertex   -4.543480e+001 7.246368e+000 1.578295e+000
    endloop
  endfacet
  facet normal -3.596829e-018 -1.994571e-016 -1.000000e+000
    outer loop
      vertex   -7.517113e+001 -1.008273e+001 1.578295e+000
      vertex   -7.717113e+001 -8.933422e+000 1.578295e+000
      vertex   -4.937668e+001 7.264032e+000 1.578295e+000
    endloop
  endfacet
  facet normal -3.122912e-016 -7.366386e-016 -1.000000e+000
    outer loop
      vertex   -7.517113e+001 -1.008273e+001 1.578295e+000
      vertex   -7.517113e+001 -2.756564e+001 1.578295e+000
      vertex   -7.717113e+001 -8.933422e+000 1.578295e+000
    endloop
  endfacet
  facet normal 6.974871e-016 -6.282481e-016 -1.000000e+000
    outer loop
      vertex   -7.717113e+001 -8.933422e+000 1.578295e+000
      vertex   -7.517113e+001 -2.756564e+001 1.578295e+000
      vertex   -7.717113e+001 -3.119980e+001 1.578295e+000
    endloop
  endfacet
  facet normal -2.713330e-016 -9.507360e-017 -1.000000e+000
    outer loop
      vertex   -7.717113e+001 -3.119980e+001 1.578295e+000
      vertex   -7.517113e+001 -2.756564e+001 1.578295e+000
      vertex   -3.096067e+001 -1.931366e+000 1.578295e+000
    endloop
  endfacet
  facet normal -1.141428e-016 -3.661734e-016 -1.000000e+000
    outer loop
      vertex   -3.096067e+001 -1.931366e+000 1.578295e+000
      vertex   -7.517113e+001 -2.756564e+001 1.578295e+000
      vertex   -3.154076e+001 6.863387e-002 1.578295e+000
    endloop
  endfacet
  facet normal -1.876408e-031 -3.330669e-016 -1.000000e+000
    outer loop
      vertex   -1.000000e-002 6.863387e-002 1.578295e+000
      vertex   -3.096067e+001 -1.931366e+000 1.578295e+000
      vertex   -3.154076e+001 6.863387e-002 1.578295e+000
    endloop
  endfacet
  facet normal -0.000000e+000 -3.330669e-016 -1.000000e+000
    outer loop
      vertex   -1.000000e-002 6.863387e-002 1.578295e+000
      vertex   1.990000e+000 -1.931366e+000 1.578295e+000
      vertex   -3.096067e+001 -1.931366e+000 1.578295e+000
    endloop
  endfacet
endsolid
