solid ascii
  facet normal -7.071068e-001 4.025130e-017 7.071068e-001
    outer loop
      vertex   9.800000e-001 3.929151e+001 1.622950e+001
      vertex   -1.000000e-002 3.830151e+001 1.523950e+001
      vertex   9.800000e-001 7.770503e+000 1.622950e+001
    endloop
  endfacet
  facet normal -7.071068e-001 1.660904e-016 7.071068e-001
    outer loop
      vertex   9.800000e-001 7.770503e+000 1.622950e+001
      vertex   -1.000000e-002 3.830151e+001 1.523950e+001
      vertex   -1.000000e-002 7.770503e+000 1.523950e+001
    endloop
  endfacet
  facet normal -7.071068e-001 1.194749e-016 7.071068e-001
    outer loop
      vertex   -1.000000e-002 -2.276050e+001 1.523950e+001
      vertex   9.800000e-001 7.770503e+000 1.622950e+001
      vertex   -1.000000e-002 7.770503e+000 1.523950e+001
    endloop
  endfacet
  facet normal -7.071068e-001 1.942629e-016 7.071068e-001
    outer loop
      vertex   -1.000000e-002 -2.276050e+001 1.523950e+001
      vertex   9.800000e-001 -2.375050e+001 1.622950e+001
      vertex   9.800000e-001 7.770503e+000 1.622950e+001
    endloop
  endfacet
  facet normal 7.071068e-001 8.815759e-017 7.071068e-001
    outer loop
      vertex   -7.616113e+001 3.483106e+001 1.622950e+001
      vertex   -7.616113e+001 6.334956e+000 1.622950e+001
      vertex   -7.517113e+001 3.384106e+001 1.523950e+001
    endloop
  endfacet
  facet normal 7.071068e-001 1.369382e-016 7.071068e-001
    outer loop
      vertex   -7.517113e+001 3.384106e+001 1.523950e+001
      vertex   -7.616113e+001 6.334956e+000 1.622950e+001
      vertex   -7.517113e+001 -2.117115e+001 1.523950e+001
    endloop
  endfacet
  facet normal 7.071068e-001 2.644728e-016 7.071068e-001
    outer loop
      vertex   -7.517113e+001 -2.117115e+001 1.523950e+001
      vertex   -7.616113e+001 6.334956e+000 1.622950e+001
      vertex   -7.616113e+001 -2.216115e+001 1.622950e+001
    endloop
  endfacet
  facet normal -0.000000e+000 7.071068e-001 7.071068e-001
    outer loop
      vertex   -7.616113e+001 -2.216115e+001 1.622950e+001
      vertex   -6.302784e+001 -2.216115e+001 1.622950e+001
      vertex   -7.517113e+001 -2.117115e+001 1.523950e+001
    endloop
  endfacet
  facet normal 0.000000e+000 7.071068e-001 7.071068e-001
    outer loop
      vertex   -7.517113e+001 -2.117115e+001 1.523950e+001
      vertex   -6.302784e+001 -2.216115e+001 1.622950e+001
      vertex   -6.337914e+001 -2.117115e+001 1.523950e+001
    endloop
  endfacet
  facet normal -4.457082e-001 5.489482e-001 7.071068e-001
    outer loop
      vertex   -1.267357e+001 1.999829e+001 1.523950e+001
      vertex   -3.802636e+001 -5.864307e-001 1.523950e+001
      vertex   -1.366357e+001 1.791924e+001 1.622950e+001
    endloop
  endfacet
  facet normal -4.457082e-001 5.489482e-001 7.071068e-001
    outer loop
      vertex   -1.366357e+001 1.791924e+001 1.622950e+001
      vertex   -3.802636e+001 -5.864307e-001 1.523950e+001
      vertex   -3.834571e+001 -2.120952e+000 1.622950e+001
    endloop
  endfacet
  facet normal -4.457082e-001 5.489482e-001 7.071068e-001
    outer loop
      vertex   -3.834571e+001 -2.120952e+000 1.622950e+001
      vertex   -3.802636e+001 -5.864307e-001 1.523950e+001
      vertex   -6.337914e+001 -2.117115e+001 1.523950e+001
    endloop
  endfacet
  facet normal -4.457082e-001 5.489482e-001 7.071068e-001
    outer loop
      vertex   -6.302784e+001 -2.216115e+001 1.622950e+001
      vertex   -3.834571e+001 -2.120952e+000 1.622950e+001
      vertex   -6.337914e+001 -2.117115e+001 1.523950e+001
    endloop
  endfacet
  facet normal 7.071068e-001 1.761807e-016 7.071068e-001
    outer loop
      vertex   -1.267357e+001 1.999829e+001 1.523950e+001
      vertex   -1.366357e+001 1.791924e+001 1.622950e+001
      vertex   -1.267357e+001 -2.276050e+001 1.523950e+001
    endloop
  endfacet
  facet normal 7.071068e-001 1.808613e-016 7.071068e-001
    outer loop
      vertex   -1.267357e+001 -2.276050e+001 1.523950e+001
      vertex   -1.366357e+001 1.791924e+001 1.622950e+001
      vertex   -1.366357e+001 -2.375050e+001 1.622950e+001
    endloop
  endfacet
  facet normal 0.000000e+000 -7.071068e-001 7.071068e-001
    outer loop
      vertex   -6.146629e+001 3.483106e+001 1.622950e+001
      vertex   -7.616113e+001 3.483106e+001 1.622950e+001
      vertex   -6.245629e+001 3.384106e+001 1.523950e+001
    endloop
  endfacet
  facet normal -2.993576e-016 -7.071068e-001 7.071068e-001
    outer loop
      vertex   -6.245629e+001 3.384106e+001 1.523950e+001
      vertex   -7.616113e+001 3.483106e+001 1.622950e+001
      vertex   -7.517113e+001 3.384106e+001 1.523950e+001
    endloop
  endfacet
  facet normal -3.967518e-016 7.071068e-001 7.071068e-001
    outer loop
      vertex   -1.000000e-002 -2.276050e+001 1.523950e+001
      vertex   -1.267357e+001 -2.276050e+001 1.523950e+001
      vertex   9.800000e-001 -2.375050e+001 1.622950e+001
    endloop
  endfacet
  facet normal 0.000000e+000 7.071068e-001 7.071068e-001
    outer loop
      vertex   9.800000e-001 -2.375050e+001 1.622950e+001
      vertex   -1.267357e+001 -2.276050e+001 1.523950e+001
      vertex   -1.366357e+001 -2.375050e+001 1.622950e+001
    endloop
  endfacet
  facet normal -7.071068e-001 1.495666e-016 7.071068e-001
    outer loop
      vertex   -6.146629e+001 3.483106e+001 1.622950e+001
      vertex   -6.245629e+001 3.384106e+001 1.523950e+001
      vertex   -6.146629e+001 8.993705e-001 1.622950e+001
    endloop
  endfacet
  facet normal -7.071068e-001 7.174063e-017 7.071068e-001
    outer loop
      vertex   -6.146629e+001 8.993705e-001 1.622950e+001
      vertex   -6.245629e+001 3.384106e+001 1.523950e+001
      vertex   -6.245629e+001 -1.176030e+000 1.523950e+001
    endloop
  endfacet
  facet normal 4.449602e-001 -5.495547e-001 7.071068e-001
    outer loop
      vertex   -1.404951e+001 3.929151e+001 1.622950e+001
      vertex   -3.775790e+001 2.009544e+001 1.622950e+001
      vertex   -1.369896e+001 3.830151e+001 1.523950e+001
    endloop
  endfacet
  facet normal 4.449602e-001 -5.495547e-001 7.071068e-001
    outer loop
      vertex   -1.369896e+001 3.830151e+001 1.523950e+001
      vertex   -3.775790e+001 2.009544e+001 1.622950e+001
      vertex   -3.807763e+001 1.856274e+001 1.523950e+001
    endloop
  endfacet
  facet normal 4.449602e-001 -5.495547e-001 7.071068e-001
    outer loop
      vertex   -3.807763e+001 1.856274e+001 1.523950e+001
      vertex   -3.775790e+001 2.009544e+001 1.622950e+001
      vertex   -6.146629e+001 8.993705e-001 1.622950e+001
    endloop
  endfacet
  facet normal 4.449602e-001 -5.495547e-001 7.071068e-001
    outer loop
      vertex   -6.245629e+001 -1.176030e+000 1.523950e+001
      vertex   -3.807763e+001 1.856274e+001 1.523950e+001
      vertex   -6.146629e+001 8.993705e-001 1.622950e+001
    endloop
  endfacet
  facet normal -5.014432e-016 -7.071068e-001 7.071068e-001
    outer loop
      vertex   9.800000e-001 3.929151e+001 1.622950e+001
      vertex   -1.404951e+001 3.929151e+001 1.622950e+001
      vertex   -1.000000e-002 3.830151e+001 1.523950e+001
    endloop
  endfacet
  facet normal 9.268499e-017 -7.071068e-001 7.071068e-001
    outer loop
      vertex   -1.000000e-002 3.830151e+001 1.523950e+001
      vertex   -1.404951e+001 3.929151e+001 1.622950e+001
      vertex   -1.369896e+001 3.830151e+001 1.523950e+001
    endloop
  endfacet
  facet normal 6.845649e-032 -1.000000e+000 5.275396e-016
    outer loop
      vertex   -1.000000e-002 3.830151e+001 1.523950e+001
      vertex   -1.369896e+001 3.830151e+001 1.523950e+001
      vertex   -1.000000e-002 3.830151e+001 1.770503e+000
    endloop
  endfacet
  facet normal 0.000000e+000 -1.000000e+000 5.275396e-016
    outer loop
      vertex   -1.000000e-002 3.830151e+001 1.770503e+000
      vertex   -1.369896e+001 3.830151e+001 1.523950e+001
      vertex   -1.369896e+001 3.830151e+001 1.770503e+000
    endloop
  endfacet
  facet normal 6.292688e-001 -7.771878e-001 4.036290e-016
    outer loop
      vertex   -1.369896e+001 3.830151e+001 1.523950e+001
      vertex   -3.807763e+001 1.856274e+001 1.523950e+001
      vertex   -1.369896e+001 3.830151e+001 1.770503e+000
    endloop
  endfacet
  facet normal 6.292688e-001 -7.771878e-001 5.369628e-016
    outer loop
      vertex   -1.369896e+001 3.830151e+001 1.770503e+000
      vertex   -3.807763e+001 1.856274e+001 1.523950e+001
      vertex   -3.807763e+001 1.856274e+001 1.770503e+000
    endloop
  endfacet
  facet normal 6.292688e-001 -7.771878e-001 5.369628e-016
    outer loop
      vertex   -3.807763e+001 1.856274e+001 1.770503e+000
      vertex   -3.807763e+001 1.856274e+001 1.523950e+001
      vertex   -6.245629e+001 -1.176030e+000 1.523950e+001
    endloop
  endfacet
  facet normal 6.292688e-001 -7.771878e-001 5.381720e-016
    outer loop
      vertex   -6.245629e+001 -1.176030e+000 1.770503e+000
      vertex   -3.807763e+001 1.856274e+001 1.770503e+000
      vertex   -6.245629e+001 -1.176030e+000 1.523950e+001
    endloop
  endfacet
  facet normal -1.000000e+000 0.000000e+000 -0.000000e+000
    outer loop
      vertex   -6.245629e+001 -1.176030e+000 1.523950e+001
      vertex   -6.245629e+001 3.384106e+001 1.523950e+001
      vertex   -6.245629e+001 -1.176030e+000 1.770503e+000
    endloop
  endfacet
  facet normal -1.000000e+000 0.000000e+000 0.000000e+000
    outer loop
      vertex   -6.245629e+001 -1.176030e+000 1.770503e+000
      vertex   -6.245629e+001 3.384106e+001 1.523950e+001
      vertex   -6.245629e+001 3.384106e+001 1.770503e+000
    endloop
  endfacet
  facet normal -5.588293e-016 -1.000000e+000 0.000000e+000
    outer loop
      vertex   -6.245629e+001 3.384106e+001 1.523950e+001
      vertex   -7.517113e+001 3.384106e+001 1.523950e+001
      vertex   -6.245629e+001 3.384106e+001 1.770503e+000
    endloop
  endfacet
  facet normal 0.000000e+000 -1.000000e+000 5.275396e-016
    outer loop
      vertex   -6.245629e+001 3.384106e+001 1.770503e+000
      vertex   -7.517113e+001 3.384106e+001 1.523950e+001
      vertex   -7.517113e+001 3.384106e+001 1.770503e+000
    endloop
  endfacet
  facet normal 1.000000e+000 0.000000e+000 0.000000e+000
    outer loop
      vertex   -7.517113e+001 3.384106e+001 1.523950e+001
      vertex   -7.517113e+001 -2.117115e+001 1.523950e+001
      vertex   -7.517113e+001 3.384106e+001 1.770503e+000
    endloop
  endfacet
  facet normal 1.000000e+000 0.000000e+000 0.000000e+000
    outer loop
      vertex   -7.517113e+001 3.384106e+001 1.770503e+000
      vertex   -7.517113e+001 -2.117115e+001 1.523950e+001
      vertex   -7.517113e+001 -2.117115e+001 1.770503e+000
    endloop
  endfacet
  facet normal 1.245862e-016 1.245862e-016 1.000000e+000
    outer loop
      vertex   -7.618113e+001 6.334956e+000 1.622950e+001
      vertex   -7.616113e+001 3.483106e+001 1.622950e+001
      vertex   -7.618113e+001 3.485106e+001 1.622950e+001
    endloop
  endfacet
  facet normal -1.107325e-029 1.246737e-016 1.000000e+000
    outer loop
      vertex   -7.618113e+001 6.334956e+000 1.622950e+001
      vertex   -7.616113e+001 6.334956e+000 1.622950e+001
      vertex   -7.616113e+001 3.483106e+001 1.622950e+001
    endloop
  endfacet
  facet normal -8.858597e-029 3.740210e-016 1.000000e+000
    outer loop
      vertex   -7.618113e+001 6.334956e+000 1.622950e+001
      vertex   -7.616113e+001 -2.216115e+001 1.622950e+001
      vertex   -7.616113e+001 6.334956e+000 1.622950e+001
    endloop
  endfacet
  facet normal -3.737587e-016 3.737587e-016 1.000000e+000
    outer loop
      vertex   -7.618113e+001 6.334956e+000 1.622950e+001
      vertex   -7.618113e+001 -2.218115e+001 1.622950e+001
      vertex   -7.616113e+001 -2.216115e+001 1.622950e+001
    endloop
  endfacet
  facet normal -0.000000e+000 0.000000e+000 1.000000e+000
    outer loop
      vertex   -7.616113e+001 -2.216115e+001 1.622950e+001
      vertex   -7.618113e+001 -2.218115e+001 1.622950e+001
      vertex   -6.302074e+001 -2.218115e+001 1.622950e+001
    endloop
  endfacet
  facet normal 2.236106e-016 7.934770e-017 1.000000e+000
    outer loop
      vertex   -6.302784e+001 -2.216115e+001 1.622950e+001
      vertex   -6.302074e+001 -2.218115e+001 1.622950e+001
      vertex   -3.835216e+001 -2.151952e+000 1.622950e+001
    endloop
  endfacet
  facet normal 1.733006e-016 -3.606572e-017 1.000000e+000
    outer loop
      vertex   -3.834571e+001 -2.120952e+000 1.622950e+001
      vertex   -3.835216e+001 -2.151952e+000 1.622950e+001
      vertex   -1.368357e+001 1.787724e+001 1.622950e+001
    endloop
  endfacet
  facet normal -5.371417e-016 2.557765e-016 1.000000e+000
    outer loop
      vertex   -1.366357e+001 1.791924e+001 1.622950e+001
      vertex   -1.368357e+001 1.787724e+001 1.622950e+001
      vertex   -1.366357e+001 -2.375050e+001 1.622950e+001
    endloop
  endfacet
  facet normal 2.346671e-016 -1.117439e-016 1.000000e+000
    outer loop
      vertex   -1.366357e+001 1.791924e+001 1.622950e+001
      vertex   -3.834571e+001 -2.120952e+000 1.622950e+001
      vertex   -1.368357e+001 1.787724e+001 1.622950e+001
    endloop
  endfacet
  facet normal -0.000000e+000 -0.000000e+000 1.000000e+000
    outer loop
      vertex   -7.616113e+001 -2.216115e+001 1.622950e+001
      vertex   -6.302074e+001 -2.218115e+001 1.622950e+001
      vertex   -6.302784e+001 -2.216115e+001 1.622950e+001
    endloop
  endfacet
  facet normal 3.464110e-016 -7.209185e-017 1.000000e+000
    outer loop
      vertex   -6.302784e+001 -2.216115e+001 1.622950e+001
      vertex   -3.835216e+001 -2.151952e+000 1.622950e+001
      vertex   -3.834571e+001 -2.120952e+000 1.622950e+001
    endloop
  endfacet
  facet normal -2.559116e-016 2.559116e-016 1.000000e+000
    outer loop
      vertex   -1.368357e+001 1.787724e+001 1.622950e+001
      vertex   -1.368357e+001 -2.377050e+001 1.622950e+001
      vertex   -1.366357e+001 -2.375050e+001 1.622950e+001
    endloop
  endfacet
  facet normal -0.000000e+000 0.000000e+000 1.000000e+000
    outer loop
      vertex   -1.366357e+001 -2.375050e+001 1.622950e+001
      vertex   -1.368357e+001 -2.377050e+001 1.622950e+001
      vertex   1.000000e+000 -2.377050e+001 1.622950e+001
    endloop
  endfacet
  facet normal 3.379138e-016 3.379138e-016 1.000000e+000
    outer loop
      vertex   9.800000e-001 -2.375050e+001 1.622950e+001
      vertex   1.000000e+000 -2.377050e+001 1.622950e+001
      vertex   1.000000e+000 7.770503e+000 1.622950e+001
    endloop
  endfacet
  facet normal 4.004242e-029 1.127094e-016 1.000000e+000
    outer loop
      vertex   9.800000e-001 7.770503e+000 1.622950e+001
      vertex   1.000000e+000 7.770503e+000 1.622950e+001
      vertex   9.800000e-001 3.929151e+001 1.622950e+001
    endloop
  endfacet
  facet normal 8.008485e-029 3.381282e-016 1.000000e+000
    outer loop
      vertex   9.800000e-001 7.770503e+000 1.622950e+001
      vertex   9.800000e-001 -2.375050e+001 1.622950e+001
      vertex   1.000000e+000 7.770503e+000 1.622950e+001
    endloop
  endfacet
  facet normal -0.000000e+000 -0.000000e+000 1.000000e+000
    outer loop
      vertex   -1.366357e+001 -2.375050e+001 1.622950e+001
      vertex   1.000000e+000 -2.377050e+001 1.622950e+001
      vertex   9.800000e-001 -2.375050e+001 1.622950e+001
    endloop
  endfacet
  facet normal -1.126379e-016 1.126379e-016 1.000000e+000
    outer loop
      vertex   1.000000e+000 7.770503e+000 1.622950e+001
      vertex   1.000000e+000 3.931151e+001 1.622950e+001
      vertex   9.800000e-001 3.929151e+001 1.622950e+001
    endloop
  endfacet
  facet normal 0.000000e+000 -0.000000e+000 1.000000e+000
    outer loop
      vertex   9.800000e-001 3.929151e+001 1.622950e+001
      vertex   1.000000e+000 3.931151e+001 1.622950e+001
      vertex   -1.405659e+001 3.931151e+001 1.622950e+001
    endloop
  endfacet
  facet normal 1.117806e-013 -1.380563e-013 1.000000e+000
    outer loop
      vertex   -1.404951e+001 3.929151e+001 1.622950e+001
      vertex   -1.405659e+001 3.931151e+001 1.622950e+001
      vertex   -3.775144e+001 2.012640e+001 1.622950e+001
    endloop
  endfacet
  facet normal 3.608147e-016 -7.526796e-017 1.000000e+000
    outer loop
      vertex   -3.775790e+001 2.009544e+001 1.622950e+001
      vertex   -3.775144e+001 2.012640e+001 1.622950e+001
      vertex   -6.144629e+001 9.412977e-001 1.622950e+001
    endloop
  endfacet
  facet normal -4.389868e-016 2.094039e-016 1.000000e+000
    outer loop
      vertex   -6.146629e+001 8.993705e-001 1.622950e+001
      vertex   -6.144629e+001 9.412977e-001 1.622950e+001
      vertex   -6.146629e+001 3.483106e+001 1.622950e+001
    endloop
  endfacet
  facet normal 4.882934e-016 -2.329239e-016 1.000000e+000
    outer loop
      vertex   -6.146629e+001 8.993705e-001 1.622950e+001
      vertex   -3.775790e+001 2.009544e+001 1.622950e+001
      vertex   -6.144629e+001 9.412977e-001 1.622950e+001
    endloop
  endfacet
  facet normal -2.363826e-016 -1.777194e-013 1.000000e+000
    outer loop
      vertex   9.800000e-001 3.929151e+001 1.622950e+001
      vertex   -1.405659e+001 3.931151e+001 1.622950e+001
      vertex   -1.404951e+001 3.929151e+001 1.622950e+001
    endloop
  endfacet
  facet normal 1.803043e-016 -3.761248e-017 1.000000e+000
    outer loop
      vertex   -1.404951e+001 3.929151e+001 1.622950e+001
      vertex   -3.775144e+001 2.012640e+001 1.622950e+001
      vertex   -3.775790e+001 2.009544e+001 1.622950e+001
    endloop
  endfacet
  facet normal -2.095393e-016 2.095393e-016 1.000000e+000
    outer loop
      vertex   -6.144629e+001 9.412977e-001 1.622950e+001
      vertex   -6.144629e+001 3.485106e+001 1.622950e+001
      vertex   -6.146629e+001 3.483106e+001 1.622950e+001
    endloop
  endfacet
  facet normal 0.000000e+000 -0.000000e+000 1.000000e+000
    outer loop
      vertex   -6.146629e+001 3.483106e+001 1.622950e+001
      vertex   -6.144629e+001 3.485106e+001 1.622950e+001
      vertex   -7.618113e+001 3.485106e+001 1.622950e+001
    endloop
  endfacet
  facet normal 0.000000e+000 -0.000000e+000 1.000000e+000
    outer loop
      vertex   -7.616113e+001 3.483106e+001 1.622950e+001
      vertex   -6.146629e+001 3.483106e+001 1.622950e+001
      vertex   -7.618113e+001 3.485106e+001 1.622950e+001
    endloop
  endfacet
  facet normal -3.064132e-016 7.071068e-001 7.071068e-001
    outer loop
      vertex   1.990000e+000 4.030151e+001 1.523950e+001
      vertex   -1.440713e+001 4.030151e+001 1.523950e+001
      vertex   1.000000e+000 3.931151e+001 1.622950e+001
    endloop
  endfacet
  facet normal 0.000000e+000 7.071068e-001 7.071068e-001
    outer loop
      vertex   1.000000e+000 3.931151e+001 1.622950e+001
      vertex   -1.440713e+001 4.030151e+001 1.523950e+001
      vertex   -1.405659e+001 3.931151e+001 1.622950e+001
    endloop
  endfacet
  facet normal -4.449602e-001 5.495547e-001 7.071068e-001
    outer loop
      vertex   -1.440713e+001 4.030151e+001 1.523950e+001
      vertex   -3.743171e+001 2.165910e+001 1.523950e+001
      vertex   -1.405659e+001 3.931151e+001 1.622950e+001
    endloop
  endfacet
  facet normal -4.449602e-001 5.495547e-001 7.071068e-001
    outer loop
      vertex   -1.405659e+001 3.931151e+001 1.622950e+001
      vertex   -3.743171e+001 2.165910e+001 1.523950e+001
      vertex   -3.775144e+001 2.012640e+001 1.622950e+001
    endloop
  endfacet
  facet normal -4.449602e-001 5.495547e-001 7.071068e-001
    outer loop
      vertex   -3.775144e+001 2.012640e+001 1.622950e+001
      vertex   -3.743171e+001 2.165910e+001 1.523950e+001
      vertex   -6.045629e+001 3.016698e+000 1.523950e+001
    endloop
  endfacet
  facet normal -4.449602e-001 5.495547e-001 7.071068e-001
    outer loop
      vertex   -6.144629e+001 9.412977e-001 1.622950e+001
      vertex   -3.775144e+001 2.012640e+001 1.622950e+001
      vertex   -6.045629e+001 3.016698e+000 1.523950e+001
    endloop
  endfacet
  facet normal 7.071068e-001 3.841147e-016 7.071068e-001
    outer loop
      vertex   -6.045629e+001 3.584106e+001 1.523950e+001
      vertex   -6.144629e+001 3.485106e+001 1.622950e+001
      vertex   -6.045629e+001 3.016698e+000 1.523950e+001
    endloop
  endfacet
  facet normal 7.071068e-001 -2.658554e-031 7.071068e-001
    outer loop
      vertex   -6.045629e+001 3.016698e+000 1.523950e+001
      vertex   -6.144629e+001 3.485106e+001 1.622950e+001
      vertex   -6.144629e+001 9.412977e-001 1.622950e+001
    endloop
  endfacet
  facet normal -7.071068e-001 1.693124e-016 7.071068e-001
    outer loop
      vertex   -7.717113e+001 -2.317115e+001 1.523950e+001
      vertex   -7.618113e+001 -2.218115e+001 1.622950e+001
      vertex   -7.717113e+001 6.334956e+000 1.523950e+001
    endloop
  endfacet
  facet normal -7.071068e-001 2.642873e-016 7.071068e-001
    outer loop
      vertex   -7.717113e+001 6.334956e+000 1.523950e+001
      vertex   -7.618113e+001 -2.218115e+001 1.622950e+001
      vertex   -7.618113e+001 6.334956e+000 1.622950e+001
    endloop
  endfacet
  facet normal -7.071068e-001 8.898562e-017 7.071068e-001
    outer loop
      vertex   -7.618113e+001 3.485106e+001 1.622950e+001
      vertex   -7.717113e+001 6.334956e+000 1.523950e+001
      vertex   -7.618113e+001 6.334956e+000 1.622950e+001
    endloop
  endfacet
  facet normal -7.071068e-001 1.277099e-016 7.071068e-001
    outer loop
      vertex   -7.618113e+001 3.485106e+001 1.622950e+001
      vertex   -7.717113e+001 3.584106e+001 1.523950e+001
      vertex   -7.717113e+001 6.334956e+000 1.523950e+001
    endloop
  endfacet
  facet normal 2.254416e-016 7.071068e-001 7.071068e-001
    outer loop
      vertex   -6.045629e+001 3.584106e+001 1.523950e+001
      vertex   -7.717113e+001 3.584106e+001 1.523950e+001
      vertex   -6.144629e+001 3.485106e+001 1.622950e+001
    endloop
  endfacet
  facet normal 0.000000e+000 7.071068e-001 7.071068e-001
    outer loop
      vertex   -6.144629e+001 3.485106e+001 1.622950e+001
      vertex   -7.717113e+001 3.584106e+001 1.523950e+001
      vertex   -7.618113e+001 3.485106e+001 1.622950e+001
    endloop
  endfacet
  facet normal 0.000000e+000 -7.071068e-001 7.071068e-001
    outer loop
      vertex   -6.302074e+001 -2.218115e+001 1.622950e+001
      vertex   -7.618113e+001 -2.218115e+001 1.622950e+001
      vertex   -6.266945e+001 -2.317115e+001 1.523950e+001
    endloop
  endfacet
  facet normal 0.000000e+000 -7.071068e-001 7.071068e-001
    outer loop
      vertex   -6.266945e+001 -2.317115e+001 1.523950e+001
      vertex   -7.618113e+001 -2.218115e+001 1.622950e+001
      vertex   -7.717113e+001 -2.317115e+001 1.523950e+001
    endloop
  endfacet
  facet normal 4.457082e-001 -5.489482e-001 7.071068e-001
    outer loop
      vertex   -1.368357e+001 1.787724e+001 1.622950e+001
      vertex   -3.835216e+001 -2.151952e+000 1.622950e+001
      vertex   -1.467357e+001 1.579820e+001 1.523950e+001
    endloop
  endfacet
  facet normal 4.457082e-001 -5.489482e-001 7.071068e-001
    outer loop
      vertex   -1.467357e+001 1.579820e+001 1.523950e+001
      vertex   -3.835216e+001 -2.151952e+000 1.622950e+001
      vertex   -3.867151e+001 -3.686474e+000 1.523950e+001
    endloop
  endfacet
  facet normal 4.457082e-001 -5.489482e-001 7.071068e-001
    outer loop
      vertex   -3.867151e+001 -3.686474e+000 1.523950e+001
      vertex   -3.835216e+001 -2.151952e+000 1.622950e+001
      vertex   -6.302074e+001 -2.218115e+001 1.622950e+001
    endloop
  endfacet
  facet normal 4.457082e-001 -5.489482e-001 7.071068e-001
    outer loop
      vertex   -6.266945e+001 -2.317115e+001 1.523950e+001
      vertex   -3.867151e+001 -3.686474e+000 1.523950e+001
      vertex   -6.302074e+001 -2.218115e+001 1.622950e+001
    endloop
  endfacet
  facet normal -7.071068e-001 2.703690e-016 7.071068e-001
    outer loop
      vertex   -1.368357e+001 1.787724e+001 1.622950e+001
      vertex   -1.467357e+001 1.579820e+001 1.523950e+001
      vertex   -1.368357e+001 -2.377050e+001 1.622950e+001
    endloop
  endfacet
  facet normal -7.071068e-001 9.290785e-017 7.071068e-001
    outer loop
      vertex   -1.368357e+001 -2.377050e+001 1.622950e+001
      vertex   -1.467357e+001 1.579820e+001 1.523950e+001
      vertex   -1.467357e+001 -2.476050e+001 1.523950e+001
    endloop
  endfacet
  facet normal 0.000000e+000 -7.071068e-001 7.071068e-001
    outer loop
      vertex   1.000000e+000 -2.377050e+001 1.622950e+001
      vertex   -1.368357e+001 -2.377050e+001 1.622950e+001
      vertex   1.990000e+000 -2.476050e+001 1.523950e+001
    endloop
  endfacet
  facet normal 0.000000e+000 -7.071068e-001 7.071068e-001
    outer loop
      vertex   1.990000e+000 -2.476050e+001 1.523950e+001
      vertex   -1.368357e+001 -2.377050e+001 1.622950e+001
      vertex   -1.467357e+001 -2.476050e+001 1.523950e+001
    endloop
  endfacet
  facet normal 7.071068e-001 1.023792e-016 7.071068e-001
    outer loop
      vertex   1.990000e+000 4.030151e+001 1.523950e+001
      vertex   1.000000e+000 3.931151e+001 1.622950e+001
      vertex   1.990000e+000 7.770503e+000 1.523950e+001
    endloop
  endfacet
  facet normal 7.071068e-001 1.194706e-016 7.071068e-001
    outer loop
      vertex   1.990000e+000 7.770503e+000 1.523950e+001
      vertex   1.000000e+000 3.931151e+001 1.622950e+001
      vertex   1.000000e+000 7.770503e+000 1.622950e+001
    endloop
  endfacet
  facet normal 7.071068e-001 2.891228e-016 7.071068e-001
    outer loop
      vertex   1.000000e+000 -2.377050e+001 1.622950e+001
      vertex   1.990000e+000 7.770503e+000 1.523950e+001
      vertex   1.000000e+000 7.770503e+000 1.622950e+001
    endloop
  endfacet
  facet normal 7.071068e-001 1.978844e-016 7.071068e-001
    outer loop
      vertex   1.000000e+000 -2.377050e+001 1.622950e+001
      vertex   1.990000e+000 -2.476050e+001 1.523950e+001
      vertex   1.990000e+000 7.770503e+000 1.523950e+001
    endloop
  endfacet
  facet normal -0.000000e+000 -1.000000e+000 -7.913094e-016
    outer loop
      vertex   1.990000e+000 -2.476050e+001 1.523950e+001
      vertex   -1.467357e+001 -2.476050e+001 1.523950e+001
      vertex   1.990000e+000 -2.476050e+001 1.770503e+000
    endloop
  endfacet
  facet normal 0.000000e+000 -1.000000e+000 -7.913094e-016
    outer loop
      vertex   1.990000e+000 -2.476050e+001 1.770503e+000
      vertex   -1.467357e+001 -2.476050e+001 1.523950e+001
      vertex   -1.467357e+001 -2.476050e+001 1.770503e+000
    endloop
  endfacet
  facet normal -1.000000e+000 -8.759436e-017 -4.620949e-032
    outer loop
      vertex   -1.467357e+001 -2.476050e+001 1.523950e+001
      vertex   -1.467357e+001 1.579820e+001 1.523950e+001
      vertex   -1.467357e+001 -2.476050e+001 1.770503e+000
    endloop
  endfacet
  facet normal -1.000000e+000 -1.155237e-031 -2.637698e-016
    outer loop
      vertex   -1.467357e+001 -2.476050e+001 1.770503e+000
      vertex   -1.467357e+001 1.579820e+001 1.523950e+001
      vertex   -1.467357e+001 1.579820e+001 1.770503e+000
    endloop
  endfacet
  facet normal 6.303266e-001 -7.763301e-001 4.095801e-016
    outer loop
      vertex   -1.467357e+001 1.579820e+001 1.523950e+001
      vertex   -3.867151e+001 -3.686474e+000 1.523950e+001
      vertex   -1.467357e+001 1.579820e+001 1.770503e+000
    endloop
  endfacet
  facet normal 6.303266e-001 -7.763301e-001 5.372946e-016
    outer loop
      vertex   -1.467357e+001 1.579820e+001 1.770503e+000
      vertex   -3.867151e+001 -3.686474e+000 1.523950e+001
      vertex   -3.867151e+001 -3.686474e+000 1.770503e+000
    endloop
  endfacet
  facet normal 6.303266e-001 -7.763301e-001 5.372946e-016
    outer loop
      vertex   -3.867151e+001 -3.686474e+000 1.770503e+000
      vertex   -3.867151e+001 -3.686474e+000 1.523950e+001
      vertex   -6.266945e+001 -2.317115e+001 1.523950e+001
    endloop
  endfacet
  facet normal 6.303266e-001 -7.763301e-001 1.092213e-015
    outer loop
      vertex   -6.266945e+001 -2.317115e+001 1.770503e+000
      vertex   -3.867151e+001 -3.686474e+000 1.770503e+000
      vertex   -6.266945e+001 -2.317115e+001 1.523950e+001
    endloop
  endfacet
  facet normal -0.000000e+000 -1.000000e+000 -0.000000e+000
    outer loop
      vertex   -6.266945e+001 -2.317115e+001 1.523950e+001
      vertex   -7.717113e+001 -2.317115e+001 1.523950e+001
      vertex   -6.266945e+001 -2.317115e+001 1.770503e+000
    endloop
  endfacet
  facet normal -0.000000e+000 -1.000000e+000 -0.000000e+000
    outer loop
      vertex   -6.266945e+001 -2.317115e+001 1.770503e+000
      vertex   -7.717113e+001 -2.317115e+001 1.523950e+001
      vertex   -7.717113e+001 -2.317115e+001 1.770503e+000
    endloop
  endfacet
  facet normal -1.000000e+000 0.000000e+000 -0.000000e+000
    outer loop
      vertex   -7.717113e+001 -2.317115e+001 1.523950e+001
      vertex   -7.717113e+001 6.334956e+000 1.523950e+001
      vertex   -7.717113e+001 -2.317115e+001 1.770503e+000
    endloop
  endfacet
  facet normal -1.000000e+000 0.000000e+000 -0.000000e+000
    outer loop
      vertex   -7.717113e+001 -2.317115e+001 1.770503e+000
      vertex   -7.717113e+001 6.334956e+000 1.523950e+001
      vertex   -7.717113e+001 6.334956e+000 1.770503e+000
    endloop
  endfacet
  facet normal -1.000000e+000 0.000000e+000 0.000000e+000
    outer loop
      vertex   -7.717113e+001 6.334956e+000 1.770503e+000
      vertex   -7.717113e+001 6.334956e+000 1.523950e+001
      vertex   -7.717113e+001 3.584106e+001 1.523950e+001
    endloop
  endfacet
  facet normal -1.000000e+000 0.000000e+000 0.000000e+000
    outer loop
      vertex   -7.717113e+001 3.584106e+001 1.770503e+000
      vertex   -7.717113e+001 6.334956e+000 1.770503e+000
      vertex   -7.717113e+001 3.584106e+001 1.523950e+001
    endloop
  endfacet
  facet normal 6.661338e-016 -4.436382e-016 -1.000000e+000
    outer loop
      vertex   -1.000000e-002 7.770503e+000 1.770503e+000
      vertex   1.990000e+000 7.770503e+000 1.770503e+000
      vertex   -1.000000e-002 -2.276050e+001 1.770503e+000
    endloop
  endfacet
  facet normal 6.661338e-016 -4.363655e-016 -1.000000e+000
    outer loop
      vertex   -1.000000e-002 7.770503e+000 1.770503e+000
      vertex   -1.000000e-002 3.830151e+001 1.770503e+000
      vertex   1.990000e+000 7.770503e+000 1.770503e+000
    endloop
  endfacet
  facet normal 1.379016e-016 -4.709685e-016 -1.000000e+000
    outer loop
      vertex   1.990000e+000 7.770503e+000 1.770503e+000
      vertex   -1.000000e-002 3.830151e+001 1.770503e+000
      vertex   1.990000e+000 4.030151e+001 1.770503e+000
    endloop
  endfacet
  facet normal 0.000000e+000 -3.330669e-016 -1.000000e+000
    outer loop
      vertex   1.990000e+000 4.030151e+001 1.770503e+000
      vertex   -1.000000e-002 3.830151e+001 1.770503e+000
      vertex   -1.440713e+001 4.030151e+001 1.770503e+000
    endloop
  endfacet
  facet normal -0.000000e+000 -3.330669e-016 -1.000000e+000
    outer loop
      vertex   -1.440713e+001 4.030151e+001 1.770503e+000
      vertex   -1.000000e-002 3.830151e+001 1.770503e+000
      vertex   -1.369896e+001 3.830151e+001 1.770503e+000
    endloop
  endfacet
  facet normal -8.231141e-018 -4.285513e-016 -1.000000e+000
    outer loop
      vertex   -3.743171e+001 2.165910e+001 1.770503e+000
      vertex   -1.369896e+001 3.830151e+001 1.770503e+000
      vertex   -3.807763e+001 1.856274e+001 1.770503e+000
    endloop
  endfacet
  facet normal -3.691570e-016 1.721556e-017 -1.000000e+000
    outer loop
      vertex   -6.045629e+001 3.016698e+000 1.770503e+000
      vertex   -3.807763e+001 1.856274e+001 1.770503e+000
      vertex   -6.245629e+001 -1.176030e+000 1.770503e+000
    endloop
  endfacet
  facet normal 6.506240e-016 -4.692366e-016 -1.000000e+000
    outer loop
      vertex   -6.245629e+001 3.384106e+001 1.770503e+000
      vertex   -6.045629e+001 3.016698e+000 1.770503e+000
      vertex   -6.245629e+001 -1.176030e+000 1.770503e+000
    endloop
  endfacet
  facet normal 2.717733e-016 -4.938179e-016 -1.000000e+000
    outer loop
      vertex   -6.245629e+001 3.384106e+001 1.770503e+000
      vertex   -6.045629e+001 3.584106e+001 1.770503e+000
      vertex   -6.045629e+001 3.016698e+000 1.770503e+000
    endloop
  endfacet
  facet normal -0.000000e+000 -2.220446e-016 -1.000000e+000
    outer loop
      vertex   -6.245629e+001 3.384106e+001 1.770503e+000
      vertex   -7.517113e+001 3.384106e+001 1.770503e+000
      vertex   -6.045629e+001 3.584106e+001 1.770503e+000
    endloop
  endfacet
  facet normal 0.000000e+000 -2.220446e-016 -1.000000e+000
    outer loop
      vertex   -6.045629e+001 3.584106e+001 1.770503e+000
      vertex   -7.517113e+001 3.384106e+001 1.770503e+000
      vertex   -7.717113e+001 3.584106e+001 1.770503e+000
    endloop
  endfacet
  facet normal -2.821558e-016 -5.042004e-016 -1.000000e+000
    outer loop
      vertex   -7.717113e+001 3.584106e+001 1.770503e+000
      vertex   -7.517113e+001 3.384106e+001 1.770503e+000
      vertex   -7.717113e+001 6.334956e+000 1.770503e+000
    endloop
  endfacet
  facet normal -8.881784e-016 -4.601358e-016 -1.000000e+000
    outer loop
      vertex   -7.717113e+001 6.334956e+000 1.770503e+000
      vertex   -7.517113e+001 3.384106e+001 1.770503e+000
      vertex   -7.517113e+001 -2.117115e+001 1.770503e+000
    endloop
  endfacet
  facet normal 0.000000e+000 -3.330669e-016 -1.000000e+000
    outer loop
      vertex   -7.717113e+001 -2.317115e+001 1.770503e+000
      vertex   -7.517113e+001 -2.117115e+001 1.770503e+000
      vertex   -6.266945e+001 -2.317115e+001 1.770503e+000
    endloop
  endfacet
  facet normal 5.825279e-017 -3.913197e-016 -1.000000e+000
    outer loop
      vertex   -7.717113e+001 -2.317115e+001 1.770503e+000
      vertex   -7.717113e+001 6.334956e+000 1.770503e+000
      vertex   -7.517113e+001 -2.117115e+001 1.770503e+000
    endloop
  endfacet
  facet normal -6.023315e-017 -3.543943e-016 -1.000000e+000
    outer loop
      vertex   -1.440713e+001 4.030151e+001 1.770503e+000
      vertex   -1.369896e+001 3.830151e+001 1.770503e+000
      vertex   -3.743171e+001 2.165910e+001 1.770503e+000
    endloop
  endfacet
  facet normal -6.817823e-017 -4.160460e-016 -1.000000e+000
    outer loop
      vertex   -3.743171e+001 2.165910e+001 1.770503e+000
      vertex   -3.807763e+001 1.856274e+001 1.770503e+000
      vertex   -6.045629e+001 3.016698e+000 1.770503e+000
    endloop
  endfacet
  facet normal 0.000000e+000 -3.330669e-016 -1.000000e+000
    outer loop
      vertex   -7.517113e+001 -2.117115e+001 1.770503e+000
      vertex   -6.337914e+001 -2.117115e+001 1.770503e+000
      vertex   -6.266945e+001 -2.317115e+001 1.770503e+000
    endloop
  endfacet
  facet normal -4.865115e-017 -3.503307e-016 -1.000000e+000
    outer loop
      vertex   -6.266945e+001 -2.317115e+001 1.770503e+000
      vertex   -6.337914e+001 -2.117115e+001 1.770503e+000
      vertex   -3.867151e+001 -3.686474e+000 1.770503e+000
    endloop
  endfacet
  facet normal 1.277442e-016 -5.995953e-016 -1.000000e+000
    outer loop
      vertex   -3.867151e+001 -3.686474e+000 1.770503e+000
      vertex   -6.337914e+001 -2.117115e+001 1.770503e+000
      vertex   -3.802636e+001 -5.864307e-001 1.770503e+000
    endloop
  endfacet
  facet normal -2.769487e-016 -7.958907e-017 -1.000000e+000
    outer loop
      vertex   -1.467357e+001 1.579820e+001 1.770503e+000
      vertex   -3.802636e+001 -5.864307e-001 1.770503e+000
      vertex   -1.267357e+001 1.999829e+001 1.770503e+000
    endloop
  endfacet
  facet normal 4.610620e-016 -4.310155e-016 -1.000000e+000
    outer loop
      vertex   -1.267357e+001 -2.276050e+001 1.770503e+000
      vertex   -1.467357e+001 1.579820e+001 1.770503e+000
      vertex   -1.267357e+001 1.999829e+001 1.770503e+000
    endloop
  endfacet
  facet normal 3.269495e-016 -4.379718e-016 -1.000000e+000
    outer loop
      vertex   -1.267357e+001 -2.276050e+001 1.770503e+000
      vertex   -1.467357e+001 -2.476050e+001 1.770503e+000
      vertex   -1.467357e+001 1.579820e+001 1.770503e+000
    endloop
  endfacet
  facet normal 1.557343e-031 -1.110223e-016 -1.000000e+000
    outer loop
      vertex   -1.267357e+001 -2.276050e+001 1.770503e+000
      vertex   -1.000000e-002 -2.276050e+001 1.770503e+000
      vertex   -1.467357e+001 -2.476050e+001 1.770503e+000
    endloop
  endfacet
  facet normal 0.000000e+000 -1.110223e-016 -1.000000e+000
    outer loop
      vertex   -1.467357e+001 -2.476050e+001 1.770503e+000
      vertex   -1.000000e-002 -2.276050e+001 1.770503e+000
      vertex   1.990000e+000 -2.476050e+001 1.770503e+000
    endloop
  endfacet
  facet normal -2.712130e-016 -3.822353e-016 -1.000000e+000
    outer loop
      vertex   1.990000e+000 -2.476050e+001 1.770503e+000
      vertex   -1.000000e-002 -2.276050e+001 1.770503e+000
      vertex   1.990000e+000 7.770503e+000 1.770503e+000
    endloop
  endfacet
  facet normal 8.108131e-017 -5.898842e-016 -1.000000e+000
    outer loop
      vertex   -3.867151e+001 -3.686474e+000 1.770503e+000
      vertex   -3.802636e+001 -5.864307e-001 1.770503e+000
      vertex   -1.467357e+001 1.579820e+001 1.770503e+000
    endloop
  endfacet
  facet normal 1.000000e+000 3.412815e-017 -3.297122e-017
    outer loop
      vertex   1.990000e+000 4.030151e+001 1.523950e+001
      vertex   1.990000e+000 7.770503e+000 1.523950e+001
      vertex   1.990000e+000 4.030151e+001 1.770503e+000
    endloop
  endfacet
  facet normal 1.000000e+000 4.095378e-017 -1.648561e-017
    outer loop
      vertex   1.990000e+000 4.030151e+001 1.770503e+000
      vertex   1.990000e+000 7.770503e+000 1.523950e+001
      vertex   1.990000e+000 7.770503e+000 1.770503e+000
    endloop
  endfacet
  facet normal 1.000000e+000 6.143067e-017 -1.648561e-017
    outer loop
      vertex   1.990000e+000 7.770503e+000 1.770503e+000
      vertex   1.990000e+000 7.770503e+000 1.523950e+001
      vertex   1.990000e+000 -2.476050e+001 1.523950e+001
    endloop
  endfacet
  facet normal 1.000000e+000 7.508193e-017 1.648561e-017
    outer loop
      vertex   1.990000e+000 -2.476050e+001 1.770503e+000
      vertex   1.990000e+000 7.770503e+000 1.770503e+000
      vertex   1.990000e+000 -2.476050e+001 1.523950e+001
    endloop
  endfacet
  facet normal -0.000000e+000 1.000000e+000 0.000000e+000
    outer loop
      vertex   -1.440713e+001 4.030151e+001 1.523950e+001
      vertex   1.990000e+000 4.030151e+001 1.523950e+001
      vertex   -1.440713e+001 4.030151e+001 1.770503e+000
    endloop
  endfacet
  facet normal -0.000000e+000 1.000000e+000 0.000000e+000
    outer loop
      vertex   -1.440713e+001 4.030151e+001 1.770503e+000
      vertex   1.990000e+000 4.030151e+001 1.523950e+001
      vertex   1.990000e+000 4.030151e+001 1.770503e+000
    endloop
  endfacet
  facet normal -6.292688e-001 7.771878e-001 -1.424555e-016
    outer loop
      vertex   -6.045629e+001 3.016698e+000 1.523950e+001
      vertex   -3.743171e+001 2.165910e+001 1.523950e+001
      vertex   -6.045629e+001 3.016698e+000 1.770503e+000
    endloop
  endfacet
  facet normal -6.292688e-001 7.771878e-001 -3.319642e-016
    outer loop
      vertex   -6.045629e+001 3.016698e+000 1.770503e+000
      vertex   -3.743171e+001 2.165910e+001 1.523950e+001
      vertex   -3.743171e+001 2.165910e+001 1.770503e+000
    endloop
  endfacet
  facet normal -6.292688e-001 7.771878e-001 -3.319642e-016
    outer loop
      vertex   -3.743171e+001 2.165910e+001 1.770503e+000
      vertex   -3.743171e+001 2.165910e+001 1.523950e+001
      vertex   -1.440713e+001 4.030151e+001 1.523950e+001
    endloop
  endfacet
  facet normal -6.292688e-001 7.771878e-001 -5.698220e-016
    outer loop
      vertex   -1.440713e+001 4.030151e+001 1.770503e+000
      vertex   -3.743171e+001 2.165910e+001 1.770503e+000
      vertex   -1.440713e+001 4.030151e+001 1.523950e+001
    endloop
  endfacet
  facet normal 1.000000e+000 4.329362e-016 1.055079e-015
    outer loop
      vertex   -6.045629e+001 3.584106e+001 1.523950e+001
      vertex   -6.045629e+001 3.016698e+000 1.523950e+001
      vertex   -6.045629e+001 3.584106e+001 1.770503e+000
    endloop
  endfacet
  facet normal 1.000000e+000 0.000000e+000 0.000000e+000
    outer loop
      vertex   -6.045629e+001 3.584106e+001 1.770503e+000
      vertex   -6.045629e+001 3.016698e+000 1.523950e+001
      vertex   -6.045629e+001 3.016698e+000 1.770503e+000
    endloop
  endfacet
  facet normal 4.250968e-016 1.000000e+000 -5.275396e-016
    outer loop
      vertex   -7.717113e+001 3.584106e+001 1.523950e+001
      vertex   -6.045629e+001 3.584106e+001 1.523950e+001
      vertex   -7.717113e+001 3.584106e+001 1.770503e+000
    endloop
  endfacet
  facet normal -0.000000e+000 1.000000e+000 0.000000e+000
    outer loop
      vertex   -7.717113e+001 3.584106e+001 1.770503e+000
      vertex   -6.045629e+001 3.584106e+001 1.523950e+001
      vertex   -6.045629e+001 3.584106e+001 1.770503e+000
    endloop
  endfacet
  facet normal -1.000000e+000 -6.034116e-017 0.000000e+000
    outer loop
      vertex   -1.000000e-002 -2.276050e+001 1.523950e+001
      vertex   -1.000000e-002 7.770503e+000 1.523950e+001
      vertex   -1.000000e-002 -2.276050e+001 1.770503e+000
    endloop
  endfacet
  facet normal -1.000000e+000 -6.119344e-017 1.931908e-018
    outer loop
      vertex   -1.000000e-002 -2.276050e+001 1.770503e+000
      vertex   -1.000000e-002 7.770503e+000 1.523950e+001
      vertex   -1.000000e-002 7.770503e+000 1.770503e+000
    endloop
  endfacet
  facet normal -1.000000e+000 6.034116e-017 1.931908e-018
    outer loop
      vertex   -1.000000e-002 7.770503e+000 1.770503e+000
      vertex   -1.000000e-002 7.770503e+000 1.523950e+001
      vertex   -1.000000e-002 3.830151e+001 1.523950e+001
    endloop
  endfacet
  facet normal -1.000000e+000 6.119344e-017 -3.069334e-032
    outer loop
      vertex   -1.000000e-002 3.830151e+001 1.770503e+000
      vertex   -1.000000e-002 7.770503e+000 1.770503e+000
      vertex   -1.000000e-002 3.830151e+001 1.523950e+001
    endloop
  endfacet
  facet normal -5.610918e-016 1.000000e+000 -7.913094e-016
    outer loop
      vertex   -1.267357e+001 -2.276050e+001 1.523950e+001
      vertex   -1.000000e-002 -2.276050e+001 1.523950e+001
      vertex   -1.267357e+001 -2.276050e+001 1.770503e+000
    endloop
  endfacet
  facet normal -1.402729e-015 1.000000e+000 0.000000e+000
    outer loop
      vertex   -1.267357e+001 -2.276050e+001 1.770503e+000
      vertex   -1.000000e-002 -2.276050e+001 1.523950e+001
      vertex   -1.000000e-002 -2.276050e+001 1.770503e+000
    endloop
  endfacet
  facet normal 1.000000e+000 4.154367e-017 -2.191593e-032
    outer loop
      vertex   -1.267357e+001 1.999829e+001 1.523950e+001
      vertex   -1.267357e+001 -2.276050e+001 1.523950e+001
      vertex   -1.267357e+001 1.999829e+001 1.770503e+000
    endloop
  endfacet
  facet normal 1.000000e+000 4.154367e-017 -3.287389e-032
    outer loop
      vertex   -1.267357e+001 1.999829e+001 1.770503e+000
      vertex   -1.267357e+001 -2.276050e+001 1.523950e+001
      vertex   -1.267357e+001 -2.276050e+001 1.770503e+000
    endloop
  endfacet
  facet normal -6.303266e-001 7.763301e-001 -7.753844e-016
    outer loop
      vertex   -6.337914e+001 -2.117115e+001 1.523950e+001
      vertex   -3.802636e+001 -5.864307e-001 1.523950e+001
      vertex   -6.337914e+001 -2.117115e+001 1.770503e+000
    endloop
  endfacet
  facet normal -6.303266e-001 7.763301e-001 -1.279362e-015
    outer loop
      vertex   -6.337914e+001 -2.117115e+001 1.770503e+000
      vertex   -3.802636e+001 -5.864307e-001 1.523950e+001
      vertex   -3.802636e+001 -5.864307e-001 1.770503e+000
    endloop
  endfacet
  facet normal -6.303266e-001 7.763301e-001 -1.279362e-015
    outer loop
      vertex   -3.802636e+001 -5.864307e-001 1.770503e+000
      vertex   -3.802636e+001 -5.864307e-001 1.523950e+001
      vertex   -1.267357e+001 1.999829e+001 1.523950e+001
    endloop
  endfacet
  facet normal -6.303266e-001 7.763301e-001 -5.169229e-016
    outer loop
      vertex   -1.267357e+001 1.999829e+001 1.770503e+000
      vertex   -3.802636e+001 -5.864307e-001 1.770503e+000
      vertex   -1.267357e+001 1.999829e+001 1.523950e+001
    endloop
  endfacet
  facet normal 0.000000e+000 1.000000e+000 -7.913094e-016
    outer loop
      vertex   -7.517113e+001 -2.117115e+001 1.523950e+001
      vertex   -6.337914e+001 -2.117115e+001 1.523950e+001
      vertex   -7.517113e+001 -2.117115e+001 1.770503e+000
    endloop
  endfacet
  facet normal 0.000000e+000 1.000000e+000 -7.913094e-016
    outer loop
      vertex   -7.517113e+001 -2.117115e+001 1.770503e+000
      vertex   -6.337914e+001 -2.117115e+001 1.523950e+001
      vertex   -6.337914e+001 -2.117115e+001 1.770503e+000
    endloop
  endfacet
endsolid
